M48
; DRILL file {KiCad (6.0.7-1)-1} date Saturday, February 25, 2023 at 12:48:49 PM
; FORMAT={-:-/ absolute / metric / decimal}
; #@! TF.CreationDate,2023-02-25T12:48:49-05:00
; #@! TF.GenerationSoftware,Kicad,Pcbnew,(6.0.7-1)-1
; #@! TF.FileFunction,Plated,1,4,PTH
FMAT,2
METRIC
; #@! TA.AperFunction,Plated,PTH,ViaDrill
T1C0.200
; #@! TA.AperFunction,Plated,PTH,ComponentDrill
T2C0.200
; #@! TA.AperFunction,Plated,PTH,ViaDrill
T3C0.400
; #@! TA.AperFunction,Plated,PTH,ComponentDrill
T4C0.400
; #@! TA.AperFunction,Plated,PTH,ComponentDrill
T5C0.600
; #@! TA.AperFunction,Plated,PTH,ComponentDrill
T6C1.000
; #@! TA.AperFunction,Plated,PTH,ComponentDrill
T7C1.280
; #@! TA.AperFunction,Plated,PTH,ComponentDrill
T8C1.300
; #@! TA.AperFunction,Plated,PTH,ComponentDrill
T9C3.200
%
G90
G05
T1
X35.55Y-87.325
X35.85Y-62.375
X36.0Y-92.6
X36.075Y-57.575
X36.75Y-121.7
X41.55Y-115.513
X42.45Y-116.0
X43.2Y-72.975
X43.725Y-73.525
X45.325Y-87.95
X45.75Y-98.6
X45.837Y-75.825
X45.85Y-88.775
X46.0Y-72.775
X46.375Y-89.325
X46.525Y-69.4
X46.525Y-72.025
X46.67Y-83.45
X46.67Y-86.58
X46.725Y-79.025
X46.85Y-98.6
X47.1Y-71.575
X47.325Y-87.55
X47.35Y-70.775
X47.55Y-98.113
X47.812Y-79.09
X47.812Y-81.75
X47.99Y-48.91
X48.0Y-58.96
X48.03Y-61.16
X48.031Y-91.991
X48.19Y-87.8
X48.2Y-70.2
X48.627Y-77.53
X48.75Y-120.1
X48.75Y-121.4
X49.25Y-120.1
X49.25Y-121.4
X49.33Y-77.987
X49.412Y-72.93
X49.45Y-67.39
X49.5Y-87.33
X49.683Y-70.58
X49.75Y-120.1
X49.75Y-121.4
X49.78Y-48.06
X50.02Y-33.91
X50.09Y-82.37
X50.25Y-120.1
X50.25Y-121.4
X50.38Y-72.94
X50.75Y-120.1
X50.75Y-121.4
X50.975Y-70.175
X51.25Y-66.8
X51.25Y-120.1
X51.25Y-121.4
X51.32Y-93.97
X51.68Y-70.17
X51.692Y-81.2
X51.75Y-120.1
X51.75Y-121.4
X52.15Y-119.8
X52.163Y-81.95
X52.2Y-63.563
X52.25Y-121.4
X52.45Y-114.2
X52.45Y-114.7
X52.45Y-115.2
X52.45Y-115.7
X52.45Y-116.2
X52.45Y-116.7
X52.45Y-118.4
X52.45Y-118.9
X52.45Y-119.4
X52.54Y-72.99
X52.75Y-121.2
X53.15Y-76.9
X53.15Y-120.8
X53.197Y-78.03
X53.32Y-73.01
X53.35Y-76.0
X53.425Y-85.35
X53.444Y-84.556
X53.45Y-120.4
X53.75Y-70.09
X53.75Y-120.0
X53.76Y-70.86
X53.79Y-69.06
X53.85Y-114.2
X53.85Y-114.7
X53.85Y-115.2
X53.85Y-115.7
X53.85Y-116.2
X53.85Y-116.7
X53.85Y-117.2
X53.85Y-117.8
X53.85Y-118.4
X53.85Y-118.9
X53.85Y-119.4
X53.95Y-83.9
X54.35Y-72.0
X54.375Y-85.925
X54.875Y-64.05
X54.875Y-64.925
X54.875Y-65.9
X55.08Y-67.35
X55.65Y-68.0
X55.65Y-70.9
X55.65Y-75.6
X55.825Y-31.225
X55.85Y-30.375
X55.925Y-96.175
X56.2Y-76.35
X56.375Y-77.3
X56.4Y-82.75
X57.15Y-68.0
X57.15Y-70.9
X57.62Y-67.16
X58.08Y-71.84
X58.42Y-68.53
X58.93Y-69.06
X59.54Y-69.547
X60.26Y-70.034
X60.8Y-96.2
X61.075Y-82.25
X62.7Y-83.062
X64.53Y-76.02
X64.53Y-76.81
X65.35Y-67.4
X66.33Y-76.81
X66.35Y-76.02
X69.37Y-86.59
X70.425Y-71.9
X70.9Y-88.87
X71.05Y-86.7
X71.97Y-84.33
X72.67Y-84.32
X78.05Y-51.4
X78.537Y-52.55
X79.024Y-53.68
X82.25Y-84.3
X83.0Y-84.28
X83.45Y-51.4
X83.46Y-52.57
X83.475Y-42.325
X83.475Y-43.2
X83.475Y-45.0
X83.5Y-44.15
X83.5Y-53.7
X83.54Y-54.84
X83.82Y-84.31
X83.84Y-98.239
X84.3Y-99.29
X85.05Y-100.4
X87.01Y-98.24
X87.01Y-99.3
X87.03Y-100.4
X87.07Y-101.5
X87.55Y-40.825
X87.55Y-41.975
X87.575Y-43.125
X87.6Y-44.275
X87.6Y-51.4
X87.6Y-52.575
X87.6Y-54.85
X87.625Y-53.7
X88.03Y-89.22
X88.03Y-90.51
X88.05Y-86.7
X88.07Y-87.97
X92.19Y-95.68
X92.776Y-79.876
X93.7Y-80.8
X95.35Y-100.9
X95.85Y-100.9
X96.35Y-100.9
X96.85Y-100.9
X97.15Y-94.9
X97.35Y-100.9
X97.45Y-96.35
X97.65Y-94.9
X97.85Y-100.9
X98.0Y-96.35
X98.15Y-94.9
X98.35Y-100.9
X98.55Y-96.35
X98.65Y-94.9
X98.85Y-100.9
X99.1Y-96.35
X99.15Y-94.9
X99.35Y-100.9
X99.65Y-94.9
X99.65Y-96.35
X99.85Y-100.9
X100.15Y-94.9
X100.2Y-96.35
X100.25Y-47.15
X100.25Y-52.45
X100.35Y-100.9
X100.65Y-94.9
X100.75Y-47.15
X100.75Y-52.45
X100.75Y-96.35
X100.85Y-100.9
X101.15Y-94.9
X101.165Y-48.6
X101.25Y-47.15
X101.25Y-52.45
X101.35Y-100.9
X101.4Y-97.95
X101.4Y-99.35
X101.65Y-94.9
X101.75Y-47.15
X101.75Y-52.45
X101.765Y-48.6
X101.85Y-100.9
X102.15Y-94.9
X102.25Y-47.15
X102.25Y-52.45
X102.35Y-100.9
X102.365Y-48.6
X102.65Y-94.9
X102.75Y-47.15
X102.75Y-52.45
X102.85Y-100.9
X102.965Y-48.6
X103.2Y-95.25
X103.2Y-95.8
X103.25Y-47.15
X103.25Y-52.45
X103.35Y-100.9
X103.4Y-96.3
X103.4Y-97.95
X103.4Y-99.35
X103.565Y-48.6
X103.6Y-51.4
X103.75Y-47.15
X103.75Y-52.45
X103.85Y-100.9
X103.9Y-96.3
X103.9Y-97.95
X103.9Y-99.35
X104.15Y-51.4
X104.165Y-48.6
X104.25Y-47.15
X104.25Y-52.45
X104.35Y-100.9
X104.4Y-96.3
X104.4Y-97.95
X104.4Y-99.35
X104.65Y-51.4
X104.75Y-47.15
X104.765Y-48.6
X104.8Y-52.45
X104.85Y-100.9
X104.9Y-96.3
X104.9Y-97.95
X104.9Y-99.35
X105.25Y-47.15
X105.25Y-50.35
X105.25Y-50.85
X105.25Y-51.4
X105.3Y-52.45
X105.35Y-100.9
X105.365Y-48.6
X105.4Y-96.3
X105.4Y-97.95
X105.4Y-99.35
X105.75Y-47.15
X105.8Y-52.45
X105.85Y-100.9
X105.9Y-96.3
X105.9Y-97.95
X105.9Y-99.35
X106.25Y-47.15
X106.3Y-52.45
X106.35Y-100.9
X106.4Y-96.3
X106.75Y-47.15
X106.8Y-52.45
X106.85Y-100.9
X106.9Y-73.5
X106.9Y-96.3
X107.1Y-95.25
X107.1Y-95.8
X107.25Y-47.15
X107.3Y-52.45
X107.35Y-100.9
X107.5Y-50.5
X107.5Y-51.0
X107.5Y-51.55
X107.6Y-94.95
X107.7Y-73.5
X107.75Y-47.15
X107.75Y-97.95
X107.75Y-99.35
X107.8Y-52.45
X107.85Y-100.9
X108.1Y-94.95
X108.25Y-47.15
X108.3Y-52.45
X108.35Y-100.9
X108.4Y-51.55
X108.6Y-94.95
X108.75Y-47.15
X108.8Y-52.45
X108.85Y-100.9
X108.95Y-51.55
X109.1Y-94.95
X109.25Y-47.15
X109.35Y-52.45
X109.35Y-100.9
X109.45Y-51.55
X109.6Y-94.95
X109.6Y-95.6
X109.75Y-47.15
X109.85Y-52.45
X109.85Y-100.9
X109.95Y-99.35
X110.1Y-95.6
X110.15Y-74.85
X110.25Y-47.15
X110.35Y-52.45
X110.35Y-100.9
X110.45Y-50.5
X110.45Y-51.0
X110.45Y-51.55
X110.6Y-95.6
X110.75Y-47.15
X110.85Y-52.45
X110.85Y-100.9
X111.1Y-95.6
X111.25Y-47.15
X111.35Y-52.45
X111.35Y-100.9
X111.6Y-95.6
X111.75Y-47.15
X111.85Y-52.45
X112.25Y-47.15
X112.35Y-52.45
X112.6Y-48.4
X112.7Y-50.6
X112.7Y-51.1
X112.7Y-51.65
X112.75Y-47.15
X112.85Y-52.45
X113.1Y-48.4
X113.2Y-97.8
X113.25Y-47.15
X113.35Y-52.45
X113.65Y-48.4
X113.7Y-97.8
X114.2Y-97.8
X114.5Y-50.1
X114.7Y-97.8
X115.05Y-50.1
X115.2Y-97.8
X115.55Y-50.1
X116.1Y-48.65
X116.1Y-50.1
X116.65Y-48.65
X116.65Y-50.1
X116.8Y-72.75
X117.15Y-48.65
X117.15Y-50.1
X117.35Y-72.75
X117.7Y-48.65
X117.7Y-50.1
X117.9Y-72.75
X118.25Y-48.65
X118.25Y-50.1
X118.45Y-72.75
X118.55Y-96.35
X118.55Y-97.75
X118.75Y-48.65
X118.75Y-50.1
X118.9Y-71.9
X119.05Y-96.35
X119.05Y-97.75
X119.55Y-75.45
X119.55Y-77.45
X119.55Y-96.35
X119.55Y-97.75
X119.9Y-49.35
X119.9Y-50.7
X120.05Y-96.35
X120.05Y-97.75
X120.1Y-72.125
X120.25Y-73.8
X120.25Y-74.3
X120.25Y-74.8
X120.45Y-49.35
X120.45Y-50.7
X120.55Y-96.35
X120.55Y-97.75
X120.95Y-49.35
X120.95Y-50.7
X121.1Y-96.35
X121.1Y-97.75
X121.6Y-96.35
X121.6Y-97.75
X123.75Y-73.087
X124.975Y-72.125
T2
X49.475Y-35.9
X49.475Y-38.1
X51.675Y-35.9
X51.675Y-38.1
T3
X31.75Y-35.0
X31.75Y-36.0
X31.75Y-37.0
X31.75Y-38.0
X32.75Y-35.0
X32.75Y-36.0
X32.75Y-37.0
X32.75Y-38.0
X33.75Y-35.0
X33.75Y-36.0
X33.75Y-37.0
X33.75Y-38.0
X35.275Y-57.875
X40.55Y-33.1
X41.35Y-98.6
X42.05Y-92.05
X42.425Y-62.05
X43.05Y-117.8
X44.5Y-47.8
X46.85Y-111.1
X50.17Y-80.67
X50.705Y-30.655
X51.55Y-33.95
X51.75Y-114.5
X52.76Y-66.62
X53.1Y-97.16
X53.95Y-79.9
X54.6Y-97.16
X54.85Y-79.0
X55.65Y-78.1
X55.65Y-79.9
X58.25Y-81.0
X58.25Y-82.0
X59.25Y-79.9
X59.25Y-81.0
X59.25Y-82.0
X59.25Y-109.9
X59.35Y-75.6
X59.35Y-76.9
X60.45Y-75.6
X60.45Y-76.8
X60.45Y-77.8
X60.45Y-78.8
X60.45Y-79.9
X60.45Y-81.0
X62.15Y-71.5
X62.15Y-72.5
X65.55Y-34.8
X65.65Y-30.9
X66.92Y-80.7
X70.15Y-114.7
X70.85Y-30.6
X72.475Y-73.425
X75.75Y-60.3
X78.65Y-40.05
X89.12Y-96.91
X92.175Y-51.95
X95.53Y-90.46
X97.025Y-42.925
X97.272Y-99.08
X99.13Y-89.32
X100.025Y-41.325
X100.609Y-51.05
X105.3Y-77.6
X106.9Y-77.6
X110.05Y-77.45
X112.25Y-95.1
X119.65Y-112.8
X120.25Y-80.6
X121.7Y-78.25
X122.8Y-78.25
X123.85Y-78.25
X125.075Y-56.25
X126.15Y-104.4
T4
X32.425Y-57.025
X32.425Y-57.875
X32.425Y-58.725
X32.425Y-59.575
X32.425Y-60.425
X32.425Y-61.275
X32.425Y-62.125
X32.425Y-62.975
X32.425Y-87.025
X32.425Y-87.875
X32.425Y-88.725
X32.425Y-89.575
X32.425Y-90.425
X32.425Y-91.275
X32.425Y-92.125
X32.425Y-92.975
X33.775Y-57.025
X33.775Y-57.875
X33.775Y-58.725
X33.775Y-59.575
X33.775Y-60.425
X33.775Y-61.275
X33.775Y-62.125
X33.775Y-62.975
X33.775Y-87.025
X33.775Y-87.875
X33.775Y-88.725
X33.775Y-89.575
X33.775Y-90.425
X33.775Y-91.275
X33.775Y-92.125
X33.775Y-92.975
T6
X32.025Y-82.15
X34.45Y-100.92
X34.45Y-103.46
X34.45Y-106.0
X34.565Y-82.15
X37.105Y-82.15
X39.645Y-82.15
X42.185Y-82.15
X47.25Y-120.75
X123.0Y-50.0
X123.0Y-97.025
T7
X44.85Y-118.35
X44.85Y-123.15
X49.65Y-118.35
X49.65Y-123.15
X120.6Y-47.6
X120.6Y-52.4
X120.6Y-94.625
X120.6Y-99.425
X125.4Y-47.6
X125.4Y-52.4
X125.4Y-94.625
X125.4Y-99.425
T8
X78.25Y-29.337
X83.25Y-29.337
T9
X32.0Y-29.25
X32.0Y-120.75
X123.25Y-29.25
X123.25Y-120.75
T5
X29.815Y-55.675G85X29.015Y-55.675
G05
X29.815Y-64.325G85X29.015Y-64.325
G05
X29.815Y-85.675G85X29.015Y-85.675
G05
X29.815Y-94.325G85X29.015Y-94.325
G05
X33.545Y-55.675G85X32.045Y-55.675
G05
X33.545Y-64.325G85X32.045Y-64.325
G05
X33.545Y-85.675G85X32.045Y-85.675
G05
X33.545Y-94.325G85X32.045Y-94.325
G05
T0
M30
