%TF.GenerationSoftware,KiCad,Pcbnew,(6.0.7-1)-1*%
%TF.CreationDate,2023-02-28T10:44:53-05:00*%
%TF.ProjectId,HABBoard,48414242-6f61-4726-942e-6b696361645f,rev?*%
%TF.SameCoordinates,Original*%
%TF.FileFunction,Legend,Top*%
%TF.FilePolarity,Positive*%
%FSLAX46Y46*%
G04 Gerber Fmt 4.6, Leading zero omitted, Abs format (unit mm)*
G04 Created by KiCad (PCBNEW (6.0.7-1)-1) date 2023-02-28 10:44:53*
%MOMM*%
%LPD*%
G01*
G04 APERTURE LIST*
G04 Aperture macros list*
%AMRoundRect*
0 Rectangle with rounded corners*
0 $1 Rounding radius*
0 $2 $3 $4 $5 $6 $7 $8 $9 X,Y pos of 4 corners*
0 Add a 4 corners polygon primitive as box body*
4,1,4,$2,$3,$4,$5,$6,$7,$8,$9,$2,$3,0*
0 Add four circle primitives for the rounded corners*
1,1,$1+$1,$2,$3*
1,1,$1+$1,$4,$5*
1,1,$1+$1,$6,$7*
1,1,$1+$1,$8,$9*
0 Add four rect primitives between the rounded corners*
20,1,$1+$1,$2,$3,$4,$5,0*
20,1,$1+$1,$4,$5,$6,$7,0*
20,1,$1+$1,$6,$7,$8,$9,0*
20,1,$1+$1,$8,$9,$2,$3,0*%
G04 Aperture macros list end*
%ADD10C,0.300000*%
%ADD11C,0.254000*%
%ADD12C,0.150000*%
%ADD13C,0.100000*%
%ADD14C,0.200000*%
%ADD15C,0.120000*%
%ADD16C,0.127000*%
%ADD17R,0.700000X1.000000*%
%ADD18RoundRect,0.140000X-0.140000X-0.170000X0.140000X-0.170000X0.140000X0.170000X-0.140000X0.170000X0*%
%ADD19RoundRect,0.140000X0.170000X-0.140000X0.170000X0.140000X-0.170000X0.140000X-0.170000X-0.140000X0*%
%ADD20RoundRect,0.140000X-0.170000X0.140000X-0.170000X-0.140000X0.170000X-0.140000X0.170000X0.140000X0*%
%ADD21C,1.000000*%
%ADD22RoundRect,0.135000X0.185000X-0.135000X0.185000X0.135000X-0.185000X0.135000X-0.185000X-0.135000X0*%
%ADD23RoundRect,0.135000X0.135000X0.185000X-0.135000X0.185000X-0.135000X-0.185000X0.135000X-0.185000X0*%
%ADD24R,4.800000X4.800000*%
%ADD25RoundRect,0.075000X-0.312500X0.075000X-0.312500X-0.075000X0.312500X-0.075000X0.312500X0.075000X0*%
%ADD26RoundRect,0.075000X-0.075000X0.312500X-0.075000X-0.312500X0.075000X-0.312500X0.075000X0.312500X0*%
%ADD27R,1.000000X0.700000*%
%ADD28R,0.600000X0.700000*%
%ADD29R,0.980000X3.400000*%
%ADD30RoundRect,0.147500X-0.147500X-0.172500X0.147500X-0.172500X0.147500X0.172500X-0.147500X0.172500X0*%
%ADD31RoundRect,0.135000X-0.135000X-0.185000X0.135000X-0.185000X0.135000X0.185000X-0.135000X0.185000X0*%
%ADD32R,3.200000X3.200000*%
%ADD33RoundRect,0.050000X-0.387500X0.050000X-0.387500X-0.050000X0.387500X-0.050000X0.387500X0.050000X0*%
%ADD34RoundRect,0.050000X-0.050000X0.387500X-0.050000X-0.387500X0.050000X-0.387500X0.050000X0.387500X0*%
%ADD35RoundRect,0.012800X-0.317200X-0.147200X0.317200X-0.147200X0.317200X0.147200X-0.317200X0.147200X0*%
%ADD36RoundRect,0.225000X0.250000X-0.225000X0.250000X0.225000X-0.250000X0.225000X-0.250000X-0.225000X0*%
%ADD37R,0.900000X1.500000*%
%ADD38RoundRect,0.135000X-0.185000X0.135000X-0.185000X-0.135000X0.185000X-0.135000X0.185000X0.135000X0*%
%ADD39RoundRect,0.140000X0.140000X0.170000X-0.140000X0.170000X-0.140000X-0.170000X0.140000X-0.170000X0*%
%ADD40R,0.650000X0.400000*%
%ADD41RoundRect,0.250000X0.475000X-0.250000X0.475000X0.250000X-0.475000X0.250000X-0.475000X-0.250000X0*%
%ADD42RoundRect,0.100000X0.637500X0.100000X-0.637500X0.100000X-0.637500X-0.100000X0.637500X-0.100000X0*%
%ADD43RoundRect,0.250000X-0.475000X0.250000X-0.475000X-0.250000X0.475000X-0.250000X0.475000X0.250000X0*%
%ADD44R,2.400000X1.800000*%
%ADD45RoundRect,0.250000X-0.312500X-0.625000X0.312500X-0.625000X0.312500X0.625000X-0.312500X0.625000X0*%
%ADD46R,2.700000X2.700000*%
%ADD47RoundRect,0.062500X0.337500X-0.062500X0.337500X0.062500X-0.337500X0.062500X-0.337500X-0.062500X0*%
%ADD48RoundRect,0.062500X0.062500X-0.337500X0.062500X0.337500X-0.062500X0.337500X-0.062500X-0.337500X0*%
%ADD49O,1.700000X1.700000*%
%ADD50R,1.700000X1.700000*%
%ADD51RoundRect,0.225000X-0.225000X-0.250000X0.225000X-0.250000X0.225000X0.250000X-0.225000X0.250000X0*%
%ADD52RoundRect,0.150000X-0.512500X-0.150000X0.512500X-0.150000X0.512500X0.150000X-0.512500X0.150000X0*%
%ADD53R,1.500000X0.900000*%
%ADD54RoundRect,0.225000X0.225000X0.250000X-0.225000X0.250000X-0.225000X-0.250000X0.225000X-0.250000X0*%
%ADD55RoundRect,0.050000X0.050000X-0.225000X0.050000X0.225000X-0.050000X0.225000X-0.050000X-0.225000X0*%
%ADD56RoundRect,0.050000X0.225000X0.050000X-0.225000X0.050000X-0.225000X-0.050000X0.225000X-0.050000X0*%
%ADD57RoundRect,0.225000X-0.250000X0.225000X-0.250000X-0.225000X0.250000X-0.225000X0.250000X0.225000X0*%
%ADD58R,0.800000X1.800000*%
%ADD59RoundRect,0.150000X0.587500X0.150000X-0.587500X0.150000X-0.587500X-0.150000X0.587500X-0.150000X0*%
%ADD60O,1.700000X0.900000*%
%ADD61O,2.400000X0.900000*%
%ADD62C,0.700000*%
%ADD63RoundRect,0.218750X0.256250X-0.218750X0.256250X0.218750X-0.256250X0.218750X-0.256250X-0.218750X0*%
%ADD64RoundRect,0.125000X-0.125000X-0.137500X0.125000X-0.137500X0.125000X0.137500X-0.125000X0.137500X0*%
%ADD65R,2.500000X1.000000*%
%ADD66R,0.558800X0.254000*%
%ADD67R,0.254000X0.711200*%
%ADD68C,6.400000*%
%ADD69R,0.800000X1.200000*%
%ADD70R,1.500000X2.000000*%
%ADD71C,1.920000*%
%ADD72C,1.508000*%
%ADD73RoundRect,0.250000X-0.550000X1.250000X-0.550000X-1.250000X0.550000X-1.250000X0.550000X1.250000X0*%
%ADD74C,1.950000*%
%ADD75R,1.950000X1.950000*%
%ADD76R,0.700000X0.510000*%
%ADD77R,0.900000X0.800000*%
%ADD78R,0.990000X5.140000*%
%ADD79R,0.990000X3.000000*%
%ADD80R,3.590000X0.990000*%
%ADD81R,3.000000X0.990000*%
%ADD82R,2.990000X0.990000*%
%ADD83RoundRect,0.150000X0.150000X-0.587500X0.150000X0.587500X-0.150000X0.587500X-0.150000X-0.587500X0*%
%ADD84RoundRect,0.250000X0.250000X0.475000X-0.250000X0.475000X-0.250000X-0.475000X0.250000X-0.475000X0*%
%ADD85RoundRect,0.218750X-0.218750X-0.256250X0.218750X-0.256250X0.218750X0.256250X-0.218750X0.256250X0*%
%ADD86RoundRect,0.150000X-0.825000X-0.150000X0.825000X-0.150000X0.825000X0.150000X-0.825000X0.150000X0*%
%ADD87RoundRect,0.150000X-0.150000X0.650000X-0.150000X-0.650000X0.150000X-0.650000X0.150000X0.650000X0*%
G04 APERTURE END LIST*
D10*
X82000000Y-63891071D02*
X82000000Y-62391071D01*
X82000000Y-63105357D02*
X82857142Y-63105357D01*
X82857142Y-63891071D02*
X82857142Y-62391071D01*
X83571428Y-63891071D02*
X83571428Y-62891071D01*
X83571428Y-62391071D02*
X83500000Y-62462500D01*
X83571428Y-62533928D01*
X83642857Y-62462500D01*
X83571428Y-62391071D01*
X83571428Y-62533928D01*
X84928571Y-62891071D02*
X84928571Y-64105357D01*
X84857142Y-64248214D01*
X84785714Y-64319642D01*
X84642857Y-64391071D01*
X84428571Y-64391071D01*
X84285714Y-64319642D01*
X84928571Y-63819642D02*
X84785714Y-63891071D01*
X84500000Y-63891071D01*
X84357142Y-63819642D01*
X84285714Y-63748214D01*
X84214285Y-63605357D01*
X84214285Y-63176785D01*
X84285714Y-63033928D01*
X84357142Y-62962500D01*
X84500000Y-62891071D01*
X84785714Y-62891071D01*
X84928571Y-62962500D01*
X85642857Y-63891071D02*
X85642857Y-62391071D01*
X86285714Y-63891071D02*
X86285714Y-63105357D01*
X86214285Y-62962500D01*
X86071428Y-62891071D01*
X85857142Y-62891071D01*
X85714285Y-62962500D01*
X85642857Y-63033928D01*
X88071428Y-63462500D02*
X88785714Y-63462500D01*
X87928571Y-63891071D02*
X88428571Y-62391071D01*
X88928571Y-63891071D01*
X89642857Y-63891071D02*
X89500000Y-63819642D01*
X89428571Y-63676785D01*
X89428571Y-62391071D01*
X90000000Y-62891071D02*
X90571428Y-62891071D01*
X90214285Y-62391071D02*
X90214285Y-63676785D01*
X90285714Y-63819642D01*
X90428571Y-63891071D01*
X90571428Y-63891071D01*
X91071428Y-63891071D02*
X91071428Y-62891071D01*
X91071428Y-62391071D02*
X91000000Y-62462500D01*
X91071428Y-62533928D01*
X91142857Y-62462500D01*
X91071428Y-62391071D01*
X91071428Y-62533928D01*
X91571428Y-62891071D02*
X92142857Y-62891071D01*
X91785714Y-62391071D02*
X91785714Y-63676785D01*
X91857142Y-63819642D01*
X92000000Y-63891071D01*
X92142857Y-63891071D01*
X93285714Y-62891071D02*
X93285714Y-63891071D01*
X92642857Y-62891071D02*
X92642857Y-63676785D01*
X92714285Y-63819642D01*
X92857142Y-63891071D01*
X93071428Y-63891071D01*
X93214285Y-63819642D01*
X93285714Y-63748214D01*
X94642857Y-63891071D02*
X94642857Y-62391071D01*
X94642857Y-63819642D02*
X94500000Y-63891071D01*
X94214285Y-63891071D01*
X94071428Y-63819642D01*
X94000000Y-63748214D01*
X93928571Y-63605357D01*
X93928571Y-63176785D01*
X94000000Y-63033928D01*
X94071428Y-62962500D01*
X94214285Y-62891071D01*
X94500000Y-62891071D01*
X94642857Y-62962500D01*
X95928571Y-63819642D02*
X95785714Y-63891071D01*
X95500000Y-63891071D01*
X95357142Y-63819642D01*
X95285714Y-63676785D01*
X95285714Y-63105357D01*
X95357142Y-62962500D01*
X95500000Y-62891071D01*
X95785714Y-62891071D01*
X95928571Y-62962500D01*
X96000000Y-63105357D01*
X96000000Y-63248214D01*
X95285714Y-63391071D01*
X98285714Y-63105357D02*
X98500000Y-63176785D01*
X98571428Y-63248214D01*
X98642857Y-63391071D01*
X98642857Y-63605357D01*
X98571428Y-63748214D01*
X98500000Y-63819642D01*
X98357142Y-63891071D01*
X97785714Y-63891071D01*
X97785714Y-62391071D01*
X98285714Y-62391071D01*
X98428571Y-62462500D01*
X98500000Y-62533928D01*
X98571428Y-62676785D01*
X98571428Y-62819642D01*
X98500000Y-62962500D01*
X98428571Y-63033928D01*
X98285714Y-63105357D01*
X97785714Y-63105357D01*
X99928571Y-63891071D02*
X99928571Y-63105357D01*
X99857142Y-62962500D01*
X99714285Y-62891071D01*
X99428571Y-62891071D01*
X99285714Y-62962500D01*
X99928571Y-63819642D02*
X99785714Y-63891071D01*
X99428571Y-63891071D01*
X99285714Y-63819642D01*
X99214285Y-63676785D01*
X99214285Y-63533928D01*
X99285714Y-63391071D01*
X99428571Y-63319642D01*
X99785714Y-63319642D01*
X99928571Y-63248214D01*
X100857142Y-63891071D02*
X100714285Y-63819642D01*
X100642857Y-63676785D01*
X100642857Y-62391071D01*
X101642857Y-63891071D02*
X101500000Y-63819642D01*
X101428571Y-63676785D01*
X101428571Y-62391071D01*
X102428571Y-63891071D02*
X102285714Y-63819642D01*
X102214285Y-63748214D01*
X102142857Y-63605357D01*
X102142857Y-63176785D01*
X102214285Y-63033928D01*
X102285714Y-62962500D01*
X102428571Y-62891071D01*
X102642857Y-62891071D01*
X102785714Y-62962500D01*
X102857142Y-63033928D01*
X102928571Y-63176785D01*
X102928571Y-63605357D01*
X102857142Y-63748214D01*
X102785714Y-63819642D01*
X102642857Y-63891071D01*
X102428571Y-63891071D01*
X103785714Y-63891071D02*
X103642857Y-63819642D01*
X103571428Y-63748214D01*
X103500000Y-63605357D01*
X103500000Y-63176785D01*
X103571428Y-63033928D01*
X103642857Y-62962500D01*
X103785714Y-62891071D01*
X104000000Y-62891071D01*
X104142857Y-62962500D01*
X104214285Y-63033928D01*
X104285714Y-63176785D01*
X104285714Y-63605357D01*
X104214285Y-63748214D01*
X104142857Y-63819642D01*
X104000000Y-63891071D01*
X103785714Y-63891071D01*
X104928571Y-62891071D02*
X104928571Y-63891071D01*
X104928571Y-63033928D02*
X105000000Y-62962500D01*
X105142857Y-62891071D01*
X105357142Y-62891071D01*
X105500000Y-62962500D01*
X105571428Y-63105357D01*
X105571428Y-63891071D01*
X106285714Y-63891071D02*
X106285714Y-62891071D01*
X106285714Y-62391071D02*
X106214285Y-62462500D01*
X106285714Y-62533928D01*
X106357142Y-62462500D01*
X106285714Y-62391071D01*
X106285714Y-62533928D01*
X107000000Y-62891071D02*
X107000000Y-63891071D01*
X107000000Y-63033928D02*
X107071428Y-62962500D01*
X107214285Y-62891071D01*
X107428571Y-62891071D01*
X107571428Y-62962500D01*
X107642857Y-63105357D01*
X107642857Y-63891071D01*
X109000000Y-62891071D02*
X109000000Y-64105357D01*
X108928571Y-64248214D01*
X108857142Y-64319642D01*
X108714285Y-64391071D01*
X108500000Y-64391071D01*
X108357142Y-64319642D01*
X109000000Y-63819642D02*
X108857142Y-63891071D01*
X108571428Y-63891071D01*
X108428571Y-63819642D01*
X108357142Y-63748214D01*
X108285714Y-63605357D01*
X108285714Y-63176785D01*
X108357142Y-63033928D01*
X108428571Y-62962500D01*
X108571428Y-62891071D01*
X108857142Y-62891071D01*
X109000000Y-62962500D01*
X79500000Y-64806071D02*
X80357142Y-64806071D01*
X79928571Y-66306071D02*
X79928571Y-64806071D01*
X81428571Y-66234642D02*
X81285714Y-66306071D01*
X81000000Y-66306071D01*
X80857142Y-66234642D01*
X80785714Y-66091785D01*
X80785714Y-65520357D01*
X80857142Y-65377500D01*
X81000000Y-65306071D01*
X81285714Y-65306071D01*
X81428571Y-65377500D01*
X81500000Y-65520357D01*
X81500000Y-65663214D01*
X80785714Y-65806071D01*
X82357142Y-66306071D02*
X82214285Y-66234642D01*
X82142857Y-66091785D01*
X82142857Y-64806071D01*
X83500000Y-66234642D02*
X83357142Y-66306071D01*
X83071428Y-66306071D01*
X82928571Y-66234642D01*
X82857142Y-66091785D01*
X82857142Y-65520357D01*
X82928571Y-65377500D01*
X83071428Y-65306071D01*
X83357142Y-65306071D01*
X83500000Y-65377500D01*
X83571428Y-65520357D01*
X83571428Y-65663214D01*
X82857142Y-65806071D01*
X84214285Y-66306071D02*
X84214285Y-65306071D01*
X84214285Y-65448928D02*
X84285714Y-65377500D01*
X84428571Y-65306071D01*
X84642857Y-65306071D01*
X84785714Y-65377500D01*
X84857142Y-65520357D01*
X84857142Y-66306071D01*
X84857142Y-65520357D02*
X84928571Y-65377500D01*
X85071428Y-65306071D01*
X85285714Y-65306071D01*
X85428571Y-65377500D01*
X85500000Y-65520357D01*
X85500000Y-66306071D01*
X86785714Y-66234642D02*
X86642857Y-66306071D01*
X86357142Y-66306071D01*
X86214285Y-66234642D01*
X86142857Y-66091785D01*
X86142857Y-65520357D01*
X86214285Y-65377500D01*
X86357142Y-65306071D01*
X86642857Y-65306071D01*
X86785714Y-65377500D01*
X86857142Y-65520357D01*
X86857142Y-65663214D01*
X86142857Y-65806071D01*
X87285714Y-65306071D02*
X87857142Y-65306071D01*
X87500000Y-64806071D02*
X87500000Y-66091785D01*
X87571428Y-66234642D01*
X87714285Y-66306071D01*
X87857142Y-66306071D01*
X88357142Y-66306071D02*
X88357142Y-65306071D01*
X88357142Y-65591785D02*
X88428571Y-65448928D01*
X88500000Y-65377500D01*
X88642857Y-65306071D01*
X88785714Y-65306071D01*
X89142857Y-65306071D02*
X89500000Y-66306071D01*
X89857142Y-65306071D02*
X89500000Y-66306071D01*
X89357142Y-66663214D01*
X89285714Y-66734642D01*
X89142857Y-66806071D01*
X92214285Y-66306071D02*
X92214285Y-65520357D01*
X92142857Y-65377500D01*
X91999999Y-65306071D01*
X91714285Y-65306071D01*
X91571428Y-65377500D01*
X92214285Y-66234642D02*
X92071428Y-66306071D01*
X91714285Y-66306071D01*
X91571428Y-66234642D01*
X91499999Y-66091785D01*
X91499999Y-65948928D01*
X91571428Y-65806071D01*
X91714285Y-65734642D01*
X92071428Y-65734642D01*
X92214285Y-65663214D01*
X92928571Y-65306071D02*
X92928571Y-66306071D01*
X92928571Y-65448928D02*
X92999999Y-65377500D01*
X93142857Y-65306071D01*
X93357142Y-65306071D01*
X93499999Y-65377500D01*
X93571428Y-65520357D01*
X93571428Y-66306071D01*
X94928571Y-66306071D02*
X94928571Y-64806071D01*
X94928571Y-66234642D02*
X94785714Y-66306071D01*
X94499999Y-66306071D01*
X94357142Y-66234642D01*
X94285714Y-66163214D01*
X94214285Y-66020357D01*
X94214285Y-65591785D01*
X94285714Y-65448928D01*
X94357142Y-65377500D01*
X94499999Y-65306071D01*
X94785714Y-65306071D01*
X94928571Y-65377500D01*
X96714285Y-66234642D02*
X96928571Y-66306071D01*
X97285714Y-66306071D01*
X97428571Y-66234642D01*
X97499999Y-66163214D01*
X97571428Y-66020357D01*
X97571428Y-65877500D01*
X97499999Y-65734642D01*
X97428571Y-65663214D01*
X97285714Y-65591785D01*
X96999999Y-65520357D01*
X96857142Y-65448928D01*
X96785714Y-65377500D01*
X96714285Y-65234642D01*
X96714285Y-65091785D01*
X96785714Y-64948928D01*
X96857142Y-64877500D01*
X96999999Y-64806071D01*
X97357142Y-64806071D01*
X97571428Y-64877500D01*
X98785714Y-66234642D02*
X98642857Y-66306071D01*
X98357142Y-66306071D01*
X98214285Y-66234642D01*
X98142857Y-66091785D01*
X98142857Y-65520357D01*
X98214285Y-65377500D01*
X98357142Y-65306071D01*
X98642857Y-65306071D01*
X98785714Y-65377500D01*
X98857142Y-65520357D01*
X98857142Y-65663214D01*
X98142857Y-65806071D01*
X99500000Y-65306071D02*
X99500000Y-66306071D01*
X99500000Y-65448928D02*
X99571428Y-65377500D01*
X99714285Y-65306071D01*
X99928571Y-65306071D01*
X100071428Y-65377500D01*
X100142857Y-65520357D01*
X100142857Y-66306071D01*
X100785714Y-66234642D02*
X100928571Y-66306071D01*
X101214285Y-66306071D01*
X101357142Y-66234642D01*
X101428571Y-66091785D01*
X101428571Y-66020357D01*
X101357142Y-65877500D01*
X101214285Y-65806071D01*
X101000000Y-65806071D01*
X100857142Y-65734642D01*
X100785714Y-65591785D01*
X100785714Y-65520357D01*
X100857142Y-65377500D01*
X101000000Y-65306071D01*
X101214285Y-65306071D01*
X101357142Y-65377500D01*
X102285714Y-66306071D02*
X102142857Y-66234642D01*
X102071428Y-66163214D01*
X102000000Y-66020357D01*
X102000000Y-65591785D01*
X102071428Y-65448928D01*
X102142857Y-65377500D01*
X102285714Y-65306071D01*
X102500000Y-65306071D01*
X102642857Y-65377500D01*
X102714285Y-65448928D01*
X102785714Y-65591785D01*
X102785714Y-66020357D01*
X102714285Y-66163214D01*
X102642857Y-66234642D01*
X102500000Y-66306071D01*
X102285714Y-66306071D01*
X103428571Y-66306071D02*
X103428571Y-65306071D01*
X103428571Y-65591785D02*
X103500000Y-65448928D01*
X103571428Y-65377500D01*
X103714285Y-65306071D01*
X103857142Y-65306071D01*
X106000000Y-65520357D02*
X106214285Y-65591785D01*
X106285714Y-65663214D01*
X106357142Y-65806071D01*
X106357142Y-66020357D01*
X106285714Y-66163214D01*
X106214285Y-66234642D01*
X106071428Y-66306071D01*
X105500000Y-66306071D01*
X105500000Y-64806071D01*
X106000000Y-64806071D01*
X106142857Y-64877500D01*
X106214285Y-64948928D01*
X106285714Y-65091785D01*
X106285714Y-65234642D01*
X106214285Y-65377500D01*
X106142857Y-65448928D01*
X106000000Y-65520357D01*
X105500000Y-65520357D01*
X107214285Y-66306071D02*
X107071428Y-66234642D01*
X107000000Y-66163214D01*
X106928571Y-66020357D01*
X106928571Y-65591785D01*
X107000000Y-65448928D01*
X107071428Y-65377500D01*
X107214285Y-65306071D01*
X107428571Y-65306071D01*
X107571428Y-65377500D01*
X107642857Y-65448928D01*
X107714285Y-65591785D01*
X107714285Y-66020357D01*
X107642857Y-66163214D01*
X107571428Y-66234642D01*
X107428571Y-66306071D01*
X107214285Y-66306071D01*
X109000000Y-66306071D02*
X109000000Y-65520357D01*
X108928571Y-65377500D01*
X108785714Y-65306071D01*
X108500000Y-65306071D01*
X108357142Y-65377500D01*
X109000000Y-66234642D02*
X108857142Y-66306071D01*
X108500000Y-66306071D01*
X108357142Y-66234642D01*
X108285714Y-66091785D01*
X108285714Y-65948928D01*
X108357142Y-65806071D01*
X108500000Y-65734642D01*
X108857142Y-65734642D01*
X109000000Y-65663214D01*
X109714285Y-66306071D02*
X109714285Y-65306071D01*
X109714285Y-65591785D02*
X109785714Y-65448928D01*
X109857142Y-65377500D01*
X110000000Y-65306071D01*
X110142857Y-65306071D01*
X111285714Y-66306071D02*
X111285714Y-64806071D01*
X111285714Y-66234642D02*
X111142857Y-66306071D01*
X110857142Y-66306071D01*
X110714285Y-66234642D01*
X110642857Y-66163214D01*
X110571428Y-66020357D01*
X110571428Y-65591785D01*
X110642857Y-65448928D01*
X110714285Y-65377500D01*
X110857142Y-65306071D01*
X111142857Y-65306071D01*
X111285714Y-65377500D01*
X89714285Y-68721071D02*
X89714285Y-67221071D01*
X90285714Y-67221071D01*
X90428571Y-67292500D01*
X90500000Y-67363928D01*
X90571428Y-67506785D01*
X90571428Y-67721071D01*
X90500000Y-67863928D01*
X90428571Y-67935357D01*
X90285714Y-68006785D01*
X89714285Y-68006785D01*
X92071428Y-68578214D02*
X92000000Y-68649642D01*
X91785714Y-68721071D01*
X91642857Y-68721071D01*
X91428571Y-68649642D01*
X91285714Y-68506785D01*
X91214285Y-68363928D01*
X91142857Y-68078214D01*
X91142857Y-67863928D01*
X91214285Y-67578214D01*
X91285714Y-67435357D01*
X91428571Y-67292500D01*
X91642857Y-67221071D01*
X91785714Y-67221071D01*
X92000000Y-67292500D01*
X92071428Y-67363928D01*
X93214285Y-67935357D02*
X93428571Y-68006785D01*
X93500000Y-68078214D01*
X93571428Y-68221071D01*
X93571428Y-68435357D01*
X93500000Y-68578214D01*
X93428571Y-68649642D01*
X93285714Y-68721071D01*
X92714285Y-68721071D01*
X92714285Y-67221071D01*
X93214285Y-67221071D01*
X93357142Y-67292500D01*
X93428571Y-67363928D01*
X93500000Y-67506785D01*
X93500000Y-67649642D01*
X93428571Y-67792500D01*
X93357142Y-67863928D01*
X93214285Y-67935357D01*
X92714285Y-67935357D01*
X95357142Y-68721071D02*
X95357142Y-67721071D01*
X95357142Y-68006785D02*
X95428571Y-67863928D01*
X95500000Y-67792500D01*
X95642857Y-67721071D01*
X95785714Y-67721071D01*
X96857142Y-68649642D02*
X96714285Y-68721071D01*
X96428571Y-68721071D01*
X96285714Y-68649642D01*
X96214285Y-68506785D01*
X96214285Y-67935357D01*
X96285714Y-67792500D01*
X96428571Y-67721071D01*
X96714285Y-67721071D01*
X96857142Y-67792500D01*
X96928571Y-67935357D01*
X96928571Y-68078214D01*
X96214285Y-68221071D01*
X97428571Y-67721071D02*
X97785714Y-68721071D01*
X98142857Y-67721071D01*
X98714285Y-68578214D02*
X98785714Y-68649642D01*
X98714285Y-68721071D01*
X98642857Y-68649642D01*
X98714285Y-68578214D01*
X98714285Y-68721071D01*
X101357142Y-68721071D02*
X100500000Y-68721071D01*
X100928571Y-68721071D02*
X100928571Y-67221071D01*
X100785714Y-67435357D01*
X100642857Y-67578214D01*
X100500000Y-67649642D01*
X90071428Y-73479642D02*
X90285714Y-73551071D01*
X90642857Y-73551071D01*
X90785714Y-73479642D01*
X90857142Y-73408214D01*
X90928571Y-73265357D01*
X90928571Y-73122500D01*
X90857142Y-72979642D01*
X90785714Y-72908214D01*
X90642857Y-72836785D01*
X90357142Y-72765357D01*
X90214285Y-72693928D01*
X90142857Y-72622500D01*
X90071428Y-72479642D01*
X90071428Y-72336785D01*
X90142857Y-72193928D01*
X90214285Y-72122500D01*
X90357142Y-72051071D01*
X90714285Y-72051071D01*
X90928571Y-72122500D01*
X92214285Y-73551071D02*
X92214285Y-72765357D01*
X92142857Y-72622500D01*
X92000000Y-72551071D01*
X91714285Y-72551071D01*
X91571428Y-72622500D01*
X92214285Y-73479642D02*
X92071428Y-73551071D01*
X91714285Y-73551071D01*
X91571428Y-73479642D01*
X91500000Y-73336785D01*
X91500000Y-73193928D01*
X91571428Y-73051071D01*
X91714285Y-72979642D01*
X92071428Y-72979642D01*
X92214285Y-72908214D01*
X92928571Y-73551071D02*
X92928571Y-72551071D01*
X92928571Y-72693928D02*
X93000000Y-72622500D01*
X93142857Y-72551071D01*
X93357142Y-72551071D01*
X93500000Y-72622500D01*
X93571428Y-72765357D01*
X93571428Y-73551071D01*
X93571428Y-72765357D02*
X93642857Y-72622500D01*
X93785714Y-72551071D01*
X94000000Y-72551071D01*
X94142857Y-72622500D01*
X94214285Y-72765357D01*
X94214285Y-73551071D01*
X96571428Y-72765357D02*
X96785714Y-72836785D01*
X96857142Y-72908214D01*
X96928571Y-73051071D01*
X96928571Y-73265357D01*
X96857142Y-73408214D01*
X96785714Y-73479642D01*
X96642857Y-73551071D01*
X96071428Y-73551071D01*
X96071428Y-72051071D01*
X96571428Y-72051071D01*
X96714285Y-72122500D01*
X96785714Y-72193928D01*
X96857142Y-72336785D01*
X96857142Y-72479642D01*
X96785714Y-72622500D01*
X96714285Y-72693928D01*
X96571428Y-72765357D01*
X96071428Y-72765357D01*
X98214285Y-73551071D02*
X98214285Y-72765357D01*
X98142857Y-72622500D01*
X98000000Y-72551071D01*
X97714285Y-72551071D01*
X97571428Y-72622500D01*
X98214285Y-73479642D02*
X98071428Y-73551071D01*
X97714285Y-73551071D01*
X97571428Y-73479642D01*
X97500000Y-73336785D01*
X97500000Y-73193928D01*
X97571428Y-73051071D01*
X97714285Y-72979642D01*
X98071428Y-72979642D01*
X98214285Y-72908214D01*
X99571428Y-73479642D02*
X99428571Y-73551071D01*
X99142857Y-73551071D01*
X99000000Y-73479642D01*
X98928571Y-73408214D01*
X98857142Y-73265357D01*
X98857142Y-72836785D01*
X98928571Y-72693928D01*
X99000000Y-72622500D01*
X99142857Y-72551071D01*
X99428571Y-72551071D01*
X99571428Y-72622500D01*
X100214285Y-73551071D02*
X100214285Y-72051071D01*
X100857142Y-73551071D02*
X100857142Y-72765357D01*
X100785714Y-72622500D01*
X100642857Y-72551071D01*
X100428571Y-72551071D01*
X100285714Y-72622500D01*
X100214285Y-72693928D01*
X90464285Y-75966071D02*
X89964285Y-75251785D01*
X89607142Y-75966071D02*
X89607142Y-74466071D01*
X90178571Y-74466071D01*
X90321428Y-74537500D01*
X90392857Y-74608928D01*
X90464285Y-74751785D01*
X90464285Y-74966071D01*
X90392857Y-75108928D01*
X90321428Y-75180357D01*
X90178571Y-75251785D01*
X89607142Y-75251785D01*
X90964285Y-74966071D02*
X91321428Y-75966071D01*
X91678571Y-74966071D02*
X91321428Y-75966071D01*
X91178571Y-76323214D01*
X91107142Y-76394642D01*
X90964285Y-76466071D01*
X92892857Y-75966071D02*
X92892857Y-75180357D01*
X92821428Y-75037500D01*
X92678571Y-74966071D01*
X92392857Y-74966071D01*
X92250000Y-75037500D01*
X92892857Y-75894642D02*
X92750000Y-75966071D01*
X92392857Y-75966071D01*
X92250000Y-75894642D01*
X92178571Y-75751785D01*
X92178571Y-75608928D01*
X92250000Y-75466071D01*
X92392857Y-75394642D01*
X92750000Y-75394642D01*
X92892857Y-75323214D01*
X93607142Y-74966071D02*
X93607142Y-75966071D01*
X93607142Y-75108928D02*
X93678571Y-75037500D01*
X93821428Y-74966071D01*
X94035714Y-74966071D01*
X94178571Y-75037500D01*
X94250000Y-75180357D01*
X94250000Y-75966071D01*
X96035714Y-75537500D02*
X96750000Y-75537500D01*
X95892857Y-75966071D02*
X96392857Y-74466071D01*
X96892857Y-75966071D01*
X97392857Y-75966071D02*
X97392857Y-74466071D01*
X97392857Y-75037500D02*
X97535714Y-74966071D01*
X97821428Y-74966071D01*
X97964285Y-75037500D01*
X98035714Y-75108928D01*
X98107142Y-75251785D01*
X98107142Y-75680357D01*
X98035714Y-75823214D01*
X97964285Y-75894642D01*
X97821428Y-75966071D01*
X97535714Y-75966071D01*
X97392857Y-75894642D01*
X99321428Y-75894642D02*
X99178571Y-75966071D01*
X98892857Y-75966071D01*
X98750000Y-75894642D01*
X98678571Y-75751785D01*
X98678571Y-75180357D01*
X98750000Y-75037500D01*
X98892857Y-74966071D01*
X99178571Y-74966071D01*
X99321428Y-75037500D01*
X99392857Y-75180357D01*
X99392857Y-75323214D01*
X98678571Y-75466071D01*
X100678571Y-75966071D02*
X100678571Y-74466071D01*
X100678571Y-75894642D02*
X100535714Y-75966071D01*
X100250000Y-75966071D01*
X100107142Y-75894642D01*
X100035714Y-75823214D01*
X99964285Y-75680357D01*
X99964285Y-75251785D01*
X100035714Y-75108928D01*
X100107142Y-75037500D01*
X100250000Y-74966071D01*
X100535714Y-74966071D01*
X100678571Y-75037500D01*
X101392857Y-75966071D02*
X101392857Y-74966071D01*
X101392857Y-74466071D02*
X101321428Y-74537500D01*
X101392857Y-74608928D01*
X101464285Y-74537500D01*
X101392857Y-74466071D01*
X101392857Y-74608928D01*
D11*
%TO.C,SW1*%
X48927619Y-92374523D02*
X48504285Y-91769761D01*
X48201904Y-92374523D02*
X48201904Y-91104523D01*
X48685714Y-91104523D01*
X48806666Y-91165000D01*
X48867142Y-91225476D01*
X48927619Y-91346428D01*
X48927619Y-91527857D01*
X48867142Y-91648809D01*
X48806666Y-91709285D01*
X48685714Y-91769761D01*
X48201904Y-91769761D01*
X49955714Y-92314047D02*
X49834761Y-92374523D01*
X49592857Y-92374523D01*
X49471904Y-92314047D01*
X49411428Y-92193095D01*
X49411428Y-91709285D01*
X49471904Y-91588333D01*
X49592857Y-91527857D01*
X49834761Y-91527857D01*
X49955714Y-91588333D01*
X50016190Y-91709285D01*
X50016190Y-91830238D01*
X49411428Y-91951190D01*
X50500000Y-92314047D02*
X50620952Y-92374523D01*
X50862857Y-92374523D01*
X50983809Y-92314047D01*
X51044285Y-92193095D01*
X51044285Y-92132619D01*
X50983809Y-92011666D01*
X50862857Y-91951190D01*
X50681428Y-91951190D01*
X50560476Y-91890714D01*
X50500000Y-91769761D01*
X50500000Y-91709285D01*
X50560476Y-91588333D01*
X50681428Y-91527857D01*
X50862857Y-91527857D01*
X50983809Y-91588333D01*
X52072380Y-92314047D02*
X51951428Y-92374523D01*
X51709523Y-92374523D01*
X51588571Y-92314047D01*
X51528095Y-92193095D01*
X51528095Y-91709285D01*
X51588571Y-91588333D01*
X51709523Y-91527857D01*
X51951428Y-91527857D01*
X52072380Y-91588333D01*
X52132857Y-91709285D01*
X52132857Y-91830238D01*
X51528095Y-91951190D01*
X52495714Y-91527857D02*
X52979523Y-91527857D01*
X52677142Y-91104523D02*
X52677142Y-92193095D01*
X52737619Y-92314047D01*
X52858571Y-92374523D01*
X52979523Y-92374523D01*
%TO.C,SW2*%
X55078809Y-91709285D02*
X55260238Y-91769761D01*
X55320714Y-91830238D01*
X55381190Y-91951190D01*
X55381190Y-92132619D01*
X55320714Y-92253571D01*
X55260238Y-92314047D01*
X55139285Y-92374523D01*
X54655476Y-92374523D01*
X54655476Y-91104523D01*
X55078809Y-91104523D01*
X55199761Y-91165000D01*
X55260238Y-91225476D01*
X55320714Y-91346428D01*
X55320714Y-91467380D01*
X55260238Y-91588333D01*
X55199761Y-91648809D01*
X55078809Y-91709285D01*
X54655476Y-91709285D01*
X56106904Y-92374523D02*
X55985952Y-92314047D01*
X55925476Y-92253571D01*
X55865000Y-92132619D01*
X55865000Y-91769761D01*
X55925476Y-91648809D01*
X55985952Y-91588333D01*
X56106904Y-91527857D01*
X56288333Y-91527857D01*
X56409285Y-91588333D01*
X56469761Y-91648809D01*
X56530238Y-91769761D01*
X56530238Y-92132619D01*
X56469761Y-92253571D01*
X56409285Y-92314047D01*
X56288333Y-92374523D01*
X56106904Y-92374523D01*
X57255952Y-92374523D02*
X57135000Y-92314047D01*
X57074523Y-92253571D01*
X57014047Y-92132619D01*
X57014047Y-91769761D01*
X57074523Y-91648809D01*
X57135000Y-91588333D01*
X57255952Y-91527857D01*
X57437380Y-91527857D01*
X57558333Y-91588333D01*
X57618809Y-91648809D01*
X57679285Y-91769761D01*
X57679285Y-92132619D01*
X57618809Y-92253571D01*
X57558333Y-92314047D01*
X57437380Y-92374523D01*
X57255952Y-92374523D01*
X58042142Y-91527857D02*
X58525952Y-91527857D01*
X58223571Y-91104523D02*
X58223571Y-92193095D01*
X58284047Y-92314047D01*
X58405000Y-92374523D01*
X58525952Y-92374523D01*
D12*
%TO.C,TP10*%
X60910714Y-43927380D02*
X61244047Y-44927380D01*
X61577380Y-43927380D01*
X61863095Y-44879761D02*
X62005952Y-44927380D01*
X62244047Y-44927380D01*
X62339285Y-44879761D01*
X62386904Y-44832142D01*
X62434523Y-44736904D01*
X62434523Y-44641666D01*
X62386904Y-44546428D01*
X62339285Y-44498809D01*
X62244047Y-44451190D01*
X62053571Y-44403571D01*
X61958333Y-44355952D01*
X61910714Y-44308333D01*
X61863095Y-44213095D01*
X61863095Y-44117857D01*
X61910714Y-44022619D01*
X61958333Y-43975000D01*
X62053571Y-43927380D01*
X62291666Y-43927380D01*
X62434523Y-43975000D01*
X63053571Y-44451190D02*
X63053571Y-44927380D01*
X62720238Y-43927380D02*
X63053571Y-44451190D01*
X63386904Y-43927380D01*
X63672619Y-44879761D02*
X63815476Y-44927380D01*
X64053571Y-44927380D01*
X64148809Y-44879761D01*
X64196428Y-44832142D01*
X64244047Y-44736904D01*
X64244047Y-44641666D01*
X64196428Y-44546428D01*
X64148809Y-44498809D01*
X64053571Y-44451190D01*
X63863095Y-44403571D01*
X63767857Y-44355952D01*
X63720238Y-44308333D01*
X63672619Y-44213095D01*
X63672619Y-44117857D01*
X63720238Y-44022619D01*
X63767857Y-43975000D01*
X63863095Y-43927380D01*
X64101190Y-43927380D01*
X64244047Y-43975000D01*
%TO.C,D3*%
X60750000Y-110702380D02*
X60702380Y-110797619D01*
X60702380Y-110940476D01*
X60750000Y-111083333D01*
X60845238Y-111178571D01*
X60940476Y-111226190D01*
X61130952Y-111273809D01*
X61273809Y-111273809D01*
X61464285Y-111226190D01*
X61559523Y-111178571D01*
X61654761Y-111083333D01*
X61702380Y-110940476D01*
X61702380Y-110845238D01*
X61654761Y-110702380D01*
X61607142Y-110654761D01*
X61273809Y-110654761D01*
X61273809Y-110845238D01*
X61702380Y-110226190D02*
X60702380Y-110226190D01*
X61702380Y-109654761D01*
X60702380Y-109654761D01*
X61654761Y-109226190D02*
X61702380Y-109083333D01*
X61702380Y-108845238D01*
X61654761Y-108750000D01*
X61607142Y-108702380D01*
X61511904Y-108654761D01*
X61416666Y-108654761D01*
X61321428Y-108702380D01*
X61273809Y-108750000D01*
X61226190Y-108845238D01*
X61178571Y-109035714D01*
X61130952Y-109130952D01*
X61083333Y-109178571D01*
X60988095Y-109226190D01*
X60892857Y-109226190D01*
X60797619Y-109178571D01*
X60750000Y-109130952D01*
X60702380Y-109035714D01*
X60702380Y-108797619D01*
X60750000Y-108654761D01*
X61654761Y-108273809D02*
X61702380Y-108130952D01*
X61702380Y-107892857D01*
X61654761Y-107797619D01*
X61607142Y-107750000D01*
X61511904Y-107702380D01*
X61416666Y-107702380D01*
X61321428Y-107750000D01*
X61273809Y-107797619D01*
X61226190Y-107892857D01*
X61178571Y-108083333D01*
X61130952Y-108178571D01*
X61083333Y-108226190D01*
X60988095Y-108273809D01*
X60892857Y-108273809D01*
X60797619Y-108226190D01*
X60750000Y-108178571D01*
X60702380Y-108083333D01*
X60702380Y-107845238D01*
X60750000Y-107702380D01*
X61654761Y-106559523D02*
X61702380Y-106416666D01*
X61702380Y-106178571D01*
X61654761Y-106083333D01*
X61607142Y-106035714D01*
X61511904Y-105988095D01*
X61416666Y-105988095D01*
X61321428Y-106035714D01*
X61273809Y-106083333D01*
X61226190Y-106178571D01*
X61178571Y-106369047D01*
X61130952Y-106464285D01*
X61083333Y-106511904D01*
X60988095Y-106559523D01*
X60892857Y-106559523D01*
X60797619Y-106511904D01*
X60750000Y-106464285D01*
X60702380Y-106369047D01*
X60702380Y-106130952D01*
X60750000Y-105988095D01*
X61035714Y-105702380D02*
X61035714Y-105321428D01*
X60702380Y-105559523D02*
X61559523Y-105559523D01*
X61654761Y-105511904D01*
X61702380Y-105416666D01*
X61702380Y-105321428D01*
X61702380Y-104559523D02*
X61178571Y-104559523D01*
X61083333Y-104607142D01*
X61035714Y-104702380D01*
X61035714Y-104892857D01*
X61083333Y-104988095D01*
X61654761Y-104559523D02*
X61702380Y-104654761D01*
X61702380Y-104892857D01*
X61654761Y-104988095D01*
X61559523Y-105035714D01*
X61464285Y-105035714D01*
X61369047Y-104988095D01*
X61321428Y-104892857D01*
X61321428Y-104654761D01*
X61273809Y-104559523D01*
X61035714Y-104226190D02*
X61035714Y-103845238D01*
X60702380Y-104083333D02*
X61559523Y-104083333D01*
X61654761Y-104035714D01*
X61702380Y-103940476D01*
X61702380Y-103845238D01*
X61035714Y-103083333D02*
X61702380Y-103083333D01*
X61035714Y-103511904D02*
X61559523Y-103511904D01*
X61654761Y-103464285D01*
X61702380Y-103369047D01*
X61702380Y-103226190D01*
X61654761Y-103130952D01*
X61607142Y-103083333D01*
X61654761Y-102654761D02*
X61702380Y-102559523D01*
X61702380Y-102369047D01*
X61654761Y-102273809D01*
X61559523Y-102226190D01*
X61511904Y-102226190D01*
X61416666Y-102273809D01*
X61369047Y-102369047D01*
X61369047Y-102511904D01*
X61321428Y-102607142D01*
X61226190Y-102654761D01*
X61178571Y-102654761D01*
X61083333Y-102607142D01*
X61035714Y-102511904D01*
X61035714Y-102369047D01*
X61083333Y-102273809D01*
%TO.C,J6*%
X44967380Y-84197619D02*
X43967380Y-84197619D01*
X43967380Y-83959523D01*
X44015000Y-83816666D01*
X44110238Y-83721428D01*
X44205476Y-83673809D01*
X44395952Y-83626190D01*
X44538809Y-83626190D01*
X44729285Y-83673809D01*
X44824523Y-83721428D01*
X44919761Y-83816666D01*
X44967380Y-83959523D01*
X44967380Y-84197619D01*
X44919761Y-82816666D02*
X44967380Y-82911904D01*
X44967380Y-83102380D01*
X44919761Y-83197619D01*
X44824523Y-83245238D01*
X44443571Y-83245238D01*
X44348333Y-83197619D01*
X44300714Y-83102380D01*
X44300714Y-82911904D01*
X44348333Y-82816666D01*
X44443571Y-82769047D01*
X44538809Y-82769047D01*
X44634047Y-83245238D01*
X44967380Y-82340476D02*
X43967380Y-82340476D01*
X44348333Y-82340476D02*
X44300714Y-82245238D01*
X44300714Y-82054761D01*
X44348333Y-81959523D01*
X44395952Y-81911904D01*
X44491190Y-81864285D01*
X44776904Y-81864285D01*
X44872142Y-81911904D01*
X44919761Y-81959523D01*
X44967380Y-82054761D01*
X44967380Y-82245238D01*
X44919761Y-82340476D01*
X44300714Y-81007142D02*
X44967380Y-81007142D01*
X44300714Y-81435714D02*
X44824523Y-81435714D01*
X44919761Y-81388095D01*
X44967380Y-81292857D01*
X44967380Y-81150000D01*
X44919761Y-81054761D01*
X44872142Y-81007142D01*
X44300714Y-80102380D02*
X45110238Y-80102380D01*
X45205476Y-80150000D01*
X45253095Y-80197619D01*
X45300714Y-80292857D01*
X45300714Y-80435714D01*
X45253095Y-80530952D01*
X44919761Y-80102380D02*
X44967380Y-80197619D01*
X44967380Y-80388095D01*
X44919761Y-80483333D01*
X44872142Y-80530952D01*
X44776904Y-80578571D01*
X44491190Y-80578571D01*
X44395952Y-80530952D01*
X44348333Y-80483333D01*
X44300714Y-80388095D01*
X44300714Y-80197619D01*
X44348333Y-80102380D01*
%TO.C,D4*%
X119023809Y-107052380D02*
X119023809Y-107861904D01*
X119071428Y-107957142D01*
X119119047Y-108004761D01*
X119214285Y-108052380D01*
X119404761Y-108052380D01*
X119500000Y-108004761D01*
X119547619Y-107957142D01*
X119595238Y-107861904D01*
X119595238Y-107052380D01*
X120071428Y-108052380D02*
X120071428Y-107052380D01*
X120071428Y-107528571D02*
X120642857Y-107528571D01*
X120642857Y-108052380D02*
X120642857Y-107052380D01*
X121452380Y-107528571D02*
X121119047Y-107528571D01*
X121119047Y-108052380D02*
X121119047Y-107052380D01*
X121595238Y-107052380D01*
X122595238Y-107052380D02*
X123166666Y-107052380D01*
X122880952Y-108052380D02*
X122880952Y-107052380D01*
X123404761Y-107052380D02*
X124071428Y-108052380D01*
X124071428Y-107052380D02*
X123404761Y-108052380D01*
X125166666Y-107004761D02*
X124309523Y-108290476D01*
X126071428Y-108052380D02*
X125738095Y-107576190D01*
X125500000Y-108052380D02*
X125500000Y-107052380D01*
X125880952Y-107052380D01*
X125976190Y-107100000D01*
X126023809Y-107147619D01*
X126071428Y-107242857D01*
X126071428Y-107385714D01*
X126023809Y-107480952D01*
X125976190Y-107528571D01*
X125880952Y-107576190D01*
X125500000Y-107576190D01*
X126404761Y-107052380D02*
X127071428Y-108052380D01*
X127071428Y-107052380D02*
X126404761Y-108052380D01*
%TO.C,U8*%
X120754761Y-72952380D02*
X120754761Y-71952380D01*
X121230952Y-72952380D02*
X121230952Y-71952380D01*
X121564285Y-72666666D01*
X121897619Y-71952380D01*
X121897619Y-72952380D01*
X122373809Y-71952380D02*
X122373809Y-72761904D01*
X122421428Y-72857142D01*
X122469047Y-72904761D01*
X122564285Y-72952380D01*
X122754761Y-72952380D01*
X122850000Y-72904761D01*
X122897619Y-72857142D01*
X122945238Y-72761904D01*
X122945238Y-71952380D01*
%TO.C,TP4*%
X55192857Y-115300000D02*
X55097619Y-115252380D01*
X54954761Y-115252380D01*
X54811904Y-115300000D01*
X54716666Y-115395238D01*
X54669047Y-115490476D01*
X54621428Y-115680952D01*
X54621428Y-115823809D01*
X54669047Y-116014285D01*
X54716666Y-116109523D01*
X54811904Y-116204761D01*
X54954761Y-116252380D01*
X55050000Y-116252380D01*
X55192857Y-116204761D01*
X55240476Y-116157142D01*
X55240476Y-115823809D01*
X55050000Y-115823809D01*
X55669047Y-116252380D02*
X55669047Y-115252380D01*
X56240476Y-116252380D01*
X56240476Y-115252380D01*
X56669047Y-116204761D02*
X56811904Y-116252380D01*
X57050000Y-116252380D01*
X57145238Y-116204761D01*
X57192857Y-116157142D01*
X57240476Y-116061904D01*
X57240476Y-115966666D01*
X57192857Y-115871428D01*
X57145238Y-115823809D01*
X57050000Y-115776190D01*
X56859523Y-115728571D01*
X56764285Y-115680952D01*
X56716666Y-115633333D01*
X56669047Y-115538095D01*
X56669047Y-115442857D01*
X56716666Y-115347619D01*
X56764285Y-115300000D01*
X56859523Y-115252380D01*
X57097619Y-115252380D01*
X57240476Y-115300000D01*
X57621428Y-116204761D02*
X57764285Y-116252380D01*
X58002380Y-116252380D01*
X58097619Y-116204761D01*
X58145238Y-116157142D01*
X58192857Y-116061904D01*
X58192857Y-115966666D01*
X58145238Y-115871428D01*
X58097619Y-115823809D01*
X58002380Y-115776190D01*
X57811904Y-115728571D01*
X57716666Y-115680952D01*
X57669047Y-115633333D01*
X57621428Y-115538095D01*
X57621428Y-115442857D01*
X57669047Y-115347619D01*
X57716666Y-115300000D01*
X57811904Y-115252380D01*
X58050000Y-115252380D01*
X58192857Y-115300000D01*
X58383333Y-116347619D02*
X59145238Y-116347619D01*
X59954761Y-116252380D02*
X59621428Y-115776190D01*
X59383333Y-116252380D02*
X59383333Y-115252380D01*
X59764285Y-115252380D01*
X59859523Y-115300000D01*
X59907142Y-115347619D01*
X59954761Y-115442857D01*
X59954761Y-115585714D01*
X59907142Y-115680952D01*
X59859523Y-115728571D01*
X59764285Y-115776190D01*
X59383333Y-115776190D01*
X60383333Y-115728571D02*
X60716666Y-115728571D01*
X60859523Y-116252380D02*
X60383333Y-116252380D01*
X60383333Y-115252380D01*
X60859523Y-115252380D01*
X61240476Y-116204761D02*
X61383333Y-116252380D01*
X61621428Y-116252380D01*
X61716666Y-116204761D01*
X61764285Y-116157142D01*
X61811904Y-116061904D01*
X61811904Y-115966666D01*
X61764285Y-115871428D01*
X61716666Y-115823809D01*
X61621428Y-115776190D01*
X61430952Y-115728571D01*
X61335714Y-115680952D01*
X61288095Y-115633333D01*
X61240476Y-115538095D01*
X61240476Y-115442857D01*
X61288095Y-115347619D01*
X61335714Y-115300000D01*
X61430952Y-115252380D01*
X61669047Y-115252380D01*
X61811904Y-115300000D01*
X62240476Y-115728571D02*
X62573809Y-115728571D01*
X62716666Y-116252380D02*
X62240476Y-116252380D01*
X62240476Y-115252380D01*
X62716666Y-115252380D01*
X63002380Y-115252380D02*
X63573809Y-115252380D01*
X63288095Y-116252380D02*
X63288095Y-115252380D01*
%TO.C,J1*%
X28511904Y-67252380D02*
X28511904Y-66252380D01*
X28845238Y-66966666D01*
X29178571Y-66252380D01*
X29178571Y-67252380D01*
X30226190Y-67157142D02*
X30178571Y-67204761D01*
X30035714Y-67252380D01*
X29940476Y-67252380D01*
X29797619Y-67204761D01*
X29702380Y-67109523D01*
X29654761Y-67014285D01*
X29607142Y-66823809D01*
X29607142Y-66680952D01*
X29654761Y-66490476D01*
X29702380Y-66395238D01*
X29797619Y-66300000D01*
X29940476Y-66252380D01*
X30035714Y-66252380D01*
X30178571Y-66300000D01*
X30226190Y-66347619D01*
X30654761Y-66252380D02*
X30654761Y-67061904D01*
X30702380Y-67157142D01*
X30750000Y-67204761D01*
X30845238Y-67252380D01*
X31035714Y-67252380D01*
X31130952Y-67204761D01*
X31178571Y-67157142D01*
X31226190Y-67061904D01*
X31226190Y-66252380D01*
X32464285Y-66252380D02*
X32464285Y-67061904D01*
X32511904Y-67157142D01*
X32559523Y-67204761D01*
X32654761Y-67252380D01*
X32845238Y-67252380D01*
X32940476Y-67204761D01*
X32988095Y-67157142D01*
X33035714Y-67061904D01*
X33035714Y-66252380D01*
X33464285Y-67204761D02*
X33607142Y-67252380D01*
X33845238Y-67252380D01*
X33940476Y-67204761D01*
X33988095Y-67157142D01*
X34035714Y-67061904D01*
X34035714Y-66966666D01*
X33988095Y-66871428D01*
X33940476Y-66823809D01*
X33845238Y-66776190D01*
X33654761Y-66728571D01*
X33559523Y-66680952D01*
X33511904Y-66633333D01*
X33464285Y-66538095D01*
X33464285Y-66442857D01*
X33511904Y-66347619D01*
X33559523Y-66300000D01*
X33654761Y-66252380D01*
X33892857Y-66252380D01*
X34035714Y-66300000D01*
X34797619Y-66728571D02*
X34940476Y-66776190D01*
X34988095Y-66823809D01*
X35035714Y-66919047D01*
X35035714Y-67061904D01*
X34988095Y-67157142D01*
X34940476Y-67204761D01*
X34845238Y-67252380D01*
X34464285Y-67252380D01*
X34464285Y-66252380D01*
X34797619Y-66252380D01*
X34892857Y-66300000D01*
X34940476Y-66347619D01*
X34988095Y-66442857D01*
X34988095Y-66538095D01*
X34940476Y-66633333D01*
X34892857Y-66680952D01*
X34797619Y-66728571D01*
X34464285Y-66728571D01*
%TO.C,J2*%
X28854761Y-96300000D02*
X28759523Y-96252380D01*
X28616666Y-96252380D01*
X28473809Y-96300000D01*
X28378571Y-96395238D01*
X28330952Y-96490476D01*
X28283333Y-96680952D01*
X28283333Y-96823809D01*
X28330952Y-97014285D01*
X28378571Y-97109523D01*
X28473809Y-97204761D01*
X28616666Y-97252380D01*
X28711904Y-97252380D01*
X28854761Y-97204761D01*
X28902380Y-97157142D01*
X28902380Y-96823809D01*
X28711904Y-96823809D01*
X29330952Y-97252380D02*
X29330952Y-96252380D01*
X29902380Y-97252380D01*
X29902380Y-96252380D01*
X30330952Y-97204761D02*
X30473809Y-97252380D01*
X30711904Y-97252380D01*
X30807142Y-97204761D01*
X30854761Y-97157142D01*
X30902380Y-97061904D01*
X30902380Y-96966666D01*
X30854761Y-96871428D01*
X30807142Y-96823809D01*
X30711904Y-96776190D01*
X30521428Y-96728571D01*
X30426190Y-96680952D01*
X30378571Y-96633333D01*
X30330952Y-96538095D01*
X30330952Y-96442857D01*
X30378571Y-96347619D01*
X30426190Y-96300000D01*
X30521428Y-96252380D01*
X30759523Y-96252380D01*
X30902380Y-96300000D01*
X31283333Y-97204761D02*
X31426190Y-97252380D01*
X31664285Y-97252380D01*
X31759523Y-97204761D01*
X31807142Y-97157142D01*
X31854761Y-97061904D01*
X31854761Y-96966666D01*
X31807142Y-96871428D01*
X31759523Y-96823809D01*
X31664285Y-96776190D01*
X31473809Y-96728571D01*
X31378571Y-96680952D01*
X31330952Y-96633333D01*
X31283333Y-96538095D01*
X31283333Y-96442857D01*
X31330952Y-96347619D01*
X31378571Y-96300000D01*
X31473809Y-96252380D01*
X31711904Y-96252380D01*
X31854761Y-96300000D01*
X33045238Y-96252380D02*
X33045238Y-97061904D01*
X33092857Y-97157142D01*
X33140476Y-97204761D01*
X33235714Y-97252380D01*
X33426190Y-97252380D01*
X33521428Y-97204761D01*
X33569047Y-97157142D01*
X33616666Y-97061904D01*
X33616666Y-96252380D01*
X34045238Y-97204761D02*
X34188095Y-97252380D01*
X34426190Y-97252380D01*
X34521428Y-97204761D01*
X34569047Y-97157142D01*
X34616666Y-97061904D01*
X34616666Y-96966666D01*
X34569047Y-96871428D01*
X34521428Y-96823809D01*
X34426190Y-96776190D01*
X34235714Y-96728571D01*
X34140476Y-96680952D01*
X34092857Y-96633333D01*
X34045238Y-96538095D01*
X34045238Y-96442857D01*
X34092857Y-96347619D01*
X34140476Y-96300000D01*
X34235714Y-96252380D01*
X34473809Y-96252380D01*
X34616666Y-96300000D01*
X35378571Y-96728571D02*
X35521428Y-96776190D01*
X35569047Y-96823809D01*
X35616666Y-96919047D01*
X35616666Y-97061904D01*
X35569047Y-97157142D01*
X35521428Y-97204761D01*
X35426190Y-97252380D01*
X35045238Y-97252380D01*
X35045238Y-96252380D01*
X35378571Y-96252380D01*
X35473809Y-96300000D01*
X35521428Y-96347619D01*
X35569047Y-96442857D01*
X35569047Y-96538095D01*
X35521428Y-96633333D01*
X35473809Y-96680952D01*
X35378571Y-96728571D01*
X35045238Y-96728571D01*
%TO.C,D5*%
X69069047Y-78352380D02*
X69069047Y-77352380D01*
X69069047Y-77828571D02*
X69640476Y-77828571D01*
X69640476Y-78352380D02*
X69640476Y-77352380D01*
X70497619Y-78304761D02*
X70402380Y-78352380D01*
X70211904Y-78352380D01*
X70116666Y-78304761D01*
X70069047Y-78209523D01*
X70069047Y-77828571D01*
X70116666Y-77733333D01*
X70211904Y-77685714D01*
X70402380Y-77685714D01*
X70497619Y-77733333D01*
X70545238Y-77828571D01*
X70545238Y-77923809D01*
X70069047Y-78019047D01*
X71402380Y-78352380D02*
X71402380Y-77828571D01*
X71354761Y-77733333D01*
X71259523Y-77685714D01*
X71069047Y-77685714D01*
X70973809Y-77733333D01*
X71402380Y-78304761D02*
X71307142Y-78352380D01*
X71069047Y-78352380D01*
X70973809Y-78304761D01*
X70926190Y-78209523D01*
X70926190Y-78114285D01*
X70973809Y-78019047D01*
X71069047Y-77971428D01*
X71307142Y-77971428D01*
X71402380Y-77923809D01*
X71878571Y-78352380D02*
X71878571Y-77685714D01*
X71878571Y-77876190D02*
X71926190Y-77780952D01*
X71973809Y-77733333D01*
X72069047Y-77685714D01*
X72164285Y-77685714D01*
X72354761Y-77685714D02*
X72735714Y-77685714D01*
X72497619Y-77352380D02*
X72497619Y-78209523D01*
X72545238Y-78304761D01*
X72640476Y-78352380D01*
X72735714Y-78352380D01*
X73069047Y-78352380D02*
X73069047Y-77352380D01*
X73069047Y-77733333D02*
X73164285Y-77685714D01*
X73354761Y-77685714D01*
X73450000Y-77733333D01*
X73497619Y-77780952D01*
X73545238Y-77876190D01*
X73545238Y-78161904D01*
X73497619Y-78257142D01*
X73450000Y-78304761D01*
X73354761Y-78352380D01*
X73164285Y-78352380D01*
X73069047Y-78304761D01*
X74354761Y-78304761D02*
X74259523Y-78352380D01*
X74069047Y-78352380D01*
X73973809Y-78304761D01*
X73926190Y-78209523D01*
X73926190Y-77828571D01*
X73973809Y-77733333D01*
X74069047Y-77685714D01*
X74259523Y-77685714D01*
X74354761Y-77733333D01*
X74402380Y-77828571D01*
X74402380Y-77923809D01*
X73926190Y-78019047D01*
X75259523Y-78352380D02*
X75259523Y-77828571D01*
X75211904Y-77733333D01*
X75116666Y-77685714D01*
X74926190Y-77685714D01*
X74830952Y-77733333D01*
X75259523Y-78304761D02*
X75164285Y-78352380D01*
X74926190Y-78352380D01*
X74830952Y-78304761D01*
X74783333Y-78209523D01*
X74783333Y-78114285D01*
X74830952Y-78019047D01*
X74926190Y-77971428D01*
X75164285Y-77971428D01*
X75259523Y-77923809D01*
X75592857Y-77685714D02*
X75973809Y-77685714D01*
X75735714Y-77352380D02*
X75735714Y-78209523D01*
X75783333Y-78304761D01*
X75878571Y-78352380D01*
X75973809Y-78352380D01*
%TO.C,U6*%
X103828571Y-80547619D02*
X103828571Y-80214285D01*
X104352380Y-80071428D02*
X104352380Y-80547619D01*
X103352380Y-80547619D01*
X103352380Y-80071428D01*
X103685714Y-79642857D02*
X104352380Y-79642857D01*
X103780952Y-79642857D02*
X103733333Y-79595238D01*
X103685714Y-79500000D01*
X103685714Y-79357142D01*
X103733333Y-79261904D01*
X103828571Y-79214285D01*
X104352380Y-79214285D01*
X103685714Y-78833333D02*
X104352380Y-78595238D01*
X103685714Y-78357142D01*
X104352380Y-77976190D02*
X103685714Y-77976190D01*
X103352380Y-77976190D02*
X103400000Y-78023809D01*
X103447619Y-77976190D01*
X103400000Y-77928571D01*
X103352380Y-77976190D01*
X103447619Y-77976190D01*
X104352380Y-77500000D02*
X103685714Y-77500000D01*
X103876190Y-77500000D02*
X103780952Y-77452380D01*
X103733333Y-77404761D01*
X103685714Y-77309523D01*
X103685714Y-77214285D01*
X104352380Y-76738095D02*
X104304761Y-76833333D01*
X104257142Y-76880952D01*
X104161904Y-76928571D01*
X103876190Y-76928571D01*
X103780952Y-76880952D01*
X103733333Y-76833333D01*
X103685714Y-76738095D01*
X103685714Y-76595238D01*
X103733333Y-76500000D01*
X103780952Y-76452380D01*
X103876190Y-76404761D01*
X104161904Y-76404761D01*
X104257142Y-76452380D01*
X104304761Y-76500000D01*
X104352380Y-76595238D01*
X104352380Y-76738095D01*
X103685714Y-75976190D02*
X104352380Y-75976190D01*
X103780952Y-75976190D02*
X103733333Y-75928571D01*
X103685714Y-75833333D01*
X103685714Y-75690476D01*
X103733333Y-75595238D01*
X103828571Y-75547619D01*
X104352380Y-75547619D01*
X104352380Y-75071428D02*
X103685714Y-75071428D01*
X103780952Y-75071428D02*
X103733333Y-75023809D01*
X103685714Y-74928571D01*
X103685714Y-74785714D01*
X103733333Y-74690476D01*
X103828571Y-74642857D01*
X104352380Y-74642857D01*
X103828571Y-74642857D02*
X103733333Y-74595238D01*
X103685714Y-74500000D01*
X103685714Y-74357142D01*
X103733333Y-74261904D01*
X103828571Y-74214285D01*
X104352380Y-74214285D01*
X104304761Y-73357142D02*
X104352380Y-73452380D01*
X104352380Y-73642857D01*
X104304761Y-73738095D01*
X104209523Y-73785714D01*
X103828571Y-73785714D01*
X103733333Y-73738095D01*
X103685714Y-73642857D01*
X103685714Y-73452380D01*
X103733333Y-73357142D01*
X103828571Y-73309523D01*
X103923809Y-73309523D01*
X104019047Y-73785714D01*
X103685714Y-72880952D02*
X104352380Y-72880952D01*
X103780952Y-72880952D02*
X103733333Y-72833333D01*
X103685714Y-72738095D01*
X103685714Y-72595238D01*
X103733333Y-72500000D01*
X103828571Y-72452380D01*
X104352380Y-72452380D01*
X103685714Y-72119047D02*
X103685714Y-71738095D01*
X103352380Y-71976190D02*
X104209523Y-71976190D01*
X104304761Y-71928571D01*
X104352380Y-71833333D01*
X104352380Y-71738095D01*
X104352380Y-70976190D02*
X103828571Y-70976190D01*
X103733333Y-71023809D01*
X103685714Y-71119047D01*
X103685714Y-71309523D01*
X103733333Y-71404761D01*
X104304761Y-70976190D02*
X104352380Y-71071428D01*
X104352380Y-71309523D01*
X104304761Y-71404761D01*
X104209523Y-71452380D01*
X104114285Y-71452380D01*
X104019047Y-71404761D01*
X103971428Y-71309523D01*
X103971428Y-71071428D01*
X103923809Y-70976190D01*
X104352380Y-70357142D02*
X104304761Y-70452380D01*
X104209523Y-70500000D01*
X103352380Y-70500000D01*
%TO.C,TP5*%
X50935714Y-95252380D02*
X51269047Y-96252380D01*
X51602380Y-95252380D01*
X52507142Y-96252380D02*
X52173809Y-95776190D01*
X51935714Y-96252380D02*
X51935714Y-95252380D01*
X52316666Y-95252380D01*
X52411904Y-95300000D01*
X52459523Y-95347619D01*
X52507142Y-95442857D01*
X52507142Y-95585714D01*
X52459523Y-95680952D01*
X52411904Y-95728571D01*
X52316666Y-95776190D01*
X51935714Y-95776190D01*
X52792857Y-95252380D02*
X53364285Y-95252380D01*
X53078571Y-96252380D02*
X53078571Y-95252380D01*
X54269047Y-96157142D02*
X54221428Y-96204761D01*
X54078571Y-96252380D01*
X53983333Y-96252380D01*
X53840476Y-96204761D01*
X53745238Y-96109523D01*
X53697619Y-96014285D01*
X53650000Y-95823809D01*
X53650000Y-95680952D01*
X53697619Y-95490476D01*
X53745238Y-95395238D01*
X53840476Y-95300000D01*
X53983333Y-95252380D01*
X54078571Y-95252380D01*
X54221428Y-95300000D01*
X54269047Y-95347619D01*
%TO.C,TP2*%
X30059523Y-115352380D02*
X30392857Y-116352380D01*
X30726190Y-115352380D01*
X31059523Y-115352380D02*
X31059523Y-116161904D01*
X31107142Y-116257142D01*
X31154761Y-116304761D01*
X31250000Y-116352380D01*
X31440476Y-116352380D01*
X31535714Y-116304761D01*
X31583333Y-116257142D01*
X31630952Y-116161904D01*
X31630952Y-115352380D01*
X32059523Y-116304761D02*
X32202380Y-116352380D01*
X32440476Y-116352380D01*
X32535714Y-116304761D01*
X32583333Y-116257142D01*
X32630952Y-116161904D01*
X32630952Y-116066666D01*
X32583333Y-115971428D01*
X32535714Y-115923809D01*
X32440476Y-115876190D01*
X32250000Y-115828571D01*
X32154761Y-115780952D01*
X32107142Y-115733333D01*
X32059523Y-115638095D01*
X32059523Y-115542857D01*
X32107142Y-115447619D01*
X32154761Y-115400000D01*
X32250000Y-115352380D01*
X32488095Y-115352380D01*
X32630952Y-115400000D01*
X33392857Y-115828571D02*
X33535714Y-115876190D01*
X33583333Y-115923809D01*
X33630952Y-116019047D01*
X33630952Y-116161904D01*
X33583333Y-116257142D01*
X33535714Y-116304761D01*
X33440476Y-116352380D01*
X33059523Y-116352380D01*
X33059523Y-115352380D01*
X33392857Y-115352380D01*
X33488095Y-115400000D01*
X33535714Y-115447619D01*
X33583333Y-115542857D01*
X33583333Y-115638095D01*
X33535714Y-115733333D01*
X33488095Y-115780952D01*
X33392857Y-115828571D01*
X33059523Y-115828571D01*
X33821428Y-116447619D02*
X34583333Y-116447619D01*
X35345238Y-115400000D02*
X35250000Y-115352380D01*
X35107142Y-115352380D01*
X34964285Y-115400000D01*
X34869047Y-115495238D01*
X34821428Y-115590476D01*
X34773809Y-115780952D01*
X34773809Y-115923809D01*
X34821428Y-116114285D01*
X34869047Y-116209523D01*
X34964285Y-116304761D01*
X35107142Y-116352380D01*
X35202380Y-116352380D01*
X35345238Y-116304761D01*
X35392857Y-116257142D01*
X35392857Y-115923809D01*
X35202380Y-115923809D01*
X35821428Y-116352380D02*
X35821428Y-115352380D01*
X36392857Y-116352380D01*
X36392857Y-115352380D01*
X36821428Y-116304761D02*
X36964285Y-116352380D01*
X37202380Y-116352380D01*
X37297619Y-116304761D01*
X37345238Y-116257142D01*
X37392857Y-116161904D01*
X37392857Y-116066666D01*
X37345238Y-115971428D01*
X37297619Y-115923809D01*
X37202380Y-115876190D01*
X37011904Y-115828571D01*
X36916666Y-115780952D01*
X36869047Y-115733333D01*
X36821428Y-115638095D01*
X36821428Y-115542857D01*
X36869047Y-115447619D01*
X36916666Y-115400000D01*
X37011904Y-115352380D01*
X37250000Y-115352380D01*
X37392857Y-115400000D01*
X37773809Y-116304761D02*
X37916666Y-116352380D01*
X38154761Y-116352380D01*
X38250000Y-116304761D01*
X38297619Y-116257142D01*
X38345238Y-116161904D01*
X38345238Y-116066666D01*
X38297619Y-115971428D01*
X38250000Y-115923809D01*
X38154761Y-115876190D01*
X37964285Y-115828571D01*
X37869047Y-115780952D01*
X37821428Y-115733333D01*
X37773809Y-115638095D01*
X37773809Y-115542857D01*
X37821428Y-115447619D01*
X37869047Y-115400000D01*
X37964285Y-115352380D01*
X38202380Y-115352380D01*
X38345238Y-115400000D01*
%TO.C,U12*%
X74500000Y-29952380D02*
X74500000Y-30190476D01*
X74261904Y-30095238D02*
X74500000Y-30190476D01*
X74738095Y-30095238D01*
X74357142Y-30380952D02*
X74500000Y-30190476D01*
X74642857Y-30380952D01*
%TO.C,TP1*%
X38238095Y-46000000D02*
X38142857Y-45952380D01*
X38000000Y-45952380D01*
X37857142Y-46000000D01*
X37761904Y-46095238D01*
X37714285Y-46190476D01*
X37666666Y-46380952D01*
X37666666Y-46523809D01*
X37714285Y-46714285D01*
X37761904Y-46809523D01*
X37857142Y-46904761D01*
X38000000Y-46952380D01*
X38095238Y-46952380D01*
X38238095Y-46904761D01*
X38285714Y-46857142D01*
X38285714Y-46523809D01*
X38095238Y-46523809D01*
X38714285Y-46952380D02*
X38714285Y-45952380D01*
X39285714Y-46952380D01*
X39285714Y-45952380D01*
X39761904Y-46952380D02*
X39761904Y-45952380D01*
X40000000Y-45952380D01*
X40142857Y-46000000D01*
X40238095Y-46095238D01*
X40285714Y-46190476D01*
X40333333Y-46380952D01*
X40333333Y-46523809D01*
X40285714Y-46714285D01*
X40238095Y-46809523D01*
X40142857Y-46904761D01*
X40000000Y-46952380D01*
X39761904Y-46952380D01*
%TO.C,J5*%
X31021428Y-108250000D02*
X30926190Y-108202380D01*
X30783333Y-108202380D01*
X30640476Y-108250000D01*
X30545238Y-108345238D01*
X30497619Y-108440476D01*
X30450000Y-108630952D01*
X30450000Y-108773809D01*
X30497619Y-108964285D01*
X30545238Y-109059523D01*
X30640476Y-109154761D01*
X30783333Y-109202380D01*
X30878571Y-109202380D01*
X31021428Y-109154761D01*
X31069047Y-109107142D01*
X31069047Y-108773809D01*
X30878571Y-108773809D01*
X31497619Y-109202380D02*
X31497619Y-108202380D01*
X32069047Y-109202380D01*
X32069047Y-108202380D01*
X32497619Y-109154761D02*
X32640476Y-109202380D01*
X32878571Y-109202380D01*
X32973809Y-109154761D01*
X33021428Y-109107142D01*
X33069047Y-109011904D01*
X33069047Y-108916666D01*
X33021428Y-108821428D01*
X32973809Y-108773809D01*
X32878571Y-108726190D01*
X32688095Y-108678571D01*
X32592857Y-108630952D01*
X32545238Y-108583333D01*
X32497619Y-108488095D01*
X32497619Y-108392857D01*
X32545238Y-108297619D01*
X32592857Y-108250000D01*
X32688095Y-108202380D01*
X32926190Y-108202380D01*
X33069047Y-108250000D01*
X33450000Y-109154761D02*
X33592857Y-109202380D01*
X33830952Y-109202380D01*
X33926190Y-109154761D01*
X33973809Y-109107142D01*
X34021428Y-109011904D01*
X34021428Y-108916666D01*
X33973809Y-108821428D01*
X33926190Y-108773809D01*
X33830952Y-108726190D01*
X33640476Y-108678571D01*
X33545238Y-108630952D01*
X33497619Y-108583333D01*
X33450000Y-108488095D01*
X33450000Y-108392857D01*
X33497619Y-108297619D01*
X33545238Y-108250000D01*
X33640476Y-108202380D01*
X33878571Y-108202380D01*
X34021428Y-108250000D01*
X35211904Y-108202380D02*
X35211904Y-109011904D01*
X35259523Y-109107142D01*
X35307142Y-109154761D01*
X35402380Y-109202380D01*
X35592857Y-109202380D01*
X35688095Y-109154761D01*
X35735714Y-109107142D01*
X35783333Y-109011904D01*
X35783333Y-108202380D01*
X36211904Y-108916666D02*
X36688095Y-108916666D01*
X36116666Y-109202380D02*
X36450000Y-108202380D01*
X36783333Y-109202380D01*
X37688095Y-109202380D02*
X37354761Y-108726190D01*
X37116666Y-109202380D02*
X37116666Y-108202380D01*
X37497619Y-108202380D01*
X37592857Y-108250000D01*
X37640476Y-108297619D01*
X37688095Y-108392857D01*
X37688095Y-108535714D01*
X37640476Y-108630952D01*
X37592857Y-108678571D01*
X37497619Y-108726190D01*
X37116666Y-108726190D01*
X37973809Y-108202380D02*
X38545238Y-108202380D01*
X38259523Y-109202380D02*
X38259523Y-108202380D01*
%TO.C,J3*%
X73683852Y-124248549D02*
X73912752Y-124324849D01*
X74294252Y-124324849D01*
X74446852Y-124248549D01*
X74523152Y-124172249D01*
X74599452Y-124019649D01*
X74599452Y-123867049D01*
X74523152Y-123714449D01*
X74446852Y-123638149D01*
X74294252Y-123561850D01*
X73989052Y-123485550D01*
X73836452Y-123409250D01*
X73760152Y-123332950D01*
X73683852Y-123180350D01*
X73683852Y-123027750D01*
X73760152Y-122875150D01*
X73836452Y-122798850D01*
X73989052Y-122722550D01*
X74370552Y-122722550D01*
X74599452Y-122798850D01*
X75286151Y-124324849D02*
X75286151Y-122722550D01*
X75667651Y-122722550D01*
X75896551Y-122798850D01*
X76049151Y-122951450D01*
X76125451Y-123104050D01*
X76201751Y-123409250D01*
X76201751Y-123638149D01*
X76125451Y-123943349D01*
X76049151Y-124095949D01*
X75896551Y-124248549D01*
X75667651Y-124324849D01*
X75286151Y-124324849D01*
X79024849Y-124172249D02*
X78948549Y-124248549D01*
X78719649Y-124324849D01*
X78567049Y-124324849D01*
X78338149Y-124248549D01*
X78185550Y-124095949D01*
X78109250Y-123943349D01*
X78032950Y-123638149D01*
X78032950Y-123409250D01*
X78109250Y-123104050D01*
X78185550Y-122951450D01*
X78338149Y-122798850D01*
X78567049Y-122722550D01*
X78719649Y-122722550D01*
X78948549Y-122798850D01*
X79024849Y-122875150D01*
X80398248Y-124324849D02*
X80398248Y-123485550D01*
X80321948Y-123332950D01*
X80169348Y-123256650D01*
X79864149Y-123256650D01*
X79711549Y-123332950D01*
X80398248Y-124248549D02*
X80245648Y-124324849D01*
X79864149Y-124324849D01*
X79711549Y-124248549D01*
X79635249Y-124095949D01*
X79635249Y-123943349D01*
X79711549Y-123790749D01*
X79864149Y-123714449D01*
X80245648Y-123714449D01*
X80398248Y-123638149D01*
X81161248Y-124324849D02*
X81161248Y-123256650D01*
X81161248Y-123561850D02*
X81237548Y-123409250D01*
X81313848Y-123332950D01*
X81466448Y-123256650D01*
X81619047Y-123256650D01*
X82839847Y-124324849D02*
X82839847Y-122722550D01*
X82839847Y-124248549D02*
X82687247Y-124324849D01*
X82382047Y-124324849D01*
X82229447Y-124248549D01*
X82153147Y-124172249D01*
X82076847Y-124019649D01*
X82076847Y-123561850D01*
X82153147Y-123409250D01*
X82229447Y-123332950D01*
X82382047Y-123256650D01*
X82687247Y-123256650D01*
X82839847Y-123332950D01*
%TO.C,J8*%
X120407142Y-92652380D02*
X120597619Y-92652380D01*
X120692857Y-92604761D01*
X120740476Y-92557142D01*
X120835714Y-92414285D01*
X120883333Y-92223809D01*
X120883333Y-91842857D01*
X120835714Y-91747619D01*
X120788095Y-91700000D01*
X120692857Y-91652380D01*
X120502380Y-91652380D01*
X120407142Y-91700000D01*
X120359523Y-91747619D01*
X120311904Y-91842857D01*
X120311904Y-92080952D01*
X120359523Y-92176190D01*
X120407142Y-92223809D01*
X120502380Y-92271428D01*
X120692857Y-92271428D01*
X120788095Y-92223809D01*
X120835714Y-92176190D01*
X120883333Y-92080952D01*
X121835714Y-92652380D02*
X121264285Y-92652380D01*
X121550000Y-92652380D02*
X121550000Y-91652380D01*
X121454761Y-91795238D01*
X121359523Y-91890476D01*
X121264285Y-91938095D01*
X122740476Y-91652380D02*
X122264285Y-91652380D01*
X122216666Y-92128571D01*
X122264285Y-92080952D01*
X122359523Y-92033333D01*
X122597619Y-92033333D01*
X122692857Y-92080952D01*
X122740476Y-92128571D01*
X122788095Y-92223809D01*
X122788095Y-92461904D01*
X122740476Y-92557142D01*
X122692857Y-92604761D01*
X122597619Y-92652380D01*
X122359523Y-92652380D01*
X122264285Y-92604761D01*
X122216666Y-92557142D01*
X123216666Y-92652380D02*
X123216666Y-91652380D01*
X123550000Y-92366666D01*
X123883333Y-91652380D01*
X123883333Y-92652380D01*
X124359523Y-92652380D02*
X124359523Y-91652380D01*
X124359523Y-92128571D02*
X124930952Y-92128571D01*
X124930952Y-92652380D02*
X124930952Y-91652380D01*
X125311904Y-91985714D02*
X125835714Y-91985714D01*
X125311904Y-92652380D01*
X125835714Y-92652380D01*
%TO.C,J4*%
X52364285Y-122700000D02*
X52269047Y-122652380D01*
X52126190Y-122652380D01*
X51983333Y-122700000D01*
X51888095Y-122795238D01*
X51840476Y-122890476D01*
X51792857Y-123080952D01*
X51792857Y-123223809D01*
X51840476Y-123414285D01*
X51888095Y-123509523D01*
X51983333Y-123604761D01*
X52126190Y-123652380D01*
X52221428Y-123652380D01*
X52364285Y-123604761D01*
X52411904Y-123557142D01*
X52411904Y-123223809D01*
X52221428Y-123223809D01*
X52840476Y-123652380D02*
X52840476Y-122652380D01*
X53221428Y-122652380D01*
X53316666Y-122700000D01*
X53364285Y-122747619D01*
X53411904Y-122842857D01*
X53411904Y-122985714D01*
X53364285Y-123080952D01*
X53316666Y-123128571D01*
X53221428Y-123176190D01*
X52840476Y-123176190D01*
X53792857Y-123604761D02*
X53935714Y-123652380D01*
X54173809Y-123652380D01*
X54269047Y-123604761D01*
X54316666Y-123557142D01*
X54364285Y-123461904D01*
X54364285Y-123366666D01*
X54316666Y-123271428D01*
X54269047Y-123223809D01*
X54173809Y-123176190D01*
X53983333Y-123128571D01*
X53888095Y-123080952D01*
X53840476Y-123033333D01*
X53792857Y-122938095D01*
X53792857Y-122842857D01*
X53840476Y-122747619D01*
X53888095Y-122700000D01*
X53983333Y-122652380D01*
X54221428Y-122652380D01*
X54364285Y-122700000D01*
X55554761Y-123652380D02*
X55554761Y-122652380D01*
X56030952Y-122985714D02*
X56030952Y-123652380D01*
X56030952Y-123080952D02*
X56078571Y-123033333D01*
X56173809Y-122985714D01*
X56316666Y-122985714D01*
X56411904Y-123033333D01*
X56459523Y-123128571D01*
X56459523Y-123652380D01*
%TO.C,J7*%
X120883333Y-45652380D02*
X120311904Y-45652380D01*
X120597619Y-45652380D02*
X120597619Y-44652380D01*
X120502380Y-44795238D01*
X120407142Y-44890476D01*
X120311904Y-44938095D01*
X121740476Y-44985714D02*
X121740476Y-45652380D01*
X121502380Y-44604761D02*
X121264285Y-45319047D01*
X121883333Y-45319047D01*
X122692857Y-44985714D02*
X122692857Y-45652380D01*
X122454761Y-44604761D02*
X122216666Y-45319047D01*
X122835714Y-45319047D01*
X123216666Y-45652380D02*
X123216666Y-44652380D01*
X123550000Y-45366666D01*
X123883333Y-44652380D01*
X123883333Y-45652380D01*
X124359523Y-45652380D02*
X124359523Y-44652380D01*
X124359523Y-45128571D02*
X124930952Y-45128571D01*
X124930952Y-45652380D02*
X124930952Y-44652380D01*
X125311904Y-44985714D02*
X125835714Y-44985714D01*
X125311904Y-45652380D01*
X125835714Y-45652380D01*
%TO.C,BT1*%
X88983333Y-30033333D02*
X88983333Y-28633333D01*
X89516666Y-28633333D01*
X89650000Y-28700000D01*
X89716666Y-28766666D01*
X89783333Y-28900000D01*
X89783333Y-29100000D01*
X89716666Y-29233333D01*
X89650000Y-29300000D01*
X89516666Y-29366666D01*
X88983333Y-29366666D01*
X90583333Y-30033333D02*
X90450000Y-29966666D01*
X90383333Y-29900000D01*
X90316666Y-29766666D01*
X90316666Y-29366666D01*
X90383333Y-29233333D01*
X90450000Y-29166666D01*
X90583333Y-29100000D01*
X90783333Y-29100000D01*
X90916666Y-29166666D01*
X90983333Y-29233333D01*
X91050000Y-29366666D01*
X91050000Y-29766666D01*
X90983333Y-29900000D01*
X90916666Y-29966666D01*
X90783333Y-30033333D01*
X90583333Y-30033333D01*
X91516666Y-29100000D02*
X91783333Y-30033333D01*
X92050000Y-29366666D01*
X92316666Y-30033333D01*
X92583333Y-29100000D01*
X93650000Y-29966666D02*
X93516666Y-30033333D01*
X93250000Y-30033333D01*
X93116666Y-29966666D01*
X93050000Y-29833333D01*
X93050000Y-29300000D01*
X93116666Y-29166666D01*
X93250000Y-29100000D01*
X93516666Y-29100000D01*
X93650000Y-29166666D01*
X93716666Y-29300000D01*
X93716666Y-29433333D01*
X93050000Y-29566666D01*
X94316666Y-30033333D02*
X94316666Y-29100000D01*
X94316666Y-29366666D02*
X94383333Y-29233333D01*
X94450000Y-29166666D01*
X94583333Y-29100000D01*
X94716666Y-29100000D01*
X96250000Y-30033333D02*
X96250000Y-28633333D01*
X96916666Y-29100000D02*
X96916666Y-30033333D01*
X96916666Y-29233333D02*
X96983333Y-29166666D01*
X97116666Y-29100000D01*
X97316666Y-29100000D01*
X97450000Y-29166666D01*
X97516666Y-29300000D01*
X97516666Y-30033333D01*
%TO.C,TP11*%
X37604761Y-43252380D02*
X37938095Y-44252380D01*
X38271428Y-43252380D01*
X38604761Y-44252380D02*
X38604761Y-43252380D01*
X38938095Y-43966666D01*
X39271428Y-43252380D01*
X39271428Y-44252380D01*
X39700000Y-43966666D02*
X40176190Y-43966666D01*
X39604761Y-44252380D02*
X39938095Y-43252380D01*
X40271428Y-44252380D01*
X40604761Y-44252380D02*
X40604761Y-43252380D01*
X41080952Y-44252380D02*
X41080952Y-43252380D01*
X41652380Y-44252380D01*
X41652380Y-43252380D01*
%TO.C,D6*%
X120476190Y-57352380D02*
X120809523Y-58352380D01*
X121142857Y-57352380D01*
X121476190Y-58352380D02*
X121476190Y-57352380D01*
X121476190Y-57828571D02*
X122047619Y-57828571D01*
X122047619Y-58352380D02*
X122047619Y-57352380D01*
X122857142Y-57828571D02*
X122523809Y-57828571D01*
X122523809Y-58352380D02*
X122523809Y-57352380D01*
X123000000Y-57352380D01*
X124000000Y-57352380D02*
X124571428Y-57352380D01*
X124285714Y-58352380D02*
X124285714Y-57352380D01*
X124809523Y-57352380D02*
X125476190Y-58352380D01*
X125476190Y-57352380D02*
X124809523Y-58352380D01*
%TO.C,TP8*%
X76026190Y-34852380D02*
X76359523Y-35852380D01*
X76692857Y-34852380D01*
X77359523Y-35328571D02*
X77502380Y-35376190D01*
X77550000Y-35423809D01*
X77597619Y-35519047D01*
X77597619Y-35661904D01*
X77550000Y-35757142D01*
X77502380Y-35804761D01*
X77407142Y-35852380D01*
X77026190Y-35852380D01*
X77026190Y-34852380D01*
X77359523Y-34852380D01*
X77454761Y-34900000D01*
X77502380Y-34947619D01*
X77550000Y-35042857D01*
X77550000Y-35138095D01*
X77502380Y-35233333D01*
X77454761Y-35280952D01*
X77359523Y-35328571D01*
X77026190Y-35328571D01*
X77978571Y-35566666D02*
X78454761Y-35566666D01*
X77883333Y-35852380D02*
X78216666Y-34852380D01*
X78550000Y-35852380D01*
X78740476Y-34852380D02*
X79311904Y-34852380D01*
X79026190Y-35852380D02*
X79026190Y-34852380D01*
X79502380Y-34852380D02*
X80073809Y-34852380D01*
X79788095Y-35852380D02*
X79788095Y-34852380D01*
%TO.C,TP9*%
X38716666Y-28552380D02*
X39050000Y-29552380D01*
X39383333Y-28552380D01*
X39716666Y-28552380D02*
X39716666Y-29361904D01*
X39764285Y-29457142D01*
X39811904Y-29504761D01*
X39907142Y-29552380D01*
X40097619Y-29552380D01*
X40192857Y-29504761D01*
X40240476Y-29457142D01*
X40288095Y-29361904D01*
X40288095Y-28552380D01*
X40716666Y-29504761D02*
X40859523Y-29552380D01*
X41097619Y-29552380D01*
X41192857Y-29504761D01*
X41240476Y-29457142D01*
X41288095Y-29361904D01*
X41288095Y-29266666D01*
X41240476Y-29171428D01*
X41192857Y-29123809D01*
X41097619Y-29076190D01*
X40907142Y-29028571D01*
X40811904Y-28980952D01*
X40764285Y-28933333D01*
X40716666Y-28838095D01*
X40716666Y-28742857D01*
X40764285Y-28647619D01*
X40811904Y-28600000D01*
X40907142Y-28552380D01*
X41145238Y-28552380D01*
X41288095Y-28600000D01*
X42050000Y-29028571D02*
X42192857Y-29076190D01*
X42240476Y-29123809D01*
X42288095Y-29219047D01*
X42288095Y-29361904D01*
X42240476Y-29457142D01*
X42192857Y-29504761D01*
X42097619Y-29552380D01*
X41716666Y-29552380D01*
X41716666Y-28552380D01*
X42050000Y-28552380D01*
X42145238Y-28600000D01*
X42192857Y-28647619D01*
X42240476Y-28742857D01*
X42240476Y-28838095D01*
X42192857Y-28933333D01*
X42145238Y-28980952D01*
X42050000Y-29028571D01*
X41716666Y-29028571D01*
%TO.C,TP3*%
X32978571Y-110400000D02*
X32883333Y-110352380D01*
X32740476Y-110352380D01*
X32597619Y-110400000D01*
X32502380Y-110495238D01*
X32454761Y-110590476D01*
X32407142Y-110780952D01*
X32407142Y-110923809D01*
X32454761Y-111114285D01*
X32502380Y-111209523D01*
X32597619Y-111304761D01*
X32740476Y-111352380D01*
X32835714Y-111352380D01*
X32978571Y-111304761D01*
X33026190Y-111257142D01*
X33026190Y-110923809D01*
X32835714Y-110923809D01*
X33454761Y-111352380D02*
X33454761Y-110352380D01*
X34026190Y-111352380D01*
X34026190Y-110352380D01*
X34454761Y-111304761D02*
X34597619Y-111352380D01*
X34835714Y-111352380D01*
X34930952Y-111304761D01*
X34978571Y-111257142D01*
X35026190Y-111161904D01*
X35026190Y-111066666D01*
X34978571Y-110971428D01*
X34930952Y-110923809D01*
X34835714Y-110876190D01*
X34645238Y-110828571D01*
X34550000Y-110780952D01*
X34502380Y-110733333D01*
X34454761Y-110638095D01*
X34454761Y-110542857D01*
X34502380Y-110447619D01*
X34550000Y-110400000D01*
X34645238Y-110352380D01*
X34883333Y-110352380D01*
X35026190Y-110400000D01*
X35407142Y-111304761D02*
X35550000Y-111352380D01*
X35788095Y-111352380D01*
X35883333Y-111304761D01*
X35930952Y-111257142D01*
X35978571Y-111161904D01*
X35978571Y-111066666D01*
X35930952Y-110971428D01*
X35883333Y-110923809D01*
X35788095Y-110876190D01*
X35597619Y-110828571D01*
X35502380Y-110780952D01*
X35454761Y-110733333D01*
X35407142Y-110638095D01*
X35407142Y-110542857D01*
X35454761Y-110447619D01*
X35502380Y-110400000D01*
X35597619Y-110352380D01*
X35835714Y-110352380D01*
X35978571Y-110400000D01*
X36169047Y-111447619D02*
X36930952Y-111447619D01*
X37121428Y-111304761D02*
X37264285Y-111352380D01*
X37502380Y-111352380D01*
X37597619Y-111304761D01*
X37645238Y-111257142D01*
X37692857Y-111161904D01*
X37692857Y-111066666D01*
X37645238Y-110971428D01*
X37597619Y-110923809D01*
X37502380Y-110876190D01*
X37311904Y-110828571D01*
X37216666Y-110780952D01*
X37169047Y-110733333D01*
X37121428Y-110638095D01*
X37121428Y-110542857D01*
X37169047Y-110447619D01*
X37216666Y-110400000D01*
X37311904Y-110352380D01*
X37550000Y-110352380D01*
X37692857Y-110400000D01*
X38454761Y-110828571D02*
X38597619Y-110876190D01*
X38645238Y-110923809D01*
X38692857Y-111019047D01*
X38692857Y-111161904D01*
X38645238Y-111257142D01*
X38597619Y-111304761D01*
X38502380Y-111352380D01*
X38121428Y-111352380D01*
X38121428Y-110352380D01*
X38454761Y-110352380D01*
X38550000Y-110400000D01*
X38597619Y-110447619D01*
X38645238Y-110542857D01*
X38645238Y-110638095D01*
X38597619Y-110733333D01*
X38550000Y-110780952D01*
X38454761Y-110828571D01*
X38121428Y-110828571D01*
D13*
%TO.C,SW1*%
X48900000Y-88850000D02*
X48900000Y-84675000D01*
X52100000Y-88850000D02*
X52100000Y-84675000D01*
D14*
X49500000Y-89850000D02*
X49500000Y-89850000D01*
X49300000Y-89850000D02*
X49300000Y-89850000D01*
X49500000Y-89850000D02*
G75*
G03*
X49300000Y-89850000I-100000J0D01*
G01*
X49300000Y-89850000D02*
G75*
G03*
X49500000Y-89850000I100000J0D01*
G01*
D13*
%TO.C,SW2*%
X54900000Y-88850000D02*
X54900000Y-84675000D01*
X58100000Y-88850000D02*
X58100000Y-84675000D01*
D14*
X55500000Y-89850000D02*
X55500000Y-89850000D01*
X55300000Y-89850000D02*
X55300000Y-89850000D01*
X55500000Y-89850000D02*
G75*
G03*
X55300000Y-89850000I-100000J0D01*
G01*
X55300000Y-89850000D02*
G75*
G03*
X55500000Y-89850000I100000J0D01*
G01*
D15*
%TO.C,C37*%
X98267164Y-40210000D02*
X98482836Y-40210000D01*
X98267164Y-39490000D02*
X98482836Y-39490000D01*
%TO.C,C77*%
X105827164Y-49140000D02*
X106042836Y-49140000D01*
X105827164Y-49860000D02*
X106042836Y-49860000D01*
%TO.C,C25*%
X98567164Y-42565000D02*
X98782836Y-42565000D01*
X98567164Y-43285000D02*
X98782836Y-43285000D01*
%TO.C,C28*%
X96475000Y-45257836D02*
X96475000Y-45042164D01*
X95755000Y-45257836D02*
X95755000Y-45042164D01*
%TO.C,C19*%
X89155000Y-96522836D02*
X89155000Y-96307164D01*
X89875000Y-96522836D02*
X89875000Y-96307164D01*
%TO.C,C83*%
X109945000Y-48942164D02*
X109945000Y-49157836D01*
X109225000Y-48942164D02*
X109225000Y-49157836D01*
%TO.C,TP10*%
X63325000Y-42925000D02*
G75*
G03*
X63325000Y-42925000I-700000J0D01*
G01*
%TO.C,R10*%
X50870000Y-69078641D02*
X50870000Y-68771359D01*
X51630000Y-69078641D02*
X51630000Y-68771359D01*
%TO.C,R26*%
X80553641Y-74545000D02*
X80246359Y-74545000D01*
X80553641Y-75305000D02*
X80246359Y-75305000D01*
%TO.C,C63*%
X34262164Y-77390000D02*
X34477836Y-77390000D01*
X34262164Y-78110000D02*
X34477836Y-78110000D01*
%TO.C,U10*%
X91825000Y-94625000D02*
X91825000Y-93875000D01*
X91825000Y-93875000D02*
X92575000Y-93875000D01*
X91825000Y-99345000D02*
X91825000Y-100095000D01*
X91825000Y-100095000D02*
X92575000Y-100095000D01*
X98045000Y-100095000D02*
X97295000Y-100095000D01*
X98045000Y-99345000D02*
X98045000Y-100095000D01*
X98045000Y-94625000D02*
X98045000Y-93875000D01*
%TO.C,D1*%
X36590000Y-59350000D02*
X36590000Y-60650000D01*
X39710000Y-60650000D02*
X39710000Y-58650000D01*
%TO.C,C29*%
X98175000Y-45257836D02*
X98175000Y-45042164D01*
X97455000Y-45257836D02*
X97455000Y-45042164D01*
%TO.C,R31*%
X54203641Y-28580000D02*
X53896359Y-28580000D01*
X54203641Y-27820000D02*
X53896359Y-27820000D01*
%TO.C,R23*%
X77653641Y-77520000D02*
X77346359Y-77520000D01*
X77653641Y-78280000D02*
X77346359Y-78280000D01*
%TO.C,L3*%
X38404000Y-39154000D02*
X34096000Y-39154000D01*
X34096000Y-34846000D02*
X38404000Y-34846000D01*
%TO.C,C30*%
X56410000Y-35707836D02*
X56410000Y-35492164D01*
X55690000Y-35707836D02*
X55690000Y-35492164D01*
%TO.C,R11*%
X117296359Y-72280000D02*
X117603641Y-72280000D01*
X117296359Y-71520000D02*
X117603641Y-71520000D01*
%TO.C,C15*%
X125992164Y-74665000D02*
X126207836Y-74665000D01*
X125992164Y-75385000D02*
X126207836Y-75385000D01*
%TO.C,U5*%
X47370000Y-79110000D02*
X48020000Y-79110000D01*
X47370000Y-78460000D02*
X47370000Y-79110000D01*
X54590000Y-78460000D02*
X54590000Y-79110000D01*
X47370000Y-71890000D02*
X48020000Y-71890000D01*
X54590000Y-72540000D02*
X54590000Y-71890000D01*
X54590000Y-79110000D02*
X53940000Y-79110000D01*
X47370000Y-72540000D02*
X47370000Y-71890000D01*
D16*
%TO.C,U15*%
X67580000Y-32470000D02*
X68780000Y-32470000D01*
X67580000Y-34930000D02*
X68780000Y-34930000D01*
D14*
X66680000Y-32950000D02*
G75*
G03*
X66680000Y-32950000I-100000J0D01*
G01*
D15*
%TO.C,C78*%
X101625000Y-101142836D02*
X101625000Y-100927164D01*
X102345000Y-101142836D02*
X102345000Y-100927164D01*
%TO.C,C75*%
X99975000Y-98727164D02*
X99975000Y-98942836D01*
X100695000Y-98727164D02*
X100695000Y-98942836D01*
%TO.C,C54*%
X75085000Y-26940580D02*
X75085000Y-26659420D01*
X74065000Y-26940580D02*
X74065000Y-26659420D01*
%TO.C,C9*%
X68842164Y-78740000D02*
X69057836Y-78740000D01*
X68842164Y-79460000D02*
X69057836Y-79460000D01*
%TO.C,R1*%
X37528641Y-92980000D02*
X37221359Y-92980000D01*
X37528641Y-92220000D02*
X37221359Y-92220000D01*
%TO.C,C6*%
X49310000Y-69047836D02*
X49310000Y-68832164D01*
X50030000Y-69047836D02*
X50030000Y-68832164D01*
%TO.C,D3*%
X56990000Y-104450000D02*
X56990000Y-109050000D01*
X60010000Y-104250000D02*
X60010000Y-109050000D01*
X59200000Y-104250000D02*
X60010000Y-104250000D01*
%TO.C,R16*%
X61180000Y-97728641D02*
X61180000Y-97421359D01*
X60420000Y-97728641D02*
X60420000Y-97421359D01*
%TO.C,C82*%
X104375000Y-98507164D02*
X104375000Y-98722836D01*
X105095000Y-98507164D02*
X105095000Y-98722836D01*
%TO.C,C62*%
X34262164Y-74110000D02*
X34477836Y-74110000D01*
X34262164Y-73390000D02*
X34477836Y-73390000D01*
%TO.C,R35*%
X73505000Y-26371359D02*
X73505000Y-26678641D01*
X72745000Y-26371359D02*
X72745000Y-26678641D01*
%TO.C,C33*%
X29607836Y-38110000D02*
X29392164Y-38110000D01*
X29607836Y-37390000D02*
X29392164Y-37390000D01*
%TO.C,Q2*%
X121375000Y-113035000D02*
X123275000Y-113035000D01*
X122775000Y-110715000D02*
X121375000Y-110715000D01*
%TO.C,C57*%
X47235000Y-35011252D02*
X47235000Y-34488748D01*
X45765000Y-35011252D02*
X45765000Y-34488748D01*
%TO.C,U7*%
X114500000Y-78110000D02*
X112300000Y-78110000D01*
X114500000Y-78110000D02*
X118100000Y-78110000D01*
X114500000Y-72890000D02*
X116700000Y-72890000D01*
X114500000Y-72890000D02*
X112300000Y-72890000D01*
%TO.C,R27*%
X41670000Y-118553641D02*
X41670000Y-118246359D01*
X42430000Y-118553641D02*
X42430000Y-118246359D01*
%TO.C,R4*%
X37221359Y-57955000D02*
X37528641Y-57955000D01*
X37221359Y-57195000D02*
X37528641Y-57195000D01*
%TO.C,C64*%
X103990000Y-49107836D02*
X103990000Y-48892164D01*
X104710000Y-49107836D02*
X104710000Y-48892164D01*
%TO.C,C58*%
X38890000Y-40163748D02*
X38890000Y-40686252D01*
X40360000Y-40163748D02*
X40360000Y-40686252D01*
%TO.C,TP7*%
X112350000Y-70550000D02*
G75*
G03*
X112350000Y-70550000I-700000J0D01*
G01*
%TO.C,C12*%
X57742164Y-77260000D02*
X57957836Y-77260000D01*
X57742164Y-76540000D02*
X57957836Y-76540000D01*
%TO.C,R29*%
X50830000Y-116053641D02*
X50830000Y-115746359D01*
X50070000Y-116053641D02*
X50070000Y-115746359D01*
D13*
%TO.C,Y3*%
X38350000Y-79050000D02*
X38350000Y-79050000D01*
X38350000Y-78950000D02*
X38350000Y-78950000D01*
D14*
X39950000Y-78250000D02*
X39950000Y-73250000D01*
X36750000Y-78250000D02*
X36750000Y-73250000D01*
D13*
X38350000Y-78950000D02*
G75*
G03*
X38350000Y-79050000I0J-50000D01*
G01*
X38350000Y-79050000D02*
G75*
G03*
X38350000Y-78950000I0J50000D01*
G01*
D15*
%TO.C,C74*%
X117173414Y-97410000D02*
X117389086Y-97410000D01*
X117173414Y-96690000D02*
X117389086Y-96690000D01*
%TO.C,C23*%
X111995000Y-95142836D02*
X111995000Y-94927164D01*
X111275000Y-95142836D02*
X111275000Y-94927164D01*
%TO.C,R37*%
X58522936Y-37910000D02*
X59977064Y-37910000D01*
X58522936Y-36090000D02*
X59977064Y-36090000D01*
%TO.C,U14*%
X48465000Y-34890000D02*
X49190000Y-34890000D01*
X52685000Y-38385000D02*
X52685000Y-39110000D01*
X52685000Y-34890000D02*
X51960000Y-34890000D01*
X52685000Y-39110000D02*
X51960000Y-39110000D01*
X48465000Y-38385000D02*
X48465000Y-39110000D01*
X52685000Y-35615000D02*
X52685000Y-34890000D01*
X48465000Y-35615000D02*
X48465000Y-34890000D01*
%TO.C,R13*%
X66805000Y-67796359D02*
X66805000Y-68103641D01*
X66045000Y-67796359D02*
X66045000Y-68103641D01*
%TO.C,J6*%
X33295000Y-83480000D02*
X33295000Y-80820000D01*
X33295000Y-80820000D02*
X43515000Y-80820000D01*
X43515000Y-83480000D02*
X43515000Y-80820000D01*
X30695000Y-83480000D02*
X30695000Y-82150000D01*
X32025000Y-83480000D02*
X30695000Y-83480000D01*
X33295000Y-83480000D02*
X43515000Y-83480000D01*
%TO.C,C53*%
X71259420Y-34460000D02*
X71540580Y-34460000D01*
X71259420Y-33440000D02*
X71540580Y-33440000D01*
%TO.C,U1*%
X39250000Y-122260000D02*
X40050000Y-122260000D01*
X39250000Y-119140000D02*
X37450000Y-119140000D01*
X39250000Y-122260000D02*
X38450000Y-122260000D01*
X39250000Y-119140000D02*
X40050000Y-119140000D01*
%TO.C,C34*%
X49342164Y-31840000D02*
X49557836Y-31840000D01*
X49342164Y-32560000D02*
X49557836Y-32560000D01*
%TO.C,C71*%
X107042836Y-48560000D02*
X106827164Y-48560000D01*
X107042836Y-47840000D02*
X106827164Y-47840000D01*
%TO.C,Q3*%
X78200000Y-74415000D02*
X76800000Y-74415000D01*
X76800000Y-76735000D02*
X78700000Y-76735000D01*
%TO.C,R25*%
X74753641Y-76680000D02*
X74446359Y-76680000D01*
X74753641Y-75920000D02*
X74446359Y-75920000D01*
%TO.C,R33*%
X71620000Y-26371359D02*
X71620000Y-26678641D01*
X72380000Y-26371359D02*
X72380000Y-26678641D01*
%TO.C,C67*%
X101175000Y-98727164D02*
X101175000Y-98942836D01*
X101895000Y-98727164D02*
X101895000Y-98942836D01*
%TO.C,D4*%
X120500000Y-103590000D02*
X125300000Y-103590000D01*
X120500000Y-104400000D02*
X120500000Y-103590000D01*
X120700000Y-106610000D02*
X125300000Y-106610000D01*
%TO.C,C24*%
X91807836Y-50490000D02*
X91592164Y-50490000D01*
X91807836Y-51210000D02*
X91592164Y-51210000D01*
%TO.C,C11*%
X56242164Y-72360000D02*
X56457836Y-72360000D01*
X56242164Y-71640000D02*
X56457836Y-71640000D01*
%TO.C,C44*%
X39390580Y-122890000D02*
X39109420Y-122890000D01*
X39390580Y-123910000D02*
X39109420Y-123910000D01*
D12*
%TO.C,U8*%
X124350000Y-77100000D02*
X123950000Y-77100000D01*
X124350000Y-73900000D02*
X124350000Y-74300000D01*
X121150000Y-77100000D02*
X121150000Y-76700000D01*
X121150000Y-73900000D02*
X121550000Y-73900000D01*
X121150000Y-73900000D02*
X121150000Y-74300000D01*
X124350000Y-73900000D02*
X123950000Y-73900000D01*
X124350000Y-77100000D02*
X124350000Y-76700000D01*
D15*
%TO.C,TP4*%
X48350000Y-115700000D02*
G75*
G03*
X48350000Y-115700000I-700000J0D01*
G01*
%TO.C,C21*%
X97537164Y-91915000D02*
X97752836Y-91915000D01*
X97537164Y-91195000D02*
X97752836Y-91195000D01*
%TO.C,C36*%
X104940000Y-78792164D02*
X104940000Y-79007836D01*
X105660000Y-78792164D02*
X105660000Y-79007836D01*
%TO.C,C51*%
X125290000Y-80259420D02*
X125290000Y-80540580D01*
X126310000Y-80259420D02*
X126310000Y-80540580D01*
%TO.C,R34*%
X72871359Y-32305000D02*
X73178641Y-32305000D01*
X72871359Y-31545000D02*
X73178641Y-31545000D01*
%TO.C,C5*%
X53590000Y-81592164D02*
X53590000Y-81807836D01*
X54310000Y-81592164D02*
X54310000Y-81807836D01*
%TO.C,C17*%
X117040000Y-79292164D02*
X117040000Y-79507836D01*
X117760000Y-79292164D02*
X117760000Y-79507836D01*
D16*
%TO.C,U3*%
X55250000Y-100650000D02*
X55250000Y-112850000D01*
X39250000Y-112850000D02*
X39250000Y-100650000D01*
D14*
X40120000Y-114550000D02*
G75*
G03*
X40120000Y-114550000I-100000J0D01*
G01*
D15*
%TO.C,R8*%
X45370000Y-115346359D02*
X45370000Y-115653641D01*
X46130000Y-115346359D02*
X46130000Y-115653641D01*
%TO.C,C38*%
X106540000Y-78792164D02*
X106540000Y-79007836D01*
X107260000Y-78792164D02*
X107260000Y-79007836D01*
%TO.C,C65*%
X111325000Y-51092164D02*
X111325000Y-51307836D01*
X112045000Y-51092164D02*
X112045000Y-51307836D01*
%TO.C,R5*%
X57530000Y-69453641D02*
X57530000Y-69146359D01*
X56770000Y-69453641D02*
X56770000Y-69146359D01*
%TO.C,C27*%
X97817164Y-93105000D02*
X98032836Y-93105000D01*
X97817164Y-92385000D02*
X98032836Y-92385000D01*
%TO.C,U9*%
X122750000Y-79040000D02*
X122100000Y-79040000D01*
X122750000Y-82160000D02*
X122100000Y-82160000D01*
X122750000Y-79040000D02*
X123400000Y-79040000D01*
X122750000Y-82160000D02*
X124425000Y-82160000D01*
%TO.C,J1*%
X25045000Y-55405000D02*
X25045000Y-64595000D01*
X34455000Y-55525000D02*
X34455000Y-64475000D01*
X31375000Y-64595000D02*
X30475000Y-64595000D01*
X27775000Y-55405000D02*
X25045000Y-55405000D01*
X31375000Y-55405000D02*
X30475000Y-55405000D01*
X27775000Y-64595000D02*
X25045000Y-64595000D01*
%TO.C,J2*%
X31375000Y-94595000D02*
X30475000Y-94595000D01*
X34455000Y-85525000D02*
X34455000Y-94475000D01*
X27775000Y-94595000D02*
X25045000Y-94595000D01*
X27775000Y-85405000D02*
X25045000Y-85405000D01*
X25045000Y-85405000D02*
X25045000Y-94595000D01*
X31375000Y-85405000D02*
X30475000Y-85405000D01*
%TO.C,D5*%
X73210000Y-76985000D02*
X73210000Y-74700000D01*
X71740000Y-76985000D02*
X73210000Y-76985000D01*
X71740000Y-74700000D02*
X71740000Y-76985000D01*
%TO.C,U6*%
X104890000Y-75500000D02*
X104890000Y-77000000D01*
X108110000Y-74000000D02*
X108110000Y-77000000D01*
%TO.C,C76*%
X103810000Y-51092164D02*
X103810000Y-51307836D01*
X103090000Y-51092164D02*
X103090000Y-51307836D01*
%TO.C,TP5*%
X50375000Y-96700000D02*
G75*
G03*
X50375000Y-96700000I-700000J0D01*
G01*
%TO.C,C32*%
X39140000Y-34607836D02*
X39140000Y-34392164D01*
X39860000Y-34607836D02*
X39860000Y-34392164D01*
%TO.C,TP2*%
X40425000Y-115875000D02*
G75*
G03*
X40425000Y-115875000I-700000J0D01*
G01*
D16*
%TO.C,SW4*%
X74150000Y-37150000D02*
X77650000Y-37150000D01*
X77650000Y-37150000D02*
X77650000Y-40580000D01*
X74150000Y-38080000D02*
X74150000Y-37150000D01*
X77650000Y-42220000D02*
X77650000Y-45650000D01*
X77650000Y-45650000D02*
X74150000Y-45650000D01*
X74150000Y-39720000D02*
X74150000Y-43080000D01*
X74150000Y-45650000D02*
X74150000Y-44720000D01*
D14*
X71381000Y-38900000D02*
G75*
G03*
X71381000Y-38900000I-100000J0D01*
G01*
D15*
%TO.C,R28*%
X68403641Y-36620000D02*
X68096359Y-36620000D01*
X68403641Y-37380000D02*
X68096359Y-37380000D01*
D14*
%TO.C,SW3*%
X61300000Y-89850000D02*
G75*
G03*
X61500000Y-89850000I100000J0D01*
G01*
X61500000Y-89850000D02*
G75*
G03*
X61300000Y-89850000I-100000J0D01*
G01*
X61500000Y-89850000D02*
X61500000Y-89850000D01*
D13*
X64100000Y-88850000D02*
X64100000Y-84675000D01*
X60900000Y-88850000D02*
X60900000Y-84675000D01*
D14*
X61300000Y-89850000D02*
X61300000Y-89850000D01*
D15*
%TO.C,TP1*%
X36950000Y-46425000D02*
G75*
G03*
X36950000Y-46425000I-700000J0D01*
G01*
%TO.C,J5*%
X35780000Y-107330000D02*
X34450000Y-107330000D01*
X35780000Y-104730000D02*
X35780000Y-99590000D01*
X35780000Y-99590000D02*
X33120000Y-99590000D01*
X35780000Y-104730000D02*
X33120000Y-104730000D01*
X35780000Y-106000000D02*
X35780000Y-107330000D01*
X33120000Y-104730000D02*
X33120000Y-99590000D01*
%TO.C,C73*%
X108975000Y-99642836D02*
X108975000Y-99427164D01*
X109695000Y-99642836D02*
X109695000Y-99427164D01*
D14*
%TO.C,J3*%
X85050000Y-107525000D02*
X83500000Y-107525000D01*
X85050000Y-121975000D02*
X71450000Y-121975000D01*
X71450000Y-107525000D02*
X71450000Y-108475000D01*
X85050000Y-119475000D02*
X85050000Y-121975000D01*
X85050000Y-107525000D02*
X85050000Y-108475000D01*
X73000000Y-107525000D02*
X71450000Y-107525000D01*
X71450000Y-119475000D02*
X71450000Y-121975000D01*
X73000000Y-107525000D02*
G75*
G03*
X83500000Y-107525000I5250000J9038541D01*
G01*
X74150000Y-112050000D02*
G75*
G03*
X74150000Y-112050000I-100000J0D01*
G01*
D15*
%TO.C,R3*%
X37528641Y-62755000D02*
X37221359Y-62755000D01*
X37528641Y-61995000D02*
X37221359Y-61995000D01*
%TO.C,R15*%
X56305000Y-97728641D02*
X56305000Y-97421359D01*
X55545000Y-97728641D02*
X55545000Y-97421359D01*
%TO.C,R30*%
X53896359Y-26220000D02*
X54203641Y-26220000D01*
X53896359Y-26980000D02*
X54203641Y-26980000D01*
%TO.C,C69*%
X102375000Y-98727164D02*
X102375000Y-98942836D01*
X103095000Y-98727164D02*
X103095000Y-98942836D01*
%TO.C,C80*%
X102027164Y-96655000D02*
X102242836Y-96655000D01*
X102027164Y-97375000D02*
X102242836Y-97375000D01*
%TO.C,U11*%
X93255000Y-53110000D02*
X94005000Y-53110000D01*
X93255000Y-52360000D02*
X93255000Y-53110000D01*
X93255000Y-47640000D02*
X93255000Y-46890000D01*
X99475000Y-53110000D02*
X98725000Y-53110000D01*
X99475000Y-52360000D02*
X99475000Y-53110000D01*
X99475000Y-47640000D02*
X99475000Y-46890000D01*
X93255000Y-46890000D02*
X94005000Y-46890000D01*
%TO.C,Q1*%
X57675000Y-99235000D02*
X59575000Y-99235000D01*
X59075000Y-96915000D02*
X57675000Y-96915000D01*
%TO.C,C52*%
X53990000Y-35540580D02*
X53990000Y-35259420D01*
X55010000Y-35540580D02*
X55010000Y-35259420D01*
%TO.C,C14*%
X44357836Y-77560000D02*
X44142164Y-77560000D01*
X44357836Y-76840000D02*
X44142164Y-76840000D01*
%TO.C,C81*%
X102045000Y-95292836D02*
X102045000Y-95077164D01*
X101325000Y-95292836D02*
X101325000Y-95077164D01*
%TO.C,C16*%
X125992164Y-76460000D02*
X126207836Y-76460000D01*
X125992164Y-75740000D02*
X126207836Y-75740000D01*
%TO.C,R9*%
X52270000Y-69078641D02*
X52270000Y-68771359D01*
X53030000Y-69078641D02*
X53030000Y-68771359D01*
%TO.C,R7*%
X44930000Y-115346359D02*
X44930000Y-115653641D01*
X44170000Y-115346359D02*
X44170000Y-115653641D01*
%TO.C,R32*%
X68846359Y-72280000D02*
X69153641Y-72280000D01*
X68846359Y-71520000D02*
X69153641Y-71520000D01*
%TO.C,C8*%
X44357836Y-75765000D02*
X44142164Y-75765000D01*
X44357836Y-76485000D02*
X44142164Y-76485000D01*
%TO.C,U13*%
X108635000Y-98175000D02*
X110035000Y-98175000D01*
X110035000Y-95855000D02*
X108135000Y-95855000D01*
D16*
%TO.C,J8*%
X119800000Y-98025000D02*
X119800000Y-96025000D01*
X126200000Y-96025000D02*
X126200000Y-98025000D01*
X124000000Y-100225000D02*
X122000000Y-100225000D01*
X122000000Y-93825000D02*
X124000000Y-93825000D01*
D15*
%TO.C,C22*%
X101010000Y-52792164D02*
X101010000Y-53007836D01*
X100290000Y-52792164D02*
X100290000Y-53007836D01*
%TO.C,R38*%
X48663641Y-47680000D02*
X48356359Y-47680000D01*
X48663641Y-48440000D02*
X48356359Y-48440000D01*
%TO.C,C43*%
X56259420Y-81910000D02*
X56540580Y-81910000D01*
X56259420Y-80890000D02*
X56540580Y-80890000D01*
%TO.C,C50*%
X122740580Y-83810000D02*
X122459420Y-83810000D01*
X122740580Y-82790000D02*
X122459420Y-82790000D01*
%TO.C,C87*%
X124110000Y-71632836D02*
X124110000Y-71417164D01*
X123390000Y-71632836D02*
X123390000Y-71417164D01*
D16*
%TO.C,J4*%
X46250000Y-117550000D02*
X48250000Y-117550000D01*
X50450000Y-119750000D02*
X50450000Y-121750000D01*
X44050000Y-121750000D02*
X44050000Y-119750000D01*
X48250000Y-123950000D02*
X46250000Y-123950000D01*
D15*
%TO.C,C61*%
X32935000Y-39375000D02*
X32935000Y-40000000D01*
X28490000Y-45760000D02*
X30190000Y-45760000D01*
X32945563Y-40240000D02*
X34010000Y-41304437D01*
X28490000Y-41304437D02*
X28490000Y-45760000D01*
X34010000Y-41304437D02*
X34010000Y-45760000D01*
X32945563Y-40240000D02*
X32310000Y-40240000D01*
X33247500Y-39687500D02*
X32622500Y-39687500D01*
X29554437Y-40240000D02*
X30190000Y-40240000D01*
X29554437Y-40240000D02*
X28490000Y-41304437D01*
X34010000Y-45760000D02*
X32310000Y-45760000D01*
%TO.C,R18*%
X59605000Y-102578641D02*
X59605000Y-102271359D01*
X58845000Y-102578641D02*
X58845000Y-102271359D01*
%TO.C,C72*%
X109945000Y-51142164D02*
X109945000Y-51357836D01*
X109225000Y-51142164D02*
X109225000Y-51357836D01*
%TO.C,C47*%
X48160000Y-94140580D02*
X48160000Y-93859420D01*
X47140000Y-94140580D02*
X47140000Y-93859420D01*
%TO.C,C18*%
X111290000Y-79292164D02*
X111290000Y-79507836D01*
X112010000Y-79292164D02*
X112010000Y-79507836D01*
%TO.C,C84*%
X106227164Y-96025000D02*
X106442836Y-96025000D01*
X106227164Y-95305000D02*
X106442836Y-95305000D01*
%TO.C,C85*%
X94705000Y-91582836D02*
X94705000Y-91367164D01*
X93985000Y-91582836D02*
X93985000Y-91367164D01*
%TO.C,C42*%
X39290580Y-118510000D02*
X39009420Y-118510000D01*
X39290580Y-117490000D02*
X39009420Y-117490000D01*
%TO.C,C26*%
X95235000Y-91582836D02*
X95235000Y-91367164D01*
X95955000Y-91582836D02*
X95955000Y-91367164D01*
D16*
%TO.C,J7*%
X122000000Y-46800000D02*
X124000000Y-46800000D01*
X126200000Y-49000000D02*
X126200000Y-51000000D01*
X119800000Y-51000000D02*
X119800000Y-49000000D01*
X124000000Y-53200000D02*
X122000000Y-53200000D01*
D15*
%TO.C,C41*%
X68400580Y-116750000D02*
X68119420Y-116750000D01*
X68400580Y-115730000D02*
X68119420Y-115730000D01*
%TO.C,C68*%
X104290000Y-51092164D02*
X104290000Y-51307836D01*
X105010000Y-51092164D02*
X105010000Y-51307836D01*
%TO.C,C55*%
X66285000Y-37238748D02*
X66285000Y-37761252D01*
X64815000Y-37238748D02*
X64815000Y-37761252D01*
%TO.C,L1*%
X48346000Y-40596000D02*
X52654000Y-40596000D01*
X52654000Y-44904000D02*
X48346000Y-44904000D01*
D14*
%TO.C,BT1*%
X78350000Y-33837500D02*
G75*
G03*
X78350000Y-33837500I-100000J0D01*
G01*
D16*
X75750000Y-32837500D02*
X75750000Y-25237500D01*
X85750000Y-25237500D02*
X85750000Y-32837500D01*
X85750000Y-32837500D02*
X75750000Y-32837500D01*
X75750000Y-25237500D02*
X85750000Y-25237500D01*
D15*
%TO.C,C10*%
X49240000Y-81692164D02*
X49240000Y-81907836D01*
X48520000Y-81692164D02*
X48520000Y-81907836D01*
%TO.C,R24*%
X77653641Y-79455000D02*
X77346359Y-79455000D01*
X77653641Y-78695000D02*
X77346359Y-78695000D01*
%TO.C,R6*%
X55270000Y-69453641D02*
X55270000Y-69146359D01*
X56030000Y-69453641D02*
X56030000Y-69146359D01*
%TO.C,R20*%
X119378641Y-113495000D02*
X119071359Y-113495000D01*
X119378641Y-114255000D02*
X119071359Y-114255000D01*
%TO.C,Q4*%
X67450000Y-31500000D02*
X69050000Y-31500000D01*
X69050000Y-28300000D02*
X66750000Y-28300000D01*
D16*
%TO.C,Y1*%
X95516000Y-89765000D02*
X95074000Y-89765000D01*
X95516000Y-87765000D02*
X95074000Y-87765000D01*
D14*
X97295000Y-87915000D02*
G75*
G03*
X97295000Y-87915000I-100000J0D01*
G01*
D15*
%TO.C,C70*%
X102610000Y-51092164D02*
X102610000Y-51307836D01*
X101890000Y-51092164D02*
X101890000Y-51307836D01*
%TO.C,L2*%
X45154000Y-39154000D02*
X40846000Y-39154000D01*
X40846000Y-34846000D02*
X45154000Y-34846000D01*
%TO.C,R22*%
X122345000Y-109021359D02*
X122345000Y-109328641D01*
X123105000Y-109021359D02*
X123105000Y-109328641D01*
D13*
%TO.C,J9*%
X84950000Y-40050000D02*
X84950000Y-40050000D01*
X84950000Y-39950000D02*
X84950000Y-39950000D01*
X84950000Y-39950000D02*
G75*
G03*
X84950000Y-40050000I0J-50000D01*
G01*
X84950000Y-40050000D02*
G75*
G03*
X84950000Y-39950000I0J50000D01*
G01*
D15*
%TO.C,R14*%
X42230000Y-77403641D02*
X42230000Y-77096359D01*
X41470000Y-77403641D02*
X41470000Y-77096359D01*
%TO.C,U4*%
X43290000Y-93600000D02*
X43290000Y-92950000D01*
X46410000Y-93600000D02*
X46410000Y-94250000D01*
X43290000Y-93600000D02*
X43290000Y-95275000D01*
X46410000Y-93600000D02*
X46410000Y-92950000D01*
%TO.C,C56*%
X45765000Y-38988748D02*
X45765000Y-39511252D01*
X47235000Y-38988748D02*
X47235000Y-39511252D01*
%TO.C,C31*%
X44610000Y-40392164D02*
X44610000Y-40607836D01*
X43890000Y-40392164D02*
X43890000Y-40607836D01*
%TO.C,C59*%
X29761252Y-36485000D02*
X29238748Y-36485000D01*
X29761252Y-35015000D02*
X29238748Y-35015000D01*
D13*
%TO.C,J10*%
X84950000Y-86950000D02*
X84950000Y-86950000D01*
X84950000Y-87050000D02*
X84950000Y-87050000D01*
X84950000Y-86950000D02*
G75*
G03*
X84950000Y-87050000I0J-50000D01*
G01*
X84950000Y-87050000D02*
G75*
G03*
X84950000Y-86950000I0J50000D01*
G01*
D15*
%TO.C,C13*%
X57742164Y-75960000D02*
X57957836Y-75960000D01*
X57742164Y-75240000D02*
X57957836Y-75240000D01*
%TO.C,C40*%
X38890580Y-97690000D02*
X38609420Y-97690000D01*
X38890580Y-98710000D02*
X38609420Y-98710000D01*
%TO.C,TP11*%
X36950000Y-43775000D02*
G75*
G03*
X36950000Y-43775000I-700000J0D01*
G01*
%TO.C,D6*%
X123800000Y-55515000D02*
X121515000Y-55515000D01*
X121515000Y-56985000D02*
X123800000Y-56985000D01*
X121515000Y-55515000D02*
X121515000Y-56985000D01*
%TO.C,R19*%
X119378641Y-112255000D02*
X119071359Y-112255000D01*
X119378641Y-111495000D02*
X119071359Y-111495000D01*
%TO.C,U16*%
X46500000Y-26190000D02*
X48450000Y-26190000D01*
X46500000Y-31310000D02*
X48450000Y-31310000D01*
X46500000Y-31310000D02*
X44550000Y-31310000D01*
X46500000Y-26190000D02*
X43050000Y-26190000D01*
%TO.C,C79*%
X107195000Y-98507164D02*
X107195000Y-98722836D01*
X106475000Y-98507164D02*
X106475000Y-98722836D01*
%TO.C,R36*%
X68096359Y-36180000D02*
X68403641Y-36180000D01*
X68096359Y-35420000D02*
X68403641Y-35420000D01*
%TO.C,C1*%
X38897836Y-97170000D02*
X38682164Y-97170000D01*
X38897836Y-96450000D02*
X38682164Y-96450000D01*
%TO.C,C4*%
X57642164Y-80260000D02*
X57857836Y-80260000D01*
X57642164Y-79540000D02*
X57857836Y-79540000D01*
%TO.C,C3*%
X51290000Y-116007836D02*
X51290000Y-115792164D01*
X52010000Y-116007836D02*
X52010000Y-115792164D01*
%TO.C,TP8*%
X75475000Y-35375000D02*
G75*
G03*
X75475000Y-35375000I-700000J0D01*
G01*
%TO.C,C39*%
X51610000Y-27292164D02*
X51610000Y-27507836D01*
X50890000Y-27292164D02*
X50890000Y-27507836D01*
D16*
%TO.C,Y2*%
X95196000Y-39575000D02*
X94754000Y-39575000D01*
X95196000Y-41575000D02*
X94754000Y-41575000D01*
D14*
X96975000Y-39725000D02*
G75*
G03*
X96975000Y-39725000I-100000J0D01*
G01*
D15*
%TO.C,C48*%
X43459420Y-98710000D02*
X43740580Y-98710000D01*
X43459420Y-97690000D02*
X43740580Y-97690000D01*
%TO.C,C2*%
X68407836Y-114340000D02*
X68192164Y-114340000D01*
X68407836Y-115060000D02*
X68192164Y-115060000D01*
%TO.C,C46*%
X41540000Y-94240580D02*
X41540000Y-93959420D01*
X42560000Y-94240580D02*
X42560000Y-93959420D01*
%TO.C,U2*%
X67775000Y-75500000D02*
X67775000Y-72775000D01*
X67775000Y-75500000D02*
X67775000Y-78225000D01*
X62325000Y-72775000D02*
X62585000Y-72775000D01*
X67775000Y-78225000D02*
X67515000Y-78225000D01*
X67515000Y-72775000D02*
X67515000Y-71100000D01*
X62325000Y-75500000D02*
X62325000Y-78225000D01*
X62325000Y-78225000D02*
X62585000Y-78225000D01*
X67775000Y-72775000D02*
X67515000Y-72775000D01*
X62325000Y-75500000D02*
X62325000Y-72775000D01*
%TO.C,C60*%
X59445563Y-40240000D02*
X58810000Y-40240000D01*
X59445563Y-40240000D02*
X60510000Y-41304437D01*
X56054437Y-40240000D02*
X56690000Y-40240000D01*
X56054437Y-40240000D02*
X54990000Y-41304437D01*
X59435000Y-39375000D02*
X59435000Y-40000000D01*
X59747500Y-39687500D02*
X59122500Y-39687500D01*
X54990000Y-41304437D02*
X54990000Y-45760000D01*
X60510000Y-45760000D02*
X58810000Y-45760000D01*
X54990000Y-45760000D02*
X56690000Y-45760000D01*
X60510000Y-41304437D02*
X60510000Y-45760000D01*
%TO.C,R21*%
X121070000Y-109303641D02*
X121070000Y-108996359D01*
X121830000Y-109303641D02*
X121830000Y-108996359D01*
%TO.C,TP9*%
X41250000Y-31000000D02*
G75*
G03*
X41250000Y-31000000I-700000J0D01*
G01*
%TO.C,R17*%
X57395000Y-102286359D02*
X57395000Y-102593641D01*
X58155000Y-102286359D02*
X58155000Y-102593641D01*
%TO.C,R2*%
X37221359Y-86895000D02*
X37528641Y-86895000D01*
X37221359Y-87655000D02*
X37528641Y-87655000D01*
%TO.C,C86*%
X93690000Y-45132836D02*
X93690000Y-44917164D01*
X94410000Y-45132836D02*
X94410000Y-44917164D01*
%TO.C,C66*%
X70515000Y-26607836D02*
X70515000Y-26392164D01*
X71235000Y-26607836D02*
X71235000Y-26392164D01*
%TO.C,C49*%
X58209420Y-78910000D02*
X58490580Y-78910000D01*
X58209420Y-77890000D02*
X58490580Y-77890000D01*
%TO.C,C20*%
X99727164Y-99975000D02*
X99942836Y-99975000D01*
X99727164Y-100695000D02*
X99942836Y-100695000D01*
%TO.C,C35*%
X97275000Y-88972836D02*
X97275000Y-88757164D01*
X97995000Y-88972836D02*
X97995000Y-88757164D01*
%TO.C,TP3*%
X38050000Y-112800000D02*
G75*
G03*
X38050000Y-112800000I-700000J0D01*
G01*
%TO.C,D2*%
X36590000Y-89350000D02*
X36590000Y-90650000D01*
X39710000Y-90650000D02*
X39710000Y-88650000D01*
%TO.C,R12*%
X117296359Y-71130000D02*
X117603641Y-71130000D01*
X117296359Y-70370000D02*
X117603641Y-70370000D01*
%TD*%
%LPC*%
%TO.C,U12*%
G36*
X72299600Y-29877063D02*
G01*
X71958400Y-29877063D01*
X71958400Y-29122937D01*
X72299600Y-29122937D01*
X72299600Y-29877063D01*
G37*
D13*
X72299600Y-29877063D02*
X71958400Y-29877063D01*
X71958400Y-29122937D01*
X72299600Y-29122937D01*
X72299600Y-29877063D01*
G36*
X73041600Y-29877063D02*
G01*
X72700400Y-29877063D01*
X72700400Y-29122937D01*
X73041600Y-29122937D01*
X73041600Y-29877063D01*
G37*
X73041600Y-29877063D02*
X72700400Y-29877063D01*
X72700400Y-29122937D01*
X73041600Y-29122937D01*
X73041600Y-29877063D01*
%TD*%
D17*
%TO.C,SW1*%
X49425000Y-89000000D03*
X49425000Y-84500000D03*
X51575000Y-89000000D03*
X51575000Y-84500000D03*
%TD*%
%TO.C,SW2*%
X55425000Y-89000000D03*
X55425000Y-84500000D03*
X57575000Y-89000000D03*
X57575000Y-84500000D03*
%TD*%
D18*
%TO.C,C37*%
X97895000Y-39850000D03*
X98855000Y-39850000D03*
%TD*%
%TO.C,C77*%
X105455000Y-49500000D03*
X106415000Y-49500000D03*
%TD*%
%TO.C,C25*%
X98195000Y-42925000D03*
X99155000Y-42925000D03*
%TD*%
D19*
%TO.C,C28*%
X96115000Y-45630000D03*
X96115000Y-44670000D03*
%TD*%
%TO.C,C19*%
X89515000Y-96895000D03*
X89515000Y-95935000D03*
%TD*%
D20*
%TO.C,C83*%
X109585000Y-48570000D03*
X109585000Y-49530000D03*
%TD*%
D21*
%TO.C,TP10*%
X62625000Y-42925000D03*
%TD*%
D22*
%TO.C,R10*%
X51250000Y-69435000D03*
X51250000Y-68415000D03*
%TD*%
D23*
%TO.C,R26*%
X80910000Y-74925000D03*
X79890000Y-74925000D03*
%TD*%
D18*
%TO.C,C63*%
X33890000Y-77750000D03*
X34850000Y-77750000D03*
%TD*%
D24*
%TO.C,U10*%
X94935000Y-96985000D03*
D25*
X97922500Y-95035000D03*
X97922500Y-95685000D03*
X97922500Y-96335000D03*
X97922500Y-96985000D03*
X97922500Y-97635000D03*
X97922500Y-98285000D03*
X97922500Y-98935000D03*
D26*
X96885000Y-99972500D03*
X96235000Y-99972500D03*
X95585000Y-99972500D03*
X94935000Y-99972500D03*
X94285000Y-99972500D03*
X93635000Y-99972500D03*
X92985000Y-99972500D03*
D25*
X91947500Y-98935000D03*
X91947500Y-98285000D03*
X91947500Y-97635000D03*
X91947500Y-96985000D03*
X91947500Y-96335000D03*
X91947500Y-95685000D03*
X91947500Y-95035000D03*
D26*
X92985000Y-93997500D03*
X93635000Y-93997500D03*
X94285000Y-93997500D03*
X94935000Y-93997500D03*
X95585000Y-93997500D03*
X96235000Y-93997500D03*
X96885000Y-93997500D03*
%TD*%
D27*
%TO.C,D1*%
X38900000Y-59000000D03*
D28*
X37200000Y-59000000D03*
X37200000Y-61000000D03*
X39100000Y-61000000D03*
%TD*%
D19*
%TO.C,C29*%
X97815000Y-45630000D03*
X97815000Y-44670000D03*
%TD*%
D23*
%TO.C,R31*%
X54560000Y-28200000D03*
X53540000Y-28200000D03*
%TD*%
%TO.C,R23*%
X78010000Y-77900000D03*
X76990000Y-77900000D03*
%TD*%
D29*
%TO.C,L3*%
X37435000Y-37000000D03*
X35065000Y-37000000D03*
%TD*%
D19*
%TO.C,C30*%
X56050000Y-36080000D03*
X56050000Y-35120000D03*
%TD*%
D30*
%TO.C,FB11*%
X88665000Y-51400000D03*
X89635000Y-51400000D03*
%TD*%
D31*
%TO.C,R11*%
X116940000Y-71900000D03*
X117960000Y-71900000D03*
%TD*%
D30*
%TO.C,L9*%
X99450000Y-97035000D03*
X100420000Y-97035000D03*
%TD*%
%TO.C,FB15*%
X88680000Y-40825000D03*
X89650000Y-40825000D03*
%TD*%
D18*
%TO.C,C15*%
X125620000Y-75025000D03*
X126580000Y-75025000D03*
%TD*%
D32*
%TO.C,U5*%
X50980000Y-75500000D03*
D33*
X54417500Y-72900000D03*
X54417500Y-73300000D03*
X54417500Y-73700000D03*
X54417500Y-74100000D03*
X54417500Y-74500000D03*
X54417500Y-74900000D03*
X54417500Y-75300000D03*
X54417500Y-75700000D03*
X54417500Y-76100000D03*
X54417500Y-76500000D03*
X54417500Y-76900000D03*
X54417500Y-77300000D03*
X54417500Y-77700000D03*
X54417500Y-78100000D03*
D34*
X53580000Y-78937500D03*
X53180000Y-78937500D03*
X52780000Y-78937500D03*
X52380000Y-78937500D03*
X51980000Y-78937500D03*
X51580000Y-78937500D03*
X51180000Y-78937500D03*
X50780000Y-78937500D03*
X50380000Y-78937500D03*
X49980000Y-78937500D03*
X49580000Y-78937500D03*
X49180000Y-78937500D03*
X48780000Y-78937500D03*
X48380000Y-78937500D03*
D33*
X47542500Y-78100000D03*
X47542500Y-77700000D03*
X47542500Y-77300000D03*
X47542500Y-76900000D03*
X47542500Y-76500000D03*
X47542500Y-76100000D03*
X47542500Y-75700000D03*
X47542500Y-75300000D03*
X47542500Y-74900000D03*
X47542500Y-74500000D03*
X47542500Y-74100000D03*
X47542500Y-73700000D03*
X47542500Y-73300000D03*
X47542500Y-72900000D03*
D34*
X48380000Y-72062500D03*
X48780000Y-72062500D03*
X49180000Y-72062500D03*
X49580000Y-72062500D03*
X49980000Y-72062500D03*
X50380000Y-72062500D03*
X50780000Y-72062500D03*
X51180000Y-72062500D03*
X51580000Y-72062500D03*
X51980000Y-72062500D03*
X52380000Y-72062500D03*
X52780000Y-72062500D03*
X53180000Y-72062500D03*
X53580000Y-72062500D03*
%TD*%
D35*
%TO.C,U15*%
X67445000Y-32950000D03*
X67445000Y-33450000D03*
X67445000Y-33950000D03*
X67445000Y-34450000D03*
X68915000Y-34450000D03*
X68915000Y-33950000D03*
X68915000Y-33450000D03*
X68915000Y-32950000D03*
%TD*%
D19*
%TO.C,C78*%
X101985000Y-101515000D03*
X101985000Y-100555000D03*
%TD*%
D20*
%TO.C,C75*%
X100335000Y-98355000D03*
X100335000Y-99315000D03*
%TD*%
D36*
%TO.C,C54*%
X74575000Y-27575000D03*
X74575000Y-26025000D03*
%TD*%
D18*
%TO.C,C9*%
X68470000Y-79100000D03*
X69430000Y-79100000D03*
%TD*%
D23*
%TO.C,R1*%
X37885000Y-92600000D03*
X36865000Y-92600000D03*
%TD*%
D19*
%TO.C,C6*%
X49670000Y-69420000D03*
X49670000Y-68460000D03*
%TD*%
D37*
%TO.C,D3*%
X59200000Y-108300000D03*
X57800000Y-108300000D03*
X59200000Y-105200000D03*
X57800000Y-105200000D03*
%TD*%
D22*
%TO.C,R16*%
X60800000Y-98085000D03*
X60800000Y-97065000D03*
%TD*%
D30*
%TO.C,FB7*%
X90690000Y-86695000D03*
X91660000Y-86695000D03*
%TD*%
D20*
%TO.C,C82*%
X104735000Y-98135000D03*
X104735000Y-99095000D03*
%TD*%
D18*
%TO.C,C62*%
X33890000Y-73750000D03*
X34850000Y-73750000D03*
%TD*%
D38*
%TO.C,R35*%
X73125000Y-26015000D03*
X73125000Y-27035000D03*
%TD*%
D39*
%TO.C,C33*%
X29980000Y-37750000D03*
X29020000Y-37750000D03*
%TD*%
D40*
%TO.C,Q2*%
X123025000Y-112525000D03*
X123025000Y-111875000D03*
X123025000Y-111225000D03*
X121125000Y-111225000D03*
X121125000Y-111875000D03*
X121125000Y-112525000D03*
%TD*%
D41*
%TO.C,C57*%
X46500000Y-35700000D03*
X46500000Y-33800000D03*
%TD*%
D30*
%TO.C,FB17*%
X88665000Y-43125000D03*
X89635000Y-43125000D03*
%TD*%
D42*
%TO.C,U7*%
X111637500Y-77450000D03*
X111637500Y-76800000D03*
X111637500Y-76150000D03*
X111637500Y-75500000D03*
X111637500Y-74850000D03*
X111637500Y-74200000D03*
X111637500Y-73550000D03*
X117362500Y-73550000D03*
X117362500Y-74200000D03*
X117362500Y-74850000D03*
X117362500Y-75500000D03*
X117362500Y-76150000D03*
X117362500Y-76800000D03*
X117362500Y-77450000D03*
%TD*%
D22*
%TO.C,R27*%
X42050000Y-118910000D03*
X42050000Y-117890000D03*
%TD*%
D31*
%TO.C,R4*%
X36865000Y-57575000D03*
X37885000Y-57575000D03*
%TD*%
D19*
%TO.C,C64*%
X104350000Y-49480000D03*
X104350000Y-48520000D03*
%TD*%
D43*
%TO.C,C58*%
X39625000Y-39475000D03*
X39625000Y-41375000D03*
%TD*%
D30*
%TO.C,FB16*%
X88680000Y-41975000D03*
X89650000Y-41975000D03*
%TD*%
D21*
%TO.C,TP7*%
X111650000Y-70550000D03*
%TD*%
D18*
%TO.C,C12*%
X57370000Y-76900000D03*
X58330000Y-76900000D03*
%TD*%
D22*
%TO.C,R29*%
X50450000Y-116410000D03*
X50450000Y-115390000D03*
%TD*%
D44*
%TO.C,Y3*%
X38350000Y-77650000D03*
X38350000Y-73850000D03*
%TD*%
D18*
%TO.C,C74*%
X116801250Y-97050000D03*
X117761250Y-97050000D03*
%TD*%
D19*
%TO.C,C23*%
X111635000Y-95515000D03*
X111635000Y-94555000D03*
%TD*%
D45*
%TO.C,R37*%
X57787500Y-37000000D03*
X60712500Y-37000000D03*
%TD*%
D46*
%TO.C,U14*%
X50575000Y-37000000D03*
D47*
X48625000Y-38000000D03*
X48625000Y-37500000D03*
X48625000Y-37000000D03*
X48625000Y-36500000D03*
X48625000Y-36000000D03*
D48*
X49575000Y-35050000D03*
X50075000Y-35050000D03*
X50575000Y-35050000D03*
X51075000Y-35050000D03*
X51575000Y-35050000D03*
D47*
X52525000Y-36000000D03*
X52525000Y-36500000D03*
X52525000Y-37000000D03*
X52525000Y-37500000D03*
X52525000Y-38000000D03*
D48*
X51575000Y-38950000D03*
X51075000Y-38950000D03*
X50575000Y-38950000D03*
X50075000Y-38950000D03*
X49575000Y-38950000D03*
%TD*%
D38*
%TO.C,R13*%
X66425000Y-67440000D03*
X66425000Y-68460000D03*
%TD*%
D49*
%TO.C,J6*%
X42185000Y-82150000D03*
X39645000Y-82150000D03*
X37105000Y-82150000D03*
X34565000Y-82150000D03*
D50*
X32025000Y-82150000D03*
%TD*%
D51*
%TO.C,C53*%
X70625000Y-33950000D03*
X72175000Y-33950000D03*
%TD*%
D30*
%TO.C,FB12*%
X88665000Y-52550000D03*
X89635000Y-52550000D03*
%TD*%
D52*
%TO.C,U1*%
X38112500Y-119750000D03*
X38112500Y-120700000D03*
X38112500Y-121650000D03*
X40387500Y-121650000D03*
X40387500Y-119750000D03*
%TD*%
D30*
%TO.C,L13*%
X105850000Y-97015000D03*
X106820000Y-97015000D03*
%TD*%
D18*
%TO.C,C34*%
X48970000Y-32200000D03*
X49930000Y-32200000D03*
%TD*%
D39*
%TO.C,C71*%
X107415000Y-48200000D03*
X106455000Y-48200000D03*
%TD*%
D40*
%TO.C,Q3*%
X78450000Y-76225000D03*
X78450000Y-75575000D03*
X78450000Y-74925000D03*
X76550000Y-74925000D03*
X76550000Y-75575000D03*
X76550000Y-76225000D03*
%TD*%
D23*
%TO.C,R25*%
X75110000Y-76300000D03*
X74090000Y-76300000D03*
%TD*%
D30*
%TO.C,FB8*%
X90680000Y-87955000D03*
X91650000Y-87955000D03*
%TD*%
D38*
%TO.C,R33*%
X72000000Y-26015000D03*
X72000000Y-27035000D03*
%TD*%
D30*
%TO.C,L7*%
X107500000Y-49500000D03*
X108470000Y-49500000D03*
%TD*%
D20*
%TO.C,C67*%
X101535000Y-98355000D03*
X101535000Y-99315000D03*
%TD*%
D53*
%TO.C,D4*%
X121450000Y-105800000D03*
X121450000Y-104400000D03*
X124550000Y-105800000D03*
X124550000Y-104400000D03*
%TD*%
D39*
%TO.C,C24*%
X92180000Y-50850000D03*
X91220000Y-50850000D03*
%TD*%
D18*
%TO.C,C11*%
X55870000Y-72000000D03*
X56830000Y-72000000D03*
%TD*%
D54*
%TO.C,C44*%
X40025000Y-123400000D03*
X38475000Y-123400000D03*
%TD*%
D55*
%TO.C,U8*%
X121750000Y-77000000D03*
X122150000Y-77000000D03*
X122550000Y-77000000D03*
X122950000Y-77000000D03*
X123350000Y-77000000D03*
X123750000Y-77000000D03*
D56*
X124250000Y-76500000D03*
X124250000Y-76100000D03*
X124250000Y-75700000D03*
X124250000Y-75300000D03*
X124250000Y-74900000D03*
X124250000Y-74500000D03*
D55*
X123750000Y-74000000D03*
X123350000Y-74000000D03*
X122950000Y-74000000D03*
X122550000Y-74000000D03*
X122150000Y-74000000D03*
X121750000Y-74000000D03*
D56*
X121250000Y-74500000D03*
X121250000Y-74900000D03*
X121250000Y-75300000D03*
X121250000Y-75700000D03*
X121250000Y-76100000D03*
X121250000Y-76500000D03*
%TD*%
D21*
%TO.C,TP4*%
X47650000Y-115700000D03*
%TD*%
D18*
%TO.C,C21*%
X97165000Y-91555000D03*
X98125000Y-91555000D03*
%TD*%
D20*
%TO.C,C36*%
X105300000Y-78420000D03*
X105300000Y-79380000D03*
%TD*%
D30*
%TO.C,FB14*%
X88665000Y-54850000D03*
X89635000Y-54850000D03*
%TD*%
D57*
%TO.C,C51*%
X125800000Y-79625000D03*
X125800000Y-81175000D03*
%TD*%
D31*
%TO.C,R34*%
X72515000Y-31925000D03*
X73535000Y-31925000D03*
%TD*%
D20*
%TO.C,C5*%
X53950000Y-81220000D03*
X53950000Y-82180000D03*
%TD*%
D30*
%TO.C,FB5*%
X89460000Y-100385000D03*
X90430000Y-100385000D03*
%TD*%
%TO.C,L10*%
X102265000Y-49500000D03*
X103235000Y-49500000D03*
%TD*%
D20*
%TO.C,C17*%
X117400000Y-78920000D03*
X117400000Y-79880000D03*
%TD*%
D58*
%TO.C,U3*%
X40250000Y-112750000D03*
X41350000Y-112750000D03*
X42450000Y-112750000D03*
X43550000Y-112750000D03*
X44650000Y-112750000D03*
X45750000Y-112750000D03*
X46850000Y-112750000D03*
X49850000Y-112750000D03*
X50950000Y-112750000D03*
X52050000Y-112750000D03*
X53150000Y-112750000D03*
X54250000Y-112750000D03*
X54250000Y-100750000D03*
X53150000Y-100750000D03*
X52050000Y-100750000D03*
X50950000Y-100750000D03*
X49850000Y-100750000D03*
X46850000Y-100750000D03*
X45750000Y-100750000D03*
X44650000Y-100750000D03*
X43550000Y-100750000D03*
X42450000Y-100750000D03*
X41350000Y-100750000D03*
X40250000Y-100750000D03*
%TD*%
D38*
%TO.C,R8*%
X45750000Y-114990000D03*
X45750000Y-116010000D03*
%TD*%
D30*
%TO.C,FB4*%
X89440000Y-99285000D03*
X90410000Y-99285000D03*
%TD*%
D20*
%TO.C,C38*%
X106900000Y-78420000D03*
X106900000Y-79380000D03*
%TD*%
%TO.C,C65*%
X111685000Y-50720000D03*
X111685000Y-51680000D03*
%TD*%
D22*
%TO.C,R5*%
X57150000Y-69810000D03*
X57150000Y-68790000D03*
%TD*%
D30*
%TO.C,FB13*%
X88665000Y-53700000D03*
X89635000Y-53700000D03*
%TD*%
D18*
%TO.C,C27*%
X97445000Y-92745000D03*
X98405000Y-92745000D03*
%TD*%
D59*
%TO.C,U9*%
X123687500Y-81550000D03*
X123687500Y-79650000D03*
X121812500Y-80600000D03*
%TD*%
D60*
%TO.C,J1*%
X29415000Y-55675000D03*
X29415000Y-64325000D03*
D61*
X32795000Y-55675000D03*
X32795000Y-64325000D03*
D62*
X32425000Y-57025000D03*
X32425000Y-57875000D03*
X32425000Y-58725000D03*
X32425000Y-59575000D03*
X32425000Y-60425000D03*
X32425000Y-61275000D03*
X32425000Y-62125000D03*
X32425000Y-62975000D03*
X33775000Y-62975000D03*
X33775000Y-62125000D03*
X33775000Y-61275000D03*
X33775000Y-60425000D03*
X33775000Y-59575000D03*
X33775000Y-58725000D03*
X33775000Y-57875000D03*
X33775000Y-57025000D03*
%TD*%
D60*
%TO.C,J2*%
X29415000Y-85675000D03*
D61*
X32795000Y-94325000D03*
D60*
X29415000Y-94325000D03*
D61*
X32795000Y-85675000D03*
D62*
X32425000Y-87025000D03*
X32425000Y-87875000D03*
X32425000Y-88725000D03*
X32425000Y-89575000D03*
X32425000Y-90425000D03*
X32425000Y-91275000D03*
X32425000Y-92125000D03*
X32425000Y-92975000D03*
X33775000Y-92975000D03*
X33775000Y-92125000D03*
X33775000Y-91275000D03*
X33775000Y-90425000D03*
X33775000Y-89575000D03*
X33775000Y-88725000D03*
X33775000Y-87875000D03*
X33775000Y-87025000D03*
%TD*%
D63*
%TO.C,D5*%
X72475000Y-74712500D03*
X72475000Y-76287500D03*
%TD*%
D64*
%TO.C,U6*%
X105300000Y-74312500D03*
X106100000Y-74312500D03*
X106900000Y-74312500D03*
X107700000Y-74312500D03*
X107700000Y-76687500D03*
X106900000Y-76687500D03*
X106100000Y-76687500D03*
X105300000Y-76687500D03*
%TD*%
D20*
%TO.C,C76*%
X103450000Y-50720000D03*
X103450000Y-51680000D03*
%TD*%
D21*
%TO.C,TP5*%
X49675000Y-96700000D03*
%TD*%
D19*
%TO.C,C32*%
X39500000Y-34980000D03*
X39500000Y-34020000D03*
%TD*%
D21*
%TO.C,TP2*%
X39725000Y-115875000D03*
%TD*%
D65*
%TO.C,SW4*%
X73150000Y-38900000D03*
X78650000Y-41400000D03*
X73150000Y-43900000D03*
%TD*%
D66*
%TO.C,U12*%
X73321000Y-29750063D03*
X73321000Y-29249937D03*
D67*
X73000126Y-28499999D03*
X72500000Y-28499999D03*
X71999874Y-28499999D03*
D66*
X71679000Y-29249937D03*
X71679000Y-29750063D03*
D67*
X71999874Y-30500001D03*
X72500000Y-30500001D03*
X73000126Y-30500001D03*
%TD*%
D30*
%TO.C,L5*%
X99450000Y-95685000D03*
X100420000Y-95685000D03*
%TD*%
D23*
%TO.C,R28*%
X68760000Y-37000000D03*
X67740000Y-37000000D03*
%TD*%
D68*
%TO.C,H4*%
X123500000Y-120750000D03*
%TD*%
D17*
%TO.C,SW3*%
X63575000Y-84500000D03*
X63575000Y-89000000D03*
X61425000Y-84500000D03*
X61425000Y-89000000D03*
%TD*%
D30*
%TO.C,FB10*%
X90670000Y-90495000D03*
X91640000Y-90495000D03*
%TD*%
D21*
%TO.C,TP1*%
X36250000Y-46425000D03*
%TD*%
D30*
%TO.C,FB3*%
X89440000Y-98215000D03*
X90410000Y-98215000D03*
%TD*%
D49*
%TO.C,J5*%
X34450000Y-100920000D03*
X34450000Y-103460000D03*
D50*
X34450000Y-106000000D03*
%TD*%
D19*
%TO.C,C73*%
X109335000Y-100015000D03*
X109335000Y-99055000D03*
%TD*%
D69*
%TO.C,J3*%
X75025000Y-112125000D03*
X76125000Y-112125000D03*
X77225000Y-112125000D03*
X78325000Y-112125000D03*
X79425000Y-112125000D03*
X80525000Y-112125000D03*
X81625000Y-112125000D03*
X82725000Y-112125000D03*
D70*
X85195000Y-109925000D03*
X85195000Y-118125000D03*
X71305000Y-118125000D03*
X71305000Y-109925000D03*
%TD*%
D23*
%TO.C,R3*%
X37885000Y-62375000D03*
X36865000Y-62375000D03*
%TD*%
D22*
%TO.C,R15*%
X55925000Y-98085000D03*
X55925000Y-97065000D03*
%TD*%
D31*
%TO.C,R30*%
X53540000Y-26600000D03*
X54560000Y-26600000D03*
%TD*%
D30*
%TO.C,FB9*%
X90670000Y-89205000D03*
X91640000Y-89205000D03*
%TD*%
%TO.C,L11*%
X99350000Y-101485000D03*
X100320000Y-101485000D03*
%TD*%
%TO.C,FB6*%
X89480000Y-101485000D03*
X90450000Y-101485000D03*
%TD*%
D20*
%TO.C,C69*%
X102735000Y-98355000D03*
X102735000Y-99315000D03*
%TD*%
D18*
%TO.C,C80*%
X101655000Y-97015000D03*
X102615000Y-97015000D03*
%TD*%
D24*
%TO.C,U11*%
X96365000Y-50000000D03*
D25*
X99352500Y-48050000D03*
X99352500Y-48700000D03*
X99352500Y-49350000D03*
X99352500Y-50000000D03*
X99352500Y-50650000D03*
X99352500Y-51300000D03*
X99352500Y-51950000D03*
D26*
X98315000Y-52987500D03*
X97665000Y-52987500D03*
X97015000Y-52987500D03*
X96365000Y-52987500D03*
X95715000Y-52987500D03*
X95065000Y-52987500D03*
X94415000Y-52987500D03*
D25*
X93377500Y-51950000D03*
X93377500Y-51300000D03*
X93377500Y-50650000D03*
X93377500Y-50000000D03*
X93377500Y-49350000D03*
X93377500Y-48700000D03*
X93377500Y-48050000D03*
D26*
X94415000Y-47012500D03*
X95065000Y-47012500D03*
X95715000Y-47012500D03*
X96365000Y-47012500D03*
X97015000Y-47012500D03*
X97665000Y-47012500D03*
X98315000Y-47012500D03*
%TD*%
D40*
%TO.C,Q1*%
X59325000Y-98725000D03*
X59325000Y-98075000D03*
X59325000Y-97425000D03*
X57425000Y-97425000D03*
X57425000Y-98075000D03*
X57425000Y-98725000D03*
%TD*%
D36*
%TO.C,C52*%
X54500000Y-36175000D03*
X54500000Y-34625000D03*
%TD*%
D30*
%TO.C,L8*%
X110700000Y-49500000D03*
X111670000Y-49500000D03*
%TD*%
D39*
%TO.C,C14*%
X44730000Y-77200000D03*
X43770000Y-77200000D03*
%TD*%
D19*
%TO.C,C81*%
X101685000Y-95665000D03*
X101685000Y-94705000D03*
%TD*%
D18*
%TO.C,C16*%
X125620000Y-76100000D03*
X126580000Y-76100000D03*
%TD*%
D22*
%TO.C,R9*%
X52650000Y-69435000D03*
X52650000Y-68415000D03*
%TD*%
D38*
%TO.C,R7*%
X44550000Y-114990000D03*
X44550000Y-116010000D03*
%TD*%
D31*
%TO.C,R32*%
X68490000Y-71900000D03*
X69510000Y-71900000D03*
%TD*%
D39*
%TO.C,C8*%
X44730000Y-76125000D03*
X43770000Y-76125000D03*
%TD*%
D40*
%TO.C,U13*%
X108385000Y-96365000D03*
X108385000Y-97015000D03*
X108385000Y-97665000D03*
X110285000Y-97665000D03*
X110285000Y-97015000D03*
X110285000Y-96365000D03*
%TD*%
D71*
%TO.C,J8*%
X125400000Y-94625000D03*
X125400000Y-99425000D03*
X120600000Y-99425000D03*
X120600000Y-94625000D03*
D72*
X123000000Y-97025000D03*
%TD*%
D20*
%TO.C,C22*%
X100650000Y-52420000D03*
X100650000Y-53380000D03*
%TD*%
D23*
%TO.C,R38*%
X49020000Y-48060000D03*
X48000000Y-48060000D03*
%TD*%
D51*
%TO.C,C43*%
X55625000Y-81400000D03*
X57175000Y-81400000D03*
%TD*%
D54*
%TO.C,C50*%
X123375000Y-83300000D03*
X121825000Y-83300000D03*
%TD*%
D19*
%TO.C,C87*%
X123750000Y-72005000D03*
X123750000Y-71045000D03*
%TD*%
D72*
%TO.C,J4*%
X47250000Y-120750000D03*
D71*
X44850000Y-118350000D03*
X44850000Y-123150000D03*
X49650000Y-123150000D03*
X49650000Y-118350000D03*
%TD*%
D73*
%TO.C,C61*%
X31250000Y-40800000D03*
X31250000Y-45200000D03*
%TD*%
D22*
%TO.C,R18*%
X59225000Y-102935000D03*
X59225000Y-101915000D03*
%TD*%
D20*
%TO.C,C72*%
X109585000Y-50770000D03*
X109585000Y-51730000D03*
%TD*%
D36*
%TO.C,C47*%
X47650000Y-94775000D03*
X47650000Y-93225000D03*
%TD*%
D20*
%TO.C,C18*%
X111650000Y-78920000D03*
X111650000Y-79880000D03*
%TD*%
D18*
%TO.C,C84*%
X105855000Y-95665000D03*
X106815000Y-95665000D03*
%TD*%
D19*
%TO.C,C85*%
X94345000Y-91955000D03*
X94345000Y-90995000D03*
%TD*%
D54*
%TO.C,C42*%
X39925000Y-118000000D03*
X38375000Y-118000000D03*
%TD*%
D19*
%TO.C,C26*%
X95595000Y-91955000D03*
X95595000Y-90995000D03*
%TD*%
D71*
%TO.C,J7*%
X125400000Y-47600000D03*
X125400000Y-52400000D03*
X120600000Y-52400000D03*
X120600000Y-47600000D03*
D72*
X123000000Y-50000000D03*
%TD*%
D54*
%TO.C,C41*%
X69035000Y-116240000D03*
X67485000Y-116240000D03*
%TD*%
D30*
%TO.C,L4*%
X52165000Y-117600000D03*
X53135000Y-117600000D03*
%TD*%
D20*
%TO.C,C68*%
X104650000Y-50720000D03*
X104650000Y-51680000D03*
%TD*%
D43*
%TO.C,C55*%
X65550000Y-36550000D03*
X65550000Y-38450000D03*
%TD*%
D30*
%TO.C,FB18*%
X88680000Y-44275000D03*
X89650000Y-44275000D03*
%TD*%
D29*
%TO.C,L1*%
X51685000Y-42750000D03*
X49315000Y-42750000D03*
%TD*%
D74*
%TO.C,BT1*%
X83250000Y-29337500D03*
D75*
X78250000Y-29337500D03*
%TD*%
D20*
%TO.C,C10*%
X48880000Y-81320000D03*
X48880000Y-82280000D03*
%TD*%
D30*
%TO.C,FB2*%
X97890000Y-41300000D03*
X98860000Y-41300000D03*
%TD*%
%TO.C,FB1*%
X98780000Y-89305000D03*
X99750000Y-89305000D03*
%TD*%
D23*
%TO.C,R24*%
X78010000Y-79075000D03*
X76990000Y-79075000D03*
%TD*%
D22*
%TO.C,R6*%
X55650000Y-69810000D03*
X55650000Y-68790000D03*
%TD*%
D23*
%TO.C,R20*%
X119735000Y-113875000D03*
X118715000Y-113875000D03*
%TD*%
D76*
%TO.C,Q4*%
X67090000Y-28950000D03*
X67090000Y-29900000D03*
X67090000Y-30850000D03*
X69410000Y-30850000D03*
X69410000Y-29900000D03*
X69410000Y-28950000D03*
%TD*%
D77*
%TO.C,Y1*%
X96220000Y-88040000D03*
X94370000Y-88040000D03*
X94370000Y-89490000D03*
X96220000Y-89490000D03*
%TD*%
D20*
%TO.C,C70*%
X102250000Y-50720000D03*
X102250000Y-51680000D03*
%TD*%
D29*
%TO.C,L2*%
X44185000Y-37000000D03*
X41815000Y-37000000D03*
%TD*%
D38*
%TO.C,R22*%
X122725000Y-108665000D03*
X122725000Y-109685000D03*
%TD*%
D78*
%TO.C,J9*%
X85970000Y-40080000D03*
D79*
X85970000Y-47150000D03*
D78*
X85970000Y-54220000D03*
D80*
X88260000Y-56295000D03*
D81*
X94555000Y-56295000D03*
D82*
X100550000Y-56295000D03*
D81*
X106545000Y-56295000D03*
D80*
X112840000Y-56295000D03*
D78*
X115130000Y-54220000D03*
D79*
X115130000Y-47150000D03*
D78*
X115130000Y-40080000D03*
D80*
X112840000Y-38005000D03*
D81*
X106545000Y-38005000D03*
D82*
X100550000Y-38005000D03*
D81*
X94555000Y-38005000D03*
D80*
X88260000Y-38005000D03*
%TD*%
D22*
%TO.C,R14*%
X41850000Y-77760000D03*
X41850000Y-76740000D03*
%TD*%
D83*
%TO.C,U4*%
X43900000Y-94537500D03*
X45800000Y-94537500D03*
X44850000Y-92662500D03*
%TD*%
D43*
%TO.C,C56*%
X46500000Y-38300000D03*
X46500000Y-40200000D03*
%TD*%
D68*
%TO.C,H1*%
X32000000Y-29250000D03*
%TD*%
D20*
%TO.C,C31*%
X44250000Y-40020000D03*
X44250000Y-40980000D03*
%TD*%
D84*
%TO.C,C59*%
X30450000Y-35750000D03*
X28550000Y-35750000D03*
%TD*%
D78*
%TO.C,J10*%
X85970000Y-87080000D03*
D79*
X85970000Y-94150000D03*
D78*
X85970000Y-101220000D03*
D80*
X88260000Y-103295000D03*
D81*
X94555000Y-103295000D03*
D82*
X100550000Y-103295000D03*
D81*
X106545000Y-103295000D03*
D80*
X112840000Y-103295000D03*
D78*
X115130000Y-101220000D03*
D79*
X115130000Y-94150000D03*
D78*
X115130000Y-87080000D03*
D80*
X112840000Y-85005000D03*
D81*
X106545000Y-85005000D03*
D82*
X100550000Y-85005000D03*
D81*
X94555000Y-85005000D03*
D80*
X88260000Y-85005000D03*
%TD*%
D18*
%TO.C,C13*%
X57370000Y-75600000D03*
X58330000Y-75600000D03*
%TD*%
D54*
%TO.C,C40*%
X39525000Y-98200000D03*
X37975000Y-98200000D03*
%TD*%
D21*
%TO.C,TP11*%
X36250000Y-43775000D03*
%TD*%
D85*
%TO.C,D6*%
X123787500Y-56250000D03*
X122212500Y-56250000D03*
%TD*%
D23*
%TO.C,R19*%
X119735000Y-111875000D03*
X118715000Y-111875000D03*
%TD*%
D86*
%TO.C,U16*%
X44025000Y-26845000D03*
X44025000Y-28115000D03*
X44025000Y-29385000D03*
X44025000Y-30655000D03*
X48975000Y-30655000D03*
X48975000Y-29385000D03*
X48975000Y-28115000D03*
X48975000Y-26845000D03*
%TD*%
D20*
%TO.C,C79*%
X106835000Y-98135000D03*
X106835000Y-99095000D03*
%TD*%
D31*
%TO.C,R36*%
X67740000Y-35800000D03*
X68760000Y-35800000D03*
%TD*%
D39*
%TO.C,C1*%
X39270000Y-96810000D03*
X38310000Y-96810000D03*
%TD*%
D18*
%TO.C,C4*%
X57270000Y-79900000D03*
X58230000Y-79900000D03*
%TD*%
D19*
%TO.C,C3*%
X51650000Y-116380000D03*
X51650000Y-115420000D03*
%TD*%
D21*
%TO.C,TP8*%
X74775000Y-35375000D03*
%TD*%
D20*
%TO.C,C39*%
X51250000Y-26920000D03*
X51250000Y-27880000D03*
%TD*%
D77*
%TO.C,Y2*%
X95900000Y-39850000D03*
X94050000Y-39850000D03*
X94050000Y-41300000D03*
X95900000Y-41300000D03*
%TD*%
D51*
%TO.C,C48*%
X42825000Y-98200000D03*
X44375000Y-98200000D03*
%TD*%
D68*
%TO.C,H3*%
X32000000Y-120750000D03*
%TD*%
D39*
%TO.C,C2*%
X68780000Y-114700000D03*
X67820000Y-114700000D03*
%TD*%
D36*
%TO.C,C46*%
X42050000Y-94875000D03*
X42050000Y-93325000D03*
%TD*%
D87*
%TO.C,U2*%
X66955000Y-71900000D03*
X65685000Y-71900000D03*
X64415000Y-71900000D03*
X63145000Y-71900000D03*
X63145000Y-79100000D03*
X64415000Y-79100000D03*
X65685000Y-79100000D03*
X66955000Y-79100000D03*
%TD*%
D30*
%TO.C,L12*%
X103750000Y-97015000D03*
X104720000Y-97015000D03*
%TD*%
D73*
%TO.C,C60*%
X57750000Y-40800000D03*
X57750000Y-45200000D03*
%TD*%
D22*
%TO.C,R21*%
X121450000Y-109660000D03*
X121450000Y-108640000D03*
%TD*%
D68*
%TO.C,H2*%
X123500000Y-29250000D03*
%TD*%
D21*
%TO.C,TP9*%
X40550000Y-31000000D03*
%TD*%
D38*
%TO.C,R17*%
X57775000Y-101930000D03*
X57775000Y-102950000D03*
%TD*%
D31*
%TO.C,R2*%
X36865000Y-87275000D03*
X37885000Y-87275000D03*
%TD*%
D30*
%TO.C,L6*%
X106450000Y-50850000D03*
X107420000Y-50850000D03*
%TD*%
D19*
%TO.C,C86*%
X94050000Y-45505000D03*
X94050000Y-44545000D03*
%TD*%
%TO.C,C66*%
X70875000Y-26980000D03*
X70875000Y-26020000D03*
%TD*%
D51*
%TO.C,C49*%
X57575000Y-78400000D03*
X59125000Y-78400000D03*
%TD*%
D18*
%TO.C,C20*%
X99355000Y-100335000D03*
X100315000Y-100335000D03*
%TD*%
D19*
%TO.C,C35*%
X97635000Y-89345000D03*
X97635000Y-88385000D03*
%TD*%
D21*
%TO.C,TP3*%
X37350000Y-112800000D03*
%TD*%
D27*
%TO.C,D2*%
X38900000Y-89000000D03*
D28*
X37200000Y-89000000D03*
X37200000Y-91000000D03*
X39100000Y-91000000D03*
%TD*%
D31*
%TO.C,R12*%
X116940000Y-70750000D03*
X117960000Y-70750000D03*
%TD*%
M02*
