%TF.GenerationSoftware,KiCad,Pcbnew,(6.0.7-1)-1*%
%TF.CreationDate,2023-02-25T12:49:06-05:00*%
%TF.ProjectId,HABBoard,48414242-6f61-4726-942e-6b696361645f,rev?*%
%TF.SameCoordinates,Original*%
%TF.FileFunction,Drillmap*%
%TF.FilePolarity,Positive*%
%FSLAX45Y45*%
G04 Gerber Fmt 4.5, Leading zero omitted, Abs format (unit mm)*
G04 Created by KiCad (PCBNEW (6.0.7-1)-1) date 2023-02-25 12:49:06*
%MOMM*%
%LPD*%
G01*
G04 APERTURE LIST*
%ADD10C,0.100000*%
%ADD11C,0.200000*%
%ADD12C,0.020000*%
%ADD13C,0.040000*%
%ADD14C,0.060000*%
%ADD15C,0.128000*%
%ADD16C,0.130000*%
%ADD17C,0.320000*%
G04 APERTURE END LIST*
D10*
X2775000Y-2500000D02*
X12775000Y-2500000D01*
X12775000Y-2500000D02*
X12775000Y-12500000D01*
X12775000Y-12500000D02*
X2775000Y-12500000D01*
X2775000Y-12500000D02*
X2775000Y-2500000D01*
D11*
D12*
X3545000Y-8722550D02*
X3565000Y-8742550D01*
X3565000Y-8722550D02*
X3545000Y-8742550D01*
X3575000Y-6227500D02*
X3595000Y-6247500D01*
X3595000Y-6227500D02*
X3575000Y-6247500D01*
X3590000Y-9250000D02*
X3610000Y-9270000D01*
X3610000Y-9250000D02*
X3590000Y-9270000D01*
X3597500Y-5747500D02*
X3617500Y-5767500D01*
X3617500Y-5747500D02*
X3597500Y-5767500D01*
X3665000Y-12160000D02*
X3685000Y-12180000D01*
X3685000Y-12160000D02*
X3665000Y-12180000D01*
X4145000Y-11541300D02*
X4165000Y-11561300D01*
X4165000Y-11541300D02*
X4145000Y-11561300D01*
X4235000Y-11590000D02*
X4255000Y-11610000D01*
X4255000Y-11590000D02*
X4235000Y-11610000D01*
X4310000Y-7287500D02*
X4330000Y-7307500D01*
X4330000Y-7287500D02*
X4310000Y-7307500D01*
X4362500Y-7342500D02*
X4382500Y-7362500D01*
X4382500Y-7342500D02*
X4362500Y-7362500D01*
X4522500Y-8785000D02*
X4542500Y-8805000D01*
X4542500Y-8785000D02*
X4522500Y-8805000D01*
X4565000Y-9850000D02*
X4585000Y-9870000D01*
X4585000Y-9850000D02*
X4565000Y-9870000D01*
X4573700Y-7572450D02*
X4593700Y-7592450D01*
X4593700Y-7572450D02*
X4573700Y-7592450D01*
X4575000Y-8867500D02*
X4595000Y-8887500D01*
X4595000Y-8867500D02*
X4575000Y-8887500D01*
X4590000Y-7267500D02*
X4610000Y-7287500D01*
X4610000Y-7267500D02*
X4590000Y-7287500D01*
X4627500Y-8922500D02*
X4647500Y-8942500D01*
X4647500Y-8922500D02*
X4627500Y-8942500D01*
X4642500Y-6930000D02*
X4662500Y-6950000D01*
X4662500Y-6930000D02*
X4642500Y-6950000D01*
X4642500Y-7192500D02*
X4662500Y-7212500D01*
X4662500Y-7192500D02*
X4642500Y-7212500D01*
X4657000Y-8335000D02*
X4677000Y-8355000D01*
X4677000Y-8335000D02*
X4657000Y-8355000D01*
X4657000Y-8648000D02*
X4677000Y-8668000D01*
X4677000Y-8648000D02*
X4657000Y-8668000D01*
X4662500Y-7892500D02*
X4682500Y-7912500D01*
X4682500Y-7892500D02*
X4662500Y-7912500D01*
X4675000Y-9850000D02*
X4695000Y-9870000D01*
X4695000Y-9850000D02*
X4675000Y-9870000D01*
X4700000Y-7147500D02*
X4720000Y-7167500D01*
X4720000Y-7147500D02*
X4700000Y-7167500D01*
X4722500Y-8745000D02*
X4742500Y-8765000D01*
X4742500Y-8745000D02*
X4722500Y-8765000D01*
X4725000Y-7067500D02*
X4745000Y-7087500D01*
X4745000Y-7067500D02*
X4725000Y-7087500D01*
X4745000Y-9801300D02*
X4765000Y-9821300D01*
X4765000Y-9801300D02*
X4745000Y-9821300D01*
X4771200Y-7899000D02*
X4791200Y-7919000D01*
X4791200Y-7899000D02*
X4771200Y-7919000D01*
X4771200Y-8165000D02*
X4791200Y-8185000D01*
X4791200Y-8165000D02*
X4771200Y-8185000D01*
X4789000Y-4881000D02*
X4809000Y-4901000D01*
X4809000Y-4881000D02*
X4789000Y-4901000D01*
X4790000Y-5886000D02*
X4810000Y-5906000D01*
X4810000Y-5886000D02*
X4790000Y-5906000D01*
X4793000Y-6106000D02*
X4813000Y-6126000D01*
X4813000Y-6106000D02*
X4793000Y-6126000D01*
X4793064Y-9189064D02*
X4813064Y-9209064D01*
X4813064Y-9189064D02*
X4793064Y-9209064D01*
X4809000Y-8770000D02*
X4829000Y-8790000D01*
X4829000Y-8770000D02*
X4809000Y-8790000D01*
X4810000Y-7010000D02*
X4830000Y-7030000D01*
X4830000Y-7010000D02*
X4810000Y-7030000D01*
X4852683Y-7743040D02*
X4872683Y-7763040D01*
X4872683Y-7743040D02*
X4852683Y-7763040D01*
X4865000Y-12000000D02*
X4885000Y-12020000D01*
X4885000Y-12000000D02*
X4865000Y-12020000D01*
X4865000Y-12130000D02*
X4885000Y-12150000D01*
X4885000Y-12130000D02*
X4865000Y-12150000D01*
X4915000Y-12000000D02*
X4935000Y-12020000D01*
X4935000Y-12000000D02*
X4915000Y-12020000D01*
X4915000Y-12130000D02*
X4935000Y-12150000D01*
X4935000Y-12130000D02*
X4915000Y-12150000D01*
X4923000Y-7788700D02*
X4943000Y-7808700D01*
X4943000Y-7788700D02*
X4923000Y-7808700D01*
X4931200Y-7283000D02*
X4951200Y-7303000D01*
X4951200Y-7283000D02*
X4931200Y-7303000D01*
X4935000Y-6729000D02*
X4955000Y-6749000D01*
X4955000Y-6729000D02*
X4935000Y-6749000D01*
X4940000Y-8723000D02*
X4960000Y-8743000D01*
X4960000Y-8723000D02*
X4940000Y-8743000D01*
X4958300Y-7048000D02*
X4978300Y-7068000D01*
X4978300Y-7048000D02*
X4958300Y-7068000D01*
X4965000Y-12000000D02*
X4985000Y-12020000D01*
X4985000Y-12000000D02*
X4965000Y-12020000D01*
X4965000Y-12130000D02*
X4985000Y-12150000D01*
X4985000Y-12130000D02*
X4965000Y-12150000D01*
X4968000Y-4796000D02*
X4988000Y-4816000D01*
X4988000Y-4796000D02*
X4968000Y-4816000D01*
X4992000Y-3381000D02*
X5012000Y-3401000D01*
X5012000Y-3381000D02*
X4992000Y-3401000D01*
X4999000Y-8227000D02*
X5019000Y-8247000D01*
X5019000Y-8227000D02*
X4999000Y-8247000D01*
X5015000Y-12000000D02*
X5035000Y-12020000D01*
X5035000Y-12000000D02*
X5015000Y-12020000D01*
X5015000Y-12130000D02*
X5035000Y-12150000D01*
X5035000Y-12130000D02*
X5015000Y-12150000D01*
X5028000Y-7284000D02*
X5048000Y-7304000D01*
X5048000Y-7284000D02*
X5028000Y-7304000D01*
X5065000Y-12000000D02*
X5085000Y-12020000D01*
X5085000Y-12000000D02*
X5065000Y-12020000D01*
X5065000Y-12130000D02*
X5085000Y-12150000D01*
X5085000Y-12130000D02*
X5065000Y-12150000D01*
X5087500Y-7007500D02*
X5107500Y-7027500D01*
X5107500Y-7007500D02*
X5087500Y-7027500D01*
X5115000Y-6670000D02*
X5135000Y-6690000D01*
X5135000Y-6670000D02*
X5115000Y-6690000D01*
X5115000Y-12000000D02*
X5135000Y-12020000D01*
X5135000Y-12000000D02*
X5115000Y-12020000D01*
X5115000Y-12130000D02*
X5135000Y-12150000D01*
X5135000Y-12130000D02*
X5115000Y-12150000D01*
X5122000Y-9387000D02*
X5142000Y-9407000D01*
X5142000Y-9387000D02*
X5122000Y-9407000D01*
X5158000Y-7007000D02*
X5178000Y-7027000D01*
X5178000Y-7007000D02*
X5158000Y-7027000D01*
X5159200Y-8110000D02*
X5179200Y-8130000D01*
X5179200Y-8110000D02*
X5159200Y-8130000D01*
X5165000Y-12000000D02*
X5185000Y-12020000D01*
X5185000Y-12000000D02*
X5165000Y-12020000D01*
X5165000Y-12130000D02*
X5185000Y-12150000D01*
X5185000Y-12130000D02*
X5165000Y-12150000D01*
X5205000Y-11970000D02*
X5225000Y-11990000D01*
X5225000Y-11970000D02*
X5205000Y-11990000D01*
X5206300Y-8185000D02*
X5226300Y-8205000D01*
X5226300Y-8185000D02*
X5206300Y-8205000D01*
X5210000Y-6346300D02*
X5230000Y-6366300D01*
X5230000Y-6346300D02*
X5210000Y-6366300D01*
X5215000Y-12130000D02*
X5235000Y-12150000D01*
X5235000Y-12130000D02*
X5215000Y-12150000D01*
X5235000Y-11410000D02*
X5255000Y-11430000D01*
X5255000Y-11410000D02*
X5235000Y-11430000D01*
X5235000Y-11460000D02*
X5255000Y-11480000D01*
X5255000Y-11460000D02*
X5235000Y-11480000D01*
X5235000Y-11510000D02*
X5255000Y-11530000D01*
X5255000Y-11510000D02*
X5235000Y-11530000D01*
X5235000Y-11560000D02*
X5255000Y-11580000D01*
X5255000Y-11560000D02*
X5235000Y-11580000D01*
X5235000Y-11610000D02*
X5255000Y-11630000D01*
X5255000Y-11610000D02*
X5235000Y-11630000D01*
X5235000Y-11660000D02*
X5255000Y-11680000D01*
X5255000Y-11660000D02*
X5235000Y-11680000D01*
X5235000Y-11830000D02*
X5255000Y-11850000D01*
X5255000Y-11830000D02*
X5235000Y-11850000D01*
X5235000Y-11880000D02*
X5255000Y-11900000D01*
X5255000Y-11880000D02*
X5235000Y-11900000D01*
X5235000Y-11930000D02*
X5255000Y-11950000D01*
X5255000Y-11930000D02*
X5235000Y-11950000D01*
X5244000Y-7289000D02*
X5264000Y-7309000D01*
X5264000Y-7289000D02*
X5244000Y-7309000D01*
X5265000Y-12110000D02*
X5285000Y-12130000D01*
X5285000Y-12110000D02*
X5265000Y-12130000D01*
X5305000Y-7680000D02*
X5325000Y-7700000D01*
X5325000Y-7680000D02*
X5305000Y-7700000D01*
X5305000Y-12070000D02*
X5325000Y-12090000D01*
X5325000Y-12070000D02*
X5305000Y-12090000D01*
X5309700Y-7793041D02*
X5329700Y-7813041D01*
X5329700Y-7793041D02*
X5309700Y-7813041D01*
X5322000Y-7291000D02*
X5342000Y-7311000D01*
X5342000Y-7291000D02*
X5322000Y-7311000D01*
X5325000Y-7590000D02*
X5345000Y-7610000D01*
X5345000Y-7590000D02*
X5325000Y-7610000D01*
X5332500Y-8525000D02*
X5352500Y-8545000D01*
X5352500Y-8525000D02*
X5332500Y-8545000D01*
X5334350Y-8445650D02*
X5354350Y-8465650D01*
X5354350Y-8445650D02*
X5334350Y-8465650D01*
X5335000Y-12030000D02*
X5355000Y-12050000D01*
X5355000Y-12030000D02*
X5335000Y-12050000D01*
X5365000Y-6999000D02*
X5385000Y-7019000D01*
X5385000Y-6999000D02*
X5365000Y-7019000D01*
X5365000Y-11990000D02*
X5385000Y-12010000D01*
X5385000Y-11990000D02*
X5365000Y-12010000D01*
X5366000Y-7076000D02*
X5386000Y-7096000D01*
X5386000Y-7076000D02*
X5366000Y-7096000D01*
X5369000Y-6896000D02*
X5389000Y-6916000D01*
X5389000Y-6896000D02*
X5369000Y-6916000D01*
X5375000Y-11410000D02*
X5395000Y-11430000D01*
X5395000Y-11410000D02*
X5375000Y-11430000D01*
X5375000Y-11460000D02*
X5395000Y-11480000D01*
X5395000Y-11460000D02*
X5375000Y-11480000D01*
X5375000Y-11510000D02*
X5395000Y-11530000D01*
X5395000Y-11510000D02*
X5375000Y-11530000D01*
X5375000Y-11560000D02*
X5395000Y-11580000D01*
X5395000Y-11560000D02*
X5375000Y-11580000D01*
X5375000Y-11610000D02*
X5395000Y-11630000D01*
X5395000Y-11610000D02*
X5375000Y-11630000D01*
X5375000Y-11660000D02*
X5395000Y-11680000D01*
X5395000Y-11660000D02*
X5375000Y-11680000D01*
X5375000Y-11710000D02*
X5395000Y-11730000D01*
X5395000Y-11710000D02*
X5375000Y-11730000D01*
X5375000Y-11770000D02*
X5395000Y-11790000D01*
X5395000Y-11770000D02*
X5375000Y-11790000D01*
X5375000Y-11830000D02*
X5395000Y-11850000D01*
X5395000Y-11830000D02*
X5375000Y-11850000D01*
X5375000Y-11880000D02*
X5395000Y-11900000D01*
X5395000Y-11880000D02*
X5375000Y-11900000D01*
X5375000Y-11930000D02*
X5395000Y-11950000D01*
X5395000Y-11930000D02*
X5375000Y-11950000D01*
X5385000Y-8380000D02*
X5405000Y-8400000D01*
X5405000Y-8380000D02*
X5385000Y-8400000D01*
X5425000Y-7190000D02*
X5445000Y-7210000D01*
X5445000Y-7190000D02*
X5425000Y-7210000D01*
X5427500Y-8582500D02*
X5447500Y-8602500D01*
X5447500Y-8582500D02*
X5427500Y-8602500D01*
X5477500Y-6395000D02*
X5497500Y-6415000D01*
X5497500Y-6395000D02*
X5477500Y-6415000D01*
X5477500Y-6482500D02*
X5497500Y-6502500D01*
X5497500Y-6482500D02*
X5477500Y-6502500D01*
X5477500Y-6580000D02*
X5497500Y-6600000D01*
X5497500Y-6580000D02*
X5477500Y-6600000D01*
X5498000Y-6725000D02*
X5518000Y-6745000D01*
X5518000Y-6725000D02*
X5498000Y-6745000D01*
X5555000Y-6790000D02*
X5575000Y-6810000D01*
X5575000Y-6790000D02*
X5555000Y-6810000D01*
X5555000Y-7080000D02*
X5575000Y-7100000D01*
X5575000Y-7080000D02*
X5555000Y-7100000D01*
X5555000Y-7550000D02*
X5575000Y-7570000D01*
X5575000Y-7550000D02*
X5555000Y-7570000D01*
X5572500Y-3112500D02*
X5592500Y-3132500D01*
X5592500Y-3112500D02*
X5572500Y-3132500D01*
X5575000Y-3027500D02*
X5595000Y-3047500D01*
X5595000Y-3027500D02*
X5575000Y-3047500D01*
X5582500Y-9607500D02*
X5602500Y-9627500D01*
X5602500Y-9607500D02*
X5582500Y-9627500D01*
X5610000Y-7625000D02*
X5630000Y-7645000D01*
X5630000Y-7625000D02*
X5610000Y-7645000D01*
X5627500Y-7720000D02*
X5647500Y-7740000D01*
X5647500Y-7720000D02*
X5627500Y-7740000D01*
X5630000Y-8265000D02*
X5650000Y-8285000D01*
X5650000Y-8265000D02*
X5630000Y-8285000D01*
X5705000Y-6790000D02*
X5725000Y-6810000D01*
X5725000Y-6790000D02*
X5705000Y-6810000D01*
X5705000Y-7080000D02*
X5725000Y-7100000D01*
X5725000Y-7080000D02*
X5705000Y-7100000D01*
X5752000Y-6706000D02*
X5772000Y-6726000D01*
X5772000Y-6706000D02*
X5752000Y-6726000D01*
X5798000Y-7174000D02*
X5818000Y-7194000D01*
X5818000Y-7174000D02*
X5798000Y-7194000D01*
X5832000Y-6843000D02*
X5852000Y-6863000D01*
X5852000Y-6843000D02*
X5832000Y-6863000D01*
X5883000Y-6896000D02*
X5903000Y-6916000D01*
X5903000Y-6896000D02*
X5883000Y-6916000D01*
X5944000Y-6944700D02*
X5964000Y-6964700D01*
X5964000Y-6944700D02*
X5944000Y-6964700D01*
X6016000Y-6993400D02*
X6036000Y-7013400D01*
X6036000Y-6993400D02*
X6016000Y-7013400D01*
X6070000Y-9610000D02*
X6090000Y-9630000D01*
X6090000Y-9610000D02*
X6070000Y-9630000D01*
X6097500Y-8215000D02*
X6117500Y-8235000D01*
X6117500Y-8215000D02*
X6097500Y-8235000D01*
X6260000Y-8296200D02*
X6280000Y-8316200D01*
X6280000Y-8296200D02*
X6260000Y-8316200D01*
X6443000Y-7592000D02*
X6463000Y-7612000D01*
X6463000Y-7592000D02*
X6443000Y-7612000D01*
X6443000Y-7671000D02*
X6463000Y-7691000D01*
X6463000Y-7671000D02*
X6443000Y-7691000D01*
X6525000Y-6730000D02*
X6545000Y-6750000D01*
X6545000Y-6730000D02*
X6525000Y-6750000D01*
X6623000Y-7671000D02*
X6643000Y-7691000D01*
X6643000Y-7671000D02*
X6623000Y-7691000D01*
X6625000Y-7592000D02*
X6645000Y-7612000D01*
X6645000Y-7592000D02*
X6625000Y-7612000D01*
X6927000Y-8649000D02*
X6947000Y-8669000D01*
X6947000Y-8649000D02*
X6927000Y-8669000D01*
X7032500Y-7180000D02*
X7052500Y-7200000D01*
X7052500Y-7180000D02*
X7032500Y-7200000D01*
X7080000Y-8877000D02*
X7100000Y-8897000D01*
X7100000Y-8877000D02*
X7080000Y-8897000D01*
X7095000Y-8660000D02*
X7115000Y-8680000D01*
X7115000Y-8660000D02*
X7095000Y-8680000D01*
X7187000Y-8423000D02*
X7207000Y-8443000D01*
X7207000Y-8423000D02*
X7187000Y-8443000D01*
X7257000Y-8422000D02*
X7277000Y-8442000D01*
X7277000Y-8422000D02*
X7257000Y-8442000D01*
X7795000Y-5130000D02*
X7815000Y-5150000D01*
X7815000Y-5130000D02*
X7795000Y-5150000D01*
X7843700Y-5245000D02*
X7863700Y-5265000D01*
X7863700Y-5245000D02*
X7843700Y-5265000D01*
X7892400Y-5358000D02*
X7912400Y-5378000D01*
X7912400Y-5358000D02*
X7892400Y-5378000D01*
X8215000Y-8420000D02*
X8235000Y-8440000D01*
X8235000Y-8420000D02*
X8215000Y-8440000D01*
X8290000Y-8418000D02*
X8310000Y-8438000D01*
X8310000Y-8418000D02*
X8290000Y-8438000D01*
X8335000Y-5130000D02*
X8355000Y-5150000D01*
X8355000Y-5130000D02*
X8335000Y-5150000D01*
X8336000Y-5247000D02*
X8356000Y-5267000D01*
X8356000Y-5247000D02*
X8336000Y-5267000D01*
X8337500Y-4222500D02*
X8357500Y-4242500D01*
X8357500Y-4222500D02*
X8337500Y-4242500D01*
X8337500Y-4310000D02*
X8357500Y-4330000D01*
X8357500Y-4310000D02*
X8337500Y-4330000D01*
X8337500Y-4490000D02*
X8357500Y-4510000D01*
X8357500Y-4490000D02*
X8337500Y-4510000D01*
X8340000Y-4405000D02*
X8360000Y-4425000D01*
X8360000Y-4405000D02*
X8340000Y-4425000D01*
X8340000Y-5360000D02*
X8360000Y-5380000D01*
X8360000Y-5360000D02*
X8340000Y-5380000D01*
X8344000Y-5474000D02*
X8364000Y-5494000D01*
X8364000Y-5474000D02*
X8344000Y-5494000D01*
X8372000Y-8421000D02*
X8392000Y-8441000D01*
X8392000Y-8421000D02*
X8372000Y-8441000D01*
X8374000Y-9813950D02*
X8394000Y-9833950D01*
X8394000Y-9813950D02*
X8374000Y-9833950D01*
X8420000Y-9919000D02*
X8440000Y-9939000D01*
X8440000Y-9919000D02*
X8420000Y-9939000D01*
X8495000Y-10030000D02*
X8515000Y-10050000D01*
X8515000Y-10030000D02*
X8495000Y-10050000D01*
X8691000Y-9814000D02*
X8711000Y-9834000D01*
X8711000Y-9814000D02*
X8691000Y-9834000D01*
X8691000Y-9920000D02*
X8711000Y-9940000D01*
X8711000Y-9920000D02*
X8691000Y-9940000D01*
X8693000Y-10030000D02*
X8713000Y-10050000D01*
X8713000Y-10030000D02*
X8693000Y-10050000D01*
X8697000Y-10140000D02*
X8717000Y-10160000D01*
X8717000Y-10140000D02*
X8697000Y-10160000D01*
X8745000Y-4072500D02*
X8765000Y-4092500D01*
X8765000Y-4072500D02*
X8745000Y-4092500D01*
X8745000Y-4187500D02*
X8765000Y-4207500D01*
X8765000Y-4187500D02*
X8745000Y-4207500D01*
X8747500Y-4302500D02*
X8767500Y-4322500D01*
X8767500Y-4302500D02*
X8747500Y-4322500D01*
X8750000Y-4417500D02*
X8770000Y-4437500D01*
X8770000Y-4417500D02*
X8750000Y-4437500D01*
X8750000Y-5130000D02*
X8770000Y-5150000D01*
X8770000Y-5130000D02*
X8750000Y-5150000D01*
X8750000Y-5247500D02*
X8770000Y-5267500D01*
X8770000Y-5247500D02*
X8750000Y-5267500D01*
X8750000Y-5475000D02*
X8770000Y-5495000D01*
X8770000Y-5475000D02*
X8750000Y-5495000D01*
X8752500Y-5360000D02*
X8772500Y-5380000D01*
X8772500Y-5360000D02*
X8752500Y-5380000D01*
X8793000Y-8912000D02*
X8813000Y-8932000D01*
X8813000Y-8912000D02*
X8793000Y-8932000D01*
X8793000Y-9041000D02*
X8813000Y-9061000D01*
X8813000Y-9041000D02*
X8793000Y-9061000D01*
X8795000Y-8660000D02*
X8815000Y-8680000D01*
X8815000Y-8660000D02*
X8795000Y-8680000D01*
X8797000Y-8787000D02*
X8817000Y-8807000D01*
X8817000Y-8787000D02*
X8797000Y-8807000D01*
X9209000Y-9558000D02*
X9229000Y-9578000D01*
X9229000Y-9558000D02*
X9209000Y-9578000D01*
X9267583Y-7977583D02*
X9287583Y-7997583D01*
X9287583Y-7977583D02*
X9267583Y-7997583D01*
X9360000Y-8070000D02*
X9380000Y-8090000D01*
X9380000Y-8070000D02*
X9360000Y-8090000D01*
X9525000Y-10080000D02*
X9545000Y-10100000D01*
X9545000Y-10080000D02*
X9525000Y-10100000D01*
X9575000Y-10080000D02*
X9595000Y-10100000D01*
X9595000Y-10080000D02*
X9575000Y-10100000D01*
X9625000Y-10080000D02*
X9645000Y-10100000D01*
X9645000Y-10080000D02*
X9625000Y-10100000D01*
X9675000Y-10080000D02*
X9695000Y-10100000D01*
X9695000Y-10080000D02*
X9675000Y-10100000D01*
X9705000Y-9480000D02*
X9725000Y-9500000D01*
X9725000Y-9480000D02*
X9705000Y-9500000D01*
X9725000Y-10080000D02*
X9745000Y-10100000D01*
X9745000Y-10080000D02*
X9725000Y-10100000D01*
X9735000Y-9625000D02*
X9755000Y-9645000D01*
X9755000Y-9625000D02*
X9735000Y-9645000D01*
X9755000Y-9480000D02*
X9775000Y-9500000D01*
X9775000Y-9480000D02*
X9755000Y-9500000D01*
X9775000Y-10080000D02*
X9795000Y-10100000D01*
X9795000Y-10080000D02*
X9775000Y-10100000D01*
X9790000Y-9625000D02*
X9810000Y-9645000D01*
X9810000Y-9625000D02*
X9790000Y-9645000D01*
X9805000Y-9480000D02*
X9825000Y-9500000D01*
X9825000Y-9480000D02*
X9805000Y-9500000D01*
X9825000Y-10080000D02*
X9845000Y-10100000D01*
X9845000Y-10080000D02*
X9825000Y-10100000D01*
X9845000Y-9625000D02*
X9865000Y-9645000D01*
X9865000Y-9625000D02*
X9845000Y-9645000D01*
X9855000Y-9480000D02*
X9875000Y-9500000D01*
X9875000Y-9480000D02*
X9855000Y-9500000D01*
X9875000Y-10080000D02*
X9895000Y-10100000D01*
X9895000Y-10080000D02*
X9875000Y-10100000D01*
X9900000Y-9625000D02*
X9920000Y-9645000D01*
X9920000Y-9625000D02*
X9900000Y-9645000D01*
X9905000Y-9480000D02*
X9925000Y-9500000D01*
X9925000Y-9480000D02*
X9905000Y-9500000D01*
X9925000Y-10080000D02*
X9945000Y-10100000D01*
X9945000Y-10080000D02*
X9925000Y-10100000D01*
X9955000Y-9480000D02*
X9975000Y-9500000D01*
X9975000Y-9480000D02*
X9955000Y-9500000D01*
X9955000Y-9625000D02*
X9975000Y-9645000D01*
X9975000Y-9625000D02*
X9955000Y-9645000D01*
X9975000Y-10080000D02*
X9995000Y-10100000D01*
X9995000Y-10080000D02*
X9975000Y-10100000D01*
X10005000Y-9480000D02*
X10025000Y-9500000D01*
X10025000Y-9480000D02*
X10005000Y-9500000D01*
X10010000Y-9625000D02*
X10030000Y-9645000D01*
X10030000Y-9625000D02*
X10010000Y-9645000D01*
X10015000Y-4705000D02*
X10035000Y-4725000D01*
X10035000Y-4705000D02*
X10015000Y-4725000D01*
X10015000Y-5235000D02*
X10035000Y-5255000D01*
X10035000Y-5235000D02*
X10015000Y-5255000D01*
X10025000Y-10080000D02*
X10045000Y-10100000D01*
X10045000Y-10080000D02*
X10025000Y-10100000D01*
X10055000Y-9480000D02*
X10075000Y-9500000D01*
X10075000Y-9480000D02*
X10055000Y-9500000D01*
X10065000Y-4705000D02*
X10085000Y-4725000D01*
X10085000Y-4705000D02*
X10065000Y-4725000D01*
X10065000Y-5235000D02*
X10085000Y-5255000D01*
X10085000Y-5235000D02*
X10065000Y-5255000D01*
X10065000Y-9625000D02*
X10085000Y-9645000D01*
X10085000Y-9625000D02*
X10065000Y-9645000D01*
X10075000Y-10080000D02*
X10095000Y-10100000D01*
X10095000Y-10080000D02*
X10075000Y-10100000D01*
X10105000Y-9480000D02*
X10125000Y-9500000D01*
X10125000Y-9480000D02*
X10105000Y-9500000D01*
X10106500Y-4850000D02*
X10126500Y-4870000D01*
X10126500Y-4850000D02*
X10106500Y-4870000D01*
X10115000Y-4705000D02*
X10135000Y-4725000D01*
X10135000Y-4705000D02*
X10115000Y-4725000D01*
X10115000Y-5235000D02*
X10135000Y-5255000D01*
X10135000Y-5235000D02*
X10115000Y-5255000D01*
X10125000Y-10080000D02*
X10145000Y-10100000D01*
X10145000Y-10080000D02*
X10125000Y-10100000D01*
X10130000Y-9785000D02*
X10150000Y-9805000D01*
X10150000Y-9785000D02*
X10130000Y-9805000D01*
X10130000Y-9925000D02*
X10150000Y-9945000D01*
X10150000Y-9925000D02*
X10130000Y-9945000D01*
X10155000Y-9480000D02*
X10175000Y-9500000D01*
X10175000Y-9480000D02*
X10155000Y-9500000D01*
X10165000Y-4705000D02*
X10185000Y-4725000D01*
X10185000Y-4705000D02*
X10165000Y-4725000D01*
X10165000Y-5235000D02*
X10185000Y-5255000D01*
X10185000Y-5235000D02*
X10165000Y-5255000D01*
X10166500Y-4850000D02*
X10186500Y-4870000D01*
X10186500Y-4850000D02*
X10166500Y-4870000D01*
X10175000Y-10080000D02*
X10195000Y-10100000D01*
X10195000Y-10080000D02*
X10175000Y-10100000D01*
X10205000Y-9480000D02*
X10225000Y-9500000D01*
X10225000Y-9480000D02*
X10205000Y-9500000D01*
X10215000Y-4705000D02*
X10235000Y-4725000D01*
X10235000Y-4705000D02*
X10215000Y-4725000D01*
X10215000Y-5235000D02*
X10235000Y-5255000D01*
X10235000Y-5235000D02*
X10215000Y-5255000D01*
X10225000Y-10080000D02*
X10245000Y-10100000D01*
X10245000Y-10080000D02*
X10225000Y-10100000D01*
X10226500Y-4850000D02*
X10246500Y-4870000D01*
X10246500Y-4850000D02*
X10226500Y-4870000D01*
X10255000Y-9480000D02*
X10275000Y-9500000D01*
X10275000Y-9480000D02*
X10255000Y-9500000D01*
X10265000Y-4705000D02*
X10285000Y-4725000D01*
X10285000Y-4705000D02*
X10265000Y-4725000D01*
X10265000Y-5235000D02*
X10285000Y-5255000D01*
X10285000Y-5235000D02*
X10265000Y-5255000D01*
X10275000Y-10080000D02*
X10295000Y-10100000D01*
X10295000Y-10080000D02*
X10275000Y-10100000D01*
X10286500Y-4850000D02*
X10306500Y-4870000D01*
X10306500Y-4850000D02*
X10286500Y-4870000D01*
X10310000Y-9515000D02*
X10330000Y-9535000D01*
X10330000Y-9515000D02*
X10310000Y-9535000D01*
X10310000Y-9570000D02*
X10330000Y-9590000D01*
X10330000Y-9570000D02*
X10310000Y-9590000D01*
X10315000Y-4705000D02*
X10335000Y-4725000D01*
X10335000Y-4705000D02*
X10315000Y-4725000D01*
X10315000Y-5235000D02*
X10335000Y-5255000D01*
X10335000Y-5235000D02*
X10315000Y-5255000D01*
X10325000Y-10080000D02*
X10345000Y-10100000D01*
X10345000Y-10080000D02*
X10325000Y-10100000D01*
X10330000Y-9620000D02*
X10350000Y-9640000D01*
X10350000Y-9620000D02*
X10330000Y-9640000D01*
X10330000Y-9785000D02*
X10350000Y-9805000D01*
X10350000Y-9785000D02*
X10330000Y-9805000D01*
X10330000Y-9925000D02*
X10350000Y-9945000D01*
X10350000Y-9925000D02*
X10330000Y-9945000D01*
X10346500Y-4850000D02*
X10366500Y-4870000D01*
X10366500Y-4850000D02*
X10346500Y-4870000D01*
X10350000Y-5130000D02*
X10370000Y-5150000D01*
X10370000Y-5130000D02*
X10350000Y-5150000D01*
X10365000Y-4705000D02*
X10385000Y-4725000D01*
X10385000Y-4705000D02*
X10365000Y-4725000D01*
X10365000Y-5235000D02*
X10385000Y-5255000D01*
X10385000Y-5235000D02*
X10365000Y-5255000D01*
X10375000Y-10080000D02*
X10395000Y-10100000D01*
X10395000Y-10080000D02*
X10375000Y-10100000D01*
X10380000Y-9620000D02*
X10400000Y-9640000D01*
X10400000Y-9620000D02*
X10380000Y-9640000D01*
X10380000Y-9785000D02*
X10400000Y-9805000D01*
X10400000Y-9785000D02*
X10380000Y-9805000D01*
X10380000Y-9925000D02*
X10400000Y-9945000D01*
X10400000Y-9925000D02*
X10380000Y-9945000D01*
X10405000Y-5130000D02*
X10425000Y-5150000D01*
X10425000Y-5130000D02*
X10405000Y-5150000D01*
X10406500Y-4850000D02*
X10426500Y-4870000D01*
X10426500Y-4850000D02*
X10406500Y-4870000D01*
X10415000Y-4705000D02*
X10435000Y-4725000D01*
X10435000Y-4705000D02*
X10415000Y-4725000D01*
X10415000Y-5235000D02*
X10435000Y-5255000D01*
X10435000Y-5235000D02*
X10415000Y-5255000D01*
X10425000Y-10080000D02*
X10445000Y-10100000D01*
X10445000Y-10080000D02*
X10425000Y-10100000D01*
X10430000Y-9620000D02*
X10450000Y-9640000D01*
X10450000Y-9620000D02*
X10430000Y-9640000D01*
X10430000Y-9785000D02*
X10450000Y-9805000D01*
X10450000Y-9785000D02*
X10430000Y-9805000D01*
X10430000Y-9925000D02*
X10450000Y-9945000D01*
X10450000Y-9925000D02*
X10430000Y-9945000D01*
X10455000Y-5130000D02*
X10475000Y-5150000D01*
X10475000Y-5130000D02*
X10455000Y-5150000D01*
X10465000Y-4705000D02*
X10485000Y-4725000D01*
X10485000Y-4705000D02*
X10465000Y-4725000D01*
X10466500Y-4850000D02*
X10486500Y-4870000D01*
X10486500Y-4850000D02*
X10466500Y-4870000D01*
X10470000Y-5235000D02*
X10490000Y-5255000D01*
X10490000Y-5235000D02*
X10470000Y-5255000D01*
X10475000Y-10080000D02*
X10495000Y-10100000D01*
X10495000Y-10080000D02*
X10475000Y-10100000D01*
X10480000Y-9620000D02*
X10500000Y-9640000D01*
X10500000Y-9620000D02*
X10480000Y-9640000D01*
X10480000Y-9785000D02*
X10500000Y-9805000D01*
X10500000Y-9785000D02*
X10480000Y-9805000D01*
X10480000Y-9925000D02*
X10500000Y-9945000D01*
X10500000Y-9925000D02*
X10480000Y-9945000D01*
X10515000Y-4705000D02*
X10535000Y-4725000D01*
X10535000Y-4705000D02*
X10515000Y-4725000D01*
X10515000Y-5025000D02*
X10535000Y-5045000D01*
X10535000Y-5025000D02*
X10515000Y-5045000D01*
X10515000Y-5075000D02*
X10535000Y-5095000D01*
X10535000Y-5075000D02*
X10515000Y-5095000D01*
X10515000Y-5130000D02*
X10535000Y-5150000D01*
X10535000Y-5130000D02*
X10515000Y-5150000D01*
X10520000Y-5235000D02*
X10540000Y-5255000D01*
X10540000Y-5235000D02*
X10520000Y-5255000D01*
X10525000Y-10080000D02*
X10545000Y-10100000D01*
X10545000Y-10080000D02*
X10525000Y-10100000D01*
X10526500Y-4850000D02*
X10546500Y-4870000D01*
X10546500Y-4850000D02*
X10526500Y-4870000D01*
X10530000Y-9620000D02*
X10550000Y-9640000D01*
X10550000Y-9620000D02*
X10530000Y-9640000D01*
X10530000Y-9785000D02*
X10550000Y-9805000D01*
X10550000Y-9785000D02*
X10530000Y-9805000D01*
X10530000Y-9925000D02*
X10550000Y-9945000D01*
X10550000Y-9925000D02*
X10530000Y-9945000D01*
X10565000Y-4705000D02*
X10585000Y-4725000D01*
X10585000Y-4705000D02*
X10565000Y-4725000D01*
X10570000Y-5235000D02*
X10590000Y-5255000D01*
X10590000Y-5235000D02*
X10570000Y-5255000D01*
X10575000Y-10080000D02*
X10595000Y-10100000D01*
X10595000Y-10080000D02*
X10575000Y-10100000D01*
X10580000Y-9620000D02*
X10600000Y-9640000D01*
X10600000Y-9620000D02*
X10580000Y-9640000D01*
X10580000Y-9785000D02*
X10600000Y-9805000D01*
X10600000Y-9785000D02*
X10580000Y-9805000D01*
X10580000Y-9925000D02*
X10600000Y-9945000D01*
X10600000Y-9925000D02*
X10580000Y-9945000D01*
X10615000Y-4705000D02*
X10635000Y-4725000D01*
X10635000Y-4705000D02*
X10615000Y-4725000D01*
X10620000Y-5235000D02*
X10640000Y-5255000D01*
X10640000Y-5235000D02*
X10620000Y-5255000D01*
X10625000Y-10080000D02*
X10645000Y-10100000D01*
X10645000Y-10080000D02*
X10625000Y-10100000D01*
X10630000Y-9620000D02*
X10650000Y-9640000D01*
X10650000Y-9620000D02*
X10630000Y-9640000D01*
X10665000Y-4705000D02*
X10685000Y-4725000D01*
X10685000Y-4705000D02*
X10665000Y-4725000D01*
X10670000Y-5235000D02*
X10690000Y-5255000D01*
X10690000Y-5235000D02*
X10670000Y-5255000D01*
X10675000Y-10080000D02*
X10695000Y-10100000D01*
X10695000Y-10080000D02*
X10675000Y-10100000D01*
X10680000Y-7340000D02*
X10700000Y-7360000D01*
X10700000Y-7340000D02*
X10680000Y-7360000D01*
X10680000Y-9620000D02*
X10700000Y-9640000D01*
X10700000Y-9620000D02*
X10680000Y-9640000D01*
X10700000Y-9515000D02*
X10720000Y-9535000D01*
X10720000Y-9515000D02*
X10700000Y-9535000D01*
X10700000Y-9570000D02*
X10720000Y-9590000D01*
X10720000Y-9570000D02*
X10700000Y-9590000D01*
X10715000Y-4705000D02*
X10735000Y-4725000D01*
X10735000Y-4705000D02*
X10715000Y-4725000D01*
X10720000Y-5235000D02*
X10740000Y-5255000D01*
X10740000Y-5235000D02*
X10720000Y-5255000D01*
X10725000Y-10080000D02*
X10745000Y-10100000D01*
X10745000Y-10080000D02*
X10725000Y-10100000D01*
X10740000Y-5040000D02*
X10760000Y-5060000D01*
X10760000Y-5040000D02*
X10740000Y-5060000D01*
X10740000Y-5090000D02*
X10760000Y-5110000D01*
X10760000Y-5090000D02*
X10740000Y-5110000D01*
X10740000Y-5145000D02*
X10760000Y-5165000D01*
X10760000Y-5145000D02*
X10740000Y-5165000D01*
X10750000Y-9485000D02*
X10770000Y-9505000D01*
X10770000Y-9485000D02*
X10750000Y-9505000D01*
X10760000Y-7340000D02*
X10780000Y-7360000D01*
X10780000Y-7340000D02*
X10760000Y-7360000D01*
X10765000Y-4705000D02*
X10785000Y-4725000D01*
X10785000Y-4705000D02*
X10765000Y-4725000D01*
X10765000Y-9785000D02*
X10785000Y-9805000D01*
X10785000Y-9785000D02*
X10765000Y-9805000D01*
X10765000Y-9925000D02*
X10785000Y-9945000D01*
X10785000Y-9925000D02*
X10765000Y-9945000D01*
X10770000Y-5235000D02*
X10790000Y-5255000D01*
X10790000Y-5235000D02*
X10770000Y-5255000D01*
X10775000Y-10080000D02*
X10795000Y-10100000D01*
X10795000Y-10080000D02*
X10775000Y-10100000D01*
X10800000Y-9485000D02*
X10820000Y-9505000D01*
X10820000Y-9485000D02*
X10800000Y-9505000D01*
X10815000Y-4705000D02*
X10835000Y-4725000D01*
X10835000Y-4705000D02*
X10815000Y-4725000D01*
X10820000Y-5235000D02*
X10840000Y-5255000D01*
X10840000Y-5235000D02*
X10820000Y-5255000D01*
X10825000Y-10080000D02*
X10845000Y-10100000D01*
X10845000Y-10080000D02*
X10825000Y-10100000D01*
X10830000Y-5145000D02*
X10850000Y-5165000D01*
X10850000Y-5145000D02*
X10830000Y-5165000D01*
X10850000Y-9485000D02*
X10870000Y-9505000D01*
X10870000Y-9485000D02*
X10850000Y-9505000D01*
X10865000Y-4705000D02*
X10885000Y-4725000D01*
X10885000Y-4705000D02*
X10865000Y-4725000D01*
X10870000Y-5235000D02*
X10890000Y-5255000D01*
X10890000Y-5235000D02*
X10870000Y-5255000D01*
X10875000Y-10080000D02*
X10895000Y-10100000D01*
X10895000Y-10080000D02*
X10875000Y-10100000D01*
X10885000Y-5145000D02*
X10905000Y-5165000D01*
X10905000Y-5145000D02*
X10885000Y-5165000D01*
X10900000Y-9485000D02*
X10920000Y-9505000D01*
X10920000Y-9485000D02*
X10900000Y-9505000D01*
X10915000Y-4705000D02*
X10935000Y-4725000D01*
X10935000Y-4705000D02*
X10915000Y-4725000D01*
X10925000Y-5235000D02*
X10945000Y-5255000D01*
X10945000Y-5235000D02*
X10925000Y-5255000D01*
X10925000Y-10080000D02*
X10945000Y-10100000D01*
X10945000Y-10080000D02*
X10925000Y-10100000D01*
X10935000Y-5145000D02*
X10955000Y-5165000D01*
X10955000Y-5145000D02*
X10935000Y-5165000D01*
X10950000Y-9485000D02*
X10970000Y-9505000D01*
X10970000Y-9485000D02*
X10950000Y-9505000D01*
X10950000Y-9550000D02*
X10970000Y-9570000D01*
X10970000Y-9550000D02*
X10950000Y-9570000D01*
X10965000Y-4705000D02*
X10985000Y-4725000D01*
X10985000Y-4705000D02*
X10965000Y-4725000D01*
X10975000Y-5235000D02*
X10995000Y-5255000D01*
X10995000Y-5235000D02*
X10975000Y-5255000D01*
X10975000Y-10080000D02*
X10995000Y-10100000D01*
X10995000Y-10080000D02*
X10975000Y-10100000D01*
X10985000Y-9925000D02*
X11005000Y-9945000D01*
X11005000Y-9925000D02*
X10985000Y-9945000D01*
X11000000Y-9550000D02*
X11020000Y-9570000D01*
X11020000Y-9550000D02*
X11000000Y-9570000D01*
X11005000Y-7475000D02*
X11025000Y-7495000D01*
X11025000Y-7475000D02*
X11005000Y-7495000D01*
X11015000Y-4705000D02*
X11035000Y-4725000D01*
X11035000Y-4705000D02*
X11015000Y-4725000D01*
X11025000Y-5235000D02*
X11045000Y-5255000D01*
X11045000Y-5235000D02*
X11025000Y-5255000D01*
X11025000Y-10080000D02*
X11045000Y-10100000D01*
X11045000Y-10080000D02*
X11025000Y-10100000D01*
X11035000Y-5040000D02*
X11055000Y-5060000D01*
X11055000Y-5040000D02*
X11035000Y-5060000D01*
X11035000Y-5090000D02*
X11055000Y-5110000D01*
X11055000Y-5090000D02*
X11035000Y-5110000D01*
X11035000Y-5145000D02*
X11055000Y-5165000D01*
X11055000Y-5145000D02*
X11035000Y-5165000D01*
X11050000Y-9550000D02*
X11070000Y-9570000D01*
X11070000Y-9550000D02*
X11050000Y-9570000D01*
X11065000Y-4705000D02*
X11085000Y-4725000D01*
X11085000Y-4705000D02*
X11065000Y-4725000D01*
X11075000Y-5235000D02*
X11095000Y-5255000D01*
X11095000Y-5235000D02*
X11075000Y-5255000D01*
X11075000Y-10080000D02*
X11095000Y-10100000D01*
X11095000Y-10080000D02*
X11075000Y-10100000D01*
X11100000Y-9550000D02*
X11120000Y-9570000D01*
X11120000Y-9550000D02*
X11100000Y-9570000D01*
X11115000Y-4705000D02*
X11135000Y-4725000D01*
X11135000Y-4705000D02*
X11115000Y-4725000D01*
X11125000Y-5235000D02*
X11145000Y-5255000D01*
X11145000Y-5235000D02*
X11125000Y-5255000D01*
X11125000Y-10080000D02*
X11145000Y-10100000D01*
X11145000Y-10080000D02*
X11125000Y-10100000D01*
X11150000Y-9550000D02*
X11170000Y-9570000D01*
X11170000Y-9550000D02*
X11150000Y-9570000D01*
X11165000Y-4705000D02*
X11185000Y-4725000D01*
X11185000Y-4705000D02*
X11165000Y-4725000D01*
X11175000Y-5235000D02*
X11195000Y-5255000D01*
X11195000Y-5235000D02*
X11175000Y-5255000D01*
X11215000Y-4705000D02*
X11235000Y-4725000D01*
X11235000Y-4705000D02*
X11215000Y-4725000D01*
X11225000Y-5235000D02*
X11245000Y-5255000D01*
X11245000Y-5235000D02*
X11225000Y-5255000D01*
X11250000Y-4830000D02*
X11270000Y-4850000D01*
X11270000Y-4830000D02*
X11250000Y-4850000D01*
X11260000Y-5050000D02*
X11280000Y-5070000D01*
X11280000Y-5050000D02*
X11260000Y-5070000D01*
X11260000Y-5100000D02*
X11280000Y-5120000D01*
X11280000Y-5100000D02*
X11260000Y-5120000D01*
X11260000Y-5155000D02*
X11280000Y-5175000D01*
X11280000Y-5155000D02*
X11260000Y-5175000D01*
X11265000Y-4705000D02*
X11285000Y-4725000D01*
X11285000Y-4705000D02*
X11265000Y-4725000D01*
X11275000Y-5235000D02*
X11295000Y-5255000D01*
X11295000Y-5235000D02*
X11275000Y-5255000D01*
X11300000Y-4830000D02*
X11320000Y-4850000D01*
X11320000Y-4830000D02*
X11300000Y-4850000D01*
X11310000Y-9770000D02*
X11330000Y-9790000D01*
X11330000Y-9770000D02*
X11310000Y-9790000D01*
X11315000Y-4705000D02*
X11335000Y-4725000D01*
X11335000Y-4705000D02*
X11315000Y-4725000D01*
X11325000Y-5235000D02*
X11345000Y-5255000D01*
X11345000Y-5235000D02*
X11325000Y-5255000D01*
X11355000Y-4830000D02*
X11375000Y-4850000D01*
X11375000Y-4830000D02*
X11355000Y-4850000D01*
X11360000Y-9770000D02*
X11380000Y-9790000D01*
X11380000Y-9770000D02*
X11360000Y-9790000D01*
X11410000Y-9770000D02*
X11430000Y-9790000D01*
X11430000Y-9770000D02*
X11410000Y-9790000D01*
X11440000Y-5000000D02*
X11460000Y-5020000D01*
X11460000Y-5000000D02*
X11440000Y-5020000D01*
X11460000Y-9770000D02*
X11480000Y-9790000D01*
X11480000Y-9770000D02*
X11460000Y-9790000D01*
X11495000Y-5000000D02*
X11515000Y-5020000D01*
X11515000Y-5000000D02*
X11495000Y-5020000D01*
X11510000Y-9770000D02*
X11530000Y-9790000D01*
X11530000Y-9770000D02*
X11510000Y-9790000D01*
X11545000Y-5000000D02*
X11565000Y-5020000D01*
X11565000Y-5000000D02*
X11545000Y-5020000D01*
X11600000Y-4855000D02*
X11620000Y-4875000D01*
X11620000Y-4855000D02*
X11600000Y-4875000D01*
X11600000Y-5000000D02*
X11620000Y-5020000D01*
X11620000Y-5000000D02*
X11600000Y-5020000D01*
X11655000Y-4855000D02*
X11675000Y-4875000D01*
X11675000Y-4855000D02*
X11655000Y-4875000D01*
X11655000Y-5000000D02*
X11675000Y-5020000D01*
X11675000Y-5000000D02*
X11655000Y-5020000D01*
X11670000Y-7265000D02*
X11690000Y-7285000D01*
X11690000Y-7265000D02*
X11670000Y-7285000D01*
X11705000Y-4855000D02*
X11725000Y-4875000D01*
X11725000Y-4855000D02*
X11705000Y-4875000D01*
X11705000Y-5000000D02*
X11725000Y-5020000D01*
X11725000Y-5000000D02*
X11705000Y-5020000D01*
X11725000Y-7265000D02*
X11745000Y-7285000D01*
X11745000Y-7265000D02*
X11725000Y-7285000D01*
X11760000Y-4855000D02*
X11780000Y-4875000D01*
X11780000Y-4855000D02*
X11760000Y-4875000D01*
X11760000Y-5000000D02*
X11780000Y-5020000D01*
X11780000Y-5000000D02*
X11760000Y-5020000D01*
X11780000Y-7265000D02*
X11800000Y-7285000D01*
X11800000Y-7265000D02*
X11780000Y-7285000D01*
X11815000Y-4855000D02*
X11835000Y-4875000D01*
X11835000Y-4855000D02*
X11815000Y-4875000D01*
X11815000Y-5000000D02*
X11835000Y-5020000D01*
X11835000Y-5000000D02*
X11815000Y-5020000D01*
X11835000Y-7265000D02*
X11855000Y-7285000D01*
X11855000Y-7265000D02*
X11835000Y-7285000D01*
X11845000Y-9625000D02*
X11865000Y-9645000D01*
X11865000Y-9625000D02*
X11845000Y-9645000D01*
X11845000Y-9765000D02*
X11865000Y-9785000D01*
X11865000Y-9765000D02*
X11845000Y-9785000D01*
X11865000Y-4855000D02*
X11885000Y-4875000D01*
X11885000Y-4855000D02*
X11865000Y-4875000D01*
X11865000Y-5000000D02*
X11885000Y-5020000D01*
X11885000Y-5000000D02*
X11865000Y-5020000D01*
X11880000Y-7180000D02*
X11900000Y-7200000D01*
X11900000Y-7180000D02*
X11880000Y-7200000D01*
X11895000Y-9625000D02*
X11915000Y-9645000D01*
X11915000Y-9625000D02*
X11895000Y-9645000D01*
X11895000Y-9765000D02*
X11915000Y-9785000D01*
X11915000Y-9765000D02*
X11895000Y-9785000D01*
X11945000Y-7535000D02*
X11965000Y-7555000D01*
X11965000Y-7535000D02*
X11945000Y-7555000D01*
X11945000Y-7735000D02*
X11965000Y-7755000D01*
X11965000Y-7735000D02*
X11945000Y-7755000D01*
X11945000Y-9625000D02*
X11965000Y-9645000D01*
X11965000Y-9625000D02*
X11945000Y-9645000D01*
X11945000Y-9765000D02*
X11965000Y-9785000D01*
X11965000Y-9765000D02*
X11945000Y-9785000D01*
X11980000Y-4925000D02*
X12000000Y-4945000D01*
X12000000Y-4925000D02*
X11980000Y-4945000D01*
X11980000Y-5060000D02*
X12000000Y-5080000D01*
X12000000Y-5060000D02*
X11980000Y-5080000D01*
X11995000Y-9625000D02*
X12015000Y-9645000D01*
X12015000Y-9625000D02*
X11995000Y-9645000D01*
X11995000Y-9765000D02*
X12015000Y-9785000D01*
X12015000Y-9765000D02*
X11995000Y-9785000D01*
X12000000Y-7202500D02*
X12020000Y-7222500D01*
X12020000Y-7202500D02*
X12000000Y-7222500D01*
X12015000Y-7370000D02*
X12035000Y-7390000D01*
X12035000Y-7370000D02*
X12015000Y-7390000D01*
X12015000Y-7420000D02*
X12035000Y-7440000D01*
X12035000Y-7420000D02*
X12015000Y-7440000D01*
X12015000Y-7470000D02*
X12035000Y-7490000D01*
X12035000Y-7470000D02*
X12015000Y-7490000D01*
X12035000Y-4925000D02*
X12055000Y-4945000D01*
X12055000Y-4925000D02*
X12035000Y-4945000D01*
X12035000Y-5060000D02*
X12055000Y-5080000D01*
X12055000Y-5060000D02*
X12035000Y-5080000D01*
X12045000Y-9625000D02*
X12065000Y-9645000D01*
X12065000Y-9625000D02*
X12045000Y-9645000D01*
X12045000Y-9765000D02*
X12065000Y-9785000D01*
X12065000Y-9765000D02*
X12045000Y-9785000D01*
X12085000Y-4925000D02*
X12105000Y-4945000D01*
X12105000Y-4925000D02*
X12085000Y-4945000D01*
X12085000Y-5060000D02*
X12105000Y-5080000D01*
X12105000Y-5060000D02*
X12085000Y-5080000D01*
X12100000Y-9625000D02*
X12120000Y-9645000D01*
X12120000Y-9625000D02*
X12100000Y-9645000D01*
X12100000Y-9765000D02*
X12120000Y-9785000D01*
X12120000Y-9765000D02*
X12100000Y-9785000D01*
X12150000Y-9625000D02*
X12170000Y-9645000D01*
X12170000Y-9625000D02*
X12150000Y-9645000D01*
X12150000Y-9765000D02*
X12170000Y-9785000D01*
X12170000Y-9765000D02*
X12150000Y-9785000D01*
X12365000Y-7298700D02*
X12385000Y-7318700D01*
X12385000Y-7298700D02*
X12365000Y-7318700D01*
X12487500Y-7202500D02*
X12507500Y-7222500D01*
X12507500Y-7202500D02*
X12487500Y-7222500D01*
X4957500Y-3590000D02*
G75*
G03*
X4957500Y-3590000I-10000J0D01*
G01*
X4957500Y-3810000D02*
G75*
G03*
X4957500Y-3810000I-10000J0D01*
G01*
X5177500Y-3590000D02*
G75*
G03*
X5177500Y-3590000I-10000J0D01*
G01*
X5177500Y-3810000D02*
G75*
G03*
X5177500Y-3810000I-10000J0D01*
G01*
D13*
X3175000Y-3480000D02*
X3175000Y-3520000D01*
X3155000Y-3500000D02*
X3195000Y-3500000D01*
X3175000Y-3580000D02*
X3175000Y-3620000D01*
X3155000Y-3600000D02*
X3195000Y-3600000D01*
X3175000Y-3680000D02*
X3175000Y-3720000D01*
X3155000Y-3700000D02*
X3195000Y-3700000D01*
X3175000Y-3780000D02*
X3175000Y-3820000D01*
X3155000Y-3800000D02*
X3195000Y-3800000D01*
X3275000Y-3480000D02*
X3275000Y-3520000D01*
X3255000Y-3500000D02*
X3295000Y-3500000D01*
X3275000Y-3580000D02*
X3275000Y-3620000D01*
X3255000Y-3600000D02*
X3295000Y-3600000D01*
X3275000Y-3680000D02*
X3275000Y-3720000D01*
X3255000Y-3700000D02*
X3295000Y-3700000D01*
X3275000Y-3780000D02*
X3275000Y-3820000D01*
X3255000Y-3800000D02*
X3295000Y-3800000D01*
X3375000Y-3480000D02*
X3375000Y-3520000D01*
X3355000Y-3500000D02*
X3395000Y-3500000D01*
X3375000Y-3580000D02*
X3375000Y-3620000D01*
X3355000Y-3600000D02*
X3395000Y-3600000D01*
X3375000Y-3680000D02*
X3375000Y-3720000D01*
X3355000Y-3700000D02*
X3395000Y-3700000D01*
X3375000Y-3780000D02*
X3375000Y-3820000D01*
X3355000Y-3800000D02*
X3395000Y-3800000D01*
X3527500Y-5767500D02*
X3527500Y-5807500D01*
X3507500Y-5787500D02*
X3547500Y-5787500D01*
X4055000Y-3290000D02*
X4055000Y-3330000D01*
X4035000Y-3310000D02*
X4075000Y-3310000D01*
X4135000Y-9840000D02*
X4135000Y-9880000D01*
X4115000Y-9860000D02*
X4155000Y-9860000D01*
X4205000Y-9185000D02*
X4205000Y-9225000D01*
X4185000Y-9205000D02*
X4225000Y-9205000D01*
X4242500Y-6185000D02*
X4242500Y-6225000D01*
X4222500Y-6205000D02*
X4262500Y-6205000D01*
X4305000Y-11760000D02*
X4305000Y-11800000D01*
X4285000Y-11780000D02*
X4325000Y-11780000D01*
X4450000Y-4760000D02*
X4450000Y-4800000D01*
X4430000Y-4780000D02*
X4470000Y-4780000D01*
X4685000Y-11090000D02*
X4685000Y-11130000D01*
X4665000Y-11110000D02*
X4705000Y-11110000D01*
X5017000Y-8047000D02*
X5017000Y-8087000D01*
X4997000Y-8067000D02*
X5037000Y-8067000D01*
X5070500Y-3045500D02*
X5070500Y-3085500D01*
X5050500Y-3065500D02*
X5090500Y-3065500D01*
X5155000Y-3374950D02*
X5155000Y-3414950D01*
X5135000Y-3394950D02*
X5175000Y-3394950D01*
X5175000Y-11430000D02*
X5175000Y-11470000D01*
X5155000Y-11450000D02*
X5195000Y-11450000D01*
X5276000Y-6642000D02*
X5276000Y-6682000D01*
X5256000Y-6662000D02*
X5296000Y-6662000D01*
X5310000Y-9696000D02*
X5310000Y-9736000D01*
X5290000Y-9716000D02*
X5330000Y-9716000D01*
X5395000Y-7970000D02*
X5395000Y-8010000D01*
X5375000Y-7990000D02*
X5415000Y-7990000D01*
X5460000Y-9696000D02*
X5460000Y-9736000D01*
X5440000Y-9716000D02*
X5480000Y-9716000D01*
X5485000Y-7880000D02*
X5485000Y-7920000D01*
X5465000Y-7900000D02*
X5505000Y-7900000D01*
X5565000Y-7790000D02*
X5565000Y-7830000D01*
X5545000Y-7810000D02*
X5585000Y-7810000D01*
X5565000Y-7970000D02*
X5565000Y-8010000D01*
X5545000Y-7990000D02*
X5585000Y-7990000D01*
X5825000Y-8080000D02*
X5825000Y-8120000D01*
X5805000Y-8100000D02*
X5845000Y-8100000D01*
X5825000Y-8180000D02*
X5825000Y-8220000D01*
X5805000Y-8200000D02*
X5845000Y-8200000D01*
X5925000Y-7970000D02*
X5925000Y-8010000D01*
X5905000Y-7990000D02*
X5945000Y-7990000D01*
X5925000Y-8080000D02*
X5925000Y-8120000D01*
X5905000Y-8100000D02*
X5945000Y-8100000D01*
X5925000Y-8180000D02*
X5925000Y-8220000D01*
X5905000Y-8200000D02*
X5945000Y-8200000D01*
X5925000Y-10970000D02*
X5925000Y-11010000D01*
X5905000Y-10990000D02*
X5945000Y-10990000D01*
X5935000Y-7540000D02*
X5935000Y-7580000D01*
X5915000Y-7560000D02*
X5955000Y-7560000D01*
X5935000Y-7670000D02*
X5935000Y-7710000D01*
X5915000Y-7690000D02*
X5955000Y-7690000D01*
X6045000Y-7540000D02*
X6045000Y-7580000D01*
X6025000Y-7560000D02*
X6065000Y-7560000D01*
X6045000Y-7660000D02*
X6045000Y-7700000D01*
X6025000Y-7680000D02*
X6065000Y-7680000D01*
X6045000Y-7760000D02*
X6045000Y-7800000D01*
X6025000Y-7780000D02*
X6065000Y-7780000D01*
X6045000Y-7860000D02*
X6045000Y-7900000D01*
X6025000Y-7880000D02*
X6065000Y-7880000D01*
X6045000Y-7970000D02*
X6045000Y-8010000D01*
X6025000Y-7990000D02*
X6065000Y-7990000D01*
X6045000Y-8080000D02*
X6045000Y-8120000D01*
X6025000Y-8100000D02*
X6065000Y-8100000D01*
X6215000Y-7130000D02*
X6215000Y-7170000D01*
X6195000Y-7150000D02*
X6235000Y-7150000D01*
X6215000Y-7230000D02*
X6215000Y-7270000D01*
X6195000Y-7250000D02*
X6235000Y-7250000D01*
X6555000Y-3460000D02*
X6555000Y-3500000D01*
X6535000Y-3480000D02*
X6575000Y-3480000D01*
X6565000Y-3070000D02*
X6565000Y-3110000D01*
X6545000Y-3090000D02*
X6585000Y-3090000D01*
X6692000Y-8050000D02*
X6692000Y-8090000D01*
X6672000Y-8070000D02*
X6712000Y-8070000D01*
X7015000Y-11450000D02*
X7015000Y-11490000D01*
X6995000Y-11470000D02*
X7035000Y-11470000D01*
X7085000Y-3040000D02*
X7085000Y-3080000D01*
X7065000Y-3060000D02*
X7105000Y-3060000D01*
X7247500Y-7322500D02*
X7247500Y-7362500D01*
X7227500Y-7342500D02*
X7267500Y-7342500D01*
X7575000Y-6010000D02*
X7575000Y-6050000D01*
X7555000Y-6030000D02*
X7595000Y-6030000D01*
X7865000Y-3985000D02*
X7865000Y-4025000D01*
X7845000Y-4005000D02*
X7885000Y-4005000D01*
X8912000Y-9671000D02*
X8912000Y-9711000D01*
X8892000Y-9691000D02*
X8932000Y-9691000D01*
X9217500Y-5175000D02*
X9217500Y-5215000D01*
X9197500Y-5195000D02*
X9237500Y-5195000D01*
X9553000Y-9026000D02*
X9553000Y-9066000D01*
X9533000Y-9046000D02*
X9573000Y-9046000D01*
X9702500Y-4272500D02*
X9702500Y-4312500D01*
X9682500Y-4292500D02*
X9722500Y-4292500D01*
X9727225Y-9888000D02*
X9727225Y-9928000D01*
X9707225Y-9908000D02*
X9747225Y-9908000D01*
X9913000Y-8912000D02*
X9913000Y-8952000D01*
X9893000Y-8932000D02*
X9933000Y-8932000D01*
X10002500Y-4112500D02*
X10002500Y-4152500D01*
X9982500Y-4132500D02*
X10022500Y-4132500D01*
X10060875Y-5085000D02*
X10060875Y-5125000D01*
X10040875Y-5105000D02*
X10080875Y-5105000D01*
X10530000Y-7740000D02*
X10530000Y-7780000D01*
X10510000Y-7760000D02*
X10550000Y-7760000D01*
X10690000Y-7740000D02*
X10690000Y-7780000D01*
X10670000Y-7760000D02*
X10710000Y-7760000D01*
X11005000Y-7725000D02*
X11005000Y-7765000D01*
X10985000Y-7745000D02*
X11025000Y-7745000D01*
X11225000Y-9490000D02*
X11225000Y-9530000D01*
X11205000Y-9510000D02*
X11245000Y-9510000D01*
X11965000Y-11260000D02*
X11965000Y-11300000D01*
X11945000Y-11280000D02*
X11985000Y-11280000D01*
X12025000Y-8040000D02*
X12025000Y-8080000D01*
X12005000Y-8060000D02*
X12045000Y-8060000D01*
X12170000Y-7805000D02*
X12170000Y-7845000D01*
X12150000Y-7825000D02*
X12190000Y-7825000D01*
X12280000Y-7805000D02*
X12280000Y-7845000D01*
X12260000Y-7825000D02*
X12300000Y-7825000D01*
X12385000Y-7805000D02*
X12385000Y-7845000D01*
X12365000Y-7825000D02*
X12405000Y-7825000D01*
X12507500Y-5605000D02*
X12507500Y-5645000D01*
X12487500Y-5625000D02*
X12527500Y-5625000D01*
X12615000Y-10420000D02*
X12615000Y-10460000D01*
X12595000Y-10440000D02*
X12635000Y-10440000D01*
X3256642Y-5716642D02*
X3256642Y-5688358D01*
X3228358Y-5688358D01*
X3228358Y-5716642D01*
X3256642Y-5716642D01*
X3256642Y-5801642D02*
X3256642Y-5773358D01*
X3228358Y-5773358D01*
X3228358Y-5801642D01*
X3256642Y-5801642D01*
X3256642Y-5886642D02*
X3256642Y-5858358D01*
X3228358Y-5858358D01*
X3228358Y-5886642D01*
X3256642Y-5886642D01*
X3256642Y-5971642D02*
X3256642Y-5943358D01*
X3228358Y-5943358D01*
X3228358Y-5971642D01*
X3256642Y-5971642D01*
X3256642Y-6056642D02*
X3256642Y-6028358D01*
X3228358Y-6028358D01*
X3228358Y-6056642D01*
X3256642Y-6056642D01*
X3256642Y-6141642D02*
X3256642Y-6113358D01*
X3228358Y-6113358D01*
X3228358Y-6141642D01*
X3256642Y-6141642D01*
X3256642Y-6226642D02*
X3256642Y-6198358D01*
X3228358Y-6198358D01*
X3228358Y-6226642D01*
X3256642Y-6226642D01*
X3256642Y-6311642D02*
X3256642Y-6283358D01*
X3228358Y-6283358D01*
X3228358Y-6311642D01*
X3256642Y-6311642D01*
X3256642Y-8716642D02*
X3256642Y-8688358D01*
X3228358Y-8688358D01*
X3228358Y-8716642D01*
X3256642Y-8716642D01*
X3256642Y-8801642D02*
X3256642Y-8773358D01*
X3228358Y-8773358D01*
X3228358Y-8801642D01*
X3256642Y-8801642D01*
X3256642Y-8886642D02*
X3256642Y-8858358D01*
X3228358Y-8858358D01*
X3228358Y-8886642D01*
X3256642Y-8886642D01*
X3256642Y-8971642D02*
X3256642Y-8943358D01*
X3228358Y-8943358D01*
X3228358Y-8971642D01*
X3256642Y-8971642D01*
X3256642Y-9056642D02*
X3256642Y-9028358D01*
X3228358Y-9028358D01*
X3228358Y-9056642D01*
X3256642Y-9056642D01*
X3256642Y-9141642D02*
X3256642Y-9113358D01*
X3228358Y-9113358D01*
X3228358Y-9141642D01*
X3256642Y-9141642D01*
X3256642Y-9226642D02*
X3256642Y-9198358D01*
X3228358Y-9198358D01*
X3228358Y-9226642D01*
X3256642Y-9226642D01*
X3256642Y-9311642D02*
X3256642Y-9283358D01*
X3228358Y-9283358D01*
X3228358Y-9311642D01*
X3256642Y-9311642D01*
X3391642Y-5716642D02*
X3391642Y-5688358D01*
X3363358Y-5688358D01*
X3363358Y-5716642D01*
X3391642Y-5716642D01*
X3391642Y-5801642D02*
X3391642Y-5773358D01*
X3363358Y-5773358D01*
X3363358Y-5801642D01*
X3391642Y-5801642D01*
X3391642Y-5886642D02*
X3391642Y-5858358D01*
X3363358Y-5858358D01*
X3363358Y-5886642D01*
X3391642Y-5886642D01*
X3391642Y-5971642D02*
X3391642Y-5943358D01*
X3363358Y-5943358D01*
X3363358Y-5971642D01*
X3391642Y-5971642D01*
X3391642Y-6056642D02*
X3391642Y-6028358D01*
X3363358Y-6028358D01*
X3363358Y-6056642D01*
X3391642Y-6056642D01*
X3391642Y-6141642D02*
X3391642Y-6113358D01*
X3363358Y-6113358D01*
X3363358Y-6141642D01*
X3391642Y-6141642D01*
X3391642Y-6226642D02*
X3391642Y-6198358D01*
X3363358Y-6198358D01*
X3363358Y-6226642D01*
X3391642Y-6226642D01*
X3391642Y-6311642D02*
X3391642Y-6283358D01*
X3363358Y-6283358D01*
X3363358Y-6311642D01*
X3391642Y-6311642D01*
X3391642Y-8716642D02*
X3391642Y-8688358D01*
X3363358Y-8688358D01*
X3363358Y-8716642D01*
X3391642Y-8716642D01*
X3391642Y-8801642D02*
X3391642Y-8773358D01*
X3363358Y-8773358D01*
X3363358Y-8801642D01*
X3391642Y-8801642D01*
X3391642Y-8886642D02*
X3391642Y-8858358D01*
X3363358Y-8858358D01*
X3363358Y-8886642D01*
X3391642Y-8886642D01*
X3391642Y-8971642D02*
X3391642Y-8943358D01*
X3363358Y-8943358D01*
X3363358Y-8971642D01*
X3391642Y-8971642D01*
X3391642Y-9056642D02*
X3391642Y-9028358D01*
X3363358Y-9028358D01*
X3363358Y-9056642D01*
X3391642Y-9056642D01*
X3391642Y-9141642D02*
X3391642Y-9113358D01*
X3363358Y-9113358D01*
X3363358Y-9141642D01*
X3391642Y-9141642D01*
X3391642Y-9226642D02*
X3391642Y-9198358D01*
X3363358Y-9198358D01*
X3363358Y-9226642D01*
X3391642Y-9226642D01*
X3391642Y-9311642D02*
X3391642Y-9283358D01*
X3363358Y-9283358D01*
X3363358Y-9311642D01*
X3391642Y-9311642D01*
D14*
X2941500Y-5597500D02*
X2971500Y-5567500D01*
X2941500Y-5537500D01*
X2911500Y-5567500D01*
X2941500Y-5597500D01*
D11*
X2981500Y-5537500D02*
X2901500Y-5537500D01*
X2981500Y-5597500D02*
X2901500Y-5597500D01*
X2901500Y-5537500D02*
G75*
G03*
X2901500Y-5597500I0J-30000D01*
G01*
X2981500Y-5597500D02*
G75*
G03*
X2981500Y-5537500I0J30000D01*
G01*
D14*
X2941500Y-6462500D02*
X2971500Y-6432500D01*
X2941500Y-6402500D01*
X2911500Y-6432500D01*
X2941500Y-6462500D01*
D11*
X2981500Y-6402500D02*
X2901500Y-6402500D01*
X2981500Y-6462500D02*
X2901500Y-6462500D01*
X2901500Y-6402500D02*
G75*
G03*
X2901500Y-6462500I0J-30000D01*
G01*
X2981500Y-6462500D02*
G75*
G03*
X2981500Y-6402500I0J30000D01*
G01*
D14*
X2941500Y-8597500D02*
X2971500Y-8567500D01*
X2941500Y-8537500D01*
X2911500Y-8567500D01*
X2941500Y-8597500D01*
D11*
X2981500Y-8537500D02*
X2901500Y-8537500D01*
X2981500Y-8597500D02*
X2901500Y-8597500D01*
X2901500Y-8537500D02*
G75*
G03*
X2901500Y-8597500I0J-30000D01*
G01*
X2981500Y-8597500D02*
G75*
G03*
X2981500Y-8537500I0J30000D01*
G01*
D14*
X2941500Y-9462500D02*
X2971500Y-9432500D01*
X2941500Y-9402500D01*
X2911500Y-9432500D01*
X2941500Y-9462500D01*
D11*
X2981500Y-9402500D02*
X2901500Y-9402500D01*
X2981500Y-9462500D02*
X2901500Y-9462500D01*
X2901500Y-9402500D02*
G75*
G03*
X2901500Y-9462500I0J-30000D01*
G01*
X2981500Y-9462500D02*
G75*
G03*
X2981500Y-9402500I0J30000D01*
G01*
D14*
X3279500Y-5597500D02*
X3309500Y-5567500D01*
X3279500Y-5537500D01*
X3249500Y-5567500D01*
X3279500Y-5597500D01*
D11*
X3354500Y-5537500D02*
X3204500Y-5537500D01*
X3354500Y-5597500D02*
X3204500Y-5597500D01*
X3204500Y-5537500D02*
G75*
G03*
X3204500Y-5597500I0J-30000D01*
G01*
X3354500Y-5597500D02*
G75*
G03*
X3354500Y-5537500I0J30000D01*
G01*
D14*
X3279500Y-6462500D02*
X3309500Y-6432500D01*
X3279500Y-6402500D01*
X3249500Y-6432500D01*
X3279500Y-6462500D01*
D11*
X3354500Y-6402500D02*
X3204500Y-6402500D01*
X3354500Y-6462500D02*
X3204500Y-6462500D01*
X3204500Y-6402500D02*
G75*
G03*
X3204500Y-6462500I0J-30000D01*
G01*
X3354500Y-6462500D02*
G75*
G03*
X3354500Y-6402500I0J30000D01*
G01*
D14*
X3279500Y-8597500D02*
X3309500Y-8567500D01*
X3279500Y-8537500D01*
X3249500Y-8567500D01*
X3279500Y-8597500D01*
D11*
X3354500Y-8537500D02*
X3204500Y-8537500D01*
X3354500Y-8597500D02*
X3204500Y-8597500D01*
X3204500Y-8537500D02*
G75*
G03*
X3204500Y-8597500I0J-30000D01*
G01*
X3354500Y-8597500D02*
G75*
G03*
X3354500Y-8537500I0J30000D01*
G01*
D14*
X3279500Y-9462500D02*
X3309500Y-9432500D01*
X3279500Y-9402500D01*
X3249500Y-9432500D01*
X3279500Y-9462500D01*
D11*
X3354500Y-9402500D02*
X3204500Y-9402500D01*
X3354500Y-9462500D02*
X3204500Y-9462500D01*
X3204500Y-9402500D02*
G75*
G03*
X3204500Y-9462500I0J-30000D01*
G01*
X3354500Y-9462500D02*
G75*
G03*
X3354500Y-9402500I0J30000D01*
G01*
D10*
X3152500Y-8165000D02*
X3252500Y-8265000D01*
X3252500Y-8165000D02*
X3152500Y-8265000D01*
X3252500Y-8215000D02*
G75*
G03*
X3252500Y-8215000I-50000J0D01*
G01*
X3395000Y-10042000D02*
X3495000Y-10142000D01*
X3495000Y-10042000D02*
X3395000Y-10142000D01*
X3495000Y-10092000D02*
G75*
G03*
X3495000Y-10092000I-50000J0D01*
G01*
X3395000Y-10296000D02*
X3495000Y-10396000D01*
X3495000Y-10296000D02*
X3395000Y-10396000D01*
X3495000Y-10346000D02*
G75*
G03*
X3495000Y-10346000I-50000J0D01*
G01*
X3395000Y-10550000D02*
X3495000Y-10650000D01*
X3495000Y-10550000D02*
X3395000Y-10650000D01*
X3495000Y-10600000D02*
G75*
G03*
X3495000Y-10600000I-50000J0D01*
G01*
X3406500Y-8165000D02*
X3506500Y-8265000D01*
X3506500Y-8165000D02*
X3406500Y-8265000D01*
X3506500Y-8215000D02*
G75*
G03*
X3506500Y-8215000I-50000J0D01*
G01*
X3660500Y-8165000D02*
X3760500Y-8265000D01*
X3760500Y-8165000D02*
X3660500Y-8265000D01*
X3760500Y-8215000D02*
G75*
G03*
X3760500Y-8215000I-50000J0D01*
G01*
X3914500Y-8165000D02*
X4014500Y-8265000D01*
X4014500Y-8165000D02*
X3914500Y-8265000D01*
X4014500Y-8215000D02*
G75*
G03*
X4014500Y-8215000I-50000J0D01*
G01*
X4168500Y-8165000D02*
X4268500Y-8265000D01*
X4268500Y-8165000D02*
X4168500Y-8265000D01*
X4268500Y-8215000D02*
G75*
G03*
X4268500Y-8215000I-50000J0D01*
G01*
X4675000Y-12025000D02*
X4775000Y-12125000D01*
X4775000Y-12025000D02*
X4675000Y-12125000D01*
X4775000Y-12075000D02*
G75*
G03*
X4775000Y-12075000I-50000J0D01*
G01*
X12250000Y-4950000D02*
X12350000Y-5050000D01*
X12350000Y-4950000D02*
X12250000Y-5050000D01*
X12350000Y-5000000D02*
G75*
G03*
X12350000Y-5000000I-50000J0D01*
G01*
X12250000Y-9652500D02*
X12350000Y-9752500D01*
X12350000Y-9652500D02*
X12250000Y-9752500D01*
X12350000Y-9702500D02*
G75*
G03*
X12350000Y-9702500I-50000J0D01*
G01*
D15*
X4421000Y-11771000D02*
X4549000Y-11899000D01*
X4549000Y-11771000D02*
X4421000Y-11899000D01*
X4485000Y-11771000D02*
X4485000Y-11899000D01*
X4421000Y-11835000D02*
X4549000Y-11835000D01*
X4421000Y-12251000D02*
X4549000Y-12379000D01*
X4549000Y-12251000D02*
X4421000Y-12379000D01*
X4485000Y-12251000D02*
X4485000Y-12379000D01*
X4421000Y-12315000D02*
X4549000Y-12315000D01*
X4901000Y-11771000D02*
X5029000Y-11899000D01*
X5029000Y-11771000D02*
X4901000Y-11899000D01*
X4965000Y-11771000D02*
X4965000Y-11899000D01*
X4901000Y-11835000D02*
X5029000Y-11835000D01*
X4901000Y-12251000D02*
X5029000Y-12379000D01*
X5029000Y-12251000D02*
X4901000Y-12379000D01*
X4965000Y-12251000D02*
X4965000Y-12379000D01*
X4901000Y-12315000D02*
X5029000Y-12315000D01*
X11996000Y-4696000D02*
X12124000Y-4824000D01*
X12124000Y-4696000D02*
X11996000Y-4824000D01*
X12060000Y-4696000D02*
X12060000Y-4824000D01*
X11996000Y-4760000D02*
X12124000Y-4760000D01*
X11996000Y-5176000D02*
X12124000Y-5304000D01*
X12124000Y-5176000D02*
X11996000Y-5304000D01*
X12060000Y-5176000D02*
X12060000Y-5304000D01*
X11996000Y-5240000D02*
X12124000Y-5240000D01*
X11996000Y-9398500D02*
X12124000Y-9526500D01*
X12124000Y-9398500D02*
X11996000Y-9526500D01*
X12060000Y-9398500D02*
X12060000Y-9526500D01*
X11996000Y-9462500D02*
X12124000Y-9462500D01*
X11996000Y-9878500D02*
X12124000Y-10006500D01*
X12124000Y-9878500D02*
X11996000Y-10006500D01*
X12060000Y-9878500D02*
X12060000Y-10006500D01*
X11996000Y-9942500D02*
X12124000Y-9942500D01*
X12476000Y-4696000D02*
X12604000Y-4824000D01*
X12604000Y-4696000D02*
X12476000Y-4824000D01*
X12540000Y-4696000D02*
X12540000Y-4824000D01*
X12476000Y-4760000D02*
X12604000Y-4760000D01*
X12476000Y-5176000D02*
X12604000Y-5304000D01*
X12604000Y-5176000D02*
X12476000Y-5304000D01*
X12540000Y-5176000D02*
X12540000Y-5304000D01*
X12476000Y-5240000D02*
X12604000Y-5240000D01*
X12476000Y-9398500D02*
X12604000Y-9526500D01*
X12604000Y-9398500D02*
X12476000Y-9526500D01*
X12540000Y-9398500D02*
X12540000Y-9526500D01*
X12476000Y-9462500D02*
X12604000Y-9462500D01*
X12476000Y-9878500D02*
X12604000Y-10006500D01*
X12604000Y-9878500D02*
X12476000Y-10006500D01*
X12540000Y-9878500D02*
X12540000Y-10006500D01*
X12476000Y-9942500D02*
X12604000Y-9942500D01*
D16*
X7760000Y-2868750D02*
X7890000Y-2998750D01*
X7890000Y-2868750D02*
X7760000Y-2998750D01*
X7870962Y-2979712D02*
X7870962Y-2887788D01*
X7779038Y-2887788D01*
X7779038Y-2979712D01*
X7870962Y-2979712D01*
X8260000Y-2868750D02*
X8390000Y-2998750D01*
X8390000Y-2868750D02*
X8260000Y-2998750D01*
X8370962Y-2979712D02*
X8370962Y-2887788D01*
X8279038Y-2887788D01*
X8279038Y-2979712D01*
X8370962Y-2979712D01*
D17*
X3040000Y-2765000D02*
X3360000Y-3085000D01*
X3360000Y-2765000D02*
X3040000Y-3085000D01*
X3200000Y-3085000D02*
X3360000Y-2925000D01*
X3200000Y-2765000D01*
X3040000Y-2925000D01*
X3200000Y-3085000D01*
X3040000Y-11915000D02*
X3360000Y-12235000D01*
X3360000Y-11915000D02*
X3040000Y-12235000D01*
X3200000Y-12235000D02*
X3360000Y-12075000D01*
X3200000Y-11915000D01*
X3040000Y-12075000D01*
X3200000Y-12235000D01*
X12165000Y-2765000D02*
X12485000Y-3085000D01*
X12485000Y-2765000D02*
X12165000Y-3085000D01*
X12325000Y-3085000D02*
X12485000Y-2925000D01*
X12325000Y-2765000D01*
X12165000Y-2925000D01*
X12325000Y-3085000D01*
X12165000Y-11915000D02*
X12485000Y-12235000D01*
X12485000Y-11915000D02*
X12165000Y-12235000D01*
X12325000Y-12235000D02*
X12485000Y-12075000D01*
X12325000Y-11915000D01*
X12165000Y-12075000D01*
X12325000Y-12235000D01*
D11*
X3027619Y-12815476D02*
X3027619Y-12615476D01*
X3075238Y-12615476D01*
X3103809Y-12625000D01*
X3122857Y-12644048D01*
X3132381Y-12663095D01*
X3141905Y-12701190D01*
X3141905Y-12729762D01*
X3132381Y-12767857D01*
X3122857Y-12786905D01*
X3103809Y-12805952D01*
X3075238Y-12815476D01*
X3027619Y-12815476D01*
X3227619Y-12815476D02*
X3227619Y-12682143D01*
X3227619Y-12720238D02*
X3237143Y-12701190D01*
X3246667Y-12691667D01*
X3265714Y-12682143D01*
X3284762Y-12682143D01*
X3351428Y-12815476D02*
X3351428Y-12682143D01*
X3351428Y-12615476D02*
X3341905Y-12625000D01*
X3351428Y-12634524D01*
X3360952Y-12625000D01*
X3351428Y-12615476D01*
X3351428Y-12634524D01*
X3475238Y-12815476D02*
X3456190Y-12805952D01*
X3446667Y-12786905D01*
X3446667Y-12615476D01*
X3580000Y-12815476D02*
X3560952Y-12805952D01*
X3551428Y-12786905D01*
X3551428Y-12615476D01*
X3808571Y-12815476D02*
X3808571Y-12615476D01*
X3875238Y-12758333D01*
X3941905Y-12615476D01*
X3941905Y-12815476D01*
X4122857Y-12815476D02*
X4122857Y-12710714D01*
X4113333Y-12691667D01*
X4094286Y-12682143D01*
X4056190Y-12682143D01*
X4037143Y-12691667D01*
X4122857Y-12805952D02*
X4103809Y-12815476D01*
X4056190Y-12815476D01*
X4037143Y-12805952D01*
X4027619Y-12786905D01*
X4027619Y-12767857D01*
X4037143Y-12748809D01*
X4056190Y-12739286D01*
X4103809Y-12739286D01*
X4122857Y-12729762D01*
X4218095Y-12682143D02*
X4218095Y-12882143D01*
X4218095Y-12691667D02*
X4237143Y-12682143D01*
X4275238Y-12682143D01*
X4294286Y-12691667D01*
X4303810Y-12701190D01*
X4313333Y-12720238D01*
X4313333Y-12777381D01*
X4303810Y-12796428D01*
X4294286Y-12805952D01*
X4275238Y-12815476D01*
X4237143Y-12815476D01*
X4218095Y-12805952D01*
X4399048Y-12796428D02*
X4408571Y-12805952D01*
X4399048Y-12815476D01*
X4389524Y-12805952D01*
X4399048Y-12796428D01*
X4399048Y-12815476D01*
X4399048Y-12691667D02*
X4408571Y-12701190D01*
X4399048Y-12710714D01*
X4389524Y-12701190D01*
X4399048Y-12691667D01*
X4399048Y-12710714D01*
D12*
X2750000Y-13135000D02*
X2770000Y-13155000D01*
X2770000Y-13135000D02*
X2750000Y-13155000D01*
D11*
X3065714Y-13035476D02*
X3084762Y-13035476D01*
X3103809Y-13045000D01*
X3113333Y-13054524D01*
X3122857Y-13073571D01*
X3132381Y-13111667D01*
X3132381Y-13159286D01*
X3122857Y-13197381D01*
X3113333Y-13216428D01*
X3103809Y-13225952D01*
X3084762Y-13235476D01*
X3065714Y-13235476D01*
X3046667Y-13225952D01*
X3037143Y-13216428D01*
X3027619Y-13197381D01*
X3018095Y-13159286D01*
X3018095Y-13111667D01*
X3027619Y-13073571D01*
X3037143Y-13054524D01*
X3046667Y-13045000D01*
X3065714Y-13035476D01*
X3218095Y-13216428D02*
X3227619Y-13225952D01*
X3218095Y-13235476D01*
X3208571Y-13225952D01*
X3218095Y-13216428D01*
X3218095Y-13235476D01*
X3303809Y-13054524D02*
X3313333Y-13045000D01*
X3332381Y-13035476D01*
X3380000Y-13035476D01*
X3399048Y-13045000D01*
X3408571Y-13054524D01*
X3418095Y-13073571D01*
X3418095Y-13092619D01*
X3408571Y-13121190D01*
X3294286Y-13235476D01*
X3418095Y-13235476D01*
X3541905Y-13035476D02*
X3560952Y-13035476D01*
X3580000Y-13045000D01*
X3589524Y-13054524D01*
X3599048Y-13073571D01*
X3608571Y-13111667D01*
X3608571Y-13159286D01*
X3599048Y-13197381D01*
X3589524Y-13216428D01*
X3580000Y-13225952D01*
X3560952Y-13235476D01*
X3541905Y-13235476D01*
X3522857Y-13225952D01*
X3513333Y-13216428D01*
X3503809Y-13197381D01*
X3494286Y-13159286D01*
X3494286Y-13111667D01*
X3503809Y-13073571D01*
X3513333Y-13054524D01*
X3522857Y-13045000D01*
X3541905Y-13035476D01*
X3732381Y-13035476D02*
X3751428Y-13035476D01*
X3770476Y-13045000D01*
X3780000Y-13054524D01*
X3789524Y-13073571D01*
X3799048Y-13111667D01*
X3799048Y-13159286D01*
X3789524Y-13197381D01*
X3780000Y-13216428D01*
X3770476Y-13225952D01*
X3751428Y-13235476D01*
X3732381Y-13235476D01*
X3713333Y-13225952D01*
X3703809Y-13216428D01*
X3694286Y-13197381D01*
X3684762Y-13159286D01*
X3684762Y-13111667D01*
X3694286Y-13073571D01*
X3703809Y-13054524D01*
X3713333Y-13045000D01*
X3732381Y-13035476D01*
X3884762Y-13235476D02*
X3884762Y-13102143D01*
X3884762Y-13121190D02*
X3894286Y-13111667D01*
X3913333Y-13102143D01*
X3941905Y-13102143D01*
X3960952Y-13111667D01*
X3970476Y-13130714D01*
X3970476Y-13235476D01*
X3970476Y-13130714D02*
X3980000Y-13111667D01*
X3999048Y-13102143D01*
X4027619Y-13102143D01*
X4046667Y-13111667D01*
X4056190Y-13130714D01*
X4056190Y-13235476D01*
X4151428Y-13235476D02*
X4151428Y-13102143D01*
X4151428Y-13121190D02*
X4160952Y-13111667D01*
X4180000Y-13102143D01*
X4208571Y-13102143D01*
X4227619Y-13111667D01*
X4237143Y-13130714D01*
X4237143Y-13235476D01*
X4237143Y-13130714D02*
X4246667Y-13111667D01*
X4265714Y-13102143D01*
X4294286Y-13102143D01*
X4313333Y-13111667D01*
X4322857Y-13130714D01*
X4322857Y-13235476D01*
X4713333Y-13025952D02*
X4541905Y-13283095D01*
X4970476Y-13035476D02*
X4989524Y-13035476D01*
X5008571Y-13045000D01*
X5018095Y-13054524D01*
X5027619Y-13073571D01*
X5037143Y-13111667D01*
X5037143Y-13159286D01*
X5027619Y-13197381D01*
X5018095Y-13216428D01*
X5008571Y-13225952D01*
X4989524Y-13235476D01*
X4970476Y-13235476D01*
X4951429Y-13225952D01*
X4941905Y-13216428D01*
X4932381Y-13197381D01*
X4922857Y-13159286D01*
X4922857Y-13111667D01*
X4932381Y-13073571D01*
X4941905Y-13054524D01*
X4951429Y-13045000D01*
X4970476Y-13035476D01*
X5122857Y-13216428D02*
X5132381Y-13225952D01*
X5122857Y-13235476D01*
X5113333Y-13225952D01*
X5122857Y-13216428D01*
X5122857Y-13235476D01*
X5256190Y-13035476D02*
X5275238Y-13035476D01*
X5294286Y-13045000D01*
X5303810Y-13054524D01*
X5313333Y-13073571D01*
X5322857Y-13111667D01*
X5322857Y-13159286D01*
X5313333Y-13197381D01*
X5303810Y-13216428D01*
X5294286Y-13225952D01*
X5275238Y-13235476D01*
X5256190Y-13235476D01*
X5237143Y-13225952D01*
X5227619Y-13216428D01*
X5218095Y-13197381D01*
X5208571Y-13159286D01*
X5208571Y-13111667D01*
X5218095Y-13073571D01*
X5227619Y-13054524D01*
X5237143Y-13045000D01*
X5256190Y-13035476D01*
X5446667Y-13035476D02*
X5465714Y-13035476D01*
X5484762Y-13045000D01*
X5494286Y-13054524D01*
X5503810Y-13073571D01*
X5513333Y-13111667D01*
X5513333Y-13159286D01*
X5503810Y-13197381D01*
X5494286Y-13216428D01*
X5484762Y-13225952D01*
X5465714Y-13235476D01*
X5446667Y-13235476D01*
X5427619Y-13225952D01*
X5418095Y-13216428D01*
X5408571Y-13197381D01*
X5399048Y-13159286D01*
X5399048Y-13111667D01*
X5408571Y-13073571D01*
X5418095Y-13054524D01*
X5427619Y-13045000D01*
X5446667Y-13035476D01*
X5580000Y-13035476D02*
X5713333Y-13035476D01*
X5627619Y-13235476D01*
X5799048Y-13235476D02*
X5837143Y-13235476D01*
X5856190Y-13225952D01*
X5865714Y-13216428D01*
X5884762Y-13187857D01*
X5894286Y-13149762D01*
X5894286Y-13073571D01*
X5884762Y-13054524D01*
X5875238Y-13045000D01*
X5856190Y-13035476D01*
X5818095Y-13035476D01*
X5799048Y-13045000D01*
X5789524Y-13054524D01*
X5780000Y-13073571D01*
X5780000Y-13121190D01*
X5789524Y-13140238D01*
X5799048Y-13149762D01*
X5818095Y-13159286D01*
X5856190Y-13159286D01*
X5875238Y-13149762D01*
X5884762Y-13140238D01*
X5894286Y-13121190D01*
X5970476Y-13035476D02*
X5970476Y-13073571D01*
X6046667Y-13035476D02*
X6046667Y-13073571D01*
X6341905Y-13311667D02*
X6332381Y-13302143D01*
X6313333Y-13273571D01*
X6303809Y-13254524D01*
X6294286Y-13225952D01*
X6284762Y-13178333D01*
X6284762Y-13140238D01*
X6294286Y-13092619D01*
X6303809Y-13064048D01*
X6313333Y-13045000D01*
X6332381Y-13016428D01*
X6341905Y-13006905D01*
X6503809Y-13102143D02*
X6503809Y-13235476D01*
X6456190Y-13025952D02*
X6408571Y-13168809D01*
X6532381Y-13168809D01*
X6646667Y-13035476D02*
X6665714Y-13035476D01*
X6684762Y-13045000D01*
X6694286Y-13054524D01*
X6703809Y-13073571D01*
X6713333Y-13111667D01*
X6713333Y-13159286D01*
X6703809Y-13197381D01*
X6694286Y-13216428D01*
X6684762Y-13225952D01*
X6665714Y-13235476D01*
X6646667Y-13235476D01*
X6627619Y-13225952D01*
X6618095Y-13216428D01*
X6608571Y-13197381D01*
X6599048Y-13159286D01*
X6599048Y-13111667D01*
X6608571Y-13073571D01*
X6618095Y-13054524D01*
X6627619Y-13045000D01*
X6646667Y-13035476D01*
X6884762Y-13102143D02*
X6884762Y-13235476D01*
X6837143Y-13025952D02*
X6789524Y-13168809D01*
X6913333Y-13168809D01*
X7141905Y-13235476D02*
X7141905Y-13035476D01*
X7227619Y-13235476D02*
X7227619Y-13130714D01*
X7218095Y-13111667D01*
X7199048Y-13102143D01*
X7170476Y-13102143D01*
X7151428Y-13111667D01*
X7141905Y-13121190D01*
X7351428Y-13235476D02*
X7332381Y-13225952D01*
X7322857Y-13216428D01*
X7313333Y-13197381D01*
X7313333Y-13140238D01*
X7322857Y-13121190D01*
X7332381Y-13111667D01*
X7351428Y-13102143D01*
X7380000Y-13102143D01*
X7399048Y-13111667D01*
X7408571Y-13121190D01*
X7418095Y-13140238D01*
X7418095Y-13197381D01*
X7408571Y-13216428D01*
X7399048Y-13225952D01*
X7380000Y-13235476D01*
X7351428Y-13235476D01*
X7532381Y-13235476D02*
X7513333Y-13225952D01*
X7503809Y-13206905D01*
X7503809Y-13035476D01*
X7684762Y-13225952D02*
X7665714Y-13235476D01*
X7627619Y-13235476D01*
X7608571Y-13225952D01*
X7599048Y-13206905D01*
X7599048Y-13130714D01*
X7608571Y-13111667D01*
X7627619Y-13102143D01*
X7665714Y-13102143D01*
X7684762Y-13111667D01*
X7694286Y-13130714D01*
X7694286Y-13149762D01*
X7599048Y-13168809D01*
X7770476Y-13225952D02*
X7789524Y-13235476D01*
X7827619Y-13235476D01*
X7846667Y-13225952D01*
X7856190Y-13206905D01*
X7856190Y-13197381D01*
X7846667Y-13178333D01*
X7827619Y-13168809D01*
X7799048Y-13168809D01*
X7780000Y-13159286D01*
X7770476Y-13140238D01*
X7770476Y-13130714D01*
X7780000Y-13111667D01*
X7799048Y-13102143D01*
X7827619Y-13102143D01*
X7846667Y-13111667D01*
X7922857Y-13311667D02*
X7932381Y-13302143D01*
X7951428Y-13273571D01*
X7960952Y-13254524D01*
X7970476Y-13225952D01*
X7980000Y-13178333D01*
X7980000Y-13140238D01*
X7970476Y-13092619D01*
X7960952Y-13064048D01*
X7951428Y-13045000D01*
X7932381Y-13016428D01*
X7922857Y-13006905D01*
D12*
X2770000Y-13409000D02*
G75*
G03*
X2770000Y-13409000I-10000J0D01*
G01*
D11*
X3065714Y-13299476D02*
X3084762Y-13299476D01*
X3103809Y-13309000D01*
X3113333Y-13318524D01*
X3122857Y-13337571D01*
X3132381Y-13375667D01*
X3132381Y-13423286D01*
X3122857Y-13461381D01*
X3113333Y-13480428D01*
X3103809Y-13489952D01*
X3084762Y-13499476D01*
X3065714Y-13499476D01*
X3046667Y-13489952D01*
X3037143Y-13480428D01*
X3027619Y-13461381D01*
X3018095Y-13423286D01*
X3018095Y-13375667D01*
X3027619Y-13337571D01*
X3037143Y-13318524D01*
X3046667Y-13309000D01*
X3065714Y-13299476D01*
X3218095Y-13480428D02*
X3227619Y-13489952D01*
X3218095Y-13499476D01*
X3208571Y-13489952D01*
X3218095Y-13480428D01*
X3218095Y-13499476D01*
X3303809Y-13318524D02*
X3313333Y-13309000D01*
X3332381Y-13299476D01*
X3380000Y-13299476D01*
X3399048Y-13309000D01*
X3408571Y-13318524D01*
X3418095Y-13337571D01*
X3418095Y-13356619D01*
X3408571Y-13385190D01*
X3294286Y-13499476D01*
X3418095Y-13499476D01*
X3541905Y-13299476D02*
X3560952Y-13299476D01*
X3580000Y-13309000D01*
X3589524Y-13318524D01*
X3599048Y-13337571D01*
X3608571Y-13375667D01*
X3608571Y-13423286D01*
X3599048Y-13461381D01*
X3589524Y-13480428D01*
X3580000Y-13489952D01*
X3560952Y-13499476D01*
X3541905Y-13499476D01*
X3522857Y-13489952D01*
X3513333Y-13480428D01*
X3503809Y-13461381D01*
X3494286Y-13423286D01*
X3494286Y-13375667D01*
X3503809Y-13337571D01*
X3513333Y-13318524D01*
X3522857Y-13309000D01*
X3541905Y-13299476D01*
X3732381Y-13299476D02*
X3751428Y-13299476D01*
X3770476Y-13309000D01*
X3780000Y-13318524D01*
X3789524Y-13337571D01*
X3799048Y-13375667D01*
X3799048Y-13423286D01*
X3789524Y-13461381D01*
X3780000Y-13480428D01*
X3770476Y-13489952D01*
X3751428Y-13499476D01*
X3732381Y-13499476D01*
X3713333Y-13489952D01*
X3703809Y-13480428D01*
X3694286Y-13461381D01*
X3684762Y-13423286D01*
X3684762Y-13375667D01*
X3694286Y-13337571D01*
X3703809Y-13318524D01*
X3713333Y-13309000D01*
X3732381Y-13299476D01*
X3884762Y-13499476D02*
X3884762Y-13366143D01*
X3884762Y-13385190D02*
X3894286Y-13375667D01*
X3913333Y-13366143D01*
X3941905Y-13366143D01*
X3960952Y-13375667D01*
X3970476Y-13394714D01*
X3970476Y-13499476D01*
X3970476Y-13394714D02*
X3980000Y-13375667D01*
X3999048Y-13366143D01*
X4027619Y-13366143D01*
X4046667Y-13375667D01*
X4056190Y-13394714D01*
X4056190Y-13499476D01*
X4151428Y-13499476D02*
X4151428Y-13366143D01*
X4151428Y-13385190D02*
X4160952Y-13375667D01*
X4180000Y-13366143D01*
X4208571Y-13366143D01*
X4227619Y-13375667D01*
X4237143Y-13394714D01*
X4237143Y-13499476D01*
X4237143Y-13394714D02*
X4246667Y-13375667D01*
X4265714Y-13366143D01*
X4294286Y-13366143D01*
X4313333Y-13375667D01*
X4322857Y-13394714D01*
X4322857Y-13499476D01*
X4713333Y-13289952D02*
X4541905Y-13547095D01*
X4970476Y-13299476D02*
X4989524Y-13299476D01*
X5008571Y-13309000D01*
X5018095Y-13318524D01*
X5027619Y-13337571D01*
X5037143Y-13375667D01*
X5037143Y-13423286D01*
X5027619Y-13461381D01*
X5018095Y-13480428D01*
X5008571Y-13489952D01*
X4989524Y-13499476D01*
X4970476Y-13499476D01*
X4951429Y-13489952D01*
X4941905Y-13480428D01*
X4932381Y-13461381D01*
X4922857Y-13423286D01*
X4922857Y-13375667D01*
X4932381Y-13337571D01*
X4941905Y-13318524D01*
X4951429Y-13309000D01*
X4970476Y-13299476D01*
X5122857Y-13480428D02*
X5132381Y-13489952D01*
X5122857Y-13499476D01*
X5113333Y-13489952D01*
X5122857Y-13480428D01*
X5122857Y-13499476D01*
X5256190Y-13299476D02*
X5275238Y-13299476D01*
X5294286Y-13309000D01*
X5303810Y-13318524D01*
X5313333Y-13337571D01*
X5322857Y-13375667D01*
X5322857Y-13423286D01*
X5313333Y-13461381D01*
X5303810Y-13480428D01*
X5294286Y-13489952D01*
X5275238Y-13499476D01*
X5256190Y-13499476D01*
X5237143Y-13489952D01*
X5227619Y-13480428D01*
X5218095Y-13461381D01*
X5208571Y-13423286D01*
X5208571Y-13375667D01*
X5218095Y-13337571D01*
X5227619Y-13318524D01*
X5237143Y-13309000D01*
X5256190Y-13299476D01*
X5446667Y-13299476D02*
X5465714Y-13299476D01*
X5484762Y-13309000D01*
X5494286Y-13318524D01*
X5503810Y-13337571D01*
X5513333Y-13375667D01*
X5513333Y-13423286D01*
X5503810Y-13461381D01*
X5494286Y-13480428D01*
X5484762Y-13489952D01*
X5465714Y-13499476D01*
X5446667Y-13499476D01*
X5427619Y-13489952D01*
X5418095Y-13480428D01*
X5408571Y-13461381D01*
X5399048Y-13423286D01*
X5399048Y-13375667D01*
X5408571Y-13337571D01*
X5418095Y-13318524D01*
X5427619Y-13309000D01*
X5446667Y-13299476D01*
X5580000Y-13299476D02*
X5713333Y-13299476D01*
X5627619Y-13499476D01*
X5799048Y-13499476D02*
X5837143Y-13499476D01*
X5856190Y-13489952D01*
X5865714Y-13480428D01*
X5884762Y-13451857D01*
X5894286Y-13413762D01*
X5894286Y-13337571D01*
X5884762Y-13318524D01*
X5875238Y-13309000D01*
X5856190Y-13299476D01*
X5818095Y-13299476D01*
X5799048Y-13309000D01*
X5789524Y-13318524D01*
X5780000Y-13337571D01*
X5780000Y-13385190D01*
X5789524Y-13404238D01*
X5799048Y-13413762D01*
X5818095Y-13423286D01*
X5856190Y-13423286D01*
X5875238Y-13413762D01*
X5884762Y-13404238D01*
X5894286Y-13385190D01*
X5970476Y-13299476D02*
X5970476Y-13337571D01*
X6046667Y-13299476D02*
X6046667Y-13337571D01*
X6341905Y-13575667D02*
X6332381Y-13566143D01*
X6313333Y-13537571D01*
X6303809Y-13518524D01*
X6294286Y-13489952D01*
X6284762Y-13442333D01*
X6284762Y-13404238D01*
X6294286Y-13356619D01*
X6303809Y-13328048D01*
X6313333Y-13309000D01*
X6332381Y-13280428D01*
X6341905Y-13270905D01*
X6503809Y-13366143D02*
X6503809Y-13499476D01*
X6456190Y-13289952D02*
X6408571Y-13432809D01*
X6532381Y-13432809D01*
X6760952Y-13499476D02*
X6760952Y-13299476D01*
X6846667Y-13499476D02*
X6846667Y-13394714D01*
X6837143Y-13375667D01*
X6818095Y-13366143D01*
X6789524Y-13366143D01*
X6770476Y-13375667D01*
X6760952Y-13385190D01*
X6970476Y-13499476D02*
X6951428Y-13489952D01*
X6941905Y-13480428D01*
X6932381Y-13461381D01*
X6932381Y-13404238D01*
X6941905Y-13385190D01*
X6951428Y-13375667D01*
X6970476Y-13366143D01*
X6999048Y-13366143D01*
X7018095Y-13375667D01*
X7027619Y-13385190D01*
X7037143Y-13404238D01*
X7037143Y-13461381D01*
X7027619Y-13480428D01*
X7018095Y-13489952D01*
X6999048Y-13499476D01*
X6970476Y-13499476D01*
X7151428Y-13499476D02*
X7132381Y-13489952D01*
X7122857Y-13470905D01*
X7122857Y-13299476D01*
X7303809Y-13489952D02*
X7284762Y-13499476D01*
X7246667Y-13499476D01*
X7227619Y-13489952D01*
X7218095Y-13470905D01*
X7218095Y-13394714D01*
X7227619Y-13375667D01*
X7246667Y-13366143D01*
X7284762Y-13366143D01*
X7303809Y-13375667D01*
X7313333Y-13394714D01*
X7313333Y-13413762D01*
X7218095Y-13432809D01*
X7389524Y-13489952D02*
X7408571Y-13499476D01*
X7446667Y-13499476D01*
X7465714Y-13489952D01*
X7475238Y-13470905D01*
X7475238Y-13461381D01*
X7465714Y-13442333D01*
X7446667Y-13432809D01*
X7418095Y-13432809D01*
X7399048Y-13423286D01*
X7389524Y-13404238D01*
X7389524Y-13394714D01*
X7399048Y-13375667D01*
X7418095Y-13366143D01*
X7446667Y-13366143D01*
X7465714Y-13375667D01*
X7541905Y-13575667D02*
X7551428Y-13566143D01*
X7570476Y-13537571D01*
X7580000Y-13518524D01*
X7589524Y-13489952D01*
X7599048Y-13442333D01*
X7599048Y-13404238D01*
X7589524Y-13356619D01*
X7580000Y-13328048D01*
X7570476Y-13309000D01*
X7551428Y-13280428D01*
X7541905Y-13270905D01*
D13*
X2750000Y-13653000D02*
X2750000Y-13693000D01*
X2730000Y-13673000D02*
X2770000Y-13673000D01*
D11*
X3065714Y-13563476D02*
X3084762Y-13563476D01*
X3103809Y-13573000D01*
X3113333Y-13582524D01*
X3122857Y-13601571D01*
X3132381Y-13639667D01*
X3132381Y-13687286D01*
X3122857Y-13725381D01*
X3113333Y-13744428D01*
X3103809Y-13753952D01*
X3084762Y-13763476D01*
X3065714Y-13763476D01*
X3046667Y-13753952D01*
X3037143Y-13744428D01*
X3027619Y-13725381D01*
X3018095Y-13687286D01*
X3018095Y-13639667D01*
X3027619Y-13601571D01*
X3037143Y-13582524D01*
X3046667Y-13573000D01*
X3065714Y-13563476D01*
X3218095Y-13744428D02*
X3227619Y-13753952D01*
X3218095Y-13763476D01*
X3208571Y-13753952D01*
X3218095Y-13744428D01*
X3218095Y-13763476D01*
X3399048Y-13630143D02*
X3399048Y-13763476D01*
X3351428Y-13553952D02*
X3303809Y-13696809D01*
X3427619Y-13696809D01*
X3541905Y-13563476D02*
X3560952Y-13563476D01*
X3580000Y-13573000D01*
X3589524Y-13582524D01*
X3599048Y-13601571D01*
X3608571Y-13639667D01*
X3608571Y-13687286D01*
X3599048Y-13725381D01*
X3589524Y-13744428D01*
X3580000Y-13753952D01*
X3560952Y-13763476D01*
X3541905Y-13763476D01*
X3522857Y-13753952D01*
X3513333Y-13744428D01*
X3503809Y-13725381D01*
X3494286Y-13687286D01*
X3494286Y-13639667D01*
X3503809Y-13601571D01*
X3513333Y-13582524D01*
X3522857Y-13573000D01*
X3541905Y-13563476D01*
X3732381Y-13563476D02*
X3751428Y-13563476D01*
X3770476Y-13573000D01*
X3780000Y-13582524D01*
X3789524Y-13601571D01*
X3799048Y-13639667D01*
X3799048Y-13687286D01*
X3789524Y-13725381D01*
X3780000Y-13744428D01*
X3770476Y-13753952D01*
X3751428Y-13763476D01*
X3732381Y-13763476D01*
X3713333Y-13753952D01*
X3703809Y-13744428D01*
X3694286Y-13725381D01*
X3684762Y-13687286D01*
X3684762Y-13639667D01*
X3694286Y-13601571D01*
X3703809Y-13582524D01*
X3713333Y-13573000D01*
X3732381Y-13563476D01*
X3884762Y-13763476D02*
X3884762Y-13630143D01*
X3884762Y-13649190D02*
X3894286Y-13639667D01*
X3913333Y-13630143D01*
X3941905Y-13630143D01*
X3960952Y-13639667D01*
X3970476Y-13658714D01*
X3970476Y-13763476D01*
X3970476Y-13658714D02*
X3980000Y-13639667D01*
X3999048Y-13630143D01*
X4027619Y-13630143D01*
X4046667Y-13639667D01*
X4056190Y-13658714D01*
X4056190Y-13763476D01*
X4151428Y-13763476D02*
X4151428Y-13630143D01*
X4151428Y-13649190D02*
X4160952Y-13639667D01*
X4180000Y-13630143D01*
X4208571Y-13630143D01*
X4227619Y-13639667D01*
X4237143Y-13658714D01*
X4237143Y-13763476D01*
X4237143Y-13658714D02*
X4246667Y-13639667D01*
X4265714Y-13630143D01*
X4294286Y-13630143D01*
X4313333Y-13639667D01*
X4322857Y-13658714D01*
X4322857Y-13763476D01*
X4713333Y-13553952D02*
X4541905Y-13811095D01*
X4970476Y-13563476D02*
X4989524Y-13563476D01*
X5008571Y-13573000D01*
X5018095Y-13582524D01*
X5027619Y-13601571D01*
X5037143Y-13639667D01*
X5037143Y-13687286D01*
X5027619Y-13725381D01*
X5018095Y-13744428D01*
X5008571Y-13753952D01*
X4989524Y-13763476D01*
X4970476Y-13763476D01*
X4951429Y-13753952D01*
X4941905Y-13744428D01*
X4932381Y-13725381D01*
X4922857Y-13687286D01*
X4922857Y-13639667D01*
X4932381Y-13601571D01*
X4941905Y-13582524D01*
X4951429Y-13573000D01*
X4970476Y-13563476D01*
X5122857Y-13744428D02*
X5132381Y-13753952D01*
X5122857Y-13763476D01*
X5113333Y-13753952D01*
X5122857Y-13744428D01*
X5122857Y-13763476D01*
X5256190Y-13563476D02*
X5275238Y-13563476D01*
X5294286Y-13573000D01*
X5303810Y-13582524D01*
X5313333Y-13601571D01*
X5322857Y-13639667D01*
X5322857Y-13687286D01*
X5313333Y-13725381D01*
X5303810Y-13744428D01*
X5294286Y-13753952D01*
X5275238Y-13763476D01*
X5256190Y-13763476D01*
X5237143Y-13753952D01*
X5227619Y-13744428D01*
X5218095Y-13725381D01*
X5208571Y-13687286D01*
X5208571Y-13639667D01*
X5218095Y-13601571D01*
X5227619Y-13582524D01*
X5237143Y-13573000D01*
X5256190Y-13563476D01*
X5513333Y-13763476D02*
X5399048Y-13763476D01*
X5456190Y-13763476D02*
X5456190Y-13563476D01*
X5437143Y-13592048D01*
X5418095Y-13611095D01*
X5399048Y-13620619D01*
X5694286Y-13563476D02*
X5599048Y-13563476D01*
X5589524Y-13658714D01*
X5599048Y-13649190D01*
X5618095Y-13639667D01*
X5665714Y-13639667D01*
X5684762Y-13649190D01*
X5694286Y-13658714D01*
X5703809Y-13677762D01*
X5703809Y-13725381D01*
X5694286Y-13744428D01*
X5684762Y-13753952D01*
X5665714Y-13763476D01*
X5618095Y-13763476D01*
X5599048Y-13753952D01*
X5589524Y-13744428D01*
X5770476Y-13563476D02*
X5903809Y-13563476D01*
X5818095Y-13763476D01*
X5970476Y-13563476D02*
X5970476Y-13601571D01*
X6046667Y-13563476D02*
X6046667Y-13601571D01*
X6341905Y-13839667D02*
X6332381Y-13830143D01*
X6313333Y-13801571D01*
X6303809Y-13782524D01*
X6294286Y-13753952D01*
X6284762Y-13706333D01*
X6284762Y-13668238D01*
X6294286Y-13620619D01*
X6303809Y-13592048D01*
X6313333Y-13573000D01*
X6332381Y-13544428D01*
X6341905Y-13534905D01*
X6399048Y-13563476D02*
X6532381Y-13563476D01*
X6446667Y-13763476D01*
X6694286Y-13630143D02*
X6694286Y-13763476D01*
X6646667Y-13553952D02*
X6599048Y-13696809D01*
X6722857Y-13696809D01*
X6951428Y-13763476D02*
X6951428Y-13563476D01*
X7037143Y-13763476D02*
X7037143Y-13658714D01*
X7027619Y-13639667D01*
X7008571Y-13630143D01*
X6980000Y-13630143D01*
X6960952Y-13639667D01*
X6951428Y-13649190D01*
X7160952Y-13763476D02*
X7141905Y-13753952D01*
X7132381Y-13744428D01*
X7122857Y-13725381D01*
X7122857Y-13668238D01*
X7132381Y-13649190D01*
X7141905Y-13639667D01*
X7160952Y-13630143D01*
X7189524Y-13630143D01*
X7208571Y-13639667D01*
X7218095Y-13649190D01*
X7227619Y-13668238D01*
X7227619Y-13725381D01*
X7218095Y-13744428D01*
X7208571Y-13753952D01*
X7189524Y-13763476D01*
X7160952Y-13763476D01*
X7341905Y-13763476D02*
X7322857Y-13753952D01*
X7313333Y-13734905D01*
X7313333Y-13563476D01*
X7494286Y-13753952D02*
X7475238Y-13763476D01*
X7437143Y-13763476D01*
X7418095Y-13753952D01*
X7408571Y-13734905D01*
X7408571Y-13658714D01*
X7418095Y-13639667D01*
X7437143Y-13630143D01*
X7475238Y-13630143D01*
X7494286Y-13639667D01*
X7503809Y-13658714D01*
X7503809Y-13677762D01*
X7408571Y-13696809D01*
X7580000Y-13753952D02*
X7599048Y-13763476D01*
X7637143Y-13763476D01*
X7656190Y-13753952D01*
X7665714Y-13734905D01*
X7665714Y-13725381D01*
X7656190Y-13706333D01*
X7637143Y-13696809D01*
X7608571Y-13696809D01*
X7589524Y-13687286D01*
X7580000Y-13668238D01*
X7580000Y-13658714D01*
X7589524Y-13639667D01*
X7608571Y-13630143D01*
X7637143Y-13630143D01*
X7656190Y-13639667D01*
X7732381Y-13839667D02*
X7741905Y-13830143D01*
X7760952Y-13801571D01*
X7770476Y-13782524D01*
X7780000Y-13753952D01*
X7789524Y-13706333D01*
X7789524Y-13668238D01*
X7780000Y-13620619D01*
X7770476Y-13592048D01*
X7760952Y-13573000D01*
X7741905Y-13544428D01*
X7732381Y-13534905D01*
D13*
X2764142Y-13951142D02*
X2764142Y-13922858D01*
X2735858Y-13922858D01*
X2735858Y-13951142D01*
X2764142Y-13951142D01*
D11*
X3065714Y-13827476D02*
X3084762Y-13827476D01*
X3103809Y-13837000D01*
X3113333Y-13846524D01*
X3122857Y-13865571D01*
X3132381Y-13903667D01*
X3132381Y-13951286D01*
X3122857Y-13989381D01*
X3113333Y-14008428D01*
X3103809Y-14017952D01*
X3084762Y-14027476D01*
X3065714Y-14027476D01*
X3046667Y-14017952D01*
X3037143Y-14008428D01*
X3027619Y-13989381D01*
X3018095Y-13951286D01*
X3018095Y-13903667D01*
X3027619Y-13865571D01*
X3037143Y-13846524D01*
X3046667Y-13837000D01*
X3065714Y-13827476D01*
X3218095Y-14008428D02*
X3227619Y-14017952D01*
X3218095Y-14027476D01*
X3208571Y-14017952D01*
X3218095Y-14008428D01*
X3218095Y-14027476D01*
X3399048Y-13894143D02*
X3399048Y-14027476D01*
X3351428Y-13817952D02*
X3303809Y-13960809D01*
X3427619Y-13960809D01*
X3541905Y-13827476D02*
X3560952Y-13827476D01*
X3580000Y-13837000D01*
X3589524Y-13846524D01*
X3599048Y-13865571D01*
X3608571Y-13903667D01*
X3608571Y-13951286D01*
X3599048Y-13989381D01*
X3589524Y-14008428D01*
X3580000Y-14017952D01*
X3560952Y-14027476D01*
X3541905Y-14027476D01*
X3522857Y-14017952D01*
X3513333Y-14008428D01*
X3503809Y-13989381D01*
X3494286Y-13951286D01*
X3494286Y-13903667D01*
X3503809Y-13865571D01*
X3513333Y-13846524D01*
X3522857Y-13837000D01*
X3541905Y-13827476D01*
X3732381Y-13827476D02*
X3751428Y-13827476D01*
X3770476Y-13837000D01*
X3780000Y-13846524D01*
X3789524Y-13865571D01*
X3799048Y-13903667D01*
X3799048Y-13951286D01*
X3789524Y-13989381D01*
X3780000Y-14008428D01*
X3770476Y-14017952D01*
X3751428Y-14027476D01*
X3732381Y-14027476D01*
X3713333Y-14017952D01*
X3703809Y-14008428D01*
X3694286Y-13989381D01*
X3684762Y-13951286D01*
X3684762Y-13903667D01*
X3694286Y-13865571D01*
X3703809Y-13846524D01*
X3713333Y-13837000D01*
X3732381Y-13827476D01*
X3884762Y-14027476D02*
X3884762Y-13894143D01*
X3884762Y-13913190D02*
X3894286Y-13903667D01*
X3913333Y-13894143D01*
X3941905Y-13894143D01*
X3960952Y-13903667D01*
X3970476Y-13922714D01*
X3970476Y-14027476D01*
X3970476Y-13922714D02*
X3980000Y-13903667D01*
X3999048Y-13894143D01*
X4027619Y-13894143D01*
X4046667Y-13903667D01*
X4056190Y-13922714D01*
X4056190Y-14027476D01*
X4151428Y-14027476D02*
X4151428Y-13894143D01*
X4151428Y-13913190D02*
X4160952Y-13903667D01*
X4180000Y-13894143D01*
X4208571Y-13894143D01*
X4227619Y-13903667D01*
X4237143Y-13922714D01*
X4237143Y-14027476D01*
X4237143Y-13922714D02*
X4246667Y-13903667D01*
X4265714Y-13894143D01*
X4294286Y-13894143D01*
X4313333Y-13903667D01*
X4322857Y-13922714D01*
X4322857Y-14027476D01*
X4713333Y-13817952D02*
X4541905Y-14075095D01*
X4970476Y-13827476D02*
X4989524Y-13827476D01*
X5008571Y-13837000D01*
X5018095Y-13846524D01*
X5027619Y-13865571D01*
X5037143Y-13903667D01*
X5037143Y-13951286D01*
X5027619Y-13989381D01*
X5018095Y-14008428D01*
X5008571Y-14017952D01*
X4989524Y-14027476D01*
X4970476Y-14027476D01*
X4951429Y-14017952D01*
X4941905Y-14008428D01*
X4932381Y-13989381D01*
X4922857Y-13951286D01*
X4922857Y-13903667D01*
X4932381Y-13865571D01*
X4941905Y-13846524D01*
X4951429Y-13837000D01*
X4970476Y-13827476D01*
X5122857Y-14008428D02*
X5132381Y-14017952D01*
X5122857Y-14027476D01*
X5113333Y-14017952D01*
X5122857Y-14008428D01*
X5122857Y-14027476D01*
X5256190Y-13827476D02*
X5275238Y-13827476D01*
X5294286Y-13837000D01*
X5303810Y-13846524D01*
X5313333Y-13865571D01*
X5322857Y-13903667D01*
X5322857Y-13951286D01*
X5313333Y-13989381D01*
X5303810Y-14008428D01*
X5294286Y-14017952D01*
X5275238Y-14027476D01*
X5256190Y-14027476D01*
X5237143Y-14017952D01*
X5227619Y-14008428D01*
X5218095Y-13989381D01*
X5208571Y-13951286D01*
X5208571Y-13903667D01*
X5218095Y-13865571D01*
X5227619Y-13846524D01*
X5237143Y-13837000D01*
X5256190Y-13827476D01*
X5513333Y-14027476D02*
X5399048Y-14027476D01*
X5456190Y-14027476D02*
X5456190Y-13827476D01*
X5437143Y-13856048D01*
X5418095Y-13875095D01*
X5399048Y-13884619D01*
X5694286Y-13827476D02*
X5599048Y-13827476D01*
X5589524Y-13922714D01*
X5599048Y-13913190D01*
X5618095Y-13903667D01*
X5665714Y-13903667D01*
X5684762Y-13913190D01*
X5694286Y-13922714D01*
X5703809Y-13941762D01*
X5703809Y-13989381D01*
X5694286Y-14008428D01*
X5684762Y-14017952D01*
X5665714Y-14027476D01*
X5618095Y-14027476D01*
X5599048Y-14017952D01*
X5589524Y-14008428D01*
X5770476Y-13827476D02*
X5903809Y-13827476D01*
X5818095Y-14027476D01*
X5970476Y-13827476D02*
X5970476Y-13865571D01*
X6046667Y-13827476D02*
X6046667Y-13865571D01*
X6341905Y-14103667D02*
X6332381Y-14094143D01*
X6313333Y-14065571D01*
X6303809Y-14046524D01*
X6294286Y-14017952D01*
X6284762Y-13970333D01*
X6284762Y-13932238D01*
X6294286Y-13884619D01*
X6303809Y-13856048D01*
X6313333Y-13837000D01*
X6332381Y-13808428D01*
X6341905Y-13798905D01*
X6399048Y-13827476D02*
X6522857Y-13827476D01*
X6456190Y-13903667D01*
X6484762Y-13903667D01*
X6503809Y-13913190D01*
X6513333Y-13922714D01*
X6522857Y-13941762D01*
X6522857Y-13989381D01*
X6513333Y-14008428D01*
X6503809Y-14017952D01*
X6484762Y-14027476D01*
X6427619Y-14027476D01*
X6408571Y-14017952D01*
X6399048Y-14008428D01*
X6599048Y-13846524D02*
X6608571Y-13837000D01*
X6627619Y-13827476D01*
X6675238Y-13827476D01*
X6694286Y-13837000D01*
X6703809Y-13846524D01*
X6713333Y-13865571D01*
X6713333Y-13884619D01*
X6703809Y-13913190D01*
X6589524Y-14027476D01*
X6713333Y-14027476D01*
X6951428Y-14027476D02*
X6951428Y-13827476D01*
X7037143Y-14027476D02*
X7037143Y-13922714D01*
X7027619Y-13903667D01*
X7008571Y-13894143D01*
X6980000Y-13894143D01*
X6960952Y-13903667D01*
X6951428Y-13913190D01*
X7160952Y-14027476D02*
X7141905Y-14017952D01*
X7132381Y-14008428D01*
X7122857Y-13989381D01*
X7122857Y-13932238D01*
X7132381Y-13913190D01*
X7141905Y-13903667D01*
X7160952Y-13894143D01*
X7189524Y-13894143D01*
X7208571Y-13903667D01*
X7218095Y-13913190D01*
X7227619Y-13932238D01*
X7227619Y-13989381D01*
X7218095Y-14008428D01*
X7208571Y-14017952D01*
X7189524Y-14027476D01*
X7160952Y-14027476D01*
X7341905Y-14027476D02*
X7322857Y-14017952D01*
X7313333Y-13998905D01*
X7313333Y-13827476D01*
X7494286Y-14017952D02*
X7475238Y-14027476D01*
X7437143Y-14027476D01*
X7418095Y-14017952D01*
X7408571Y-13998905D01*
X7408571Y-13922714D01*
X7418095Y-13903667D01*
X7437143Y-13894143D01*
X7475238Y-13894143D01*
X7494286Y-13903667D01*
X7503809Y-13922714D01*
X7503809Y-13941762D01*
X7408571Y-13960809D01*
X7580000Y-14017952D02*
X7599048Y-14027476D01*
X7637143Y-14027476D01*
X7656190Y-14017952D01*
X7665714Y-13998905D01*
X7665714Y-13989381D01*
X7656190Y-13970333D01*
X7637143Y-13960809D01*
X7608571Y-13960809D01*
X7589524Y-13951286D01*
X7580000Y-13932238D01*
X7580000Y-13922714D01*
X7589524Y-13903667D01*
X7608571Y-13894143D01*
X7637143Y-13894143D01*
X7656190Y-13903667D01*
X7732381Y-14103667D02*
X7741905Y-14094143D01*
X7760952Y-14065571D01*
X7770476Y-14046524D01*
X7780000Y-14017952D01*
X7789524Y-13970333D01*
X7789524Y-13932238D01*
X7780000Y-13884619D01*
X7770476Y-13856048D01*
X7760952Y-13837000D01*
X7741905Y-13808428D01*
X7732381Y-13798905D01*
D14*
X2740000Y-14231000D02*
X2770000Y-14201000D01*
X2740000Y-14171000D01*
X2710000Y-14201000D01*
X2740000Y-14231000D01*
D11*
X3065714Y-14091476D02*
X3084762Y-14091476D01*
X3103809Y-14101000D01*
X3113333Y-14110524D01*
X3122857Y-14129571D01*
X3132381Y-14167667D01*
X3132381Y-14215286D01*
X3122857Y-14253381D01*
X3113333Y-14272428D01*
X3103809Y-14281952D01*
X3084762Y-14291476D01*
X3065714Y-14291476D01*
X3046667Y-14281952D01*
X3037143Y-14272428D01*
X3027619Y-14253381D01*
X3018095Y-14215286D01*
X3018095Y-14167667D01*
X3027619Y-14129571D01*
X3037143Y-14110524D01*
X3046667Y-14101000D01*
X3065714Y-14091476D01*
X3218095Y-14272428D02*
X3227619Y-14281952D01*
X3218095Y-14291476D01*
X3208571Y-14281952D01*
X3218095Y-14272428D01*
X3218095Y-14291476D01*
X3399048Y-14091476D02*
X3360952Y-14091476D01*
X3341905Y-14101000D01*
X3332381Y-14110524D01*
X3313333Y-14139095D01*
X3303809Y-14177190D01*
X3303809Y-14253381D01*
X3313333Y-14272428D01*
X3322857Y-14281952D01*
X3341905Y-14291476D01*
X3380000Y-14291476D01*
X3399048Y-14281952D01*
X3408571Y-14272428D01*
X3418095Y-14253381D01*
X3418095Y-14205762D01*
X3408571Y-14186714D01*
X3399048Y-14177190D01*
X3380000Y-14167667D01*
X3341905Y-14167667D01*
X3322857Y-14177190D01*
X3313333Y-14186714D01*
X3303809Y-14205762D01*
X3541905Y-14091476D02*
X3560952Y-14091476D01*
X3580000Y-14101000D01*
X3589524Y-14110524D01*
X3599048Y-14129571D01*
X3608571Y-14167667D01*
X3608571Y-14215286D01*
X3599048Y-14253381D01*
X3589524Y-14272428D01*
X3580000Y-14281952D01*
X3560952Y-14291476D01*
X3541905Y-14291476D01*
X3522857Y-14281952D01*
X3513333Y-14272428D01*
X3503809Y-14253381D01*
X3494286Y-14215286D01*
X3494286Y-14167667D01*
X3503809Y-14129571D01*
X3513333Y-14110524D01*
X3522857Y-14101000D01*
X3541905Y-14091476D01*
X3732381Y-14091476D02*
X3751428Y-14091476D01*
X3770476Y-14101000D01*
X3780000Y-14110524D01*
X3789524Y-14129571D01*
X3799048Y-14167667D01*
X3799048Y-14215286D01*
X3789524Y-14253381D01*
X3780000Y-14272428D01*
X3770476Y-14281952D01*
X3751428Y-14291476D01*
X3732381Y-14291476D01*
X3713333Y-14281952D01*
X3703809Y-14272428D01*
X3694286Y-14253381D01*
X3684762Y-14215286D01*
X3684762Y-14167667D01*
X3694286Y-14129571D01*
X3703809Y-14110524D01*
X3713333Y-14101000D01*
X3732381Y-14091476D01*
X3884762Y-14291476D02*
X3884762Y-14158143D01*
X3884762Y-14177190D02*
X3894286Y-14167667D01*
X3913333Y-14158143D01*
X3941905Y-14158143D01*
X3960952Y-14167667D01*
X3970476Y-14186714D01*
X3970476Y-14291476D01*
X3970476Y-14186714D02*
X3980000Y-14167667D01*
X3999048Y-14158143D01*
X4027619Y-14158143D01*
X4046667Y-14167667D01*
X4056190Y-14186714D01*
X4056190Y-14291476D01*
X4151428Y-14291476D02*
X4151428Y-14158143D01*
X4151428Y-14177190D02*
X4160952Y-14167667D01*
X4180000Y-14158143D01*
X4208571Y-14158143D01*
X4227619Y-14167667D01*
X4237143Y-14186714D01*
X4237143Y-14291476D01*
X4237143Y-14186714D02*
X4246667Y-14167667D01*
X4265714Y-14158143D01*
X4294286Y-14158143D01*
X4313333Y-14167667D01*
X4322857Y-14186714D01*
X4322857Y-14291476D01*
X4713333Y-14081952D02*
X4541905Y-14339095D01*
X4970476Y-14091476D02*
X4989524Y-14091476D01*
X5008571Y-14101000D01*
X5018095Y-14110524D01*
X5027619Y-14129571D01*
X5037143Y-14167667D01*
X5037143Y-14215286D01*
X5027619Y-14253381D01*
X5018095Y-14272428D01*
X5008571Y-14281952D01*
X4989524Y-14291476D01*
X4970476Y-14291476D01*
X4951429Y-14281952D01*
X4941905Y-14272428D01*
X4932381Y-14253381D01*
X4922857Y-14215286D01*
X4922857Y-14167667D01*
X4932381Y-14129571D01*
X4941905Y-14110524D01*
X4951429Y-14101000D01*
X4970476Y-14091476D01*
X5122857Y-14272428D02*
X5132381Y-14281952D01*
X5122857Y-14291476D01*
X5113333Y-14281952D01*
X5122857Y-14272428D01*
X5122857Y-14291476D01*
X5256190Y-14091476D02*
X5275238Y-14091476D01*
X5294286Y-14101000D01*
X5303810Y-14110524D01*
X5313333Y-14129571D01*
X5322857Y-14167667D01*
X5322857Y-14215286D01*
X5313333Y-14253381D01*
X5303810Y-14272428D01*
X5294286Y-14281952D01*
X5275238Y-14291476D01*
X5256190Y-14291476D01*
X5237143Y-14281952D01*
X5227619Y-14272428D01*
X5218095Y-14253381D01*
X5208571Y-14215286D01*
X5208571Y-14167667D01*
X5218095Y-14129571D01*
X5227619Y-14110524D01*
X5237143Y-14101000D01*
X5256190Y-14091476D01*
X5399048Y-14110524D02*
X5408571Y-14101000D01*
X5427619Y-14091476D01*
X5475238Y-14091476D01*
X5494286Y-14101000D01*
X5503810Y-14110524D01*
X5513333Y-14129571D01*
X5513333Y-14148619D01*
X5503810Y-14177190D01*
X5389524Y-14291476D01*
X5513333Y-14291476D01*
X5580000Y-14091476D02*
X5703809Y-14091476D01*
X5637143Y-14167667D01*
X5665714Y-14167667D01*
X5684762Y-14177190D01*
X5694286Y-14186714D01*
X5703809Y-14205762D01*
X5703809Y-14253381D01*
X5694286Y-14272428D01*
X5684762Y-14281952D01*
X5665714Y-14291476D01*
X5608571Y-14291476D01*
X5589524Y-14281952D01*
X5580000Y-14272428D01*
X5875238Y-14091476D02*
X5837143Y-14091476D01*
X5818095Y-14101000D01*
X5808571Y-14110524D01*
X5789524Y-14139095D01*
X5780000Y-14177190D01*
X5780000Y-14253381D01*
X5789524Y-14272428D01*
X5799048Y-14281952D01*
X5818095Y-14291476D01*
X5856190Y-14291476D01*
X5875238Y-14281952D01*
X5884762Y-14272428D01*
X5894286Y-14253381D01*
X5894286Y-14205762D01*
X5884762Y-14186714D01*
X5875238Y-14177190D01*
X5856190Y-14167667D01*
X5818095Y-14167667D01*
X5799048Y-14177190D01*
X5789524Y-14186714D01*
X5780000Y-14205762D01*
X5970476Y-14091476D02*
X5970476Y-14129571D01*
X6046667Y-14091476D02*
X6046667Y-14129571D01*
X6341905Y-14367667D02*
X6332381Y-14358143D01*
X6313333Y-14329571D01*
X6303809Y-14310524D01*
X6294286Y-14281952D01*
X6284762Y-14234333D01*
X6284762Y-14196238D01*
X6294286Y-14148619D01*
X6303809Y-14120048D01*
X6313333Y-14101000D01*
X6332381Y-14072428D01*
X6341905Y-14062905D01*
X6456190Y-14091476D02*
X6475238Y-14091476D01*
X6494286Y-14101000D01*
X6503809Y-14110524D01*
X6513333Y-14129571D01*
X6522857Y-14167667D01*
X6522857Y-14215286D01*
X6513333Y-14253381D01*
X6503809Y-14272428D01*
X6494286Y-14281952D01*
X6475238Y-14291476D01*
X6456190Y-14291476D01*
X6437143Y-14281952D01*
X6427619Y-14272428D01*
X6418095Y-14253381D01*
X6408571Y-14215286D01*
X6408571Y-14167667D01*
X6418095Y-14129571D01*
X6427619Y-14110524D01*
X6437143Y-14101000D01*
X6456190Y-14091476D01*
X6760952Y-14291476D02*
X6760952Y-14091476D01*
X6846667Y-14291476D02*
X6846667Y-14186714D01*
X6837143Y-14167667D01*
X6818095Y-14158143D01*
X6789524Y-14158143D01*
X6770476Y-14167667D01*
X6760952Y-14177190D01*
X6970476Y-14291476D02*
X6951428Y-14281952D01*
X6941905Y-14272428D01*
X6932381Y-14253381D01*
X6932381Y-14196238D01*
X6941905Y-14177190D01*
X6951428Y-14167667D01*
X6970476Y-14158143D01*
X6999048Y-14158143D01*
X7018095Y-14167667D01*
X7027619Y-14177190D01*
X7037143Y-14196238D01*
X7037143Y-14253381D01*
X7027619Y-14272428D01*
X7018095Y-14281952D01*
X6999048Y-14291476D01*
X6970476Y-14291476D01*
X7151428Y-14291476D02*
X7132381Y-14281952D01*
X7122857Y-14262905D01*
X7122857Y-14091476D01*
X7303809Y-14281952D02*
X7284762Y-14291476D01*
X7246667Y-14291476D01*
X7227619Y-14281952D01*
X7218095Y-14262905D01*
X7218095Y-14186714D01*
X7227619Y-14167667D01*
X7246667Y-14158143D01*
X7284762Y-14158143D01*
X7303809Y-14167667D01*
X7313333Y-14186714D01*
X7313333Y-14205762D01*
X7218095Y-14224809D01*
X7389524Y-14281952D02*
X7408571Y-14291476D01*
X7446667Y-14291476D01*
X7465714Y-14281952D01*
X7475238Y-14262905D01*
X7475238Y-14253381D01*
X7465714Y-14234333D01*
X7446667Y-14224809D01*
X7418095Y-14224809D01*
X7399048Y-14215286D01*
X7389524Y-14196238D01*
X7389524Y-14186714D01*
X7399048Y-14167667D01*
X7418095Y-14158143D01*
X7446667Y-14158143D01*
X7465714Y-14167667D01*
X7713333Y-14215286D02*
X7865714Y-14215286D01*
X7789524Y-14291476D02*
X7789524Y-14139095D01*
X8141905Y-14177190D02*
X8122857Y-14167667D01*
X8113333Y-14158143D01*
X8103809Y-14139095D01*
X8103809Y-14129571D01*
X8113333Y-14110524D01*
X8122857Y-14101000D01*
X8141905Y-14091476D01*
X8180000Y-14091476D01*
X8199048Y-14101000D01*
X8208571Y-14110524D01*
X8218095Y-14129571D01*
X8218095Y-14139095D01*
X8208571Y-14158143D01*
X8199048Y-14167667D01*
X8180000Y-14177190D01*
X8141905Y-14177190D01*
X8122857Y-14186714D01*
X8113333Y-14196238D01*
X8103809Y-14215286D01*
X8103809Y-14253381D01*
X8113333Y-14272428D01*
X8122857Y-14281952D01*
X8141905Y-14291476D01*
X8180000Y-14291476D01*
X8199048Y-14281952D01*
X8208571Y-14272428D01*
X8218095Y-14253381D01*
X8218095Y-14215286D01*
X8208571Y-14196238D01*
X8199048Y-14186714D01*
X8180000Y-14177190D01*
X8446667Y-14281952D02*
X8465714Y-14291476D01*
X8503810Y-14291476D01*
X8522857Y-14281952D01*
X8532381Y-14262905D01*
X8532381Y-14253381D01*
X8522857Y-14234333D01*
X8503810Y-14224809D01*
X8475238Y-14224809D01*
X8456190Y-14215286D01*
X8446667Y-14196238D01*
X8446667Y-14186714D01*
X8456190Y-14167667D01*
X8475238Y-14158143D01*
X8503810Y-14158143D01*
X8522857Y-14167667D01*
X8646667Y-14291476D02*
X8627619Y-14281952D01*
X8618095Y-14262905D01*
X8618095Y-14091476D01*
X8751429Y-14291476D02*
X8732381Y-14281952D01*
X8722857Y-14272428D01*
X8713333Y-14253381D01*
X8713333Y-14196238D01*
X8722857Y-14177190D01*
X8732381Y-14167667D01*
X8751429Y-14158143D01*
X8780000Y-14158143D01*
X8799048Y-14167667D01*
X8808571Y-14177190D01*
X8818095Y-14196238D01*
X8818095Y-14253381D01*
X8808571Y-14272428D01*
X8799048Y-14281952D01*
X8780000Y-14291476D01*
X8751429Y-14291476D01*
X8875238Y-14158143D02*
X8951429Y-14158143D01*
X8903810Y-14091476D02*
X8903810Y-14262905D01*
X8913333Y-14281952D01*
X8932381Y-14291476D01*
X8951429Y-14291476D01*
X9008571Y-14281952D02*
X9027619Y-14291476D01*
X9065714Y-14291476D01*
X9084762Y-14281952D01*
X9094286Y-14262905D01*
X9094286Y-14253381D01*
X9084762Y-14234333D01*
X9065714Y-14224809D01*
X9037143Y-14224809D01*
X9018095Y-14215286D01*
X9008571Y-14196238D01*
X9008571Y-14186714D01*
X9018095Y-14167667D01*
X9037143Y-14158143D01*
X9065714Y-14158143D01*
X9084762Y-14167667D01*
X9160952Y-14367667D02*
X9170476Y-14358143D01*
X9189524Y-14329571D01*
X9199048Y-14310524D01*
X9208571Y-14281952D01*
X9218095Y-14234333D01*
X9218095Y-14196238D01*
X9208571Y-14148619D01*
X9199048Y-14120048D01*
X9189524Y-14101000D01*
X9170476Y-14072428D01*
X9160952Y-14062905D01*
D10*
X2670000Y-14415000D02*
X2770000Y-14515000D01*
X2770000Y-14415000D02*
X2670000Y-14515000D01*
X2770000Y-14465000D02*
G75*
G03*
X2770000Y-14465000I-50000J0D01*
G01*
D11*
X3132381Y-14555476D02*
X3018095Y-14555476D01*
X3075238Y-14555476D02*
X3075238Y-14355476D01*
X3056190Y-14384048D01*
X3037143Y-14403095D01*
X3018095Y-14412619D01*
X3218095Y-14536428D02*
X3227619Y-14545952D01*
X3218095Y-14555476D01*
X3208571Y-14545952D01*
X3218095Y-14536428D01*
X3218095Y-14555476D01*
X3351428Y-14355476D02*
X3370476Y-14355476D01*
X3389524Y-14365000D01*
X3399048Y-14374524D01*
X3408571Y-14393571D01*
X3418095Y-14431667D01*
X3418095Y-14479286D01*
X3408571Y-14517381D01*
X3399048Y-14536428D01*
X3389524Y-14545952D01*
X3370476Y-14555476D01*
X3351428Y-14555476D01*
X3332381Y-14545952D01*
X3322857Y-14536428D01*
X3313333Y-14517381D01*
X3303809Y-14479286D01*
X3303809Y-14431667D01*
X3313333Y-14393571D01*
X3322857Y-14374524D01*
X3332381Y-14365000D01*
X3351428Y-14355476D01*
X3541905Y-14355476D02*
X3560952Y-14355476D01*
X3580000Y-14365000D01*
X3589524Y-14374524D01*
X3599048Y-14393571D01*
X3608571Y-14431667D01*
X3608571Y-14479286D01*
X3599048Y-14517381D01*
X3589524Y-14536428D01*
X3580000Y-14545952D01*
X3560952Y-14555476D01*
X3541905Y-14555476D01*
X3522857Y-14545952D01*
X3513333Y-14536428D01*
X3503809Y-14517381D01*
X3494286Y-14479286D01*
X3494286Y-14431667D01*
X3503809Y-14393571D01*
X3513333Y-14374524D01*
X3522857Y-14365000D01*
X3541905Y-14355476D01*
X3732381Y-14355476D02*
X3751428Y-14355476D01*
X3770476Y-14365000D01*
X3780000Y-14374524D01*
X3789524Y-14393571D01*
X3799048Y-14431667D01*
X3799048Y-14479286D01*
X3789524Y-14517381D01*
X3780000Y-14536428D01*
X3770476Y-14545952D01*
X3751428Y-14555476D01*
X3732381Y-14555476D01*
X3713333Y-14545952D01*
X3703809Y-14536428D01*
X3694286Y-14517381D01*
X3684762Y-14479286D01*
X3684762Y-14431667D01*
X3694286Y-14393571D01*
X3703809Y-14374524D01*
X3713333Y-14365000D01*
X3732381Y-14355476D01*
X3884762Y-14555476D02*
X3884762Y-14422143D01*
X3884762Y-14441190D02*
X3894286Y-14431667D01*
X3913333Y-14422143D01*
X3941905Y-14422143D01*
X3960952Y-14431667D01*
X3970476Y-14450714D01*
X3970476Y-14555476D01*
X3970476Y-14450714D02*
X3980000Y-14431667D01*
X3999048Y-14422143D01*
X4027619Y-14422143D01*
X4046667Y-14431667D01*
X4056190Y-14450714D01*
X4056190Y-14555476D01*
X4151428Y-14555476D02*
X4151428Y-14422143D01*
X4151428Y-14441190D02*
X4160952Y-14431667D01*
X4180000Y-14422143D01*
X4208571Y-14422143D01*
X4227619Y-14431667D01*
X4237143Y-14450714D01*
X4237143Y-14555476D01*
X4237143Y-14450714D02*
X4246667Y-14431667D01*
X4265714Y-14422143D01*
X4294286Y-14422143D01*
X4313333Y-14431667D01*
X4322857Y-14450714D01*
X4322857Y-14555476D01*
X4713333Y-14345952D02*
X4541905Y-14603095D01*
X4970476Y-14355476D02*
X4989524Y-14355476D01*
X5008571Y-14365000D01*
X5018095Y-14374524D01*
X5027619Y-14393571D01*
X5037143Y-14431667D01*
X5037143Y-14479286D01*
X5027619Y-14517381D01*
X5018095Y-14536428D01*
X5008571Y-14545952D01*
X4989524Y-14555476D01*
X4970476Y-14555476D01*
X4951429Y-14545952D01*
X4941905Y-14536428D01*
X4932381Y-14517381D01*
X4922857Y-14479286D01*
X4922857Y-14431667D01*
X4932381Y-14393571D01*
X4941905Y-14374524D01*
X4951429Y-14365000D01*
X4970476Y-14355476D01*
X5122857Y-14536428D02*
X5132381Y-14545952D01*
X5122857Y-14555476D01*
X5113333Y-14545952D01*
X5122857Y-14536428D01*
X5122857Y-14555476D01*
X5256190Y-14355476D02*
X5275238Y-14355476D01*
X5294286Y-14365000D01*
X5303810Y-14374524D01*
X5313333Y-14393571D01*
X5322857Y-14431667D01*
X5322857Y-14479286D01*
X5313333Y-14517381D01*
X5303810Y-14536428D01*
X5294286Y-14545952D01*
X5275238Y-14555476D01*
X5256190Y-14555476D01*
X5237143Y-14545952D01*
X5227619Y-14536428D01*
X5218095Y-14517381D01*
X5208571Y-14479286D01*
X5208571Y-14431667D01*
X5218095Y-14393571D01*
X5227619Y-14374524D01*
X5237143Y-14365000D01*
X5256190Y-14355476D01*
X5389524Y-14355476D02*
X5513333Y-14355476D01*
X5446667Y-14431667D01*
X5475238Y-14431667D01*
X5494286Y-14441190D01*
X5503810Y-14450714D01*
X5513333Y-14469762D01*
X5513333Y-14517381D01*
X5503810Y-14536428D01*
X5494286Y-14545952D01*
X5475238Y-14555476D01*
X5418095Y-14555476D01*
X5399048Y-14545952D01*
X5389524Y-14536428D01*
X5608571Y-14555476D02*
X5646667Y-14555476D01*
X5665714Y-14545952D01*
X5675238Y-14536428D01*
X5694286Y-14507857D01*
X5703809Y-14469762D01*
X5703809Y-14393571D01*
X5694286Y-14374524D01*
X5684762Y-14365000D01*
X5665714Y-14355476D01*
X5627619Y-14355476D01*
X5608571Y-14365000D01*
X5599048Y-14374524D01*
X5589524Y-14393571D01*
X5589524Y-14441190D01*
X5599048Y-14460238D01*
X5608571Y-14469762D01*
X5627619Y-14479286D01*
X5665714Y-14479286D01*
X5684762Y-14469762D01*
X5694286Y-14460238D01*
X5703809Y-14441190D01*
X5875238Y-14422143D02*
X5875238Y-14555476D01*
X5827619Y-14345952D02*
X5780000Y-14488809D01*
X5903809Y-14488809D01*
X5970476Y-14355476D02*
X5970476Y-14393571D01*
X6046667Y-14355476D02*
X6046667Y-14393571D01*
X6341905Y-14631667D02*
X6332381Y-14622143D01*
X6313333Y-14593571D01*
X6303809Y-14574524D01*
X6294286Y-14545952D01*
X6284762Y-14498333D01*
X6284762Y-14460238D01*
X6294286Y-14412619D01*
X6303809Y-14384048D01*
X6313333Y-14365000D01*
X6332381Y-14336428D01*
X6341905Y-14326905D01*
X6522857Y-14555476D02*
X6408571Y-14555476D01*
X6465714Y-14555476D02*
X6465714Y-14355476D01*
X6446667Y-14384048D01*
X6427619Y-14403095D01*
X6408571Y-14412619D01*
X6713333Y-14555476D02*
X6599048Y-14555476D01*
X6656190Y-14555476D02*
X6656190Y-14355476D01*
X6637143Y-14384048D01*
X6618095Y-14403095D01*
X6599048Y-14412619D01*
X6951428Y-14555476D02*
X6951428Y-14355476D01*
X7037143Y-14555476D02*
X7037143Y-14450714D01*
X7027619Y-14431667D01*
X7008571Y-14422143D01*
X6980000Y-14422143D01*
X6960952Y-14431667D01*
X6951428Y-14441190D01*
X7160952Y-14555476D02*
X7141905Y-14545952D01*
X7132381Y-14536428D01*
X7122857Y-14517381D01*
X7122857Y-14460238D01*
X7132381Y-14441190D01*
X7141905Y-14431667D01*
X7160952Y-14422143D01*
X7189524Y-14422143D01*
X7208571Y-14431667D01*
X7218095Y-14441190D01*
X7227619Y-14460238D01*
X7227619Y-14517381D01*
X7218095Y-14536428D01*
X7208571Y-14545952D01*
X7189524Y-14555476D01*
X7160952Y-14555476D01*
X7341905Y-14555476D02*
X7322857Y-14545952D01*
X7313333Y-14526905D01*
X7313333Y-14355476D01*
X7494286Y-14545952D02*
X7475238Y-14555476D01*
X7437143Y-14555476D01*
X7418095Y-14545952D01*
X7408571Y-14526905D01*
X7408571Y-14450714D01*
X7418095Y-14431667D01*
X7437143Y-14422143D01*
X7475238Y-14422143D01*
X7494286Y-14431667D01*
X7503809Y-14450714D01*
X7503809Y-14469762D01*
X7408571Y-14488809D01*
X7580000Y-14545952D02*
X7599048Y-14555476D01*
X7637143Y-14555476D01*
X7656190Y-14545952D01*
X7665714Y-14526905D01*
X7665714Y-14517381D01*
X7656190Y-14498333D01*
X7637143Y-14488809D01*
X7608571Y-14488809D01*
X7589524Y-14479286D01*
X7580000Y-14460238D01*
X7580000Y-14450714D01*
X7589524Y-14431667D01*
X7608571Y-14422143D01*
X7637143Y-14422143D01*
X7656190Y-14431667D01*
X7732381Y-14631667D02*
X7741905Y-14622143D01*
X7760952Y-14593571D01*
X7770476Y-14574524D01*
X7780000Y-14545952D01*
X7789524Y-14498333D01*
X7789524Y-14460238D01*
X7780000Y-14412619D01*
X7770476Y-14384048D01*
X7760952Y-14365000D01*
X7741905Y-14336428D01*
X7732381Y-14326905D01*
D15*
X2642000Y-14665000D02*
X2770000Y-14793000D01*
X2770000Y-14665000D02*
X2642000Y-14793000D01*
X2706000Y-14665000D02*
X2706000Y-14793000D01*
X2642000Y-14729000D02*
X2770000Y-14729000D01*
D11*
X3132381Y-14819476D02*
X3018095Y-14819476D01*
X3075238Y-14819476D02*
X3075238Y-14619476D01*
X3056190Y-14648048D01*
X3037143Y-14667095D01*
X3018095Y-14676619D01*
X3218095Y-14800428D02*
X3227619Y-14809952D01*
X3218095Y-14819476D01*
X3208571Y-14809952D01*
X3218095Y-14800428D01*
X3218095Y-14819476D01*
X3303809Y-14638524D02*
X3313333Y-14629000D01*
X3332381Y-14619476D01*
X3380000Y-14619476D01*
X3399048Y-14629000D01*
X3408571Y-14638524D01*
X3418095Y-14657571D01*
X3418095Y-14676619D01*
X3408571Y-14705190D01*
X3294286Y-14819476D01*
X3418095Y-14819476D01*
X3532381Y-14705190D02*
X3513333Y-14695667D01*
X3503809Y-14686143D01*
X3494286Y-14667095D01*
X3494286Y-14657571D01*
X3503809Y-14638524D01*
X3513333Y-14629000D01*
X3532381Y-14619476D01*
X3570476Y-14619476D01*
X3589524Y-14629000D01*
X3599048Y-14638524D01*
X3608571Y-14657571D01*
X3608571Y-14667095D01*
X3599048Y-14686143D01*
X3589524Y-14695667D01*
X3570476Y-14705190D01*
X3532381Y-14705190D01*
X3513333Y-14714714D01*
X3503809Y-14724238D01*
X3494286Y-14743286D01*
X3494286Y-14781381D01*
X3503809Y-14800428D01*
X3513333Y-14809952D01*
X3532381Y-14819476D01*
X3570476Y-14819476D01*
X3589524Y-14809952D01*
X3599048Y-14800428D01*
X3608571Y-14781381D01*
X3608571Y-14743286D01*
X3599048Y-14724238D01*
X3589524Y-14714714D01*
X3570476Y-14705190D01*
X3732381Y-14619476D02*
X3751428Y-14619476D01*
X3770476Y-14629000D01*
X3780000Y-14638524D01*
X3789524Y-14657571D01*
X3799048Y-14695667D01*
X3799048Y-14743286D01*
X3789524Y-14781381D01*
X3780000Y-14800428D01*
X3770476Y-14809952D01*
X3751428Y-14819476D01*
X3732381Y-14819476D01*
X3713333Y-14809952D01*
X3703809Y-14800428D01*
X3694286Y-14781381D01*
X3684762Y-14743286D01*
X3684762Y-14695667D01*
X3694286Y-14657571D01*
X3703809Y-14638524D01*
X3713333Y-14629000D01*
X3732381Y-14619476D01*
X3884762Y-14819476D02*
X3884762Y-14686143D01*
X3884762Y-14705190D02*
X3894286Y-14695667D01*
X3913333Y-14686143D01*
X3941905Y-14686143D01*
X3960952Y-14695667D01*
X3970476Y-14714714D01*
X3970476Y-14819476D01*
X3970476Y-14714714D02*
X3980000Y-14695667D01*
X3999048Y-14686143D01*
X4027619Y-14686143D01*
X4046667Y-14695667D01*
X4056190Y-14714714D01*
X4056190Y-14819476D01*
X4151428Y-14819476D02*
X4151428Y-14686143D01*
X4151428Y-14705190D02*
X4160952Y-14695667D01*
X4180000Y-14686143D01*
X4208571Y-14686143D01*
X4227619Y-14695667D01*
X4237143Y-14714714D01*
X4237143Y-14819476D01*
X4237143Y-14714714D02*
X4246667Y-14695667D01*
X4265714Y-14686143D01*
X4294286Y-14686143D01*
X4313333Y-14695667D01*
X4322857Y-14714714D01*
X4322857Y-14819476D01*
X4713333Y-14609952D02*
X4541905Y-14867095D01*
X4970476Y-14619476D02*
X4989524Y-14619476D01*
X5008571Y-14629000D01*
X5018095Y-14638524D01*
X5027619Y-14657571D01*
X5037143Y-14695667D01*
X5037143Y-14743286D01*
X5027619Y-14781381D01*
X5018095Y-14800428D01*
X5008571Y-14809952D01*
X4989524Y-14819476D01*
X4970476Y-14819476D01*
X4951429Y-14809952D01*
X4941905Y-14800428D01*
X4932381Y-14781381D01*
X4922857Y-14743286D01*
X4922857Y-14695667D01*
X4932381Y-14657571D01*
X4941905Y-14638524D01*
X4951429Y-14629000D01*
X4970476Y-14619476D01*
X5122857Y-14800428D02*
X5132381Y-14809952D01*
X5122857Y-14819476D01*
X5113333Y-14809952D01*
X5122857Y-14800428D01*
X5122857Y-14819476D01*
X5256190Y-14619476D02*
X5275238Y-14619476D01*
X5294286Y-14629000D01*
X5303810Y-14638524D01*
X5313333Y-14657571D01*
X5322857Y-14695667D01*
X5322857Y-14743286D01*
X5313333Y-14781381D01*
X5303810Y-14800428D01*
X5294286Y-14809952D01*
X5275238Y-14819476D01*
X5256190Y-14819476D01*
X5237143Y-14809952D01*
X5227619Y-14800428D01*
X5218095Y-14781381D01*
X5208571Y-14743286D01*
X5208571Y-14695667D01*
X5218095Y-14657571D01*
X5227619Y-14638524D01*
X5237143Y-14629000D01*
X5256190Y-14619476D01*
X5503810Y-14619476D02*
X5408571Y-14619476D01*
X5399048Y-14714714D01*
X5408571Y-14705190D01*
X5427619Y-14695667D01*
X5475238Y-14695667D01*
X5494286Y-14705190D01*
X5503810Y-14714714D01*
X5513333Y-14733762D01*
X5513333Y-14781381D01*
X5503810Y-14800428D01*
X5494286Y-14809952D01*
X5475238Y-14819476D01*
X5427619Y-14819476D01*
X5408571Y-14809952D01*
X5399048Y-14800428D01*
X5637143Y-14619476D02*
X5656190Y-14619476D01*
X5675238Y-14629000D01*
X5684762Y-14638524D01*
X5694286Y-14657571D01*
X5703809Y-14695667D01*
X5703809Y-14743286D01*
X5694286Y-14781381D01*
X5684762Y-14800428D01*
X5675238Y-14809952D01*
X5656190Y-14819476D01*
X5637143Y-14819476D01*
X5618095Y-14809952D01*
X5608571Y-14800428D01*
X5599048Y-14781381D01*
X5589524Y-14743286D01*
X5589524Y-14695667D01*
X5599048Y-14657571D01*
X5608571Y-14638524D01*
X5618095Y-14629000D01*
X5637143Y-14619476D01*
X5875238Y-14686143D02*
X5875238Y-14819476D01*
X5827619Y-14609952D02*
X5780000Y-14752809D01*
X5903809Y-14752809D01*
X5970476Y-14619476D02*
X5970476Y-14657571D01*
X6046667Y-14619476D02*
X6046667Y-14657571D01*
X6341905Y-14895667D02*
X6332381Y-14886143D01*
X6313333Y-14857571D01*
X6303809Y-14838524D01*
X6294286Y-14809952D01*
X6284762Y-14762333D01*
X6284762Y-14724238D01*
X6294286Y-14676619D01*
X6303809Y-14648048D01*
X6313333Y-14629000D01*
X6332381Y-14600428D01*
X6341905Y-14590905D01*
X6522857Y-14819476D02*
X6408571Y-14819476D01*
X6465714Y-14819476D02*
X6465714Y-14619476D01*
X6446667Y-14648048D01*
X6427619Y-14667095D01*
X6408571Y-14676619D01*
X6599048Y-14638524D02*
X6608571Y-14629000D01*
X6627619Y-14619476D01*
X6675238Y-14619476D01*
X6694286Y-14629000D01*
X6703809Y-14638524D01*
X6713333Y-14657571D01*
X6713333Y-14676619D01*
X6703809Y-14705190D01*
X6589524Y-14819476D01*
X6713333Y-14819476D01*
X6951428Y-14819476D02*
X6951428Y-14619476D01*
X7037143Y-14819476D02*
X7037143Y-14714714D01*
X7027619Y-14695667D01*
X7008571Y-14686143D01*
X6980000Y-14686143D01*
X6960952Y-14695667D01*
X6951428Y-14705190D01*
X7160952Y-14819476D02*
X7141905Y-14809952D01*
X7132381Y-14800428D01*
X7122857Y-14781381D01*
X7122857Y-14724238D01*
X7132381Y-14705190D01*
X7141905Y-14695667D01*
X7160952Y-14686143D01*
X7189524Y-14686143D01*
X7208571Y-14695667D01*
X7218095Y-14705190D01*
X7227619Y-14724238D01*
X7227619Y-14781381D01*
X7218095Y-14800428D01*
X7208571Y-14809952D01*
X7189524Y-14819476D01*
X7160952Y-14819476D01*
X7341905Y-14819476D02*
X7322857Y-14809952D01*
X7313333Y-14790905D01*
X7313333Y-14619476D01*
X7494286Y-14809952D02*
X7475238Y-14819476D01*
X7437143Y-14819476D01*
X7418095Y-14809952D01*
X7408571Y-14790905D01*
X7408571Y-14714714D01*
X7418095Y-14695667D01*
X7437143Y-14686143D01*
X7475238Y-14686143D01*
X7494286Y-14695667D01*
X7503809Y-14714714D01*
X7503809Y-14733762D01*
X7408571Y-14752809D01*
X7580000Y-14809952D02*
X7599048Y-14819476D01*
X7637143Y-14819476D01*
X7656190Y-14809952D01*
X7665714Y-14790905D01*
X7665714Y-14781381D01*
X7656190Y-14762333D01*
X7637143Y-14752809D01*
X7608571Y-14752809D01*
X7589524Y-14743286D01*
X7580000Y-14724238D01*
X7580000Y-14714714D01*
X7589524Y-14695667D01*
X7608571Y-14686143D01*
X7637143Y-14686143D01*
X7656190Y-14695667D01*
X7732381Y-14895667D02*
X7741905Y-14886143D01*
X7760952Y-14857571D01*
X7770476Y-14838524D01*
X7780000Y-14809952D01*
X7789524Y-14762333D01*
X7789524Y-14724238D01*
X7780000Y-14676619D01*
X7770476Y-14648048D01*
X7760952Y-14629000D01*
X7741905Y-14600428D01*
X7732381Y-14590905D01*
D16*
X2640000Y-14928000D02*
X2770000Y-15058000D01*
X2770000Y-14928000D02*
X2640000Y-15058000D01*
X2750962Y-15038962D02*
X2750962Y-14947038D01*
X2659038Y-14947038D01*
X2659038Y-15038962D01*
X2750962Y-15038962D01*
D11*
X3132381Y-15083476D02*
X3018095Y-15083476D01*
X3075238Y-15083476D02*
X3075238Y-14883476D01*
X3056190Y-14912048D01*
X3037143Y-14931095D01*
X3018095Y-14940619D01*
X3218095Y-15064428D02*
X3227619Y-15073952D01*
X3218095Y-15083476D01*
X3208571Y-15073952D01*
X3218095Y-15064428D01*
X3218095Y-15083476D01*
X3294286Y-14883476D02*
X3418095Y-14883476D01*
X3351428Y-14959667D01*
X3380000Y-14959667D01*
X3399048Y-14969190D01*
X3408571Y-14978714D01*
X3418095Y-14997762D01*
X3418095Y-15045381D01*
X3408571Y-15064428D01*
X3399048Y-15073952D01*
X3380000Y-15083476D01*
X3322857Y-15083476D01*
X3303809Y-15073952D01*
X3294286Y-15064428D01*
X3541905Y-14883476D02*
X3560952Y-14883476D01*
X3580000Y-14893000D01*
X3589524Y-14902524D01*
X3599048Y-14921571D01*
X3608571Y-14959667D01*
X3608571Y-15007286D01*
X3599048Y-15045381D01*
X3589524Y-15064428D01*
X3580000Y-15073952D01*
X3560952Y-15083476D01*
X3541905Y-15083476D01*
X3522857Y-15073952D01*
X3513333Y-15064428D01*
X3503809Y-15045381D01*
X3494286Y-15007286D01*
X3494286Y-14959667D01*
X3503809Y-14921571D01*
X3513333Y-14902524D01*
X3522857Y-14893000D01*
X3541905Y-14883476D01*
X3732381Y-14883476D02*
X3751428Y-14883476D01*
X3770476Y-14893000D01*
X3780000Y-14902524D01*
X3789524Y-14921571D01*
X3799048Y-14959667D01*
X3799048Y-15007286D01*
X3789524Y-15045381D01*
X3780000Y-15064428D01*
X3770476Y-15073952D01*
X3751428Y-15083476D01*
X3732381Y-15083476D01*
X3713333Y-15073952D01*
X3703809Y-15064428D01*
X3694286Y-15045381D01*
X3684762Y-15007286D01*
X3684762Y-14959667D01*
X3694286Y-14921571D01*
X3703809Y-14902524D01*
X3713333Y-14893000D01*
X3732381Y-14883476D01*
X3884762Y-15083476D02*
X3884762Y-14950143D01*
X3884762Y-14969190D02*
X3894286Y-14959667D01*
X3913333Y-14950143D01*
X3941905Y-14950143D01*
X3960952Y-14959667D01*
X3970476Y-14978714D01*
X3970476Y-15083476D01*
X3970476Y-14978714D02*
X3980000Y-14959667D01*
X3999048Y-14950143D01*
X4027619Y-14950143D01*
X4046667Y-14959667D01*
X4056190Y-14978714D01*
X4056190Y-15083476D01*
X4151428Y-15083476D02*
X4151428Y-14950143D01*
X4151428Y-14969190D02*
X4160952Y-14959667D01*
X4180000Y-14950143D01*
X4208571Y-14950143D01*
X4227619Y-14959667D01*
X4237143Y-14978714D01*
X4237143Y-15083476D01*
X4237143Y-14978714D02*
X4246667Y-14959667D01*
X4265714Y-14950143D01*
X4294286Y-14950143D01*
X4313333Y-14959667D01*
X4322857Y-14978714D01*
X4322857Y-15083476D01*
X4713333Y-14873952D02*
X4541905Y-15131095D01*
X4970476Y-14883476D02*
X4989524Y-14883476D01*
X5008571Y-14893000D01*
X5018095Y-14902524D01*
X5027619Y-14921571D01*
X5037143Y-14959667D01*
X5037143Y-15007286D01*
X5027619Y-15045381D01*
X5018095Y-15064428D01*
X5008571Y-15073952D01*
X4989524Y-15083476D01*
X4970476Y-15083476D01*
X4951429Y-15073952D01*
X4941905Y-15064428D01*
X4932381Y-15045381D01*
X4922857Y-15007286D01*
X4922857Y-14959667D01*
X4932381Y-14921571D01*
X4941905Y-14902524D01*
X4951429Y-14893000D01*
X4970476Y-14883476D01*
X5122857Y-15064428D02*
X5132381Y-15073952D01*
X5122857Y-15083476D01*
X5113333Y-15073952D01*
X5122857Y-15064428D01*
X5122857Y-15083476D01*
X5256190Y-14883476D02*
X5275238Y-14883476D01*
X5294286Y-14893000D01*
X5303810Y-14902524D01*
X5313333Y-14921571D01*
X5322857Y-14959667D01*
X5322857Y-15007286D01*
X5313333Y-15045381D01*
X5303810Y-15064428D01*
X5294286Y-15073952D01*
X5275238Y-15083476D01*
X5256190Y-15083476D01*
X5237143Y-15073952D01*
X5227619Y-15064428D01*
X5218095Y-15045381D01*
X5208571Y-15007286D01*
X5208571Y-14959667D01*
X5218095Y-14921571D01*
X5227619Y-14902524D01*
X5237143Y-14893000D01*
X5256190Y-14883476D01*
X5503810Y-14883476D02*
X5408571Y-14883476D01*
X5399048Y-14978714D01*
X5408571Y-14969190D01*
X5427619Y-14959667D01*
X5475238Y-14959667D01*
X5494286Y-14969190D01*
X5503810Y-14978714D01*
X5513333Y-14997762D01*
X5513333Y-15045381D01*
X5503810Y-15064428D01*
X5494286Y-15073952D01*
X5475238Y-15083476D01*
X5427619Y-15083476D01*
X5408571Y-15073952D01*
X5399048Y-15064428D01*
X5703809Y-15083476D02*
X5589524Y-15083476D01*
X5646667Y-15083476D02*
X5646667Y-14883476D01*
X5627619Y-14912048D01*
X5608571Y-14931095D01*
X5589524Y-14940619D01*
X5780000Y-14902524D02*
X5789524Y-14893000D01*
X5808571Y-14883476D01*
X5856190Y-14883476D01*
X5875238Y-14893000D01*
X5884762Y-14902524D01*
X5894286Y-14921571D01*
X5894286Y-14940619D01*
X5884762Y-14969190D01*
X5770476Y-15083476D01*
X5894286Y-15083476D01*
X5970476Y-14883476D02*
X5970476Y-14921571D01*
X6046667Y-14883476D02*
X6046667Y-14921571D01*
X6341905Y-15159667D02*
X6332381Y-15150143D01*
X6313333Y-15121571D01*
X6303809Y-15102524D01*
X6294286Y-15073952D01*
X6284762Y-15026333D01*
X6284762Y-14988238D01*
X6294286Y-14940619D01*
X6303809Y-14912048D01*
X6313333Y-14893000D01*
X6332381Y-14864428D01*
X6341905Y-14854905D01*
X6408571Y-14902524D02*
X6418095Y-14893000D01*
X6437143Y-14883476D01*
X6484762Y-14883476D01*
X6503809Y-14893000D01*
X6513333Y-14902524D01*
X6522857Y-14921571D01*
X6522857Y-14940619D01*
X6513333Y-14969190D01*
X6399048Y-15083476D01*
X6522857Y-15083476D01*
X6760952Y-15083476D02*
X6760952Y-14883476D01*
X6846667Y-15083476D02*
X6846667Y-14978714D01*
X6837143Y-14959667D01*
X6818095Y-14950143D01*
X6789524Y-14950143D01*
X6770476Y-14959667D01*
X6760952Y-14969190D01*
X6970476Y-15083476D02*
X6951428Y-15073952D01*
X6941905Y-15064428D01*
X6932381Y-15045381D01*
X6932381Y-14988238D01*
X6941905Y-14969190D01*
X6951428Y-14959667D01*
X6970476Y-14950143D01*
X6999048Y-14950143D01*
X7018095Y-14959667D01*
X7027619Y-14969190D01*
X7037143Y-14988238D01*
X7037143Y-15045381D01*
X7027619Y-15064428D01*
X7018095Y-15073952D01*
X6999048Y-15083476D01*
X6970476Y-15083476D01*
X7151428Y-15083476D02*
X7132381Y-15073952D01*
X7122857Y-15054905D01*
X7122857Y-14883476D01*
X7303809Y-15073952D02*
X7284762Y-15083476D01*
X7246667Y-15083476D01*
X7227619Y-15073952D01*
X7218095Y-15054905D01*
X7218095Y-14978714D01*
X7227619Y-14959667D01*
X7246667Y-14950143D01*
X7284762Y-14950143D01*
X7303809Y-14959667D01*
X7313333Y-14978714D01*
X7313333Y-14997762D01*
X7218095Y-15016809D01*
X7389524Y-15073952D02*
X7408571Y-15083476D01*
X7446667Y-15083476D01*
X7465714Y-15073952D01*
X7475238Y-15054905D01*
X7475238Y-15045381D01*
X7465714Y-15026333D01*
X7446667Y-15016809D01*
X7418095Y-15016809D01*
X7399048Y-15007286D01*
X7389524Y-14988238D01*
X7389524Y-14978714D01*
X7399048Y-14959667D01*
X7418095Y-14950143D01*
X7446667Y-14950143D01*
X7465714Y-14959667D01*
X7541905Y-15159667D02*
X7551428Y-15150143D01*
X7570476Y-15121571D01*
X7580000Y-15102524D01*
X7589524Y-15073952D01*
X7599048Y-15026333D01*
X7599048Y-14988238D01*
X7589524Y-14940619D01*
X7580000Y-14912048D01*
X7570476Y-14893000D01*
X7551428Y-14864428D01*
X7541905Y-14854905D01*
X2570000Y-15157000D02*
X2770000Y-15357000D01*
X2770000Y-15157000D02*
X2570000Y-15357000D01*
X2670000Y-15357000D02*
X2770000Y-15257000D01*
X2670000Y-15157000D01*
X2570000Y-15257000D01*
X2670000Y-15357000D01*
X3008571Y-15147476D02*
X3132381Y-15147476D01*
X3065714Y-15223667D01*
X3094286Y-15223667D01*
X3113333Y-15233190D01*
X3122857Y-15242714D01*
X3132381Y-15261762D01*
X3132381Y-15309381D01*
X3122857Y-15328428D01*
X3113333Y-15337952D01*
X3094286Y-15347476D01*
X3037143Y-15347476D01*
X3018095Y-15337952D01*
X3008571Y-15328428D01*
X3218095Y-15328428D02*
X3227619Y-15337952D01*
X3218095Y-15347476D01*
X3208571Y-15337952D01*
X3218095Y-15328428D01*
X3218095Y-15347476D01*
X3303809Y-15166524D02*
X3313333Y-15157000D01*
X3332381Y-15147476D01*
X3380000Y-15147476D01*
X3399048Y-15157000D01*
X3408571Y-15166524D01*
X3418095Y-15185571D01*
X3418095Y-15204619D01*
X3408571Y-15233190D01*
X3294286Y-15347476D01*
X3418095Y-15347476D01*
X3541905Y-15147476D02*
X3560952Y-15147476D01*
X3580000Y-15157000D01*
X3589524Y-15166524D01*
X3599048Y-15185571D01*
X3608571Y-15223667D01*
X3608571Y-15271286D01*
X3599048Y-15309381D01*
X3589524Y-15328428D01*
X3580000Y-15337952D01*
X3560952Y-15347476D01*
X3541905Y-15347476D01*
X3522857Y-15337952D01*
X3513333Y-15328428D01*
X3503809Y-15309381D01*
X3494286Y-15271286D01*
X3494286Y-15223667D01*
X3503809Y-15185571D01*
X3513333Y-15166524D01*
X3522857Y-15157000D01*
X3541905Y-15147476D01*
X3732381Y-15147476D02*
X3751428Y-15147476D01*
X3770476Y-15157000D01*
X3780000Y-15166524D01*
X3789524Y-15185571D01*
X3799048Y-15223667D01*
X3799048Y-15271286D01*
X3789524Y-15309381D01*
X3780000Y-15328428D01*
X3770476Y-15337952D01*
X3751428Y-15347476D01*
X3732381Y-15347476D01*
X3713333Y-15337952D01*
X3703809Y-15328428D01*
X3694286Y-15309381D01*
X3684762Y-15271286D01*
X3684762Y-15223667D01*
X3694286Y-15185571D01*
X3703809Y-15166524D01*
X3713333Y-15157000D01*
X3732381Y-15147476D01*
X3884762Y-15347476D02*
X3884762Y-15214143D01*
X3884762Y-15233190D02*
X3894286Y-15223667D01*
X3913333Y-15214143D01*
X3941905Y-15214143D01*
X3960952Y-15223667D01*
X3970476Y-15242714D01*
X3970476Y-15347476D01*
X3970476Y-15242714D02*
X3980000Y-15223667D01*
X3999048Y-15214143D01*
X4027619Y-15214143D01*
X4046667Y-15223667D01*
X4056190Y-15242714D01*
X4056190Y-15347476D01*
X4151428Y-15347476D02*
X4151428Y-15214143D01*
X4151428Y-15233190D02*
X4160952Y-15223667D01*
X4180000Y-15214143D01*
X4208571Y-15214143D01*
X4227619Y-15223667D01*
X4237143Y-15242714D01*
X4237143Y-15347476D01*
X4237143Y-15242714D02*
X4246667Y-15223667D01*
X4265714Y-15214143D01*
X4294286Y-15214143D01*
X4313333Y-15223667D01*
X4322857Y-15242714D01*
X4322857Y-15347476D01*
X4713333Y-15137952D02*
X4541905Y-15395095D01*
X4970476Y-15147476D02*
X4989524Y-15147476D01*
X5008571Y-15157000D01*
X5018095Y-15166524D01*
X5027619Y-15185571D01*
X5037143Y-15223667D01*
X5037143Y-15271286D01*
X5027619Y-15309381D01*
X5018095Y-15328428D01*
X5008571Y-15337952D01*
X4989524Y-15347476D01*
X4970476Y-15347476D01*
X4951429Y-15337952D01*
X4941905Y-15328428D01*
X4932381Y-15309381D01*
X4922857Y-15271286D01*
X4922857Y-15223667D01*
X4932381Y-15185571D01*
X4941905Y-15166524D01*
X4951429Y-15157000D01*
X4970476Y-15147476D01*
X5122857Y-15328428D02*
X5132381Y-15337952D01*
X5122857Y-15347476D01*
X5113333Y-15337952D01*
X5122857Y-15328428D01*
X5122857Y-15347476D01*
X5322857Y-15347476D02*
X5208571Y-15347476D01*
X5265714Y-15347476D02*
X5265714Y-15147476D01*
X5246667Y-15176048D01*
X5227619Y-15195095D01*
X5208571Y-15204619D01*
X5399048Y-15166524D02*
X5408571Y-15157000D01*
X5427619Y-15147476D01*
X5475238Y-15147476D01*
X5494286Y-15157000D01*
X5503810Y-15166524D01*
X5513333Y-15185571D01*
X5513333Y-15204619D01*
X5503810Y-15233190D01*
X5389524Y-15347476D01*
X5513333Y-15347476D01*
X5684762Y-15147476D02*
X5646667Y-15147476D01*
X5627619Y-15157000D01*
X5618095Y-15166524D01*
X5599048Y-15195095D01*
X5589524Y-15233190D01*
X5589524Y-15309381D01*
X5599048Y-15328428D01*
X5608571Y-15337952D01*
X5627619Y-15347476D01*
X5665714Y-15347476D01*
X5684762Y-15337952D01*
X5694286Y-15328428D01*
X5703809Y-15309381D01*
X5703809Y-15261762D01*
X5694286Y-15242714D01*
X5684762Y-15233190D01*
X5665714Y-15223667D01*
X5627619Y-15223667D01*
X5608571Y-15233190D01*
X5599048Y-15242714D01*
X5589524Y-15261762D01*
X5827619Y-15147476D02*
X5846667Y-15147476D01*
X5865714Y-15157000D01*
X5875238Y-15166524D01*
X5884762Y-15185571D01*
X5894286Y-15223667D01*
X5894286Y-15271286D01*
X5884762Y-15309381D01*
X5875238Y-15328428D01*
X5865714Y-15337952D01*
X5846667Y-15347476D01*
X5827619Y-15347476D01*
X5808571Y-15337952D01*
X5799048Y-15328428D01*
X5789524Y-15309381D01*
X5780000Y-15271286D01*
X5780000Y-15223667D01*
X5789524Y-15185571D01*
X5799048Y-15166524D01*
X5808571Y-15157000D01*
X5827619Y-15147476D01*
X5970476Y-15147476D02*
X5970476Y-15185571D01*
X6046667Y-15147476D02*
X6046667Y-15185571D01*
X6341905Y-15423667D02*
X6332381Y-15414143D01*
X6313333Y-15385571D01*
X6303809Y-15366524D01*
X6294286Y-15337952D01*
X6284762Y-15290333D01*
X6284762Y-15252238D01*
X6294286Y-15204619D01*
X6303809Y-15176048D01*
X6313333Y-15157000D01*
X6332381Y-15128428D01*
X6341905Y-15118905D01*
X6503809Y-15214143D02*
X6503809Y-15347476D01*
X6456190Y-15137952D02*
X6408571Y-15280809D01*
X6532381Y-15280809D01*
X6760952Y-15347476D02*
X6760952Y-15147476D01*
X6846667Y-15347476D02*
X6846667Y-15242714D01*
X6837143Y-15223667D01*
X6818095Y-15214143D01*
X6789524Y-15214143D01*
X6770476Y-15223667D01*
X6760952Y-15233190D01*
X6970476Y-15347476D02*
X6951428Y-15337952D01*
X6941905Y-15328428D01*
X6932381Y-15309381D01*
X6932381Y-15252238D01*
X6941905Y-15233190D01*
X6951428Y-15223667D01*
X6970476Y-15214143D01*
X6999048Y-15214143D01*
X7018095Y-15223667D01*
X7027619Y-15233190D01*
X7037143Y-15252238D01*
X7037143Y-15309381D01*
X7027619Y-15328428D01*
X7018095Y-15337952D01*
X6999048Y-15347476D01*
X6970476Y-15347476D01*
X7151428Y-15347476D02*
X7132381Y-15337952D01*
X7122857Y-15318905D01*
X7122857Y-15147476D01*
X7303809Y-15337952D02*
X7284762Y-15347476D01*
X7246667Y-15347476D01*
X7227619Y-15337952D01*
X7218095Y-15318905D01*
X7218095Y-15242714D01*
X7227619Y-15223667D01*
X7246667Y-15214143D01*
X7284762Y-15214143D01*
X7303809Y-15223667D01*
X7313333Y-15242714D01*
X7313333Y-15261762D01*
X7218095Y-15280809D01*
X7389524Y-15337952D02*
X7408571Y-15347476D01*
X7446667Y-15347476D01*
X7465714Y-15337952D01*
X7475238Y-15318905D01*
X7475238Y-15309381D01*
X7465714Y-15290333D01*
X7446667Y-15280809D01*
X7418095Y-15280809D01*
X7399048Y-15271286D01*
X7389524Y-15252238D01*
X7389524Y-15242714D01*
X7399048Y-15223667D01*
X7418095Y-15214143D01*
X7446667Y-15214143D01*
X7465714Y-15223667D01*
X7541905Y-15423667D02*
X7551428Y-15414143D01*
X7570476Y-15385571D01*
X7580000Y-15366524D01*
X7589524Y-15337952D01*
X7599048Y-15290333D01*
X7599048Y-15252238D01*
X7589524Y-15204619D01*
X7580000Y-15176048D01*
X7570476Y-15157000D01*
X7551428Y-15128428D01*
X7541905Y-15118905D01*
M02*
