%TF.GenerationSoftware,KiCad,Pcbnew,(6.0.7-1)-1*%
%TF.CreationDate,2023-02-28T10:44:53-05:00*%
%TF.ProjectId,HABBoard,48414242-6f61-4726-942e-6b696361645f,rev?*%
%TF.SameCoordinates,Original*%
%TF.FileFunction,Legend,Bot*%
%TF.FilePolarity,Positive*%
%FSLAX46Y46*%
G04 Gerber Fmt 4.6, Leading zero omitted, Abs format (unit mm)*
G04 Created by KiCad (PCBNEW (6.0.7-1)-1) date 2023-02-28 10:44:53*
%MOMM*%
%LPD*%
G01*
G04 APERTURE LIST*
%ADD10C,0.300000*%
%ADD11O,1.700000X1.700000*%
%ADD12R,1.700000X1.700000*%
%ADD13O,1.700000X0.900000*%
%ADD14O,2.400000X0.900000*%
%ADD15C,0.700000*%
%ADD16C,6.400000*%
%ADD17C,1.920000*%
%ADD18C,1.508000*%
%ADD19C,1.950000*%
%ADD20R,1.950000X1.950000*%
G04 APERTURE END LIST*
D10*
X116978571Y-26328571D02*
X116978571Y-27400000D01*
X117050000Y-27614285D01*
X117192857Y-27757142D01*
X117407142Y-27828571D01*
X117550000Y-27828571D01*
X115550000Y-27828571D02*
X116264285Y-27828571D01*
X116264285Y-26328571D01*
X114192857Y-27685714D02*
X114264285Y-27757142D01*
X114478571Y-27828571D01*
X114621428Y-27828571D01*
X114835714Y-27757142D01*
X114978571Y-27614285D01*
X115050000Y-27471428D01*
X115121428Y-27185714D01*
X115121428Y-26971428D01*
X115050000Y-26685714D01*
X114978571Y-26542857D01*
X114835714Y-26400000D01*
X114621428Y-26328571D01*
X114478571Y-26328571D01*
X114264285Y-26400000D01*
X114192857Y-26471428D01*
X113121428Y-26328571D02*
X113121428Y-27400000D01*
X113192857Y-27614285D01*
X113335714Y-27757142D01*
X113550000Y-27828571D01*
X113692857Y-27828571D01*
X111692857Y-27828571D02*
X112407142Y-27828571D01*
X112407142Y-26328571D01*
X110335714Y-27685714D02*
X110407142Y-27757142D01*
X110621428Y-27828571D01*
X110764285Y-27828571D01*
X110978571Y-27757142D01*
X111121428Y-27614285D01*
X111192857Y-27471428D01*
X111264285Y-27185714D01*
X111264285Y-26971428D01*
X111192857Y-26685714D01*
X111121428Y-26542857D01*
X110978571Y-26400000D01*
X110764285Y-26328571D01*
X110621428Y-26328571D01*
X110407142Y-26400000D01*
X110335714Y-26471428D01*
X109264285Y-26328571D02*
X109264285Y-27400000D01*
X109335714Y-27614285D01*
X109478571Y-27757142D01*
X109692857Y-27828571D01*
X109835714Y-27828571D01*
X107835714Y-27828571D02*
X108550000Y-27828571D01*
X108550000Y-26328571D01*
X106478571Y-27685714D02*
X106550000Y-27757142D01*
X106764285Y-27828571D01*
X106907142Y-27828571D01*
X107121428Y-27757142D01*
X107264285Y-27614285D01*
X107335714Y-27471428D01*
X107407142Y-27185714D01*
X107407142Y-26971428D01*
X107335714Y-26685714D01*
X107264285Y-26542857D01*
X107121428Y-26400000D01*
X106907142Y-26328571D01*
X106764285Y-26328571D01*
X106550000Y-26400000D01*
X106478571Y-26471428D01*
X105407142Y-26328571D02*
X105407142Y-27400000D01*
X105478571Y-27614285D01*
X105621428Y-27757142D01*
X105835714Y-27828571D01*
X105978571Y-27828571D01*
X103978571Y-27828571D02*
X104692857Y-27828571D01*
X104692857Y-26328571D01*
X102621428Y-27685714D02*
X102692857Y-27757142D01*
X102907142Y-27828571D01*
X103050000Y-27828571D01*
X103264285Y-27757142D01*
X103407142Y-27614285D01*
X103478571Y-27471428D01*
X103550000Y-27185714D01*
X103550000Y-26971428D01*
X103478571Y-26685714D01*
X103407142Y-26542857D01*
X103264285Y-26400000D01*
X103050000Y-26328571D01*
X102907142Y-26328571D01*
X102692857Y-26400000D01*
X102621428Y-26471428D01*
%LPC*%
D11*
%TO.C,J6*%
X42185000Y-82150000D03*
X39645000Y-82150000D03*
X37105000Y-82150000D03*
X34565000Y-82150000D03*
D12*
X32025000Y-82150000D03*
%TD*%
D13*
%TO.C,J1*%
X29415000Y-55675000D03*
X29415000Y-64325000D03*
D14*
X32795000Y-55675000D03*
X32795000Y-64325000D03*
D15*
X32425000Y-57025000D03*
X32425000Y-57875000D03*
X32425000Y-58725000D03*
X32425000Y-59575000D03*
X32425000Y-60425000D03*
X32425000Y-61275000D03*
X32425000Y-62125000D03*
X32425000Y-62975000D03*
X33775000Y-62975000D03*
X33775000Y-62125000D03*
X33775000Y-61275000D03*
X33775000Y-60425000D03*
X33775000Y-59575000D03*
X33775000Y-58725000D03*
X33775000Y-57875000D03*
X33775000Y-57025000D03*
%TD*%
D13*
%TO.C,J2*%
X29415000Y-85675000D03*
D14*
X32795000Y-94325000D03*
D13*
X29415000Y-94325000D03*
D14*
X32795000Y-85675000D03*
D15*
X32425000Y-87025000D03*
X32425000Y-87875000D03*
X32425000Y-88725000D03*
X32425000Y-89575000D03*
X32425000Y-90425000D03*
X32425000Y-91275000D03*
X32425000Y-92125000D03*
X32425000Y-92975000D03*
X33775000Y-92975000D03*
X33775000Y-92125000D03*
X33775000Y-91275000D03*
X33775000Y-90425000D03*
X33775000Y-89575000D03*
X33775000Y-88725000D03*
X33775000Y-87875000D03*
X33775000Y-87025000D03*
%TD*%
D16*
%TO.C,H4*%
X123500000Y-120750000D03*
%TD*%
D11*
%TO.C,J5*%
X34450000Y-100920000D03*
X34450000Y-103460000D03*
D12*
X34450000Y-106000000D03*
%TD*%
D17*
%TO.C,J8*%
X125400000Y-94625000D03*
X125400000Y-99425000D03*
X120600000Y-99425000D03*
X120600000Y-94625000D03*
D18*
X123000000Y-97025000D03*
%TD*%
%TO.C,J4*%
X47250000Y-120750000D03*
D17*
X44850000Y-118350000D03*
X44850000Y-123150000D03*
X49650000Y-123150000D03*
X49650000Y-118350000D03*
%TD*%
%TO.C,J7*%
X125400000Y-47600000D03*
X125400000Y-52400000D03*
X120600000Y-52400000D03*
X120600000Y-47600000D03*
D18*
X123000000Y-50000000D03*
%TD*%
D19*
%TO.C,BT1*%
X83250000Y-29337500D03*
D20*
X78250000Y-29337500D03*
%TD*%
D16*
%TO.C,H1*%
X32000000Y-29250000D03*
%TD*%
%TO.C,H3*%
X32000000Y-120750000D03*
%TD*%
%TO.C,H2*%
X123500000Y-29250000D03*
%TD*%
M02*
