%TF.GenerationSoftware,KiCad,Pcbnew,(6.0.7-1)-1*%
%TF.CreationDate,2023-02-28T10:44:53-05:00*%
%TF.ProjectId,HABBoard,48414242-6f61-4726-942e-6b696361645f,rev?*%
%TF.SameCoordinates,Original*%
%TF.FileFunction,Soldermask,Bot*%
%TF.FilePolarity,Negative*%
%FSLAX46Y46*%
G04 Gerber Fmt 4.6, Leading zero omitted, Abs format (unit mm)*
G04 Created by KiCad (PCBNEW (6.0.7-1)-1) date 2023-02-28 10:44:53*
%MOMM*%
%LPD*%
G01*
G04 APERTURE LIST*
%ADD10O,1.700000X1.700000*%
%ADD11R,1.700000X1.700000*%
%ADD12O,1.700000X0.900000*%
%ADD13O,2.400000X0.900000*%
%ADD14C,0.700000*%
%ADD15C,6.400000*%
%ADD16C,1.920000*%
%ADD17C,1.508000*%
%ADD18C,1.950000*%
%ADD19R,1.950000X1.950000*%
G04 APERTURE END LIST*
D10*
%TO.C,J6*%
X42185000Y-82150000D03*
X39645000Y-82150000D03*
X37105000Y-82150000D03*
X34565000Y-82150000D03*
D11*
X32025000Y-82150000D03*
%TD*%
D12*
%TO.C,J1*%
X29415000Y-55675000D03*
X29415000Y-64325000D03*
D13*
X32795000Y-55675000D03*
X32795000Y-64325000D03*
D14*
X32425000Y-57025000D03*
X32425000Y-57875000D03*
X32425000Y-58725000D03*
X32425000Y-59575000D03*
X32425000Y-60425000D03*
X32425000Y-61275000D03*
X32425000Y-62125000D03*
X32425000Y-62975000D03*
X33775000Y-62975000D03*
X33775000Y-62125000D03*
X33775000Y-61275000D03*
X33775000Y-60425000D03*
X33775000Y-59575000D03*
X33775000Y-58725000D03*
X33775000Y-57875000D03*
X33775000Y-57025000D03*
%TD*%
D12*
%TO.C,J2*%
X29415000Y-85675000D03*
D13*
X32795000Y-94325000D03*
D12*
X29415000Y-94325000D03*
D13*
X32795000Y-85675000D03*
D14*
X32425000Y-87025000D03*
X32425000Y-87875000D03*
X32425000Y-88725000D03*
X32425000Y-89575000D03*
X32425000Y-90425000D03*
X32425000Y-91275000D03*
X32425000Y-92125000D03*
X32425000Y-92975000D03*
X33775000Y-92975000D03*
X33775000Y-92125000D03*
X33775000Y-91275000D03*
X33775000Y-90425000D03*
X33775000Y-89575000D03*
X33775000Y-88725000D03*
X33775000Y-87875000D03*
X33775000Y-87025000D03*
%TD*%
D15*
%TO.C,H4*%
X123500000Y-120750000D03*
%TD*%
D10*
%TO.C,J5*%
X34450000Y-100920000D03*
X34450000Y-103460000D03*
D11*
X34450000Y-106000000D03*
%TD*%
D16*
%TO.C,J8*%
X125400000Y-94625000D03*
X125400000Y-99425000D03*
X120600000Y-99425000D03*
X120600000Y-94625000D03*
D17*
X123000000Y-97025000D03*
%TD*%
%TO.C,J4*%
X47250000Y-120750000D03*
D16*
X44850000Y-118350000D03*
X44850000Y-123150000D03*
X49650000Y-123150000D03*
X49650000Y-118350000D03*
%TD*%
%TO.C,J7*%
X125400000Y-47600000D03*
X125400000Y-52400000D03*
X120600000Y-52400000D03*
X120600000Y-47600000D03*
D17*
X123000000Y-50000000D03*
%TD*%
D18*
%TO.C,BT1*%
X83250000Y-29337500D03*
D19*
X78250000Y-29337500D03*
%TD*%
D15*
%TO.C,H1*%
X32000000Y-29250000D03*
%TD*%
%TO.C,H3*%
X32000000Y-120750000D03*
%TD*%
%TO.C,H2*%
X123500000Y-29250000D03*
%TD*%
M02*
