%TF.GenerationSoftware,KiCad,Pcbnew,(6.0.7-1)-1*%
%TF.CreationDate,2023-03-01T20:59:10-05:00*%
%TF.ProjectId,HABBoard,48414242-6f61-4726-942e-6b696361645f,rev?*%
%TF.SameCoordinates,Original*%
%TF.FileFunction,Legend,Bot*%
%TF.FilePolarity,Positive*%
%FSLAX46Y46*%
G04 Gerber Fmt 4.6, Leading zero omitted, Abs format (unit mm)*
G04 Created by KiCad (PCBNEW (6.0.7-1)-1) date 2023-03-01 20:59:10*
%MOMM*%
%LPD*%
G01*
G04 APERTURE LIST*
%ADD10C,0.300000*%
%ADD11R,1.700000X1.700000*%
%ADD12O,1.700000X1.700000*%
%ADD13C,0.700000*%
%ADD14O,2.400000X0.900000*%
%ADD15O,1.700000X0.900000*%
%ADD16C,6.400000*%
%ADD17C,1.508000*%
%ADD18C,1.920000*%
%ADD19R,1.950000X1.950000*%
%ADD20C,1.950000*%
G04 APERTURE END LIST*
D10*
X116978571Y-26328571D02*
X116978571Y-27400000D01*
X117050000Y-27614285D01*
X117192857Y-27757142D01*
X117407142Y-27828571D01*
X117550000Y-27828571D01*
X115550000Y-27828571D02*
X116264285Y-27828571D01*
X116264285Y-26328571D01*
X114192857Y-27685714D02*
X114264285Y-27757142D01*
X114478571Y-27828571D01*
X114621428Y-27828571D01*
X114835714Y-27757142D01*
X114978571Y-27614285D01*
X115050000Y-27471428D01*
X115121428Y-27185714D01*
X115121428Y-26971428D01*
X115050000Y-26685714D01*
X114978571Y-26542857D01*
X114835714Y-26400000D01*
X114621428Y-26328571D01*
X114478571Y-26328571D01*
X114264285Y-26400000D01*
X114192857Y-26471428D01*
X113121428Y-26328571D02*
X113121428Y-27400000D01*
X113192857Y-27614285D01*
X113335714Y-27757142D01*
X113550000Y-27828571D01*
X113692857Y-27828571D01*
X111692857Y-27828571D02*
X112407142Y-27828571D01*
X112407142Y-26328571D01*
X110335714Y-27685714D02*
X110407142Y-27757142D01*
X110621428Y-27828571D01*
X110764285Y-27828571D01*
X110978571Y-27757142D01*
X111121428Y-27614285D01*
X111192857Y-27471428D01*
X111264285Y-27185714D01*
X111264285Y-26971428D01*
X111192857Y-26685714D01*
X111121428Y-26542857D01*
X110978571Y-26400000D01*
X110764285Y-26328571D01*
X110621428Y-26328571D01*
X110407142Y-26400000D01*
X110335714Y-26471428D01*
X109264285Y-26328571D02*
X109264285Y-27400000D01*
X109335714Y-27614285D01*
X109478571Y-27757142D01*
X109692857Y-27828571D01*
X109835714Y-27828571D01*
X107835714Y-27828571D02*
X108550000Y-27828571D01*
X108550000Y-26328571D01*
X106478571Y-27685714D02*
X106550000Y-27757142D01*
X106764285Y-27828571D01*
X106907142Y-27828571D01*
X107121428Y-27757142D01*
X107264285Y-27614285D01*
X107335714Y-27471428D01*
X107407142Y-27185714D01*
X107407142Y-26971428D01*
X107335714Y-26685714D01*
X107264285Y-26542857D01*
X107121428Y-26400000D01*
X106907142Y-26328571D01*
X106764285Y-26328571D01*
X106550000Y-26400000D01*
X106478571Y-26471428D01*
X105407142Y-26328571D02*
X105407142Y-27400000D01*
X105478571Y-27614285D01*
X105621428Y-27757142D01*
X105835714Y-27828571D01*
X105978571Y-27828571D01*
X103978571Y-27828571D02*
X104692857Y-27828571D01*
X104692857Y-26328571D01*
X102621428Y-27685714D02*
X102692857Y-27757142D01*
X102907142Y-27828571D01*
X103050000Y-27828571D01*
X103264285Y-27757142D01*
X103407142Y-27614285D01*
X103478571Y-27471428D01*
X103550000Y-27185714D01*
X103550000Y-26971428D01*
X103478571Y-26685714D01*
X103407142Y-26542857D01*
X103264285Y-26400000D01*
X103050000Y-26328571D01*
X102907142Y-26328571D01*
X102692857Y-26400000D01*
X102621428Y-26471428D01*
%TO.C,G\u002A\u002A\u002A*%
X59192571Y-73688000D02*
X59337714Y-73615428D01*
X59555428Y-73615428D01*
X59773142Y-73688000D01*
X59918285Y-73833142D01*
X59990857Y-73978285D01*
X60063428Y-74268571D01*
X60063428Y-74486285D01*
X59990857Y-74776571D01*
X59918285Y-74921714D01*
X59773142Y-75066857D01*
X59555428Y-75139428D01*
X59410285Y-75139428D01*
X59192571Y-75066857D01*
X59120000Y-74994285D01*
X59120000Y-74486285D01*
X59410285Y-74486285D01*
X58249142Y-73615428D02*
X58249142Y-73978285D01*
X58612000Y-73833142D02*
X58249142Y-73978285D01*
X57886285Y-73833142D01*
X58466857Y-74268571D02*
X58249142Y-73978285D01*
X58031428Y-74268571D01*
X57088000Y-73615428D02*
X57088000Y-73978285D01*
X57450857Y-73833142D02*
X57088000Y-73978285D01*
X56725142Y-73833142D01*
X57305714Y-74268571D02*
X57088000Y-73978285D01*
X56870285Y-74268571D01*
X55926857Y-73615428D02*
X55926857Y-73978285D01*
X56289714Y-73833142D02*
X55926857Y-73978285D01*
X55564000Y-73833142D01*
X56144571Y-74268571D02*
X55926857Y-73978285D01*
X55709142Y-74268571D01*
X105792571Y-71688000D02*
X105937714Y-71615428D01*
X106155428Y-71615428D01*
X106373142Y-71688000D01*
X106518285Y-71833142D01*
X106590857Y-71978285D01*
X106663428Y-72268571D01*
X106663428Y-72486285D01*
X106590857Y-72776571D01*
X106518285Y-72921714D01*
X106373142Y-73066857D01*
X106155428Y-73139428D01*
X106010285Y-73139428D01*
X105792571Y-73066857D01*
X105720000Y-72994285D01*
X105720000Y-72486285D01*
X106010285Y-72486285D01*
X104849142Y-71615428D02*
X104849142Y-71978285D01*
X105212000Y-71833142D02*
X104849142Y-71978285D01*
X104486285Y-71833142D01*
X105066857Y-72268571D02*
X104849142Y-71978285D01*
X104631428Y-72268571D01*
X103688000Y-71615428D02*
X103688000Y-71978285D01*
X104050857Y-71833142D02*
X103688000Y-71978285D01*
X103325142Y-71833142D01*
X103905714Y-72268571D02*
X103688000Y-71978285D01*
X103470285Y-72268571D01*
X102526857Y-71615428D02*
X102526857Y-71978285D01*
X102889714Y-71833142D02*
X102526857Y-71978285D01*
X102164000Y-71833142D01*
X102744571Y-72268571D02*
X102526857Y-71978285D01*
X102309142Y-72268571D01*
G36*
X51130363Y-69349746D02*
G01*
X51258612Y-69582953D01*
X51665937Y-70150864D01*
X52203778Y-70767563D01*
X52802838Y-71361941D01*
X53393817Y-71862890D01*
X53907417Y-72199304D01*
X54097741Y-72303563D01*
X54387721Y-72500188D01*
X54502998Y-72638550D01*
X54503594Y-72781240D01*
X54504194Y-73170832D01*
X54504704Y-73766396D01*
X54505100Y-74529423D01*
X54505355Y-75421409D01*
X54505446Y-76403846D01*
X54505372Y-77290645D01*
X54505132Y-78194061D01*
X54504750Y-78972625D01*
X54504250Y-79587770D01*
X54503657Y-80000928D01*
X54502998Y-80173532D01*
X54479417Y-80201116D01*
X54299047Y-80135940D01*
X53977467Y-79932792D01*
X53558393Y-79625870D01*
X53085539Y-79249373D01*
X52602622Y-78837502D01*
X52153356Y-78424454D01*
X51781456Y-78044430D01*
X51705510Y-77958912D01*
X51326689Y-77484559D01*
X51026016Y-77032937D01*
X50862909Y-76691557D01*
X50844657Y-76605356D01*
X50804703Y-76200065D01*
X50775671Y-75552840D01*
X50758202Y-74690362D01*
X50752937Y-73639312D01*
X50760516Y-72426373D01*
X50802198Y-68658241D01*
X51130363Y-69349746D01*
G37*
G36*
X62160231Y-64432296D02*
G01*
X62332173Y-64555894D01*
X62507460Y-64829684D01*
X62734615Y-65308791D01*
X62754665Y-65353311D01*
X62959902Y-65789605D01*
X63120820Y-66098616D01*
X63204085Y-66215934D01*
X63208136Y-66214582D01*
X63303159Y-66075368D01*
X63475534Y-65752196D01*
X63691051Y-65308791D01*
X63695144Y-65300050D01*
X63930294Y-64825074D01*
X64111167Y-64553727D01*
X64286912Y-64431476D01*
X64506678Y-64403785D01*
X64585622Y-64405312D01*
X64771088Y-64440335D01*
X64701983Y-64529898D01*
X64673273Y-64555237D01*
X64582036Y-64811938D01*
X64554307Y-65234425D01*
X64582169Y-65737464D01*
X64657702Y-66235816D01*
X64772987Y-66644247D01*
X64920103Y-66877520D01*
X65030454Y-66963202D01*
X65047057Y-67031572D01*
X64813573Y-67025873D01*
X64776289Y-67022512D01*
X64602609Y-66980234D01*
X64504878Y-66853872D01*
X64456565Y-66578422D01*
X64431139Y-66088878D01*
X64421284Y-65852962D01*
X64386265Y-65377034D01*
X64334105Y-65154501D01*
X64257098Y-65166484D01*
X64147539Y-65394106D01*
X64082566Y-65554412D01*
X63909358Y-65962646D01*
X63706675Y-66425274D01*
X63395863Y-67123077D01*
X62864157Y-66006593D01*
X62332452Y-64890110D01*
X62324193Y-65890293D01*
X62331522Y-66342321D01*
X62384937Y-66781225D01*
X62490384Y-66961050D01*
X62515364Y-66981713D01*
X62391182Y-67012805D01*
X62073542Y-67019654D01*
X61898896Y-67012408D01*
X61622946Y-66960095D01*
X61604474Y-66856039D01*
X61611510Y-66845886D01*
X61685450Y-66615144D01*
X61762772Y-66197535D01*
X61827832Y-65675728D01*
X61853946Y-65384480D01*
X61872726Y-64924630D01*
X61835752Y-64657389D01*
X61738659Y-64526492D01*
X61712615Y-64508800D01*
X61693735Y-64429820D01*
X61937980Y-64403785D01*
X61943109Y-64403765D01*
X62160231Y-64432296D01*
G37*
G36*
X64269780Y-66983516D02*
G01*
X64200000Y-67053296D01*
X64130220Y-66983516D01*
X64200000Y-66913736D01*
X64269780Y-66983516D01*
G37*
G36*
X47801648Y-87010439D02*
G01*
X47801648Y-81253571D01*
X49615990Y-81253571D01*
X49732416Y-81347967D01*
X50054366Y-81530973D01*
X50532201Y-81775567D01*
X51116265Y-82055215D01*
X51138042Y-82065349D01*
X52125381Y-82553358D01*
X53185404Y-83125223D01*
X54252440Y-83741779D01*
X55260814Y-84363861D01*
X56144855Y-84952305D01*
X56838890Y-85467946D01*
X56963375Y-85568097D01*
X57351037Y-85874267D01*
X57629779Y-86085588D01*
X57746032Y-86161128D01*
X57759972Y-86152106D01*
X57936033Y-86022621D01*
X58280102Y-85763931D01*
X58751015Y-85407089D01*
X59307606Y-84983147D01*
X60277284Y-84278660D01*
X61466575Y-83494913D01*
X62660798Y-82784902D01*
X63791638Y-82188942D01*
X64790777Y-81747350D01*
X64904015Y-81703048D01*
X65360071Y-81509740D01*
X65680770Y-81349581D01*
X65802590Y-81253571D01*
X65800978Y-81249850D01*
X65640999Y-81217899D01*
X65249033Y-81190183D01*
X64667515Y-81168346D01*
X63938875Y-81154037D01*
X63105546Y-81148901D01*
X60406147Y-81148901D01*
X60426586Y-81925126D01*
X60423961Y-82247233D01*
X60386953Y-82607546D01*
X60321063Y-82779201D01*
X60204577Y-82755236D01*
X59896992Y-82602723D01*
X59456544Y-82342224D01*
X58935422Y-82002975D01*
X57675742Y-81148901D01*
X53645838Y-81148901D01*
X53388299Y-81149114D01*
X52380508Y-81154217D01*
X51477988Y-81165448D01*
X50715507Y-81181901D01*
X50127834Y-81202675D01*
X49749739Y-81226866D01*
X49615990Y-81253571D01*
X47801648Y-81253571D01*
X47801648Y-80579874D01*
X49613068Y-80579874D01*
X53173292Y-80564265D01*
X54015201Y-80558030D01*
X54895146Y-80545479D01*
X55643943Y-80528224D01*
X56224599Y-80507357D01*
X56600122Y-80483970D01*
X56733516Y-80459155D01*
X56655440Y-80340424D01*
X56424546Y-80081870D01*
X56094301Y-79747464D01*
X55989100Y-79645569D01*
X55731699Y-79394058D01*
X55522622Y-79166429D01*
X55356437Y-78932387D01*
X55227711Y-78661639D01*
X55131013Y-78323892D01*
X55060911Y-77888850D01*
X55011974Y-77326222D01*
X54978769Y-76605712D01*
X54955864Y-75697026D01*
X54937829Y-74569872D01*
X54919231Y-73193956D01*
X54849992Y-68139542D01*
X55199661Y-68139542D01*
X55201651Y-68169820D01*
X55327282Y-68506114D01*
X55620829Y-68974851D01*
X56044046Y-69531205D01*
X56558686Y-70130355D01*
X57126503Y-70727475D01*
X57709251Y-71277742D01*
X58268681Y-71736333D01*
X58567210Y-71943078D01*
X59069196Y-72246821D01*
X59575386Y-72513587D01*
X60007602Y-72703148D01*
X60287668Y-72775274D01*
X60347709Y-72800026D01*
X60398151Y-72898903D01*
X60436443Y-73101256D01*
X60464184Y-73436357D01*
X60482975Y-73933478D01*
X60494416Y-74621891D01*
X60500107Y-75530870D01*
X60501648Y-76689685D01*
X60501648Y-80604096D01*
X63024902Y-80563823D01*
X63772044Y-80548433D01*
X64502687Y-80525854D01*
X65095237Y-80499378D01*
X65502689Y-80471142D01*
X65678036Y-80443280D01*
X65685749Y-80430200D01*
X65714462Y-80209069D01*
X65738186Y-79733474D01*
X65756623Y-79023215D01*
X65769475Y-78098090D01*
X65776444Y-76977898D01*
X65777232Y-75682436D01*
X65771541Y-74231504D01*
X65735165Y-68100000D01*
X60466758Y-68069762D01*
X60297908Y-68068843D01*
X59127441Y-68065370D01*
X58053692Y-68067092D01*
X57107060Y-68073607D01*
X56317943Y-68084512D01*
X55716739Y-68099405D01*
X55333846Y-68117882D01*
X55199661Y-68139542D01*
X54849992Y-68139542D01*
X54849450Y-68100000D01*
X49685714Y-68100000D01*
X49613068Y-80579874D01*
X47801648Y-80579874D01*
X47801648Y-67471978D01*
X49615934Y-67471978D01*
X65804945Y-67471978D01*
X65804945Y-63703846D01*
X49615934Y-63703846D01*
X49615934Y-67471978D01*
X47801648Y-67471978D01*
X47801648Y-62029121D01*
X67898351Y-62029121D01*
X67898351Y-87010439D01*
X47801648Y-87010439D01*
G37*
G36*
X55729215Y-64412806D02*
G01*
X55943181Y-64441454D01*
X55931044Y-64494076D01*
X55878666Y-64553850D01*
X55804366Y-64835791D01*
X55762494Y-65269680D01*
X55753288Y-65773573D01*
X55776989Y-66265525D01*
X55833835Y-66663590D01*
X55924066Y-66885824D01*
X55979873Y-66970513D01*
X55879514Y-67029858D01*
X55540275Y-67037107D01*
X55399209Y-67030450D01*
X55191658Y-67000646D01*
X55214458Y-66960711D01*
X55344100Y-66858034D01*
X55447348Y-66563632D01*
X55518269Y-66036297D01*
X55546117Y-65627067D01*
X55549636Y-65266668D01*
X55522524Y-65100880D01*
X55455386Y-65128289D01*
X55231553Y-65317613D01*
X54895171Y-65647044D01*
X54488846Y-66076373D01*
X53529277Y-67123077D01*
X53526452Y-65908857D01*
X53526247Y-65845535D01*
X53513870Y-65257363D01*
X53475677Y-64884618D01*
X53401055Y-64669045D01*
X53279395Y-64552387D01*
X53178195Y-64472783D01*
X53262206Y-64427662D01*
X53593406Y-64422081D01*
X53741250Y-64428073D01*
X53941032Y-64456935D01*
X53907417Y-64497851D01*
X53842043Y-64522351D01*
X53731967Y-64651589D01*
X53679426Y-64930668D01*
X53667830Y-65423694D01*
X53672473Y-66285714D01*
X53962047Y-65936813D01*
X54281315Y-65558464D01*
X54776128Y-65012332D01*
X55161272Y-64656909D01*
X55467253Y-64465813D01*
X55724577Y-64412666D01*
X55729215Y-64412806D01*
G37*
G36*
X50714355Y-66703166D02*
G01*
X51011538Y-66873262D01*
X51049892Y-66890990D01*
X51246989Y-66992224D01*
X51206173Y-67031999D01*
X50906868Y-67043851D01*
X50690622Y-67038422D01*
X50499817Y-66957365D01*
X50455434Y-66739285D01*
X50481982Y-66569019D01*
X50560104Y-66568696D01*
X50714355Y-66703166D01*
G37*
G36*
X57455388Y-65607552D02*
G01*
X57454948Y-65619276D01*
X57447529Y-66304583D01*
X57487431Y-66731571D01*
X57576205Y-66917028D01*
X57597487Y-66949898D01*
X57460379Y-67003209D01*
X57133454Y-67027685D01*
X56806187Y-67021887D01*
X56675267Y-66982280D01*
X56768406Y-66897865D01*
X56854196Y-66831857D01*
X56951200Y-66643328D01*
X56999523Y-66303326D01*
X57012637Y-65748449D01*
X56995153Y-65246062D01*
X56936368Y-64801497D01*
X56845165Y-64569120D01*
X56795621Y-64511222D01*
X56821894Y-64424922D01*
X57089395Y-64401322D01*
X57501099Y-64400996D01*
X57455388Y-65607552D01*
G37*
G36*
X51643552Y-64401751D02*
G01*
X52067194Y-64410771D01*
X52278842Y-64450798D01*
X52334246Y-64544779D01*
X52289154Y-64715659D01*
X52242918Y-64901964D01*
X52201024Y-65340387D01*
X52203606Y-65848937D01*
X52245318Y-66340540D01*
X52320815Y-66728126D01*
X52424753Y-66924619D01*
X52461353Y-66958711D01*
X52363147Y-67010969D01*
X52023450Y-67017641D01*
X51880613Y-67009344D01*
X51590615Y-66953858D01*
X51571457Y-66856235D01*
X51591816Y-66830066D01*
X51675431Y-66569297D01*
X51709341Y-66188022D01*
X51697139Y-65915025D01*
X51619381Y-65709940D01*
X51437154Y-65657692D01*
X51264893Y-65697761D01*
X51022717Y-65901923D01*
X50946934Y-66007726D01*
X50896321Y-65956360D01*
X50887240Y-65657692D01*
X50889696Y-65570620D01*
X50917671Y-65346231D01*
X50964406Y-65343681D01*
X51085388Y-65453985D01*
X51372069Y-65518131D01*
X51565121Y-65495983D01*
X51682650Y-65360622D01*
X51709341Y-65029670D01*
X51687846Y-64709302D01*
X51574341Y-64569151D01*
X51297594Y-64541208D01*
X50998986Y-64593087D01*
X50747033Y-64785439D01*
X50693966Y-64875090D01*
X50628780Y-64924299D01*
X50630237Y-64715659D01*
X50664561Y-64545887D01*
X50781847Y-64450470D01*
X51047269Y-64410032D01*
X51526245Y-64401648D01*
X51643552Y-64401751D01*
G37*
G36*
X60488798Y-66384620D02*
G01*
X60676544Y-66752799D01*
X60810243Y-66931952D01*
X60829446Y-66946330D01*
X60783013Y-67006165D01*
X60522646Y-67023321D01*
X60462966Y-67020718D01*
X60233521Y-66980808D01*
X60222244Y-66913911D01*
X60304471Y-66770532D01*
X60285271Y-66446926D01*
X60234281Y-66289350D01*
X60069283Y-66118193D01*
X59733868Y-66076373D01*
X59418428Y-66120306D01*
X59178466Y-66331315D01*
X59105766Y-66750700D01*
X59015841Y-66925740D01*
X58687574Y-67012750D01*
X58422702Y-67019829D01*
X58350337Y-66947595D01*
X58466015Y-66733629D01*
X58487654Y-66697215D01*
X58639717Y-66378603D01*
X58835533Y-65901189D01*
X58870663Y-65806338D01*
X59385165Y-65806338D01*
X59476681Y-65893201D01*
X59743470Y-65936813D01*
X59880474Y-65931743D01*
X60035864Y-65853990D01*
X60005710Y-65622802D01*
X59905588Y-65321891D01*
X59773485Y-65061649D01*
X59656352Y-65053405D01*
X59534539Y-65282986D01*
X59431119Y-65591545D01*
X59385165Y-65806338D01*
X58870663Y-65806338D01*
X59038326Y-65353648D01*
X59171152Y-64999940D01*
X59398511Y-64538128D01*
X59594328Y-64351581D01*
X59760378Y-64439158D01*
X59898437Y-64799715D01*
X59927549Y-64908893D01*
X60081674Y-65386370D01*
X60260607Y-65853990D01*
X60279633Y-65903711D01*
X60488798Y-66384620D01*
G37*
G36*
X61101029Y-69071272D02*
G01*
X61294874Y-69433312D01*
X61561134Y-69880771D01*
X62085950Y-70553192D01*
X62723699Y-71219354D01*
X63396794Y-71800230D01*
X64027647Y-72216793D01*
X64688461Y-72565454D01*
X64688461Y-76368716D01*
X64688044Y-76837670D01*
X64682303Y-77946068D01*
X64669084Y-78804727D01*
X64647451Y-79435149D01*
X64616467Y-79858831D01*
X64575194Y-80097274D01*
X64522696Y-80171978D01*
X64505328Y-80170236D01*
X64274980Y-80060454D01*
X63903474Y-79811248D01*
X63447019Y-79466598D01*
X62961820Y-79070485D01*
X62504087Y-78666889D01*
X62130026Y-78299792D01*
X61805775Y-77955818D01*
X61531762Y-77651046D01*
X61321526Y-77371071D01*
X61166508Y-77077909D01*
X61058149Y-76733573D01*
X60987891Y-76300080D01*
X60947176Y-75739444D01*
X60927443Y-75013681D01*
X60920136Y-74084806D01*
X60916694Y-72914835D01*
X60916495Y-72854969D01*
X60913460Y-71843753D01*
X60911287Y-70920803D01*
X60910020Y-70124289D01*
X60909702Y-69492382D01*
X60910378Y-69063252D01*
X60912090Y-68875070D01*
X60962763Y-68872538D01*
X61101029Y-69071272D01*
G37*
G36*
X106651334Y-71307000D02*
G01*
X106609000Y-71349333D01*
X106566667Y-71307000D01*
X106609000Y-71264667D01*
X106651334Y-71307000D01*
G37*
G36*
X99624000Y-65973000D02*
G01*
X99581667Y-66015333D01*
X99539334Y-65973000D01*
X99581667Y-65930667D01*
X99624000Y-65973000D01*
G37*
G36*
X100720211Y-65330660D02*
G01*
X100773308Y-65448626D01*
X100768826Y-65530865D01*
X100696712Y-65568570D01*
X100629518Y-65518654D01*
X100601864Y-65400510D01*
X100674263Y-65316833D01*
X100720211Y-65330660D01*
G37*
G36*
X97761334Y-71391667D02*
G01*
X97719000Y-71434000D01*
X97676667Y-71391667D01*
X97719000Y-71349333D01*
X97761334Y-71391667D01*
G37*
G36*
X95983334Y-68555333D02*
G01*
X95977224Y-68600155D01*
X95926889Y-68611778D01*
X95916756Y-68599368D01*
X95926889Y-68498889D01*
X95952356Y-68485643D01*
X95983334Y-68555333D01*
G37*
G36*
X104920589Y-72886564D02*
G01*
X104939906Y-73104828D01*
X104949561Y-73487167D01*
X104949919Y-73656789D01*
X104938919Y-74005680D01*
X104912676Y-74232049D01*
X104873334Y-74312667D01*
X104858450Y-74303695D01*
X104823477Y-74181267D01*
X104803485Y-73951261D01*
X104798475Y-73659572D01*
X104808446Y-73352092D01*
X104833399Y-73074714D01*
X104873334Y-72873333D01*
X104891855Y-72834368D01*
X104920589Y-72886564D01*
G37*
G36*
X95553316Y-72061944D02*
G01*
X95547330Y-72147818D01*
X95508848Y-72173069D01*
X95492070Y-72143115D01*
X95502164Y-72010792D01*
X95532639Y-71971602D01*
X95553316Y-72061944D01*
G37*
G36*
X96256685Y-72450576D02*
G01*
X96267068Y-72567619D01*
X96244223Y-72815596D01*
X96187851Y-73212000D01*
X96173905Y-73304484D01*
X96122713Y-73675859D01*
X96084237Y-74004403D01*
X96065932Y-74228000D01*
X96063103Y-74280910D01*
X96041843Y-74416629D01*
X96011608Y-74417541D01*
X96004090Y-74331189D01*
X96011032Y-74110481D01*
X96031875Y-73803162D01*
X96062508Y-73451831D01*
X96098819Y-73099091D01*
X96136697Y-72787539D01*
X96172029Y-72559778D01*
X96200705Y-72458407D01*
X96213373Y-72446974D01*
X96256685Y-72450576D01*
G37*
G36*
X102418000Y-73085000D02*
G01*
X102375667Y-73127333D01*
X102333334Y-73085000D01*
X102375667Y-73042667D01*
X102418000Y-73085000D01*
G37*
G36*
X100047334Y-65034611D02*
G01*
X100029910Y-65100497D01*
X99913278Y-65168667D01*
X99849586Y-65154491D01*
X99812737Y-65068125D01*
X99896430Y-64956677D01*
X99997980Y-64941893D01*
X100047334Y-65034611D01*
G37*
G36*
X99624000Y-66396333D02*
G01*
X99581667Y-66438667D01*
X99539334Y-66396333D01*
X99581667Y-66354000D01*
X99624000Y-66396333D01*
G37*
G36*
X102248667Y-73762333D02*
G01*
X102206334Y-73804667D01*
X102164000Y-73762333D01*
X102206334Y-73720000D01*
X102248667Y-73762333D01*
G37*
G36*
X98139265Y-65941776D02*
G01*
X98133441Y-66029721D01*
X98116556Y-66085683D01*
X98206921Y-66077087D01*
X98294561Y-66068455D01*
X98442844Y-66147366D01*
X98496667Y-66231776D01*
X98449034Y-66269333D01*
X98413850Y-66261813D01*
X98352704Y-66163500D01*
X98337487Y-66115573D01*
X98268037Y-66184667D01*
X98256744Y-66201609D01*
X98180996Y-66269097D01*
X98101297Y-66184667D01*
X98070626Y-66134966D01*
X98021740Y-65982702D01*
X98104997Y-65930667D01*
X98139265Y-65941776D01*
G37*
G36*
X97388419Y-67272251D02*
G01*
X97362283Y-67309863D01*
X97290670Y-67370000D01*
X97278834Y-67369176D01*
X97260189Y-67320165D01*
X97351082Y-67234915D01*
X97398398Y-67214314D01*
X97388419Y-67272251D01*
G37*
G36*
X108514000Y-69529000D02*
G01*
X108471667Y-69571333D01*
X108429334Y-69529000D01*
X108471667Y-69486667D01*
X108514000Y-69529000D01*
G37*
G36*
X99878000Y-71318289D02*
G01*
X99877377Y-71331880D01*
X99821556Y-71462222D01*
X99809827Y-71472301D01*
X99721367Y-71474922D01*
X99713122Y-71438759D01*
X99777812Y-71330989D01*
X99835044Y-71286809D01*
X99878000Y-71318289D01*
G37*
G36*
X101001790Y-65058996D02*
G01*
X101063334Y-65173663D01*
X101060910Y-65192566D01*
X100978667Y-65253333D01*
X100938205Y-65237179D01*
X100894000Y-65121336D01*
X100906184Y-65060860D01*
X100978667Y-65041667D01*
X101001790Y-65058996D01*
G37*
G36*
X110726968Y-77047024D02*
G01*
X110800000Y-77154888D01*
X110768888Y-77236861D01*
X110616132Y-77260722D01*
X110508134Y-77232219D01*
X110403911Y-77147490D01*
X110425952Y-77061387D01*
X110581278Y-77022000D01*
X110726968Y-77047024D01*
G37*
G36*
X97441424Y-71013896D02*
G01*
X97549667Y-71095333D01*
X97557632Y-71138954D01*
X97469997Y-71180000D01*
X97406916Y-71169638D01*
X97338000Y-71095333D01*
X97340281Y-71075245D01*
X97417670Y-71010667D01*
X97441424Y-71013896D01*
G37*
G36*
X98035571Y-67203127D02*
G01*
X98100000Y-67285333D01*
X98097540Y-67305571D01*
X98015334Y-67370000D01*
X97995096Y-67367540D01*
X97930667Y-67285333D01*
X97933127Y-67265096D01*
X98015334Y-67200667D01*
X98035571Y-67203127D01*
G37*
G36*
X100400009Y-64935197D02*
G01*
X100470667Y-65023524D01*
X100438731Y-65086958D01*
X100301334Y-65132381D01*
X100202658Y-65111850D01*
X100132000Y-65023524D01*
X100163937Y-64960089D01*
X100301334Y-64914667D01*
X100400009Y-64935197D01*
G37*
G36*
X101232667Y-65211000D02*
G01*
X101190334Y-65253333D01*
X101148000Y-65211000D01*
X101190334Y-65168667D01*
X101232667Y-65211000D01*
G37*
G36*
X97777445Y-70096531D02*
G01*
X97846000Y-70206333D01*
X97842468Y-70264188D01*
X97814034Y-70333333D01*
X97778118Y-70311558D01*
X97676667Y-70206333D01*
X97666581Y-70194025D01*
X97618790Y-70101602D01*
X97708634Y-70079333D01*
X97777445Y-70096531D01*
G37*
G36*
X98431983Y-64695944D02*
G01*
X98425996Y-64781818D01*
X98387514Y-64807069D01*
X98370737Y-64777115D01*
X98380830Y-64644792D01*
X98411306Y-64605602D01*
X98431983Y-64695944D01*
G37*
G36*
X97507059Y-70248727D02*
G01*
X97600820Y-70319803D01*
X97709754Y-70484785D01*
X97784037Y-70647906D01*
X97756846Y-70715339D01*
X97606095Y-70736567D01*
X97487113Y-70741903D01*
X97439670Y-70718667D01*
X97530989Y-70637461D01*
X97575055Y-70602700D01*
X97632044Y-70525427D01*
X97552156Y-70473004D01*
X97451978Y-70397173D01*
X97426541Y-70297426D01*
X97505160Y-70248667D01*
X97507059Y-70248727D01*
G37*
G36*
X102756667Y-68259000D02*
G01*
X102714334Y-68301333D01*
X102672000Y-68259000D01*
X102714334Y-68216667D01*
X102756667Y-68259000D01*
G37*
G36*
X96462285Y-67212520D02*
G01*
X96546359Y-67228567D01*
X96469131Y-67259229D01*
X96393907Y-67294554D01*
X96368294Y-67376408D01*
X96379509Y-67403725D01*
X96326997Y-67454667D01*
X96285693Y-67440297D01*
X96237334Y-67327667D01*
X96271839Y-67249823D01*
X96427834Y-67210488D01*
X96462285Y-67212520D01*
G37*
G36*
X96322000Y-72111333D02*
G01*
X96315890Y-72156155D01*
X96265556Y-72167778D01*
X96255423Y-72155368D01*
X96265556Y-72054889D01*
X96291022Y-72041643D01*
X96322000Y-72111333D01*
G37*
G36*
X106312667Y-64957000D02*
G01*
X106270334Y-64999333D01*
X106228000Y-64957000D01*
X106270334Y-64914667D01*
X106312667Y-64957000D01*
G37*
G36*
X107954593Y-73820942D02*
G01*
X108006000Y-73936663D01*
X108021117Y-74002990D01*
X108111834Y-74008909D01*
X108174293Y-73983825D01*
X108118017Y-74056996D01*
X108069391Y-74144687D01*
X108094754Y-74365750D01*
X108130101Y-74480750D01*
X108092499Y-74552368D01*
X107922994Y-74566667D01*
X107674845Y-74566667D01*
X107791633Y-74235655D01*
X107817619Y-74156646D01*
X107864009Y-73958105D01*
X107858433Y-73854655D01*
X107846860Y-73835500D01*
X107907223Y-73804667D01*
X107954593Y-73820942D01*
G37*
G36*
X96152667Y-71899667D02*
G01*
X96110334Y-71942000D01*
X96068000Y-71899667D01*
X96110334Y-71857333D01*
X96152667Y-71899667D01*
G37*
G36*
X97443557Y-75643328D02*
G01*
X97471048Y-75758216D01*
X97459288Y-75850540D01*
X97404524Y-75921333D01*
X97375343Y-75908891D01*
X97338000Y-75799330D01*
X97343567Y-75747168D01*
X97404524Y-75636213D01*
X97443557Y-75643328D01*
G37*
G36*
X98354000Y-68016289D02*
G01*
X98353377Y-68029880D01*
X98297556Y-68160222D01*
X98285827Y-68170301D01*
X98197367Y-68172922D01*
X98189122Y-68136759D01*
X98253812Y-68028989D01*
X98311044Y-67984809D01*
X98354000Y-68016289D01*
G37*
G36*
X103603334Y-72492333D02*
G01*
X103561000Y-72534667D01*
X103518667Y-72492333D01*
X103561000Y-72450000D01*
X103603334Y-72492333D01*
G37*
G36*
X101740667Y-67835667D02*
G01*
X101698334Y-67878000D01*
X101656000Y-67835667D01*
X101698334Y-67793333D01*
X101740667Y-67835667D01*
G37*
G36*
X99031334Y-69783000D02*
G01*
X98989000Y-69825333D01*
X98946667Y-69783000D01*
X98989000Y-69740667D01*
X99031334Y-69783000D01*
G37*
G36*
X99454667Y-69783000D02*
G01*
X99412334Y-69825333D01*
X99370000Y-69783000D01*
X99412334Y-69740667D01*
X99454667Y-69783000D01*
G37*
G36*
X110292000Y-74609000D02*
G01*
X110249667Y-74651333D01*
X110207334Y-74609000D01*
X110249667Y-74566667D01*
X110292000Y-74609000D01*
G37*
G36*
X105042667Y-74863000D02*
G01*
X105000334Y-74905333D01*
X104958000Y-74863000D01*
X105000334Y-74820667D01*
X105042667Y-74863000D01*
G37*
G36*
X109191334Y-75879000D02*
G01*
X109149000Y-75921333D01*
X109106667Y-75879000D01*
X109149000Y-75836667D01*
X109191334Y-75879000D01*
G37*
G36*
X112916667Y-73974000D02*
G01*
X112910557Y-74018822D01*
X112860223Y-74030444D01*
X112850090Y-74018035D01*
X112860223Y-73917555D01*
X112885689Y-73904310D01*
X112916667Y-73974000D01*
G37*
G36*
X96980364Y-75065509D02*
G01*
X97067773Y-75152983D01*
X97062374Y-75201040D01*
X96957000Y-75244000D01*
X96887099Y-75230186D01*
X96846228Y-75152983D01*
X96857726Y-75127881D01*
X96957000Y-75061967D01*
X96980364Y-75065509D01*
G37*
G36*
X97168667Y-67243000D02*
G01*
X97126334Y-67285333D01*
X97084000Y-67243000D01*
X97126334Y-67200667D01*
X97168667Y-67243000D01*
G37*
G36*
X100413893Y-65284690D02*
G01*
X100470667Y-65415611D01*
X100453608Y-65510571D01*
X100364834Y-65620593D01*
X100252228Y-65658393D01*
X100160327Y-65628853D01*
X100111278Y-65465000D01*
X100100449Y-65395670D01*
X100127321Y-65280463D01*
X100270741Y-65253333D01*
X100413893Y-65284690D01*
G37*
G36*
X102672000Y-64279667D02*
G01*
X102629667Y-64322000D01*
X102587334Y-64279667D01*
X102629667Y-64237333D01*
X102672000Y-64279667D01*
G37*
G36*
X106058667Y-64025667D02*
G01*
X106016334Y-64068000D01*
X105974000Y-64025667D01*
X106016334Y-63983333D01*
X106058667Y-64025667D01*
G37*
G36*
X96406667Y-71899667D02*
G01*
X96364334Y-71942000D01*
X96322000Y-71899667D01*
X96364334Y-71857333D01*
X96406667Y-71899667D01*
G37*
G36*
X105889334Y-72915667D02*
G01*
X105847000Y-72958000D01*
X105804667Y-72915667D01*
X105847000Y-72873333D01*
X105889334Y-72915667D01*
G37*
G36*
X96230256Y-69728104D02*
G01*
X96208117Y-69864015D01*
X96150834Y-69974849D01*
X96110654Y-69970297D01*
X96129013Y-69821975D01*
X96165535Y-69725079D01*
X96216213Y-69691324D01*
X96230256Y-69728104D01*
G37*
G36*
X107159334Y-71899667D02*
G01*
X107117000Y-71942000D01*
X107074667Y-71899667D01*
X107117000Y-71857333D01*
X107159334Y-71899667D01*
G37*
G36*
X112916667Y-71307000D02*
G01*
X112874334Y-71349333D01*
X112832000Y-71307000D01*
X112874334Y-71264667D01*
X112916667Y-71307000D01*
G37*
G36*
X100555334Y-68428333D02*
G01*
X100513000Y-68470667D01*
X100470667Y-68428333D01*
X100513000Y-68386000D01*
X100555334Y-68428333D01*
G37*
G36*
X103264667Y-75201667D02*
G01*
X103222334Y-75244000D01*
X103180000Y-75201667D01*
X103222334Y-75159333D01*
X103264667Y-75201667D01*
G37*
G36*
X101141316Y-72993278D02*
G01*
X101135330Y-73079152D01*
X101096848Y-73104403D01*
X101080070Y-73074449D01*
X101090164Y-72942125D01*
X101120639Y-72902935D01*
X101141316Y-72993278D01*
G37*
G36*
X104946105Y-77202684D02*
G01*
X104839962Y-77267201D01*
X104688415Y-77261896D01*
X104571150Y-77181867D01*
X104568026Y-77176504D01*
X104570490Y-77149000D01*
X104704000Y-77149000D01*
X104746334Y-77191333D01*
X104788667Y-77149000D01*
X104746334Y-77106667D01*
X104704000Y-77149000D01*
X104570490Y-77149000D01*
X104577932Y-77065949D01*
X104691068Y-76991743D01*
X104844489Y-76996558D01*
X104890342Y-77024264D01*
X104953419Y-77149000D01*
X104958000Y-77158058D01*
X104946105Y-77202684D01*
G37*
G36*
X99624000Y-66184667D02*
G01*
X99617890Y-66229489D01*
X99567556Y-66241111D01*
X99557423Y-66228702D01*
X99567556Y-66128222D01*
X99593022Y-66114976D01*
X99624000Y-66184667D01*
G37*
G36*
X96491334Y-67581667D02*
G01*
X96449000Y-67624000D01*
X96406667Y-67581667D01*
X96449000Y-67539333D01*
X96491334Y-67581667D01*
G37*
G36*
X99454667Y-65211000D02*
G01*
X99412334Y-65253333D01*
X99370000Y-65211000D01*
X99412334Y-65168667D01*
X99454667Y-65211000D01*
G37*
G36*
X97599922Y-72068909D02*
G01*
X97676667Y-72103701D01*
X97646070Y-72125379D01*
X97495014Y-72149373D01*
X97268694Y-72159938D01*
X97024703Y-72156799D01*
X96820635Y-72139680D01*
X96714085Y-72108307D01*
X96751462Y-72087905D01*
X96917302Y-72065752D01*
X97175190Y-72050474D01*
X97400637Y-72050219D01*
X97599922Y-72068909D01*
G37*
G36*
X105296667Y-68259000D02*
G01*
X105254334Y-68301333D01*
X105212000Y-68259000D01*
X105254334Y-68216667D01*
X105296667Y-68259000D01*
G37*
G36*
X101232667Y-75752000D02*
G01*
X101226557Y-75796822D01*
X101176223Y-75808444D01*
X101166090Y-75796035D01*
X101176223Y-75695555D01*
X101201689Y-75682310D01*
X101232667Y-75752000D01*
G37*
G36*
X97013305Y-74639178D02*
G01*
X97013113Y-74639294D01*
X97012887Y-74638530D01*
X97013305Y-74639178D01*
G37*
G36*
X99166419Y-64816918D02*
G01*
X99140283Y-64854530D01*
X99068670Y-64914667D01*
X99056834Y-64913842D01*
X99038189Y-64864832D01*
X99129082Y-64779582D01*
X99176398Y-64758981D01*
X99166419Y-64816918D01*
G37*
G36*
X97930667Y-69952333D02*
G01*
X97888334Y-69994667D01*
X97846000Y-69952333D01*
X97888334Y-69910000D01*
X97930667Y-69952333D01*
G37*
G36*
X98262176Y-66746147D02*
G01*
X98230482Y-66856367D01*
X98208730Y-66884356D01*
X98084637Y-66946667D01*
X98047098Y-66924079D01*
X98101699Y-66817620D01*
X98196472Y-66737104D01*
X98262176Y-66746147D01*
G37*
G36*
X112916667Y-67751000D02*
G01*
X112874334Y-67793333D01*
X112832000Y-67751000D01*
X112874334Y-67708667D01*
X112916667Y-67751000D01*
G37*
G36*
X104111334Y-70968333D02*
G01*
X104069000Y-71010667D01*
X104026667Y-70968333D01*
X104069000Y-70926000D01*
X104111334Y-70968333D01*
G37*
G36*
X100894000Y-66396333D02*
G01*
X100851667Y-66438667D01*
X100809334Y-66396333D01*
X100851667Y-66354000D01*
X100894000Y-66396333D01*
G37*
G36*
X110376667Y-67666333D02*
G01*
X110334334Y-67708667D01*
X110292000Y-67666333D01*
X110334334Y-67624000D01*
X110376667Y-67666333D01*
G37*
G36*
X97727585Y-68643896D02*
G01*
X97803667Y-68724667D01*
X97816897Y-68757463D01*
X97766331Y-68809333D01*
X97741755Y-68806080D01*
X97676667Y-68724667D01*
X97677638Y-68705506D01*
X97714004Y-68640000D01*
X97727585Y-68643896D01*
G37*
G36*
X99607495Y-65634333D02*
G01*
X99607611Y-65654384D01*
X99596259Y-65786926D01*
X99568465Y-65784111D01*
X99552932Y-65714541D01*
X99565327Y-65530111D01*
X99569517Y-65515554D01*
X99595286Y-65503019D01*
X99607495Y-65634333D01*
G37*
G36*
X112578000Y-71899667D02*
G01*
X112535667Y-71942000D01*
X112493334Y-71899667D01*
X112535667Y-71857333D01*
X112578000Y-71899667D01*
G37*
G36*
X101317334Y-66227000D02*
G01*
X101275000Y-66269333D01*
X101232667Y-66227000D01*
X101275000Y-66184667D01*
X101317334Y-66227000D01*
G37*
G36*
X103772667Y-66481000D02*
G01*
X103730334Y-66523333D01*
X103688000Y-66481000D01*
X103730334Y-66438667D01*
X103772667Y-66481000D01*
G37*
G36*
X97496465Y-74066980D02*
G01*
X97558039Y-74092887D01*
X97484386Y-74151111D01*
X97405225Y-74218299D01*
X97383550Y-74317870D01*
X97387625Y-74324551D01*
X97411215Y-74395428D01*
X97343801Y-74358796D01*
X97211000Y-74228000D01*
X97190228Y-74204971D01*
X97113572Y-74103412D01*
X97157370Y-74065555D01*
X97346045Y-74061241D01*
X97496465Y-74066980D01*
G37*
G36*
X105466000Y-74270333D02*
G01*
X105423667Y-74312667D01*
X105381334Y-74270333D01*
X105423667Y-74228000D01*
X105466000Y-74270333D01*
G37*
G36*
X106143334Y-67581667D02*
G01*
X106101000Y-67624000D01*
X106058667Y-67581667D01*
X106101000Y-67539333D01*
X106143334Y-67581667D01*
G37*
G36*
X98377302Y-64968539D02*
G01*
X98380909Y-65072903D01*
X98303335Y-65239535D01*
X98267853Y-65288361D01*
X98162500Y-65404185D01*
X98122794Y-65401449D01*
X98170247Y-65274500D01*
X98213066Y-65184844D01*
X98284725Y-65003503D01*
X98313616Y-64946822D01*
X98377302Y-64968539D01*
G37*
G36*
X98397049Y-66388249D02*
G01*
X98502551Y-66505687D01*
X98487358Y-66739812D01*
X98460440Y-66833531D01*
X98405646Y-66939345D01*
X98378207Y-66889246D01*
X98396334Y-66692667D01*
X98405308Y-66561835D01*
X98349672Y-66444762D01*
X98229243Y-66465349D01*
X98072435Y-66629167D01*
X98015146Y-66707587D01*
X97952829Y-66756339D01*
X97935108Y-66671500D01*
X97946508Y-66592880D01*
X98020331Y-66523333D01*
X98047355Y-66519654D01*
X98068768Y-66456628D01*
X98091254Y-66408857D01*
X98228908Y-66373257D01*
X98397049Y-66388249D01*
G37*
G36*
X99966778Y-65298207D02*
G01*
X100008559Y-65342151D01*
X99967513Y-65459161D01*
X99931477Y-65518553D01*
X99935180Y-65620957D01*
X99949046Y-65642540D01*
X99892643Y-65676667D01*
X99858752Y-65665844D01*
X99826888Y-65540328D01*
X99871709Y-65269503D01*
X99880063Y-65263770D01*
X99966778Y-65298207D01*
G37*
G36*
X102502667Y-67073667D02*
G01*
X102460334Y-67116000D01*
X102418000Y-67073667D01*
X102460334Y-67031333D01*
X102502667Y-67073667D01*
G37*
G36*
X96158198Y-68287986D02*
G01*
X96198062Y-68433351D01*
X96190168Y-68563152D01*
X96128031Y-68633893D01*
X96083667Y-68580218D01*
X96073367Y-68364833D01*
X96080993Y-68189905D01*
X96104173Y-68168109D01*
X96158198Y-68287986D01*
G37*
G36*
X96393535Y-68818484D02*
G01*
X96364334Y-68978667D01*
X96318036Y-69084452D01*
X96264206Y-69118428D01*
X96250466Y-69054182D01*
X96279667Y-68894000D01*
X96325965Y-68788214D01*
X96379795Y-68754239D01*
X96393535Y-68818484D01*
G37*
G36*
X103180000Y-67751000D02*
G01*
X103137667Y-67793333D01*
X103095334Y-67751000D01*
X103137667Y-67708667D01*
X103180000Y-67751000D01*
G37*
G36*
X99200667Y-72746333D02*
G01*
X99158334Y-72788667D01*
X99116000Y-72746333D01*
X99158334Y-72704000D01*
X99200667Y-72746333D01*
G37*
G36*
X106566667Y-67666333D02*
G01*
X106524334Y-67708667D01*
X106482000Y-67666333D01*
X106524334Y-67624000D01*
X106566667Y-67666333D01*
G37*
G36*
X97451948Y-76040325D02*
G01*
X97447199Y-76175333D01*
X97414934Y-76274856D01*
X97370459Y-76344667D01*
X97351658Y-76313155D01*
X97338000Y-76175333D01*
X97352368Y-76076982D01*
X97414741Y-76006000D01*
X97451948Y-76040325D01*
G37*
G36*
X101910000Y-80239333D02*
G01*
X101903890Y-80284155D01*
X101853556Y-80295778D01*
X101843423Y-80283368D01*
X101853556Y-80182889D01*
X101879022Y-80169643D01*
X101910000Y-80239333D01*
G37*
G36*
X98122228Y-67721604D02*
G01*
X98142334Y-67793333D01*
X98124981Y-67818948D01*
X98057667Y-67878000D01*
X98045421Y-67874016D01*
X97973000Y-67793333D01*
X97966220Y-67748491D01*
X98057667Y-67708667D01*
X98122228Y-67721604D01*
G37*
G36*
X95918905Y-69827793D02*
G01*
X95983334Y-69910000D01*
X95980874Y-69930237D01*
X95898667Y-69994667D01*
X95878430Y-69992206D01*
X95814000Y-69910000D01*
X95816461Y-69889762D01*
X95898667Y-69825333D01*
X95918905Y-69827793D01*
G37*
G36*
X96378445Y-67059555D02*
G01*
X96391691Y-67085022D01*
X96322000Y-67116000D01*
X96277178Y-67109890D01*
X96265556Y-67059555D01*
X96277965Y-67049422D01*
X96378445Y-67059555D01*
G37*
G36*
X104704000Y-71137667D02*
G01*
X104661667Y-71180000D01*
X104619334Y-71137667D01*
X104661667Y-71095333D01*
X104704000Y-71137667D01*
G37*
G36*
X100823018Y-66114367D02*
G01*
X100894000Y-66176740D01*
X100859675Y-66213947D01*
X100724667Y-66209199D01*
X100625144Y-66176933D01*
X100555334Y-66132458D01*
X100586845Y-66113657D01*
X100724667Y-66100000D01*
X100823018Y-66114367D01*
G37*
G36*
X107752000Y-69613667D02*
G01*
X107709667Y-69656000D01*
X107667334Y-69613667D01*
X107709667Y-69571333D01*
X107752000Y-69613667D01*
G37*
G36*
X108768000Y-65211000D02*
G01*
X108725667Y-65253333D01*
X108683334Y-65211000D01*
X108725667Y-65168667D01*
X108768000Y-65211000D01*
G37*
G36*
X101148000Y-66227000D02*
G01*
X101105667Y-66269333D01*
X101063334Y-66227000D01*
X101105667Y-66184667D01*
X101148000Y-66227000D01*
G37*
G36*
X97169355Y-71136934D02*
G01*
X97060125Y-71293370D01*
X97023163Y-71531547D01*
X97044445Y-71633149D01*
X97061446Y-71643520D01*
X97072470Y-71492503D01*
X97104277Y-71339030D01*
X97169588Y-71307569D01*
X97222840Y-71406428D01*
X97237189Y-71596510D01*
X97232372Y-71645744D01*
X97182758Y-71782257D01*
X97066935Y-71792736D01*
X96980685Y-71786923D01*
X96914667Y-71847458D01*
X96910326Y-71876458D01*
X96825004Y-71942000D01*
X96797749Y-71937845D01*
X96780223Y-71869378D01*
X96780390Y-71869103D01*
X96808331Y-71759739D01*
X96850990Y-71518114D01*
X96902594Y-71179731D01*
X96955012Y-70797298D01*
X97102090Y-70797298D01*
X97112223Y-70897778D01*
X97137689Y-70911023D01*
X97168667Y-70841333D01*
X97162557Y-70796511D01*
X97112223Y-70784889D01*
X97102090Y-70797298D01*
X96955012Y-70797298D01*
X96957370Y-70780091D01*
X96994812Y-70486703D01*
X97034023Y-70130662D01*
X97047913Y-69867710D01*
X97035695Y-69652163D01*
X96996581Y-69438337D01*
X96929783Y-69180546D01*
X96769932Y-68597667D01*
X96697850Y-69190333D01*
X96696439Y-69201938D01*
X96659384Y-69507227D01*
X96630523Y-69746079D01*
X96615997Y-69867667D01*
X96537213Y-70516800D01*
X96460224Y-71069296D01*
X96392730Y-71456959D01*
X96334343Y-71681981D01*
X96284679Y-71746552D01*
X96266085Y-71734140D01*
X96200228Y-71603087D01*
X96152667Y-71385048D01*
X96117347Y-71192177D01*
X96047738Y-71082494D01*
X95917510Y-71059972D01*
X95800766Y-71044839D01*
X95752766Y-70982703D01*
X95770851Y-70951724D01*
X95879905Y-70889086D01*
X96006969Y-70878636D01*
X96068000Y-70933491D01*
X96070406Y-70951736D01*
X96152667Y-71010667D01*
X96157879Y-71010156D01*
X96214168Y-70925702D01*
X96237334Y-70740484D01*
X96237334Y-70740181D01*
X96231165Y-70563048D01*
X96195596Y-70534699D01*
X96105015Y-70634651D01*
X96083530Y-70660682D01*
X95984642Y-70741478D01*
X95925433Y-70683586D01*
X95872653Y-70610526D01*
X95795765Y-70683586D01*
X95793075Y-70687340D01*
X95742062Y-70739783D01*
X95763680Y-70643908D01*
X95787906Y-70552416D01*
X95815297Y-70347575D01*
X95815398Y-70339101D01*
X95831589Y-70255040D01*
X95894377Y-70329291D01*
X95927993Y-70398708D01*
X95934033Y-70513940D01*
X95926818Y-70530977D01*
X95969931Y-70621383D01*
X96055907Y-70601009D01*
X96154035Y-70436631D01*
X96251196Y-70146659D01*
X96340009Y-69753444D01*
X96413094Y-69279335D01*
X96445411Y-68998296D01*
X96470889Y-68669680D01*
X96463817Y-68478212D01*
X96424428Y-68406031D01*
X96387281Y-68379598D01*
X96375657Y-68260023D01*
X96375790Y-68197319D01*
X96287268Y-68082835D01*
X96146060Y-68010611D01*
X96025684Y-68029145D01*
X96012394Y-68019635D01*
X96073832Y-67904643D01*
X96182479Y-67782295D01*
X96281446Y-67783617D01*
X96322000Y-67930327D01*
X96335250Y-67989605D01*
X96419749Y-67996915D01*
X96464813Y-67976736D01*
X96460701Y-68028401D01*
X96445553Y-68067640D01*
X96489953Y-68173480D01*
X96548846Y-68155161D01*
X96576000Y-68009997D01*
X96549590Y-67865816D01*
X96472495Y-67793333D01*
X96454247Y-67755125D01*
X96556554Y-67661958D01*
X96803666Y-67570001D01*
X97210142Y-67549436D01*
X97265093Y-67551919D01*
X97533840Y-67580743D01*
X97696401Y-67646119D01*
X97806935Y-67767870D01*
X97882388Y-67926261D01*
X97886856Y-68049725D01*
X97874955Y-68082191D01*
X97936037Y-68132000D01*
X97990672Y-68156168D01*
X97930667Y-68259000D01*
X97906877Y-68288899D01*
X97882887Y-68367552D01*
X98005684Y-68386000D01*
X98072120Y-68388136D01*
X98140244Y-68427689D01*
X98081671Y-68553220D01*
X98052801Y-68594778D01*
X97948030Y-68656701D01*
X97862269Y-68561650D01*
X97800366Y-68319098D01*
X97767167Y-67938521D01*
X97764983Y-67905700D01*
X97722199Y-67831667D01*
X97592000Y-67878000D01*
X97488564Y-67970230D01*
X97429544Y-68198479D01*
X97436420Y-68428333D01*
X97553560Y-68174333D01*
X97670699Y-67920333D01*
X97637064Y-68216667D01*
X97635759Y-68228240D01*
X97611130Y-68478326D01*
X97597715Y-68671533D01*
X97571395Y-68774710D01*
X97483083Y-68739674D01*
X97465203Y-68725742D01*
X97389492Y-68717221D01*
X97357031Y-68856307D01*
X97378448Y-69018883D01*
X97452580Y-69060526D01*
X97539252Y-68957500D01*
X97556082Y-68937520D01*
X97552628Y-69015862D01*
X97527038Y-69168432D01*
X97488518Y-69342833D01*
X97446275Y-69486667D01*
X97438977Y-69504725D01*
X97391071Y-69532942D01*
X97333296Y-69402000D01*
X97288560Y-69268970D01*
X97269506Y-69276511D01*
X97264816Y-69444333D01*
X97252981Y-69666948D01*
X97218574Y-69952333D01*
X97213256Y-69984038D01*
X97201710Y-70085114D01*
X97221811Y-70037000D01*
X97245199Y-69974583D01*
X97354049Y-69804296D01*
X97498206Y-69653580D01*
X97634452Y-69562785D01*
X97719573Y-69572259D01*
X97698289Y-69651105D01*
X97561473Y-69736178D01*
X97556652Y-69738026D01*
X97406885Y-69838084D01*
X97397038Y-69990470D01*
X97405551Y-70109485D01*
X97344459Y-70283217D01*
X97290528Y-70378895D01*
X97355633Y-70451318D01*
X97379398Y-70472436D01*
X97274500Y-70453846D01*
X97133380Y-70445992D01*
X97084000Y-70539294D01*
X97097461Y-70602513D01*
X97184805Y-70650833D01*
X97275602Y-70671301D01*
X97316017Y-70790206D01*
X97305371Y-70841333D01*
X97280043Y-70962976D01*
X97169355Y-71136934D01*
G37*
G36*
X105212000Y-74270333D02*
G01*
X105169667Y-74312667D01*
X105127334Y-74270333D01*
X105169667Y-74228000D01*
X105212000Y-74270333D01*
G37*
G36*
X101232667Y-75963667D02*
G01*
X101190334Y-76006000D01*
X101148000Y-75963667D01*
X101190334Y-75921333D01*
X101232667Y-75963667D01*
G37*
G36*
X101317334Y-65846000D02*
G01*
X101311224Y-65890822D01*
X101260889Y-65902444D01*
X101250756Y-65890035D01*
X101260889Y-65789555D01*
X101286356Y-65776310D01*
X101317334Y-65846000D01*
G37*
G36*
X99370000Y-70841333D02*
G01*
X99363890Y-70886155D01*
X99313556Y-70897778D01*
X99303423Y-70885368D01*
X99313556Y-70784889D01*
X99339022Y-70771643D01*
X99370000Y-70841333D01*
G37*
G36*
X97930667Y-65973000D02*
G01*
X97888334Y-66015333D01*
X97846000Y-65973000D01*
X97888334Y-65930667D01*
X97930667Y-65973000D01*
G37*
G36*
X97325777Y-74828188D02*
G01*
X97420542Y-74898657D01*
X97364459Y-75019986D01*
X97333455Y-75042803D01*
X97201933Y-75038390D01*
X97103403Y-74921208D01*
X97119114Y-74859633D01*
X97246278Y-74820667D01*
X97325777Y-74828188D01*
G37*
G36*
X108768000Y-67751000D02*
G01*
X108725667Y-67793333D01*
X108683334Y-67751000D01*
X108725667Y-67708667D01*
X108768000Y-67751000D01*
G37*
G36*
X100004147Y-65844619D02*
G01*
X100012533Y-65889010D01*
X99925331Y-65930667D01*
X99882583Y-65929010D01*
X99797076Y-65889016D01*
X99872150Y-65807282D01*
X99902679Y-65795777D01*
X100004147Y-65844619D01*
G37*
G36*
X99884478Y-64452561D02*
G01*
X99808795Y-64454110D01*
X99630970Y-64452839D01*
X99537119Y-64448908D01*
X99442811Y-64416208D01*
X99466140Y-64364333D01*
X99793334Y-64364333D01*
X99835667Y-64406667D01*
X99878000Y-64364333D01*
X99835667Y-64322000D01*
X99793334Y-64364333D01*
X99466140Y-64364333D01*
X99479709Y-64334160D01*
X99551024Y-64270860D01*
X99608520Y-64317892D01*
X99663275Y-64360477D01*
X99795696Y-64277528D01*
X99873773Y-64209390D01*
X99930450Y-64189039D01*
X99920394Y-64293519D01*
X99906195Y-64364333D01*
X99903141Y-64379563D01*
X99884478Y-64452561D01*
G37*
G36*
X98100000Y-65211000D02*
G01*
X98057667Y-65253333D01*
X98015334Y-65211000D01*
X98057667Y-65168667D01*
X98100000Y-65211000D01*
G37*
G36*
X101627778Y-80267555D02*
G01*
X101641024Y-80293022D01*
X101571334Y-80324000D01*
X101526512Y-80317890D01*
X101514889Y-80267555D01*
X101527299Y-80257422D01*
X101627778Y-80267555D01*
G37*
G36*
X99454667Y-66481000D02*
G01*
X99412334Y-66523333D01*
X99370000Y-66481000D01*
X99412334Y-66438667D01*
X99454667Y-66481000D01*
G37*
G36*
X104924145Y-74419922D02*
G01*
X104939712Y-74453385D01*
X104908644Y-74578030D01*
X104853312Y-74642105D01*
X104806680Y-74578371D01*
X104796303Y-74499632D01*
X104840446Y-74406019D01*
X104924145Y-74419922D01*
G37*
G36*
X109022000Y-71222333D02*
G01*
X108979667Y-71264667D01*
X108937334Y-71222333D01*
X108979667Y-71180000D01*
X109022000Y-71222333D01*
G37*
G36*
X101155609Y-65388544D02*
G01*
X101153407Y-65451126D01*
X101128582Y-65485697D01*
X101117072Y-65633523D01*
X101101902Y-65710252D01*
X100974937Y-65786841D01*
X100871095Y-65835671D01*
X100843265Y-65917072D01*
X100840199Y-65960022D01*
X100724784Y-65955229D01*
X100625865Y-65914253D01*
X100555334Y-65831128D01*
X100559949Y-65806980D01*
X100633175Y-65799448D01*
X100697228Y-65806001D01*
X100824915Y-65729644D01*
X100929175Y-65598062D01*
X100950822Y-65472226D01*
X100958341Y-65415765D01*
X101071744Y-65374286D01*
X101155609Y-65388544D01*
G37*
G36*
X107836667Y-73593000D02*
G01*
X107794334Y-73635333D01*
X107752000Y-73593000D01*
X107794334Y-73550667D01*
X107836667Y-73593000D01*
G37*
G36*
X99285334Y-71603333D02*
G01*
X99279224Y-71648155D01*
X99228889Y-71659778D01*
X99218756Y-71647368D01*
X99228889Y-71546889D01*
X99254356Y-71533643D01*
X99285334Y-71603333D01*
G37*
G36*
X101818650Y-78835278D02*
G01*
X101812663Y-78921152D01*
X101774181Y-78946403D01*
X101757403Y-78916449D01*
X101767497Y-78784125D01*
X101797972Y-78744935D01*
X101818650Y-78835278D01*
G37*
G36*
X104450000Y-68259000D02*
G01*
X104407667Y-68301333D01*
X104365334Y-68259000D01*
X104407667Y-68216667D01*
X104450000Y-68259000D01*
G37*
G36*
X99200667Y-72577000D02*
G01*
X99158334Y-72619333D01*
X99116000Y-72577000D01*
X99158334Y-72534667D01*
X99200667Y-72577000D01*
G37*
G36*
X98404419Y-67272251D02*
G01*
X98378283Y-67309863D01*
X98306670Y-67370000D01*
X98294834Y-67369176D01*
X98276189Y-67320165D01*
X98367082Y-67234915D01*
X98414398Y-67214314D01*
X98404419Y-67272251D01*
G37*
G36*
X97104301Y-75386922D02*
G01*
X97068943Y-75473809D01*
X97049903Y-75498953D01*
X97035967Y-75572742D01*
X97114340Y-75567482D01*
X97236400Y-75481067D01*
X97321062Y-75426242D01*
X97327093Y-75496698D01*
X97250355Y-75672899D01*
X97224971Y-75719154D01*
X97145890Y-75819265D01*
X97071889Y-75782913D01*
X96966383Y-75600809D01*
X96897275Y-75454541D01*
X96900613Y-75379592D01*
X97001851Y-75364952D01*
X97104301Y-75386922D01*
G37*
G36*
X99793334Y-66311667D02*
G01*
X99751000Y-66354000D01*
X99708667Y-66311667D01*
X99751000Y-66269333D01*
X99793334Y-66311667D01*
G37*
G36*
X98530269Y-72039724D02*
G01*
X98636964Y-72149355D01*
X98648068Y-72217802D01*
X98569919Y-72228249D01*
X98515785Y-72218262D01*
X98399901Y-72274894D01*
X98357379Y-72333531D01*
X98291845Y-72345881D01*
X98269334Y-72196000D01*
X98283325Y-72126119D01*
X98387288Y-72035163D01*
X98530269Y-72039724D01*
G37*
G36*
X112070000Y-66650333D02*
G01*
X112027667Y-66692667D01*
X111985334Y-66650333D01*
X112027667Y-66608000D01*
X112070000Y-66650333D01*
G37*
G36*
X97685054Y-67321763D02*
G01*
X97710279Y-67384111D01*
X97701933Y-67396767D01*
X97634334Y-67454667D01*
X97627825Y-67453522D01*
X97558388Y-67384111D01*
X97551946Y-67351184D01*
X97634334Y-67313555D01*
X97685054Y-67321763D01*
G37*
G36*
X104111334Y-69021000D02*
G01*
X104069000Y-69063333D01*
X104026667Y-69021000D01*
X104069000Y-68978667D01*
X104111334Y-69021000D01*
G37*
G36*
X99454667Y-65380333D02*
G01*
X99412334Y-65422667D01*
X99370000Y-65380333D01*
X99412334Y-65338000D01*
X99454667Y-65380333D01*
G37*
G36*
X111646667Y-66989000D02*
G01*
X111604334Y-67031333D01*
X111562000Y-66989000D01*
X111604334Y-66946667D01*
X111646667Y-66989000D01*
G37*
G36*
X109614667Y-74524333D02*
G01*
X109572334Y-74566667D01*
X109530000Y-74524333D01*
X109572334Y-74482000D01*
X109614667Y-74524333D01*
G37*
G36*
X101385103Y-66371579D02*
G01*
X101317334Y-66438667D01*
X101244806Y-66478584D01*
X101105667Y-66520740D01*
X101080231Y-66505754D01*
X101148000Y-66438667D01*
X101220528Y-66398749D01*
X101359667Y-66356593D01*
X101385103Y-66371579D01*
G37*
G36*
X97818392Y-71521705D02*
G01*
X97896683Y-71554832D01*
X97846000Y-71645667D01*
X97783041Y-71717004D01*
X97719000Y-71772667D01*
X97688545Y-71750589D01*
X97592000Y-71645667D01*
X97551340Y-71589974D01*
X97563983Y-71532166D01*
X97719000Y-71518667D01*
X97818392Y-71521705D01*
G37*
G36*
X97712288Y-69831981D02*
G01*
X97719000Y-69910000D01*
X97701623Y-69935338D01*
X97629337Y-69994667D01*
X97620887Y-69992465D01*
X97592000Y-69910000D01*
X97595446Y-69886794D01*
X97681664Y-69825333D01*
X97712288Y-69831981D01*
G37*
G36*
X109360667Y-71899667D02*
G01*
X109318334Y-71942000D01*
X109276000Y-71899667D01*
X109318334Y-71857333D01*
X109360667Y-71899667D01*
G37*
G36*
X101880313Y-79609702D02*
G01*
X101888649Y-79773667D01*
X101887555Y-79863359D01*
X101874714Y-79984945D01*
X101851828Y-79965154D01*
X101836488Y-79847097D01*
X101850119Y-79626487D01*
X101861190Y-79584827D01*
X101880313Y-79609702D01*
G37*
G36*
X100216667Y-64110333D02*
G01*
X100174334Y-64152667D01*
X100132000Y-64110333D01*
X100174334Y-64068000D01*
X100216667Y-64110333D01*
G37*
G36*
X111731334Y-72492333D02*
G01*
X111689000Y-72534667D01*
X111646667Y-72492333D01*
X111689000Y-72450000D01*
X111731334Y-72492333D01*
G37*
G36*
X101317334Y-66057667D02*
G01*
X101275000Y-66100000D01*
X101232667Y-66057667D01*
X101275000Y-66015333D01*
X101317334Y-66057667D01*
G37*
G36*
X109784000Y-68259000D02*
G01*
X109741667Y-68301333D01*
X109699334Y-68259000D01*
X109741667Y-68216667D01*
X109784000Y-68259000D01*
G37*
G36*
X101148000Y-73254333D02*
G01*
X101105667Y-73296667D01*
X101063334Y-73254333D01*
X101105667Y-73212000D01*
X101148000Y-73254333D01*
G37*
G36*
X105720000Y-68174333D02*
G01*
X105677667Y-68216667D01*
X105635334Y-68174333D01*
X105677667Y-68132000D01*
X105720000Y-68174333D01*
G37*
G36*
X97796954Y-67037981D02*
G01*
X97803667Y-67116000D01*
X97786290Y-67141338D01*
X97714004Y-67200667D01*
X97705554Y-67198465D01*
X97676667Y-67116000D01*
X97680113Y-67092794D01*
X97766331Y-67031333D01*
X97796954Y-67037981D01*
G37*
G36*
X105804667Y-73085000D02*
G01*
X105762334Y-73127333D01*
X105720000Y-73085000D01*
X105762334Y-73042667D01*
X105804667Y-73085000D01*
G37*
G36*
X102411316Y-74940611D02*
G01*
X102405330Y-75026485D01*
X102366848Y-75051736D01*
X102350070Y-75021782D01*
X102360164Y-74889458D01*
X102390639Y-74850269D01*
X102411316Y-74940611D01*
G37*
G36*
X101299674Y-77912543D02*
G01*
X101480679Y-78094878D01*
X101645420Y-78349934D01*
X101700146Y-78466724D01*
X101736063Y-78588563D01*
X101705141Y-78594120D01*
X101613667Y-78461333D01*
X101492668Y-78249667D01*
X101482926Y-78503667D01*
X101468463Y-78923117D01*
X101460127Y-79338858D01*
X101464286Y-79615108D01*
X101481304Y-79768590D01*
X101511545Y-79816026D01*
X101576881Y-79862894D01*
X101547740Y-79971924D01*
X101451475Y-80090456D01*
X101317334Y-80165816D01*
X101169027Y-80202842D01*
X101063334Y-80228160D01*
X100996098Y-80222636D01*
X100830500Y-80185969D01*
X100828367Y-80185395D01*
X100740267Y-80150951D01*
X100684988Y-80082800D01*
X100654923Y-79947041D01*
X100642463Y-79709770D01*
X100640000Y-79337085D01*
X100640097Y-79303116D01*
X100673472Y-78749230D01*
X100763402Y-78310303D01*
X100904917Y-78002726D01*
X101093048Y-77842891D01*
X101139513Y-77836992D01*
X101299674Y-77912543D01*
G37*
G36*
X101075383Y-80324994D02*
G01*
X101239386Y-80349217D01*
X101283017Y-80395696D01*
X101268385Y-80411767D01*
X101140488Y-80458378D01*
X100958356Y-80473094D01*
X100795309Y-80454956D01*
X100724667Y-80403004D01*
X100727769Y-80391691D01*
X100828134Y-80343542D01*
X101025997Y-80324000D01*
X101075383Y-80324994D01*
G37*
G36*
X106143334Y-64279667D02*
G01*
X106101000Y-64322000D01*
X106058667Y-64279667D01*
X106101000Y-64237333D01*
X106143334Y-64279667D01*
G37*
G36*
X96979757Y-67217365D02*
G01*
X96914667Y-67285333D01*
X96837970Y-67332803D01*
X96757867Y-67361483D01*
X96787667Y-67285333D01*
X96805790Y-67262274D01*
X96940831Y-67201963D01*
X96979757Y-67217365D01*
G37*
G36*
X104077085Y-64054918D02*
G01*
X104065837Y-64072153D01*
X103982181Y-64150129D01*
X103942000Y-64115330D01*
X103949569Y-64096286D01*
X104039749Y-64017582D01*
X104087065Y-63996981D01*
X104077085Y-64054918D01*
G37*
G36*
X96030239Y-70123193D02*
G01*
X96133264Y-70232792D01*
X96138521Y-70273302D01*
X96070059Y-70333333D01*
X96037331Y-70327664D01*
X96021198Y-70255898D01*
X96032160Y-70227455D01*
X95981745Y-70135248D01*
X95953524Y-70117983D01*
X95997092Y-70112142D01*
X96030239Y-70123193D01*
G37*
G36*
X99200667Y-69910000D02*
G01*
X99194557Y-69954822D01*
X99144223Y-69966444D01*
X99134090Y-69954035D01*
X99144223Y-69853555D01*
X99169689Y-69840310D01*
X99200667Y-69910000D01*
G37*
G36*
X111392667Y-74439667D02*
G01*
X111350334Y-74482000D01*
X111308000Y-74439667D01*
X111350334Y-74397333D01*
X111392667Y-74439667D01*
G37*
G36*
X106482000Y-76895000D02*
G01*
X106439667Y-76937333D01*
X106397334Y-76895000D01*
X106439667Y-76852667D01*
X106482000Y-76895000D01*
G37*
G36*
X99454667Y-65846000D02*
G01*
X99448557Y-65890822D01*
X99398223Y-65902444D01*
X99388090Y-65890035D01*
X99398223Y-65789555D01*
X99423689Y-65776310D01*
X99454667Y-65846000D01*
G37*
G36*
X104958000Y-64025667D02*
G01*
X104915667Y-64068000D01*
X104873334Y-64025667D01*
X104915667Y-63983333D01*
X104958000Y-64025667D01*
G37*
G36*
X111646667Y-66735000D02*
G01*
X111604334Y-66777333D01*
X111562000Y-66735000D01*
X111604334Y-66692667D01*
X111646667Y-66735000D01*
G37*
G36*
X111562000Y-68894000D02*
G01*
X111555890Y-68938822D01*
X111505556Y-68950444D01*
X111495423Y-68938035D01*
X111505556Y-68837555D01*
X111531022Y-68824310D01*
X111562000Y-68894000D01*
G37*
G36*
X99200667Y-69698333D02*
G01*
X99158334Y-69740667D01*
X99116000Y-69698333D01*
X99158334Y-69656000D01*
X99200667Y-69698333D01*
G37*
G36*
X111562000Y-75794333D02*
G01*
X111519667Y-75836667D01*
X111477334Y-75794333D01*
X111519667Y-75752000D01*
X111562000Y-75794333D01*
G37*
G36*
X108006000Y-73381333D02*
G01*
X107999890Y-73426155D01*
X107949556Y-73437778D01*
X107939423Y-73425368D01*
X107949556Y-73324889D01*
X107975022Y-73311643D01*
X108006000Y-73381333D01*
G37*
G36*
X101082913Y-65933920D02*
G01*
X101148000Y-66015333D01*
X101147030Y-66034494D01*
X101110664Y-66100000D01*
X101097083Y-66096104D01*
X101021000Y-66015333D01*
X101007771Y-65982536D01*
X101058337Y-65930667D01*
X101082913Y-65933920D01*
G37*
G36*
X99750401Y-69572303D02*
G01*
X99733813Y-69594508D01*
X99619004Y-69656000D01*
X99571521Y-69651529D01*
X99551557Y-69607350D01*
X99670731Y-69539028D01*
X99736773Y-69524191D01*
X99750401Y-69572303D01*
G37*
G36*
X107667334Y-74355000D02*
G01*
X107625000Y-74397333D01*
X107582667Y-74355000D01*
X107625000Y-74312667D01*
X107667334Y-74355000D01*
G37*
G36*
X111562000Y-70206333D02*
G01*
X111519667Y-70248667D01*
X111477334Y-70206333D01*
X111519667Y-70164000D01*
X111562000Y-70206333D01*
G37*
G36*
X97590704Y-75180500D02*
G01*
X97568361Y-75340310D01*
X97507334Y-75413333D01*
X97446304Y-75382548D01*
X97432269Y-75253500D01*
X97507334Y-75074667D01*
X97534267Y-75037156D01*
X97578062Y-75032686D01*
X97590704Y-75180500D01*
G37*
G36*
X97676667Y-73508333D02*
G01*
X97634334Y-73550667D01*
X97592000Y-73508333D01*
X97634334Y-73466000D01*
X97676667Y-73508333D01*
G37*
G36*
X102756667Y-76979667D02*
G01*
X102714334Y-77022000D01*
X102672000Y-76979667D01*
X102714334Y-76937333D01*
X102756667Y-76979667D01*
G37*
G36*
X110800000Y-72407667D02*
G01*
X110757667Y-72450000D01*
X110715334Y-72407667D01*
X110757667Y-72365333D01*
X110800000Y-72407667D01*
G37*
G36*
X98862000Y-72111333D02*
G01*
X98855890Y-72156155D01*
X98805556Y-72167778D01*
X98795423Y-72155368D01*
X98805556Y-72054889D01*
X98831022Y-72041643D01*
X98862000Y-72111333D01*
G37*
G36*
X106312667Y-67327667D02*
G01*
X106270334Y-67370000D01*
X106228000Y-67327667D01*
X106270334Y-67285333D01*
X106312667Y-67327667D01*
G37*
G36*
X108175334Y-70460333D02*
G01*
X108133000Y-70502667D01*
X108090667Y-70460333D01*
X108133000Y-70418000D01*
X108175334Y-70460333D01*
G37*
G36*
X99454667Y-66184667D02*
G01*
X99448557Y-66229489D01*
X99398223Y-66241111D01*
X99388090Y-66228702D01*
X99398223Y-66128222D01*
X99423689Y-66114976D01*
X99454667Y-66184667D01*
G37*
G36*
X101903316Y-79258611D02*
G01*
X101897330Y-79344485D01*
X101858848Y-79369736D01*
X101842070Y-79339782D01*
X101852164Y-79207458D01*
X101882639Y-79168269D01*
X101903316Y-79258611D01*
G37*
G36*
X104958000Y-66142333D02*
G01*
X104915667Y-66184667D01*
X104873334Y-66142333D01*
X104915667Y-66100000D01*
X104958000Y-66142333D01*
G37*
G36*
X112239334Y-68216667D02*
G01*
X112233224Y-68261489D01*
X112182889Y-68273111D01*
X112172756Y-68260702D01*
X112182889Y-68160222D01*
X112208356Y-68146976D01*
X112239334Y-68216667D01*
G37*
G36*
X101977480Y-66921467D02*
G01*
X102057218Y-67046781D01*
X102059091Y-67090161D01*
X102027051Y-67150995D01*
X101904536Y-67092938D01*
X101782437Y-67002676D01*
X101757570Y-66924650D01*
X101893350Y-66898286D01*
X101977480Y-66921467D01*
G37*
G36*
X105974000Y-67751000D02*
G01*
X105931667Y-67793333D01*
X105889334Y-67751000D01*
X105931667Y-67708667D01*
X105974000Y-67751000D01*
G37*
G36*
X106312667Y-64533667D02*
G01*
X106270334Y-64576000D01*
X106228000Y-64533667D01*
X106270334Y-64491333D01*
X106312667Y-64533667D01*
G37*
G36*
X99454667Y-65592000D02*
G01*
X99448557Y-65636822D01*
X99398223Y-65648444D01*
X99388090Y-65636035D01*
X99398223Y-65535555D01*
X99423689Y-65522310D01*
X99454667Y-65592000D01*
G37*
G36*
X97778890Y-70865477D02*
G01*
X97791952Y-70968333D01*
X97765654Y-71029449D01*
X97720309Y-71095333D01*
X97689160Y-71073294D01*
X97592000Y-70968333D01*
X97569861Y-70940632D01*
X97543146Y-70860208D01*
X97663643Y-70841333D01*
X97778890Y-70865477D01*
G37*
G36*
X108219328Y-69575255D02*
G01*
X108284914Y-69672022D01*
X108382257Y-69856943D01*
X108484741Y-70074223D01*
X108565750Y-70268068D01*
X108598667Y-70382686D01*
X108585643Y-70406424D01*
X108459093Y-70407409D01*
X108217494Y-70333267D01*
X108152230Y-70306026D01*
X108041527Y-70210651D01*
X108053841Y-70058101D01*
X108105469Y-69934221D01*
X108181769Y-69841030D01*
X108208565Y-69814145D01*
X108203852Y-69692863D01*
X108188129Y-69634094D01*
X108211618Y-69571333D01*
X108219328Y-69575255D01*
G37*
G36*
X97179299Y-74289432D02*
G01*
X97232007Y-74378144D01*
X97140492Y-74445949D01*
X97067660Y-74487256D01*
X96999334Y-74592658D01*
X97012887Y-74638530D01*
X96933063Y-74514784D01*
X96995914Y-74313374D01*
X97074509Y-74235719D01*
X97179299Y-74289432D01*
G37*
G36*
X97810060Y-66636091D02*
G01*
X97784578Y-66727856D01*
X97754650Y-66890091D01*
X97744742Y-66940357D01*
X97706324Y-66886356D01*
X97700098Y-66800020D01*
X97761734Y-66632356D01*
X97803896Y-66567427D01*
X97839633Y-66528984D01*
X97810060Y-66636091D01*
G37*
G36*
X99285334Y-71815000D02*
G01*
X99243000Y-71857333D01*
X99200667Y-71815000D01*
X99243000Y-71772667D01*
X99285334Y-71815000D01*
G37*
G36*
X97523480Y-71300277D02*
G01*
X97592000Y-71363444D01*
X97590472Y-71377193D01*
X97512331Y-71434000D01*
X97500723Y-71433303D01*
X97389055Y-71363444D01*
X97383350Y-71329589D01*
X97468725Y-71292889D01*
X97523480Y-71300277D01*
G37*
G36*
X104534667Y-72407667D02*
G01*
X104492334Y-72450000D01*
X104450000Y-72407667D01*
X104492334Y-72365333D01*
X104534667Y-72407667D01*
G37*
G36*
X97839316Y-66219944D02*
G01*
X97833330Y-66305818D01*
X97794848Y-66331069D01*
X97778070Y-66301115D01*
X97788164Y-66168792D01*
X97818639Y-66129602D01*
X97839316Y-66219944D01*
G37*
G36*
X99416457Y-70432223D02*
G01*
X99454667Y-70545000D01*
X99446765Y-70603222D01*
X99384112Y-70672000D01*
X99351766Y-70657776D01*
X99313556Y-70545000D01*
X99321458Y-70486777D01*
X99384112Y-70418000D01*
X99416457Y-70432223D01*
G37*
G36*
X100741561Y-64929418D02*
G01*
X100809334Y-65041667D01*
X100794582Y-65100894D01*
X100682334Y-65168667D01*
X100623107Y-65153915D01*
X100555334Y-65041667D01*
X100570085Y-64982439D01*
X100682334Y-64914667D01*
X100741561Y-64929418D01*
G37*
G36*
X99617316Y-65203944D02*
G01*
X99611330Y-65289818D01*
X99572848Y-65315069D01*
X99556070Y-65285115D01*
X99566164Y-65152792D01*
X99596639Y-65113602D01*
X99617316Y-65203944D01*
G37*
G36*
X97902445Y-72139555D02*
G01*
X97915691Y-72165022D01*
X97846000Y-72196000D01*
X97801178Y-72189890D01*
X97789556Y-72139555D01*
X97801965Y-72129422D01*
X97902445Y-72139555D01*
G37*
G36*
X100132000Y-64322000D02*
G01*
X100125890Y-64366822D01*
X100075556Y-64378444D01*
X100065423Y-64366035D01*
X100075556Y-64265555D01*
X100101022Y-64252310D01*
X100132000Y-64322000D01*
G37*
G36*
X105804667Y-65719000D02*
G01*
X105762334Y-65761333D01*
X105720000Y-65719000D01*
X105762334Y-65676667D01*
X105804667Y-65719000D01*
G37*
G36*
X97469008Y-71691326D02*
G01*
X97551717Y-71792108D01*
X97490175Y-71869730D01*
X97402183Y-71922077D01*
X97346255Y-71910353D01*
X97338000Y-71762300D01*
X97338849Y-71716233D01*
X97368676Y-71632690D01*
X97469008Y-71691326D01*
G37*
G36*
X96288252Y-66781229D02*
G01*
X96364334Y-66862000D01*
X96377563Y-66894797D01*
X96326997Y-66946667D01*
X96302422Y-66943413D01*
X96237334Y-66862000D01*
X96238305Y-66842839D01*
X96274670Y-66777333D01*
X96288252Y-66781229D01*
G37*
G36*
X99793334Y-66142333D02*
G01*
X99751000Y-66184667D01*
X99708667Y-66142333D01*
X99751000Y-66100000D01*
X99793334Y-66142333D01*
G37*
G36*
X98015334Y-70121667D02*
G01*
X97973000Y-70164000D01*
X97930667Y-70121667D01*
X97973000Y-70079333D01*
X98015334Y-70121667D01*
G37*
G36*
X112662667Y-72915667D02*
G01*
X112620334Y-72958000D01*
X112578000Y-72915667D01*
X112620334Y-72873333D01*
X112662667Y-72915667D01*
G37*
G36*
X100442445Y-66043555D02*
G01*
X100455691Y-66069022D01*
X100386000Y-66100000D01*
X100341178Y-66093890D01*
X100329556Y-66043555D01*
X100341965Y-66033422D01*
X100442445Y-66043555D01*
G37*
G36*
X111985334Y-70121667D02*
G01*
X111943000Y-70164000D01*
X111900667Y-70121667D01*
X111943000Y-70079333D01*
X111985334Y-70121667D01*
G37*
G36*
X110053424Y-72716280D02*
G01*
X110105344Y-72968642D01*
X110122667Y-73386330D01*
X110122287Y-73522254D01*
X110114580Y-73807730D01*
X110090744Y-73969715D01*
X110042705Y-74042072D01*
X109962392Y-74058667D01*
X109868580Y-74037731D01*
X109750726Y-73924742D01*
X109718110Y-73788238D01*
X109698838Y-73510065D01*
X109710688Y-73199729D01*
X109750093Y-72923983D01*
X109813490Y-72749581D01*
X109846083Y-72708134D01*
X109966979Y-72629394D01*
X110053424Y-72716280D01*
G37*
G36*
X101910000Y-66481000D02*
G01*
X101867667Y-66523333D01*
X101825334Y-66481000D01*
X101867667Y-66438667D01*
X101910000Y-66481000D01*
G37*
G36*
X97470625Y-73930871D02*
G01*
X97447630Y-73949634D01*
X97271099Y-73937044D01*
X97256799Y-73935632D01*
X97053313Y-73901649D01*
X96939822Y-73858044D01*
X96934392Y-73847000D01*
X97084000Y-73847000D01*
X97126334Y-73889333D01*
X97168667Y-73847000D01*
X97126334Y-73804667D01*
X97084000Y-73847000D01*
X96934392Y-73847000D01*
X96890999Y-73758751D01*
X96859888Y-73544098D01*
X96870071Y-73315330D01*
X96923561Y-73158950D01*
X96963033Y-73084952D01*
X96964553Y-72904817D01*
X96955240Y-72876525D01*
X96945951Y-72688385D01*
X97000995Y-72521801D01*
X97098764Y-72450000D01*
X97139201Y-72475790D01*
X97127566Y-72598167D01*
X97124620Y-72605845D01*
X97079072Y-72798155D01*
X97049934Y-73045880D01*
X97048086Y-73072878D01*
X97019274Y-73293829D01*
X96978680Y-73430922D01*
X96962823Y-73488855D01*
X97003624Y-73639376D01*
X97010206Y-73649675D01*
X97067955Y-73708851D01*
X97082704Y-73609170D01*
X97097936Y-73530948D01*
X97164969Y-73506048D01*
X97194267Y-73535996D01*
X97203808Y-73665880D01*
X97224712Y-73762055D01*
X97328246Y-73847000D01*
X97355672Y-73869502D01*
X97470625Y-73930871D01*
G37*
G36*
X110546000Y-73000333D02*
G01*
X110503667Y-73042667D01*
X110461334Y-73000333D01*
X110503667Y-72958000D01*
X110546000Y-73000333D01*
G37*
G36*
X96576000Y-66862000D02*
G01*
X96569890Y-66906822D01*
X96519556Y-66918444D01*
X96509423Y-66906035D01*
X96519556Y-66805555D01*
X96545022Y-66792310D01*
X96576000Y-66862000D01*
G37*
G36*
X102841334Y-65549667D02*
G01*
X102799000Y-65592000D01*
X102756667Y-65549667D01*
X102799000Y-65507333D01*
X102841334Y-65549667D01*
G37*
G36*
X98354000Y-67073667D02*
G01*
X98311667Y-67116000D01*
X98269334Y-67073667D01*
X98311667Y-67031333D01*
X98354000Y-67073667D01*
G37*
G36*
X94713334Y-81763333D02*
G01*
X94713334Y-81647688D01*
X100231644Y-81647688D01*
X100301334Y-81678667D01*
X100346156Y-81672556D01*
X100357778Y-81622222D01*
X100345369Y-81612089D01*
X100244889Y-81622222D01*
X100231644Y-81647688D01*
X94713334Y-81647688D01*
X94713334Y-81126631D01*
X95070090Y-81126631D01*
X95080223Y-81227111D01*
X95105689Y-81240357D01*
X95117849Y-81213000D01*
X95644667Y-81213000D01*
X95687000Y-81255333D01*
X95729334Y-81213000D01*
X96406667Y-81213000D01*
X96449000Y-81255333D01*
X96479979Y-81224355D01*
X96675644Y-81224355D01*
X96745334Y-81255333D01*
X96790156Y-81249223D01*
X96798520Y-81213000D01*
X98862000Y-81213000D01*
X98904334Y-81255333D01*
X98946667Y-81213000D01*
X99031334Y-81213000D01*
X99073667Y-81255333D01*
X99116000Y-81213000D01*
X99073667Y-81170667D01*
X99031334Y-81213000D01*
X98946667Y-81213000D01*
X98904334Y-81170667D01*
X98876111Y-81198889D01*
X98862000Y-81213000D01*
X96798520Y-81213000D01*
X96801778Y-81198889D01*
X96789369Y-81188756D01*
X96688889Y-81198889D01*
X96681550Y-81213000D01*
X96675644Y-81224355D01*
X96479979Y-81224355D01*
X96491334Y-81213000D01*
X96449000Y-81170667D01*
X96406667Y-81213000D01*
X95729334Y-81213000D01*
X95687000Y-81170667D01*
X95644667Y-81213000D01*
X95117849Y-81213000D01*
X95136667Y-81170667D01*
X95130896Y-81128333D01*
X96068000Y-81128333D01*
X96110334Y-81170667D01*
X96152667Y-81128333D01*
X96110334Y-81086000D01*
X96068000Y-81128333D01*
X95130896Y-81128333D01*
X95130557Y-81125844D01*
X95080223Y-81114222D01*
X95070090Y-81126631D01*
X94713334Y-81126631D01*
X94713334Y-81043667D01*
X95814000Y-81043667D01*
X95856334Y-81086000D01*
X95888793Y-81053541D01*
X97253334Y-81053541D01*
X97284845Y-81072342D01*
X97422667Y-81086000D01*
X97521018Y-81071633D01*
X97592000Y-81009260D01*
X97587138Y-81003990D01*
X97676667Y-81003990D01*
X97678667Y-81009260D01*
X97690974Y-81041691D01*
X97803667Y-81086000D01*
X97861530Y-81082322D01*
X97930667Y-81052725D01*
X97915069Y-81030811D01*
X97803667Y-80970715D01*
X97746506Y-80959000D01*
X98100000Y-80959000D01*
X98142334Y-81001333D01*
X98184667Y-80959000D01*
X98142334Y-80916667D01*
X98100000Y-80959000D01*
X97746506Y-80959000D01*
X97738728Y-80957406D01*
X97736604Y-80959000D01*
X97676667Y-81003990D01*
X97587138Y-81003990D01*
X97557675Y-80972053D01*
X97422667Y-80976801D01*
X97323144Y-81009067D01*
X97268833Y-81043667D01*
X97253334Y-81053541D01*
X95888793Y-81053541D01*
X95898667Y-81043667D01*
X95856334Y-81001333D01*
X95814000Y-81043667D01*
X94713334Y-81043667D01*
X94713334Y-80970355D01*
X96167644Y-80970355D01*
X96237334Y-81001333D01*
X96282156Y-80995223D01*
X96286218Y-80977629D01*
X96437405Y-80977629D01*
X96518789Y-81026242D01*
X96616555Y-81033748D01*
X96698952Y-80959000D01*
X97084000Y-80959000D01*
X97126334Y-81001333D01*
X97168667Y-80959000D01*
X97126334Y-80916667D01*
X97084000Y-80959000D01*
X96698952Y-80959000D01*
X96745065Y-80917168D01*
X96757585Y-80895537D01*
X96888728Y-80791952D01*
X97122590Y-80777523D01*
X97163256Y-80780150D01*
X97328296Y-80774033D01*
X97357873Y-80752846D01*
X98290092Y-80752846D01*
X98311667Y-80832000D01*
X98329062Y-80857063D01*
X98406327Y-80916667D01*
X98417909Y-80911154D01*
X98396334Y-80832000D01*
X98378939Y-80806937D01*
X98356552Y-80789667D01*
X98692667Y-80789667D01*
X98735000Y-80832000D01*
X98777334Y-80789667D01*
X98735000Y-80747333D01*
X98692667Y-80789667D01*
X98356552Y-80789667D01*
X98301674Y-80747333D01*
X98290092Y-80752846D01*
X97357873Y-80752846D01*
X97375803Y-80740002D01*
X97336510Y-80712673D01*
X97183646Y-80684140D01*
X96987151Y-80683653D01*
X96817541Y-80709140D01*
X96745334Y-80758528D01*
X96725914Y-80789667D01*
X96705652Y-80822155D01*
X96615571Y-80874333D01*
X96562414Y-80905123D01*
X96504743Y-80927602D01*
X96481474Y-80944889D01*
X96437405Y-80977629D01*
X96286218Y-80977629D01*
X96293778Y-80944889D01*
X96281369Y-80934756D01*
X96180889Y-80944889D01*
X96167644Y-80970355D01*
X94713334Y-80970355D01*
X94713334Y-80874333D01*
X95390667Y-80874333D01*
X95433000Y-80916667D01*
X95475334Y-80874333D01*
X95433000Y-80832000D01*
X95390667Y-80874333D01*
X94713334Y-80874333D01*
X94713334Y-80789667D01*
X95560000Y-80789667D01*
X95602334Y-80832000D01*
X95644667Y-80789667D01*
X95602334Y-80747333D01*
X95560000Y-80789667D01*
X94713334Y-80789667D01*
X94713334Y-80620333D01*
X97422667Y-80620333D01*
X97465000Y-80662667D01*
X97507334Y-80620333D01*
X97470512Y-80583512D01*
X97951426Y-80583512D01*
X97961462Y-80620333D01*
X97973000Y-80662667D01*
X97990395Y-80687730D01*
X98058158Y-80740002D01*
X98067661Y-80747333D01*
X98079242Y-80741821D01*
X98057667Y-80662667D01*
X98040272Y-80637603D01*
X97963007Y-80578000D01*
X97951426Y-80583512D01*
X97470512Y-80583512D01*
X97465000Y-80578000D01*
X97422667Y-80620333D01*
X94713334Y-80620333D01*
X94713334Y-80535667D01*
X95306000Y-80535667D01*
X95348334Y-80578000D01*
X95390667Y-80535667D01*
X96660667Y-80535667D01*
X96703000Y-80578000D01*
X96707997Y-80573003D01*
X98862000Y-80573003D01*
X98862698Y-80584611D01*
X98932556Y-80696279D01*
X98966411Y-80701984D01*
X99003112Y-80616609D01*
X98995723Y-80561854D01*
X98932556Y-80493333D01*
X98918807Y-80494862D01*
X98889143Y-80535667D01*
X98862000Y-80573003D01*
X96707997Y-80573003D01*
X96745334Y-80535667D01*
X96703000Y-80493333D01*
X96660667Y-80535667D01*
X95390667Y-80535667D01*
X95348334Y-80493333D01*
X95306000Y-80535667D01*
X94713334Y-80535667D01*
X94713334Y-80462355D01*
X96421644Y-80462355D01*
X96491334Y-80493333D01*
X96536156Y-80487223D01*
X96543366Y-80455997D01*
X98184667Y-80455997D01*
X98185491Y-80467833D01*
X98234502Y-80486478D01*
X98319752Y-80395585D01*
X98340353Y-80348269D01*
X98317402Y-80352222D01*
X98282416Y-80358248D01*
X98244804Y-80384384D01*
X98200713Y-80436889D01*
X98184667Y-80455997D01*
X96543366Y-80455997D01*
X96547778Y-80436889D01*
X96535369Y-80426756D01*
X96434889Y-80436889D01*
X96421644Y-80462355D01*
X94713334Y-80462355D01*
X94713334Y-80366333D01*
X95136667Y-80366333D01*
X95179000Y-80408667D01*
X95209979Y-80377688D01*
X95744310Y-80377688D01*
X95814000Y-80408667D01*
X95858823Y-80402556D01*
X95870445Y-80352222D01*
X95858036Y-80342089D01*
X95757556Y-80352222D01*
X95750216Y-80366333D01*
X95744310Y-80377688D01*
X95209979Y-80377688D01*
X95221334Y-80366333D01*
X95184512Y-80329512D01*
X98628759Y-80329512D01*
X98633872Y-80348269D01*
X98650334Y-80408667D01*
X98667729Y-80433730D01*
X98744994Y-80493333D01*
X98756575Y-80487821D01*
X98735000Y-80408667D01*
X98717606Y-80383603D01*
X98640340Y-80324000D01*
X98628759Y-80329512D01*
X95184512Y-80329512D01*
X95179000Y-80324000D01*
X95136667Y-80366333D01*
X94713334Y-80366333D01*
X94713334Y-80281667D01*
X97592000Y-80281667D01*
X97634334Y-80324000D01*
X97676667Y-80281667D01*
X97846000Y-80281667D01*
X97888334Y-80324000D01*
X97930667Y-80281667D01*
X97888334Y-80239333D01*
X97846000Y-80281667D01*
X97676667Y-80281667D01*
X97634334Y-80239333D01*
X97592000Y-80281667D01*
X94713334Y-80281667D01*
X94713334Y-80112333D01*
X96068000Y-80112333D01*
X96110334Y-80154667D01*
X96152667Y-80112333D01*
X96150965Y-80110631D01*
X96763423Y-80110631D01*
X96763595Y-80112333D01*
X96773556Y-80211111D01*
X96799022Y-80224357D01*
X96822813Y-80170836D01*
X98784018Y-80170836D01*
X98803187Y-80281667D01*
X98804896Y-80291545D01*
X98911369Y-80381707D01*
X99059049Y-80336132D01*
X99119206Y-80301976D01*
X99288173Y-80327546D01*
X99352852Y-80380095D01*
X99306500Y-80407370D01*
X99267537Y-80414179D01*
X99209018Y-80487821D01*
X99200667Y-80498330D01*
X99204943Y-80525639D01*
X99274750Y-80542207D01*
X99328010Y-80565838D01*
X99340707Y-80616609D01*
X99363197Y-80706544D01*
X99365729Y-80741821D01*
X99369164Y-80789667D01*
X99374373Y-80862239D01*
X99378209Y-80911154D01*
X99381962Y-80959000D01*
X99389313Y-81052725D01*
X99391923Y-81086000D01*
X99398552Y-81123586D01*
X99401823Y-81128333D01*
X99460163Y-81213000D01*
X99472952Y-81231561D01*
X99573909Y-81255027D01*
X99591466Y-81230617D01*
X99981425Y-81230617D01*
X100068500Y-81254037D01*
X100072186Y-81254044D01*
X100181551Y-81200903D01*
X100206846Y-81022500D01*
X100202540Y-80945740D01*
X100185752Y-80873488D01*
X100154718Y-80959000D01*
X100115631Y-81062219D01*
X100016373Y-81190537D01*
X99981425Y-81230617D01*
X99591466Y-81230617D01*
X99634584Y-81170667D01*
X99635283Y-81165090D01*
X99655750Y-81008389D01*
X99657946Y-80996478D01*
X99729099Y-80868012D01*
X99748509Y-80823327D01*
X99703821Y-80699161D01*
X99681045Y-80665187D01*
X99683217Y-80557971D01*
X99777256Y-80512365D01*
X99902311Y-80568444D01*
X99950215Y-80610552D01*
X100051159Y-80662667D01*
X100051283Y-80662664D01*
X100073172Y-80582635D01*
X100092454Y-80366335D01*
X100107047Y-80046645D01*
X100114870Y-79656444D01*
X100114956Y-79646793D01*
X100115072Y-79200698D01*
X100102658Y-78882245D01*
X100072437Y-78650645D01*
X100019136Y-78465107D01*
X99937478Y-78284842D01*
X99872186Y-78168103D01*
X99734976Y-77977753D01*
X99624000Y-77889150D01*
X99605830Y-77884902D01*
X99543879Y-77880967D01*
X99617514Y-77935355D01*
X99627545Y-77942764D01*
X99680339Y-77999624D01*
X99733550Y-78165000D01*
X99746787Y-78206138D01*
X99750817Y-78249667D01*
X99766495Y-78419000D01*
X99778253Y-78546000D01*
X99779689Y-78561512D01*
X99782607Y-78630667D01*
X99787965Y-78757667D01*
X99790517Y-78818140D01*
X99795236Y-78919944D01*
X99802429Y-79075105D01*
X99810649Y-79223333D01*
X99812702Y-79273283D01*
X99812724Y-79308000D01*
X99812830Y-79479311D01*
X99809929Y-79604333D01*
X99807451Y-79711091D01*
X99806981Y-79731333D01*
X99806672Y-79744664D01*
X99799963Y-79943000D01*
X99797099Y-80027667D01*
X99793334Y-80138995D01*
X99327539Y-80167997D01*
X99138643Y-80172676D01*
X98923901Y-80154663D01*
X98826223Y-80112333D01*
X98805111Y-80089663D01*
X98799220Y-80112333D01*
X98784018Y-80170836D01*
X96822813Y-80170836D01*
X96830000Y-80154667D01*
X96824229Y-80112333D01*
X97084000Y-80112333D01*
X97126334Y-80154667D01*
X97168667Y-80112333D01*
X98354000Y-80112333D01*
X98396334Y-80154667D01*
X98438667Y-80112333D01*
X98396334Y-80070000D01*
X98354000Y-80112333D01*
X97168667Y-80112333D01*
X97126334Y-80070000D01*
X97084000Y-80112333D01*
X96824229Y-80112333D01*
X96823890Y-80109844D01*
X96773556Y-80098222D01*
X96763423Y-80110631D01*
X96150965Y-80110631D01*
X96110334Y-80070000D01*
X96068000Y-80112333D01*
X94713334Y-80112333D01*
X94713334Y-80027667D01*
X95644667Y-80027667D01*
X95687000Y-80070000D01*
X95729334Y-80027667D01*
X96914667Y-80027667D01*
X96957000Y-80070000D01*
X96999334Y-80027667D01*
X96957000Y-79985333D01*
X96914667Y-80027667D01*
X95729334Y-80027667D01*
X95687000Y-79985333D01*
X95644667Y-80027667D01*
X94713334Y-80027667D01*
X94713334Y-79943000D01*
X97761334Y-79943000D01*
X97803667Y-79985333D01*
X97846000Y-79943000D01*
X98692667Y-79943000D01*
X98735000Y-79985333D01*
X98777334Y-79943000D01*
X98735000Y-79900667D01*
X98692667Y-79943000D01*
X97846000Y-79943000D01*
X97803667Y-79900667D01*
X97761334Y-79943000D01*
X94713334Y-79943000D01*
X94713334Y-79670699D01*
X95064382Y-79670699D01*
X95081131Y-79838778D01*
X95084505Y-79846326D01*
X95111010Y-79833596D01*
X95114803Y-79773667D01*
X95560000Y-79773667D01*
X95602334Y-79816000D01*
X95639671Y-79778663D01*
X95814000Y-79778663D01*
X95814825Y-79790499D01*
X95863835Y-79809145D01*
X95936815Y-79731333D01*
X96576000Y-79731333D01*
X96579446Y-79754539D01*
X96665664Y-79816000D01*
X96696288Y-79809352D01*
X96703000Y-79731333D01*
X96685623Y-79705995D01*
X96654170Y-79680180D01*
X97445598Y-79680180D01*
X97446909Y-79709082D01*
X97556723Y-79724649D01*
X97639946Y-79711091D01*
X97607875Y-79673496D01*
X97558915Y-79659969D01*
X97445598Y-79680180D01*
X96654170Y-79680180D01*
X96613337Y-79646667D01*
X96604887Y-79648868D01*
X96597157Y-79670936D01*
X96576000Y-79731333D01*
X95936815Y-79731333D01*
X95949085Y-79718251D01*
X95969686Y-79670936D01*
X95911749Y-79680915D01*
X95900114Y-79689000D01*
X95874137Y-79707051D01*
X95818195Y-79773667D01*
X95814000Y-79778663D01*
X95639671Y-79778663D01*
X95644667Y-79773667D01*
X95602334Y-79731333D01*
X95560000Y-79773667D01*
X95114803Y-79773667D01*
X95120162Y-79689000D01*
X95119603Y-79662707D01*
X95111994Y-79604333D01*
X96068000Y-79604333D01*
X96110334Y-79646667D01*
X96152667Y-79604333D01*
X96110334Y-79562000D01*
X96068000Y-79604333D01*
X95111994Y-79604333D01*
X95104945Y-79550251D01*
X95077994Y-79584778D01*
X95064382Y-79670699D01*
X94713334Y-79670699D01*
X94713334Y-79263965D01*
X95070090Y-79263965D01*
X95080223Y-79364444D01*
X95105689Y-79377690D01*
X95136667Y-79308000D01*
X95130557Y-79263178D01*
X95080223Y-79251555D01*
X95070090Y-79263965D01*
X94713334Y-79263965D01*
X94713334Y-78917752D01*
X95065303Y-78917752D01*
X95085514Y-79031069D01*
X95114416Y-79029758D01*
X95129983Y-78919944D01*
X95116425Y-78836721D01*
X95078830Y-78868792D01*
X95065303Y-78917752D01*
X94713334Y-78917752D01*
X94713334Y-78769022D01*
X95490310Y-78769022D01*
X95560000Y-78800000D01*
X95604823Y-78793890D01*
X95613580Y-78755965D01*
X96086090Y-78755965D01*
X96096223Y-78856444D01*
X96121689Y-78869690D01*
X96152667Y-78800000D01*
X96149031Y-78773326D01*
X97471805Y-78773326D01*
X97592000Y-78786631D01*
X97708470Y-78774829D01*
X97702563Y-78757667D01*
X97930667Y-78757667D01*
X97973000Y-78800000D01*
X98015334Y-78757667D01*
X98184667Y-78757667D01*
X98227000Y-78800000D01*
X98269334Y-78757667D01*
X98227000Y-78715333D01*
X98184667Y-78757667D01*
X98015334Y-78757667D01*
X97973000Y-78715333D01*
X97930667Y-78757667D01*
X97702563Y-78757667D01*
X97697834Y-78743927D01*
X97659509Y-78732744D01*
X97486167Y-78743927D01*
X97471805Y-78773326D01*
X96149031Y-78773326D01*
X96146557Y-78755178D01*
X96096223Y-78743555D01*
X96086090Y-78755965D01*
X95613580Y-78755965D01*
X95616445Y-78743555D01*
X95604036Y-78733422D01*
X95503556Y-78743555D01*
X95490310Y-78769022D01*
X94713334Y-78769022D01*
X94713334Y-78501965D01*
X95070090Y-78501965D01*
X95080223Y-78602444D01*
X95105689Y-78615690D01*
X95118606Y-78586631D01*
X98795423Y-78586631D01*
X98805556Y-78687111D01*
X98831022Y-78700357D01*
X98862000Y-78630667D01*
X98855890Y-78585844D01*
X98805556Y-78574222D01*
X98795423Y-78586631D01*
X95118606Y-78586631D01*
X95136667Y-78546000D01*
X95130557Y-78501178D01*
X95080223Y-78489555D01*
X95070090Y-78501965D01*
X94713334Y-78501965D01*
X94713334Y-78419000D01*
X95729334Y-78419000D01*
X95771667Y-78461333D01*
X95814000Y-78419000D01*
X95771667Y-78376667D01*
X95729334Y-78419000D01*
X94713334Y-78419000D01*
X94713334Y-78357241D01*
X95983334Y-78357241D01*
X96021106Y-78419000D01*
X96046959Y-78461271D01*
X96180714Y-78496543D01*
X96290530Y-78436469D01*
X96293408Y-78430355D01*
X97691644Y-78430355D01*
X97761334Y-78461333D01*
X97806156Y-78455223D01*
X97814520Y-78419000D01*
X98862000Y-78419000D01*
X98904334Y-78461333D01*
X98946667Y-78419000D01*
X98904334Y-78376667D01*
X98886647Y-78394353D01*
X98862000Y-78419000D01*
X97814520Y-78419000D01*
X97817778Y-78404889D01*
X97805369Y-78394756D01*
X97704889Y-78404889D01*
X97691644Y-78430355D01*
X96293408Y-78430355D01*
X96310357Y-78394353D01*
X96279865Y-78397099D01*
X96227275Y-78415887D01*
X96096957Y-78365565D01*
X96030380Y-78322902D01*
X95983334Y-78357241D01*
X94713334Y-78357241D01*
X94713334Y-78155752D01*
X95065303Y-78155752D01*
X95085514Y-78269069D01*
X95114416Y-78267758D01*
X95129983Y-78157944D01*
X95116425Y-78074721D01*
X95078830Y-78106792D01*
X95065303Y-78155752D01*
X94713334Y-78155752D01*
X94713334Y-77990670D01*
X96068000Y-77990670D01*
X96069657Y-78033417D01*
X96109651Y-78118924D01*
X96191385Y-78043850D01*
X96202890Y-78013322D01*
X96154048Y-77911853D01*
X96109657Y-77903467D01*
X96068000Y-77990670D01*
X94713334Y-77990670D01*
X94713334Y-77660297D01*
X95259026Y-77660297D01*
X95289230Y-77733671D01*
X95407813Y-77719382D01*
X95517124Y-77706197D01*
X95530803Y-77762746D01*
X95541799Y-77804997D01*
X95686236Y-77754916D01*
X95827979Y-77647435D01*
X95903957Y-77487667D01*
X95910569Y-77318333D01*
X95978690Y-77487667D01*
X96014462Y-77596443D01*
X96023158Y-77699333D01*
X96024446Y-77707377D01*
X96119401Y-77731824D01*
X96316624Y-77741667D01*
X96412042Y-77739259D01*
X96578252Y-77703205D01*
X96617024Y-77614667D01*
X96613777Y-77563119D01*
X96636694Y-77593500D01*
X96656401Y-77632235D01*
X96764664Y-77699333D01*
X96783837Y-77749134D01*
X96700298Y-77871652D01*
X96570324Y-77978647D01*
X96451319Y-78008272D01*
X96420953Y-78013322D01*
X96397551Y-78017214D01*
X96358286Y-78132286D01*
X96358658Y-78157944D01*
X96359575Y-78221092D01*
X96365868Y-78292000D01*
X96386048Y-78273867D01*
X96410312Y-78249667D01*
X98184667Y-78249667D01*
X98227000Y-78292000D01*
X98269334Y-78249667D01*
X98227000Y-78207333D01*
X98184667Y-78249667D01*
X96410312Y-78249667D01*
X96493369Y-78166828D01*
X96495156Y-78165000D01*
X98946667Y-78165000D01*
X98989000Y-78207333D01*
X99031334Y-78165000D01*
X98989000Y-78122667D01*
X98946667Y-78165000D01*
X96495156Y-78165000D01*
X96660667Y-77995667D01*
X96757007Y-77905423D01*
X96869335Y-77826333D01*
X99200667Y-77826333D01*
X99209906Y-77884716D01*
X99282677Y-77953333D01*
X99317711Y-77935355D01*
X99315952Y-77826333D01*
X99288536Y-77765539D01*
X99233942Y-77699333D01*
X99218782Y-77713370D01*
X99200667Y-77826333D01*
X96869335Y-77826333D01*
X96966850Y-77757673D01*
X97133884Y-77699333D01*
X97301788Y-77647416D01*
X97380005Y-77524065D01*
X97329127Y-77385660D01*
X97266877Y-77250144D01*
X97251622Y-77162122D01*
X97338000Y-77162122D01*
X97342213Y-77183910D01*
X97407595Y-77160813D01*
X97557712Y-77000833D01*
X97719000Y-76810333D01*
X97528500Y-76971622D01*
X97395098Y-77092977D01*
X97338000Y-77162122D01*
X97251622Y-77162122D01*
X97229910Y-77036845D01*
X97228779Y-77022130D01*
X97196394Y-76842341D01*
X97147500Y-76768168D01*
X97116448Y-76750613D01*
X97084000Y-76632107D01*
X97069361Y-76570347D01*
X97168667Y-76570347D01*
X97168719Y-76573040D01*
X97235049Y-76684336D01*
X97369482Y-76772139D01*
X97487162Y-76780467D01*
X97499831Y-76715967D01*
X97373893Y-76626783D01*
X97233750Y-76571603D01*
X97168667Y-76570347D01*
X97069361Y-76570347D01*
X97068455Y-76566524D01*
X96969897Y-76521664D01*
X96746057Y-76528442D01*
X96673812Y-76533283D01*
X96468875Y-76521372D01*
X96365838Y-76473835D01*
X96348120Y-76457179D01*
X96363183Y-76556333D01*
X96373148Y-76666451D01*
X96331195Y-76839659D01*
X96311483Y-76865951D01*
X96246810Y-76863442D01*
X96173721Y-76707335D01*
X96102839Y-76552134D01*
X95992090Y-76488283D01*
X95781594Y-76496772D01*
X95685550Y-76510928D01*
X95521729Y-76574413D01*
X95475334Y-76692596D01*
X95464436Y-76781987D01*
X95411834Y-76852667D01*
X95371641Y-76894311D01*
X95345221Y-77043167D01*
X95327795Y-77245331D01*
X95285627Y-77499885D01*
X95259026Y-77660297D01*
X94713334Y-77660297D01*
X94713334Y-76385298D01*
X95070090Y-76385298D01*
X95080223Y-76485778D01*
X95105689Y-76499023D01*
X95136667Y-76429333D01*
X95130557Y-76384511D01*
X95080223Y-76372889D01*
X95070090Y-76385298D01*
X94713334Y-76385298D01*
X94713334Y-76357014D01*
X96686321Y-76357014D01*
X96722517Y-76425360D01*
X96738650Y-76351333D01*
X96777964Y-76230737D01*
X96890358Y-76055000D01*
X96978369Y-75945418D01*
X96965160Y-75945797D01*
X96857222Y-76043336D01*
X96838029Y-76060680D01*
X96832466Y-76065864D01*
X96716585Y-76217667D01*
X96710653Y-76225438D01*
X96696433Y-76302333D01*
X96686321Y-76357014D01*
X94713334Y-76357014D01*
X94713334Y-76302333D01*
X95729334Y-76302333D01*
X95771667Y-76344667D01*
X95814000Y-76302333D01*
X95771667Y-76260000D01*
X95729334Y-76302333D01*
X94713334Y-76302333D01*
X94713334Y-76123752D01*
X95065303Y-76123752D01*
X95085514Y-76237069D01*
X95114416Y-76235758D01*
X95116981Y-76217667D01*
X96237334Y-76217667D01*
X96279667Y-76260000D01*
X96322000Y-76217667D01*
X96279667Y-76175333D01*
X96237334Y-76217667D01*
X95116981Y-76217667D01*
X95129983Y-76125944D01*
X95125189Y-76096517D01*
X96452616Y-76096517D01*
X96472703Y-76125944D01*
X96474786Y-76128995D01*
X96548098Y-76165665D01*
X96576000Y-76043336D01*
X96563583Y-75982915D01*
X96489953Y-75964520D01*
X96463234Y-75987777D01*
X96452616Y-76096517D01*
X95125189Y-76096517D01*
X95116425Y-76042721D01*
X95078830Y-76074792D01*
X95065303Y-76123752D01*
X94713334Y-76123752D01*
X94713334Y-75792631D01*
X95662756Y-75792631D01*
X95672889Y-75893111D01*
X95698356Y-75906357D01*
X95729334Y-75836667D01*
X95723224Y-75791844D01*
X95672889Y-75780222D01*
X95662756Y-75792631D01*
X94713334Y-75792631D01*
X94713334Y-74609000D01*
X95052000Y-74609000D01*
X95094334Y-74651333D01*
X95136667Y-74609000D01*
X95094334Y-74566667D01*
X95052000Y-74609000D01*
X94713334Y-74609000D01*
X94713334Y-73310067D01*
X95066183Y-73310067D01*
X95075143Y-73724472D01*
X95100354Y-73974747D01*
X95141664Y-74058667D01*
X95172288Y-74052019D01*
X95179000Y-73974000D01*
X95165771Y-73941203D01*
X95216337Y-73889333D01*
X95269441Y-73855241D01*
X95271589Y-73847000D01*
X95390667Y-73847000D01*
X95433000Y-73889333D01*
X95475334Y-73847000D01*
X95433000Y-73804667D01*
X95390667Y-73847000D01*
X95271589Y-73847000D01*
X95306000Y-73715003D01*
X95324027Y-73618923D01*
X95390667Y-73593000D01*
X95423464Y-73606229D01*
X95475334Y-73555663D01*
X95465388Y-73509643D01*
X95380356Y-73464920D01*
X95268702Y-73505104D01*
X95204597Y-73614167D01*
X95194857Y-73603167D01*
X95178457Y-73453451D01*
X95158273Y-73186985D01*
X95145238Y-72972224D01*
X95277003Y-72972224D01*
X95317741Y-73042667D01*
X95364941Y-73001065D01*
X95399107Y-72852167D01*
X95405870Y-72744809D01*
X95425595Y-72730835D01*
X95475334Y-72873333D01*
X95543121Y-73085000D01*
X95551561Y-72852167D01*
X95539996Y-72729094D01*
X95464156Y-72624861D01*
X95362051Y-72657463D01*
X95285278Y-72831000D01*
X95277003Y-72972224D01*
X95145238Y-72972224D01*
X95136667Y-72831000D01*
X95094781Y-72069000D01*
X95390667Y-72069000D01*
X95415524Y-72207066D01*
X95517667Y-72280667D01*
X95600507Y-72239238D01*
X95644667Y-72069000D01*
X95619810Y-71930934D01*
X95517667Y-71857333D01*
X95434828Y-71898761D01*
X95390667Y-72069000D01*
X95094781Y-72069000D01*
X95085473Y-71899667D01*
X95068737Y-72979167D01*
X95066183Y-73310067D01*
X94713334Y-73310067D01*
X94713334Y-71476333D01*
X95475334Y-71476333D01*
X95480024Y-71534260D01*
X95517667Y-71603333D01*
X95528841Y-71600143D01*
X95560000Y-71513670D01*
X95566648Y-71483046D01*
X95644667Y-71476333D01*
X95677464Y-71489563D01*
X95729334Y-71438997D01*
X95714964Y-71397693D01*
X95602334Y-71349333D01*
X95543107Y-71364085D01*
X95475334Y-71476333D01*
X94713334Y-71476333D01*
X94713334Y-71285833D01*
X94977155Y-71285833D01*
X94980289Y-71337342D01*
X94995883Y-71408842D01*
X95027121Y-71320773D01*
X95038917Y-71284449D01*
X95105663Y-71212217D01*
X95253376Y-71185675D01*
X95525415Y-71193773D01*
X95711070Y-71198649D01*
X95907331Y-71182697D01*
X95983449Y-71144722D01*
X95985026Y-71126490D01*
X96031534Y-71115311D01*
X96036888Y-71187295D01*
X95970848Y-71337863D01*
X95936622Y-71402181D01*
X95930296Y-71438997D01*
X95904715Y-71587866D01*
X95953426Y-71854885D01*
X95995701Y-72031312D01*
X95996809Y-72069000D01*
X95998654Y-72131767D01*
X95943556Y-72113454D01*
X95879805Y-72075735D01*
X95835983Y-72133844D01*
X95835652Y-72139277D01*
X95817051Y-72359100D01*
X95785119Y-72661848D01*
X95762958Y-72852167D01*
X95745088Y-73005639D01*
X95702191Y-73348591D01*
X95674237Y-73555663D01*
X95661661Y-73648822D01*
X95631394Y-73847000D01*
X95628729Y-73864450D01*
X95608630Y-73953593D01*
X95606769Y-73972960D01*
X95660404Y-74096665D01*
X95777215Y-74286564D01*
X95827604Y-74370619D01*
X95927893Y-74609000D01*
X95956925Y-74678007D01*
X96034898Y-74999344D01*
X96073956Y-75258592D01*
X96116493Y-75382089D01*
X96182221Y-75383401D01*
X96292156Y-75285940D01*
X96316205Y-75256357D01*
X96400729Y-75052844D01*
X96424064Y-74945965D01*
X96594090Y-74945965D01*
X96604223Y-75046444D01*
X96629689Y-75059690D01*
X96660667Y-74990000D01*
X96654557Y-74945178D01*
X96604223Y-74933555D01*
X96594090Y-74945965D01*
X96424064Y-74945965D01*
X96478298Y-74697564D01*
X96549980Y-74184674D01*
X96616841Y-73508333D01*
X96630120Y-73358083D01*
X96676119Y-72932439D01*
X96724151Y-72651813D01*
X96778246Y-72497302D01*
X96842433Y-72450000D01*
X96881862Y-72475266D01*
X96884164Y-72598167D01*
X96818411Y-72901276D01*
X96777673Y-73290329D01*
X96781953Y-73643674D01*
X96833698Y-73898261D01*
X96848060Y-73933985D01*
X96894938Y-74128766D01*
X96842223Y-74249644D01*
X96816951Y-74271902D01*
X96761200Y-74262188D01*
X96745334Y-74103822D01*
X96744744Y-74042881D01*
X96732176Y-73907549D01*
X96706199Y-73928117D01*
X96670719Y-74094680D01*
X96629637Y-74397333D01*
X96607041Y-74606363D01*
X96601522Y-74747899D01*
X96627831Y-74759006D01*
X96690885Y-74660843D01*
X96716395Y-74616376D01*
X96777902Y-74527331D01*
X96799090Y-74572686D01*
X96796885Y-74769845D01*
X96794769Y-74811925D01*
X96762439Y-74990000D01*
X96756291Y-75023866D01*
X96688547Y-75142184D01*
X96605365Y-75256389D01*
X96539079Y-75456515D01*
X96521052Y-75554268D01*
X96520002Y-75622329D01*
X96565612Y-75540333D01*
X96597542Y-75473152D01*
X96649491Y-75422042D01*
X96702971Y-75519167D01*
X96726596Y-75610092D01*
X96714716Y-75794333D01*
X96705353Y-75836667D01*
X96700416Y-75858990D01*
X96740936Y-75921333D01*
X96771073Y-75913847D01*
X96851510Y-75815500D01*
X96904040Y-75752143D01*
X97014522Y-75814765D01*
X97092965Y-75868314D01*
X97176457Y-75885570D01*
X97177186Y-75884905D01*
X97206500Y-75936160D01*
X97207764Y-75945418D01*
X97228983Y-76100835D01*
X97272439Y-76300062D01*
X97344127Y-76429333D01*
X97366812Y-76470240D01*
X97412755Y-76503314D01*
X97462454Y-76484829D01*
X97502098Y-76386680D01*
X97635396Y-76386680D01*
X97676667Y-76446267D01*
X97706943Y-76512105D01*
X97745334Y-76715967D01*
X97746037Y-76719700D01*
X97751132Y-76810333D01*
X97761334Y-76991799D01*
X97761347Y-77003905D01*
X97776685Y-77283264D01*
X97833321Y-77452525D01*
X97905594Y-77524065D01*
X97949506Y-77567532D01*
X97979376Y-77586290D01*
X98229601Y-77668158D01*
X98545520Y-77695415D01*
X98712851Y-77679955D01*
X99532039Y-77679955D01*
X99834608Y-77715279D01*
X99874740Y-77719579D01*
X100074686Y-77728254D01*
X100176922Y-77710856D01*
X100182451Y-77698637D01*
X100199652Y-77561166D01*
X100211386Y-77309526D01*
X100215371Y-76986722D01*
X100214226Y-76871002D01*
X100202273Y-76599155D01*
X100180215Y-76431473D01*
X100151596Y-76400527D01*
X100036788Y-76476777D01*
X99835392Y-76527527D01*
X99772289Y-76535289D01*
X99698823Y-76556333D01*
X99662335Y-76566785D01*
X99602318Y-76647837D01*
X99573427Y-76818328D01*
X99556853Y-77118144D01*
X99532039Y-77679955D01*
X98712851Y-77679955D01*
X98852150Y-77667085D01*
X99074505Y-77582190D01*
X99155265Y-77497456D01*
X99218465Y-77314119D01*
X99238854Y-77010690D01*
X99243000Y-76556333D01*
X98925500Y-76530056D01*
X98608000Y-76503778D01*
X98608000Y-76847556D01*
X98606019Y-76920886D01*
X98574189Y-77115351D01*
X98514071Y-77191333D01*
X98509927Y-77191129D01*
X98454151Y-77108609D01*
X98454043Y-76900939D01*
X98458305Y-76858632D01*
X98456508Y-76696273D01*
X98420973Y-76651936D01*
X98399071Y-76660518D01*
X98354000Y-76603663D01*
X98352930Y-76595809D01*
X98263613Y-76537777D01*
X98074600Y-76514000D01*
X98068604Y-76513981D01*
X97844745Y-76488528D01*
X97693600Y-76429333D01*
X97635833Y-76387000D01*
X98015334Y-76387000D01*
X98057667Y-76429333D01*
X98100000Y-76387000D01*
X98057667Y-76344667D01*
X98015334Y-76387000D01*
X97635833Y-76387000D01*
X97635396Y-76386680D01*
X97502098Y-76386680D01*
X97505472Y-76378328D01*
X97536324Y-76217667D01*
X97676667Y-76217667D01*
X97719000Y-76260000D01*
X97761334Y-76217667D01*
X97719000Y-76175333D01*
X97676667Y-76217667D01*
X97536324Y-76217667D01*
X97546706Y-76163605D01*
X97550661Y-76133000D01*
X98269334Y-76133000D01*
X98311667Y-76175333D01*
X98354000Y-76133000D01*
X98352298Y-76131298D01*
X100234756Y-76131298D01*
X100234928Y-76133000D01*
X100243466Y-76217667D01*
X100244889Y-76231778D01*
X100270356Y-76245023D01*
X100301334Y-76175333D01*
X100295224Y-76130511D01*
X100244889Y-76118889D01*
X100234756Y-76131298D01*
X98352298Y-76131298D01*
X98311667Y-76090667D01*
X98269334Y-76133000D01*
X97550661Y-76133000D01*
X97561602Y-76048333D01*
X97676667Y-76048333D01*
X97719000Y-76090667D01*
X97761334Y-76048333D01*
X97719000Y-76006000D01*
X97676667Y-76048333D01*
X97561602Y-76048333D01*
X97571897Y-75968663D01*
X98354000Y-75968663D01*
X98354825Y-75980499D01*
X98403835Y-75999145D01*
X98437110Y-75963667D01*
X99539334Y-75963667D01*
X99581667Y-76006000D01*
X99624000Y-75963667D01*
X99581667Y-75921333D01*
X99539334Y-75963667D01*
X98437110Y-75963667D01*
X98489085Y-75908251D01*
X98505354Y-75870886D01*
X99959811Y-75870886D01*
X99977965Y-75892863D01*
X100132000Y-75901690D01*
X100189445Y-75900871D01*
X100306518Y-75887511D01*
X100280167Y-75862970D01*
X100198568Y-75849803D01*
X100017005Y-75860936D01*
X99983834Y-75862970D01*
X99959811Y-75870886D01*
X98505354Y-75870886D01*
X98509686Y-75860936D01*
X98451749Y-75870915D01*
X98414137Y-75897051D01*
X98354000Y-75968663D01*
X97571897Y-75968663D01*
X97591050Y-75820453D01*
X97602843Y-75709667D01*
X97761334Y-75709667D01*
X97803667Y-75752000D01*
X97846000Y-75709667D01*
X98523334Y-75709667D01*
X98565667Y-75752000D01*
X98608000Y-75709667D01*
X98565667Y-75667333D01*
X98523334Y-75709667D01*
X97846000Y-75709667D01*
X97803667Y-75667333D01*
X97761334Y-75709667D01*
X97602843Y-75709667D01*
X97611856Y-75625000D01*
X98777334Y-75625000D01*
X98819667Y-75667333D01*
X98862000Y-75625000D01*
X98819667Y-75582667D01*
X98777334Y-75625000D01*
X97611856Y-75625000D01*
X97643401Y-75328667D01*
X97647831Y-75286333D01*
X98015334Y-75286333D01*
X98057667Y-75328667D01*
X98100000Y-75286333D01*
X98354000Y-75286333D01*
X98396334Y-75328667D01*
X98438667Y-75286333D01*
X98396334Y-75244000D01*
X98354000Y-75286333D01*
X98100000Y-75286333D01*
X98057667Y-75244000D01*
X98015334Y-75286333D01*
X97647831Y-75286333D01*
X97651787Y-75248523D01*
X97657261Y-75201667D01*
X98862000Y-75201667D01*
X98904334Y-75244000D01*
X98946667Y-75201667D01*
X98904334Y-75159333D01*
X98862000Y-75201667D01*
X97657261Y-75201667D01*
X97677241Y-75030631D01*
X98710756Y-75030631D01*
X98720889Y-75131111D01*
X98746356Y-75144357D01*
X98777334Y-75074667D01*
X98771224Y-75029844D01*
X98720889Y-75018222D01*
X98710756Y-75030631D01*
X97677241Y-75030631D01*
X97686932Y-74947667D01*
X99454667Y-74947667D01*
X99497000Y-74990000D01*
X99539334Y-74947667D01*
X99497000Y-74905333D01*
X99454667Y-74947667D01*
X97686932Y-74947667D01*
X97687470Y-74943064D01*
X97698405Y-74863000D01*
X98100000Y-74863000D01*
X98142334Y-74905333D01*
X98173312Y-74874355D01*
X99638977Y-74874355D01*
X99708667Y-74905333D01*
X99753489Y-74899223D01*
X99758418Y-74877879D01*
X100181058Y-74877879D01*
X100294547Y-74928090D01*
X100303503Y-74930405D01*
X100427577Y-74946546D01*
X100405605Y-74891071D01*
X100358459Y-74857333D01*
X100205092Y-74838636D01*
X100198813Y-74848889D01*
X100181058Y-74877879D01*
X99758418Y-74877879D01*
X99765112Y-74848889D01*
X99752702Y-74838756D01*
X99652223Y-74848889D01*
X99644883Y-74863000D01*
X99638977Y-74874355D01*
X98173312Y-74874355D01*
X98184667Y-74863000D01*
X98142334Y-74820667D01*
X98100000Y-74863000D01*
X97698405Y-74863000D01*
X97709969Y-74778333D01*
X98777334Y-74778333D01*
X98819667Y-74820667D01*
X98862000Y-74778333D01*
X98819667Y-74736000D01*
X98777334Y-74778333D01*
X97709969Y-74778333D01*
X97721533Y-74693667D01*
X99031334Y-74693667D01*
X99073667Y-74736000D01*
X99116000Y-74693667D01*
X99073667Y-74651333D01*
X99031334Y-74693667D01*
X97721533Y-74693667D01*
X97730355Y-74631391D01*
X97730148Y-74521747D01*
X97681103Y-74564294D01*
X97672692Y-74577224D01*
X97603248Y-74641316D01*
X97546719Y-74547181D01*
X97526430Y-74469869D01*
X97536476Y-74355000D01*
X99708667Y-74355000D01*
X99751000Y-74397333D01*
X99793334Y-74355000D01*
X99784514Y-74346180D01*
X100578264Y-74346180D01*
X100578664Y-74355000D01*
X100579575Y-74375082D01*
X100689389Y-74390649D01*
X100772612Y-74377091D01*
X100740542Y-74339496D01*
X100691581Y-74325969D01*
X100578264Y-74346180D01*
X99784514Y-74346180D01*
X99751000Y-74312667D01*
X99708667Y-74355000D01*
X97536476Y-74355000D01*
X97538552Y-74331267D01*
X97601604Y-74267132D01*
X97685954Y-74324794D01*
X97697745Y-74341710D01*
X97744241Y-74341990D01*
X97750117Y-74281688D01*
X100231644Y-74281688D01*
X100301334Y-74312667D01*
X100346156Y-74306556D01*
X100357778Y-74256222D01*
X100345369Y-74246089D01*
X100244889Y-74256222D01*
X100231644Y-74281688D01*
X97750117Y-74281688D01*
X97760037Y-74179880D01*
X97741219Y-74099298D01*
X98118090Y-74099298D01*
X98128223Y-74199778D01*
X98153689Y-74213023D01*
X98184667Y-74143333D01*
X98178557Y-74098511D01*
X98128223Y-74086889D01*
X98118090Y-74099298D01*
X97741219Y-74099298D01*
X97702072Y-73931667D01*
X99031334Y-73931667D01*
X99073667Y-73974000D01*
X99116000Y-73931667D01*
X99073667Y-73889333D01*
X99031334Y-73931667D01*
X97702072Y-73931667D01*
X97700393Y-73924476D01*
X97524910Y-73668419D01*
X98367303Y-73668419D01*
X98387514Y-73781736D01*
X98416416Y-73780425D01*
X98418981Y-73762333D01*
X100216667Y-73762333D01*
X100259000Y-73804667D01*
X100301334Y-73762333D01*
X100259000Y-73720000D01*
X100216667Y-73762333D01*
X98418981Y-73762333D01*
X98430275Y-73682663D01*
X99116000Y-73682663D01*
X99116825Y-73694499D01*
X99165835Y-73713145D01*
X99199110Y-73677667D01*
X100640000Y-73677667D01*
X100682334Y-73720000D01*
X100724667Y-73677667D01*
X100682334Y-73635333D01*
X100640000Y-73677667D01*
X99199110Y-73677667D01*
X99251085Y-73622251D01*
X99263821Y-73593000D01*
X100216667Y-73593000D01*
X100259000Y-73635333D01*
X100301334Y-73593000D01*
X100259000Y-73550667D01*
X100216667Y-73593000D01*
X99263821Y-73593000D01*
X99271686Y-73574936D01*
X99213749Y-73584915D01*
X99176137Y-73611051D01*
X99126121Y-73670611D01*
X99116000Y-73682663D01*
X98430275Y-73682663D01*
X98431983Y-73670611D01*
X98418425Y-73587388D01*
X98380830Y-73619458D01*
X98367303Y-73668419D01*
X97524910Y-73668419D01*
X97482915Y-73607142D01*
X97459101Y-73579684D01*
X97282145Y-73314768D01*
X97264434Y-73265434D01*
X97295667Y-73296667D01*
X97338000Y-73254333D01*
X97295667Y-73212000D01*
X97258570Y-73249097D01*
X97201373Y-73089771D01*
X97265107Y-73089771D01*
X97371770Y-73076571D01*
X97431324Y-73067235D01*
X97554185Y-73134643D01*
X97576955Y-73193681D01*
X97499249Y-73170327D01*
X97425712Y-73138722D01*
X97479551Y-73209896D01*
X97522786Y-73276433D01*
X97537279Y-73425419D01*
X97532677Y-73532093D01*
X97619038Y-73589508D01*
X97747780Y-73530353D01*
X97763923Y-73506631D01*
X98202756Y-73506631D01*
X98212889Y-73607111D01*
X98238356Y-73620357D01*
X98269334Y-73550667D01*
X98263224Y-73505844D01*
X98212889Y-73494222D01*
X98202756Y-73506631D01*
X97763923Y-73506631D01*
X97783530Y-73477819D01*
X97830281Y-73323228D01*
X97842086Y-73179676D01*
X98460992Y-73179676D01*
X98471916Y-73269836D01*
X98494367Y-73360574D01*
X98510257Y-73296667D01*
X98529257Y-73132765D01*
X98578342Y-72873333D01*
X98590430Y-72821594D01*
X98594944Y-72721496D01*
X98529076Y-72756343D01*
X98518898Y-72767382D01*
X98463544Y-72930890D01*
X98462832Y-73000333D01*
X98460992Y-73179676D01*
X97842086Y-73179676D01*
X97844439Y-73151065D01*
X97823874Y-73022116D01*
X97766458Y-72997166D01*
X97721104Y-72992895D01*
X97719033Y-72982032D01*
X98197049Y-72982032D01*
X98213798Y-73150111D01*
X98217172Y-73157660D01*
X98243677Y-73144929D01*
X98252828Y-73000333D01*
X98252270Y-72974041D01*
X98237611Y-72861584D01*
X98210661Y-72896111D01*
X98197049Y-72982032D01*
X97719033Y-72982032D01*
X97699484Y-72879479D01*
X97732127Y-72768890D01*
X97821359Y-72803350D01*
X97832815Y-72812557D01*
X97909730Y-72832302D01*
X97930667Y-72705308D01*
X97902141Y-72573139D01*
X97796742Y-72567941D01*
X97726907Y-72591510D01*
X97587733Y-72619333D01*
X97554632Y-72645532D01*
X97565814Y-72767500D01*
X97584411Y-72843532D01*
X97553078Y-72856198D01*
X97494503Y-72843298D01*
X97370254Y-72913651D01*
X97287199Y-73008797D01*
X97265107Y-73089771D01*
X97201373Y-73089771D01*
X97190381Y-73059151D01*
X97192283Y-72852471D01*
X97296325Y-72734365D01*
X97366481Y-72688521D01*
X97344680Y-72585048D01*
X97339591Y-72578461D01*
X97348565Y-72522037D01*
X97486865Y-72486921D01*
X97774334Y-72467691D01*
X98008612Y-72454734D01*
X98242620Y-72430197D01*
X98363080Y-72402055D01*
X98410392Y-72396727D01*
X98490470Y-72486481D01*
X98530109Y-72547249D01*
X98629954Y-72563432D01*
X98668423Y-72547594D01*
X98658419Y-72606251D01*
X98647463Y-72665718D01*
X98751170Y-72705296D01*
X98751247Y-72705308D01*
X98830278Y-72717656D01*
X98828839Y-72721496D01*
X98811118Y-72768796D01*
X98739432Y-72865665D01*
X98676128Y-73056322D01*
X98659490Y-73164960D01*
X98680825Y-73234749D01*
X98785034Y-73187542D01*
X98865295Y-73114939D01*
X98885776Y-73012639D01*
X98873976Y-72981212D01*
X98934235Y-72992650D01*
X99016863Y-73004018D01*
X99158983Y-72927112D01*
X99167952Y-72917437D01*
X99239265Y-72774947D01*
X99279130Y-72583169D01*
X99282118Y-72492333D01*
X99454667Y-72492333D01*
X99497000Y-72534667D01*
X99539334Y-72492333D01*
X100132000Y-72492333D01*
X100174334Y-72534667D01*
X100216667Y-72492333D01*
X100301334Y-72492333D01*
X100343667Y-72534667D01*
X100386000Y-72492333D01*
X100343667Y-72450000D01*
X100301334Y-72492333D01*
X100216667Y-72492333D01*
X100174334Y-72450000D01*
X100132000Y-72492333D01*
X99539334Y-72492333D01*
X99497000Y-72450000D01*
X99454667Y-72492333D01*
X99282118Y-72492333D01*
X99285302Y-72395535D01*
X99255536Y-72265474D01*
X99187585Y-72246418D01*
X99139701Y-72267081D01*
X99151102Y-72207700D01*
X99184125Y-72170631D01*
X99291184Y-72157282D01*
X99315364Y-72154691D01*
X99315730Y-72153667D01*
X99962667Y-72153667D01*
X99970569Y-72211889D01*
X100033223Y-72280667D01*
X100065569Y-72266443D01*
X100103778Y-72153667D01*
X100301334Y-72153667D01*
X100309236Y-72211889D01*
X100371889Y-72280667D01*
X100404235Y-72266443D01*
X100413759Y-72238333D01*
X100809334Y-72238333D01*
X100851667Y-72280667D01*
X100894000Y-72238333D01*
X100851667Y-72196000D01*
X100809334Y-72238333D01*
X100413759Y-72238333D01*
X100442445Y-72153667D01*
X100434543Y-72095444D01*
X100371889Y-72026667D01*
X100339544Y-72040890D01*
X100301334Y-72153667D01*
X100103778Y-72153667D01*
X100095876Y-72095444D01*
X100033223Y-72026667D01*
X100000877Y-72040890D01*
X99962667Y-72153667D01*
X99315730Y-72153667D01*
X99354682Y-72044571D01*
X99370000Y-71826921D01*
X99371382Y-71733503D01*
X99373250Y-71705158D01*
X99472078Y-71705158D01*
X99483261Y-71878500D01*
X99512660Y-71892862D01*
X99525965Y-71772667D01*
X99521675Y-71730333D01*
X99624000Y-71730333D01*
X99666334Y-71772667D01*
X99708667Y-71730333D01*
X99666334Y-71688000D01*
X99624000Y-71730333D01*
X99521675Y-71730333D01*
X99514163Y-71656197D01*
X99483261Y-71666833D01*
X99472078Y-71705158D01*
X99373250Y-71705158D01*
X99386151Y-71509407D01*
X99575944Y-71509407D01*
X99577964Y-71512587D01*
X99689519Y-71590762D01*
X99817097Y-71591512D01*
X99878000Y-71513670D01*
X99887168Y-71480653D01*
X99971114Y-71481554D01*
X100019497Y-71483291D01*
X99968135Y-71359550D01*
X99945649Y-71315837D01*
X99918245Y-71206773D01*
X100002022Y-71180000D01*
X100063219Y-71169963D01*
X100132000Y-71095333D01*
X100101874Y-71021282D01*
X99976102Y-71048757D01*
X99753450Y-71213073D01*
X99717180Y-71246023D01*
X99595349Y-71399034D01*
X99575944Y-71509407D01*
X99386151Y-71509407D01*
X99388615Y-71472019D01*
X99419246Y-71292758D01*
X99441116Y-71218259D01*
X99428615Y-71194282D01*
X99334579Y-71302015D01*
X99237320Y-71395012D01*
X99200667Y-71351016D01*
X99222683Y-71261026D01*
X99323636Y-71099788D01*
X99349819Y-71064703D01*
X99439439Y-70864139D01*
X99503790Y-70606288D01*
X99509680Y-70568783D01*
X99519454Y-70471688D01*
X99808310Y-70471688D01*
X99878000Y-70502667D01*
X99922823Y-70496556D01*
X99934445Y-70446222D01*
X99922036Y-70436089D01*
X99821556Y-70446222D01*
X99808310Y-70471688D01*
X99519454Y-70471688D01*
X99524859Y-70418000D01*
X100174334Y-70418000D01*
X100200988Y-70446222D01*
X100207378Y-70452988D01*
X100353661Y-70502667D01*
X100410089Y-70491254D01*
X100428334Y-70418000D01*
X100395290Y-70383011D01*
X100249007Y-70333333D01*
X100192578Y-70344745D01*
X100174334Y-70418000D01*
X99524859Y-70418000D01*
X99530552Y-70361447D01*
X99498838Y-70269059D01*
X99401988Y-70247370D01*
X99322227Y-70234344D01*
X99330010Y-70183870D01*
X99411935Y-70090154D01*
X99515790Y-69910000D01*
X99521467Y-69897846D01*
X99582378Y-69776479D01*
X99594248Y-69798331D01*
X99566060Y-69975021D01*
X99546583Y-70115340D01*
X99566014Y-70208648D01*
X99655446Y-70198795D01*
X99746064Y-70112439D01*
X99793334Y-69907866D01*
X99806585Y-69718982D01*
X99848475Y-69526154D01*
X99864524Y-69477682D01*
X99842844Y-69417439D01*
X99700308Y-69445754D01*
X99563388Y-69501780D01*
X99471774Y-69573537D01*
X99434609Y-69602084D01*
X99297582Y-69599068D01*
X99176463Y-69595000D01*
X99143272Y-69613667D01*
X98982614Y-69704024D01*
X98829405Y-69932429D01*
X98743732Y-70248667D01*
X98728429Y-70375667D01*
X98724251Y-70410340D01*
X98713990Y-70533317D01*
X98732966Y-70504372D01*
X98746646Y-70460333D01*
X98862000Y-70460333D01*
X98904334Y-70502667D01*
X98946667Y-70460333D01*
X98904334Y-70418000D01*
X98862000Y-70460333D01*
X98746646Y-70460333D01*
X98786098Y-70333333D01*
X98832719Y-70199287D01*
X98913146Y-70028997D01*
X98983572Y-69930980D01*
X99022503Y-69931837D01*
X99008445Y-70058167D01*
X98992452Y-70179521D01*
X99020018Y-70248667D01*
X99031713Y-70255545D01*
X99064389Y-70368883D01*
X99070149Y-70460333D01*
X99077516Y-70577292D01*
X99075839Y-70660850D01*
X99052431Y-70791944D01*
X99044705Y-70835211D01*
X98969758Y-70864567D01*
X98957063Y-70860594D01*
X98886481Y-70908675D01*
X98867951Y-71107441D01*
X98874110Y-71244342D01*
X98895724Y-71305746D01*
X98940560Y-71222333D01*
X98973480Y-71161074D01*
X98999590Y-71206851D01*
X99007730Y-71410792D01*
X99004862Y-71499946D01*
X98988714Y-71557747D01*
X98937055Y-71742665D01*
X98765171Y-71860246D01*
X98470672Y-71868486D01*
X98358116Y-71880401D01*
X98229359Y-72000861D01*
X98196400Y-72071549D01*
X98149116Y-72080605D01*
X98082630Y-71942000D01*
X98030313Y-71821342D01*
X97983289Y-71790235D01*
X97927727Y-71899667D01*
X97894376Y-71978293D01*
X97861661Y-72014151D01*
X97851951Y-71885555D01*
X97869417Y-71768559D01*
X97951834Y-71663784D01*
X97966035Y-71658152D01*
X97975218Y-71645667D01*
X98354000Y-71645667D01*
X98396334Y-71688000D01*
X98438667Y-71645667D01*
X98396334Y-71603333D01*
X98354000Y-71645667D01*
X97975218Y-71645667D01*
X98015055Y-71591503D01*
X98009732Y-71579188D01*
X98613951Y-71579188D01*
X98616941Y-71645667D01*
X98619069Y-71692982D01*
X98639347Y-71743284D01*
X98687206Y-71645667D01*
X98715772Y-71576356D01*
X98756059Y-71527735D01*
X98787088Y-71632095D01*
X98818039Y-71710770D01*
X98883167Y-71723818D01*
X98915521Y-71685705D01*
X98928687Y-71557747D01*
X98777334Y-71434000D01*
X98690016Y-71393843D01*
X98623921Y-71418503D01*
X98613951Y-71579188D01*
X98009732Y-71579188D01*
X97953207Y-71448409D01*
X97901535Y-71308151D01*
X97906975Y-71119847D01*
X97934619Y-71056493D01*
X97977292Y-71042370D01*
X98029703Y-71180000D01*
X98057224Y-71239002D01*
X98067780Y-71176882D01*
X98058128Y-71008235D01*
X98030292Y-70765596D01*
X98022089Y-70712631D01*
X98456756Y-70712631D01*
X98466889Y-70813111D01*
X98492356Y-70826357D01*
X98508627Y-70789752D01*
X98705970Y-70789752D01*
X98726181Y-70903069D01*
X98755083Y-70901758D01*
X98770650Y-70791944D01*
X98757092Y-70708721D01*
X98719497Y-70740792D01*
X98715111Y-70756667D01*
X98705970Y-70789752D01*
X98508627Y-70789752D01*
X98523334Y-70756667D01*
X98517224Y-70711844D01*
X98466889Y-70700222D01*
X98456756Y-70712631D01*
X98022089Y-70712631D01*
X97986292Y-70481500D01*
X97984050Y-70375667D01*
X98100000Y-70375667D01*
X98142334Y-70418000D01*
X98184667Y-70375667D01*
X98142334Y-70333333D01*
X98100000Y-70375667D01*
X97984050Y-70375667D01*
X97982592Y-70306835D01*
X98065123Y-70248667D01*
X98143065Y-70203497D01*
X98184667Y-70037000D01*
X98162394Y-69897758D01*
X98095004Y-69825333D01*
X98067819Y-69821332D01*
X98049069Y-69754579D01*
X98058447Y-69633945D01*
X98054385Y-69613667D01*
X98608000Y-69613667D01*
X98650334Y-69656000D01*
X98692667Y-69613667D01*
X98650334Y-69571333D01*
X98608000Y-69613667D01*
X98054385Y-69613667D01*
X98019010Y-69437079D01*
X98010791Y-69410656D01*
X97961825Y-69303070D01*
X97937944Y-69338500D01*
X97921357Y-69416472D01*
X97846000Y-69486667D01*
X97772910Y-69436758D01*
X97777463Y-69306042D01*
X97867167Y-69159917D01*
X97888042Y-69138320D01*
X97914895Y-69085756D01*
X97803667Y-69116503D01*
X97727146Y-69143223D01*
X97681187Y-69134783D01*
X97760032Y-69025408D01*
X97805407Y-68973210D01*
X97874516Y-68939346D01*
X97942690Y-69016898D01*
X98041714Y-69228818D01*
X98092841Y-69340976D01*
X98179827Y-69505364D01*
X98227345Y-69556878D01*
X98237743Y-69532048D01*
X98268142Y-69381344D01*
X98277615Y-69311406D01*
X98730288Y-69311406D01*
X98744621Y-69383450D01*
X98805556Y-69345555D01*
X98812155Y-69336768D01*
X98844332Y-69202098D01*
X98852264Y-68985722D01*
X98842527Y-68682333D01*
X98776524Y-69021000D01*
X98760431Y-69105661D01*
X98730288Y-69311406D01*
X98277615Y-69311406D01*
X98299869Y-69147116D01*
X98311065Y-69043515D01*
X98320325Y-68878004D01*
X98293966Y-68847407D01*
X98223770Y-68928072D01*
X98148609Y-69019765D01*
X98117478Y-68999243D01*
X98123563Y-68829648D01*
X98128696Y-68773131D01*
X98167231Y-68639863D01*
X98242484Y-68653059D01*
X98266656Y-68666343D01*
X98319743Y-68621732D01*
X98346812Y-68513000D01*
X100809334Y-68513000D01*
X100851667Y-68555333D01*
X100894000Y-68513000D01*
X100851667Y-68470667D01*
X100809334Y-68513000D01*
X98346812Y-68513000D01*
X98363236Y-68447025D01*
X98386324Y-68259000D01*
X99793334Y-68259000D01*
X99835667Y-68301333D01*
X99878000Y-68259000D01*
X99835667Y-68216667D01*
X99793334Y-68259000D01*
X98386324Y-68259000D01*
X98403072Y-68122612D01*
X98406318Y-68089667D01*
X99793334Y-68089667D01*
X99835667Y-68132000D01*
X99856487Y-68111180D01*
X99985785Y-68111180D01*
X100009911Y-68259000D01*
X100012914Y-68277396D01*
X100123288Y-68382051D01*
X100308372Y-68470714D01*
X100490663Y-68504913D01*
X100602259Y-68463236D01*
X100618429Y-68404895D01*
X100539044Y-68374870D01*
X100322500Y-68382687D01*
X100173792Y-68355297D01*
X100170380Y-68343667D01*
X100809334Y-68343667D01*
X100851667Y-68386000D01*
X100894000Y-68343667D01*
X100851667Y-68301333D01*
X100809334Y-68343667D01*
X100170380Y-68343667D01*
X100132000Y-68212856D01*
X100133506Y-68174333D01*
X100640000Y-68174333D01*
X100682334Y-68216667D01*
X100724667Y-68174333D01*
X100682334Y-68132000D01*
X100640000Y-68174333D01*
X100133506Y-68174333D01*
X100134023Y-68161116D01*
X100185634Y-68064018D01*
X100343667Y-68068055D01*
X100385969Y-68074922D01*
X100532225Y-68063330D01*
X100531933Y-67997766D01*
X100376560Y-67917337D01*
X100252240Y-67903379D01*
X100080895Y-67971325D01*
X100000415Y-68089667D01*
X99985785Y-68111180D01*
X99856487Y-68111180D01*
X99878000Y-68089667D01*
X99835667Y-68047333D01*
X99793334Y-68089667D01*
X98406318Y-68089667D01*
X98463510Y-67509258D01*
X98695129Y-67768484D01*
X98926747Y-68027711D01*
X98967052Y-67835667D01*
X101148000Y-67835667D01*
X101190334Y-67878000D01*
X101232667Y-67835667D01*
X101190334Y-67793333D01*
X101148000Y-67835667D01*
X98967052Y-67835667D01*
X99000207Y-67677689D01*
X99024967Y-67586663D01*
X99116000Y-67586663D01*
X99116825Y-67598499D01*
X99165835Y-67617145D01*
X99251085Y-67526251D01*
X99271686Y-67478936D01*
X99213749Y-67488915D01*
X99176137Y-67515051D01*
X99116000Y-67586663D01*
X99024967Y-67586663D01*
X99049737Y-67495601D01*
X99099283Y-67418767D01*
X100666121Y-67418767D01*
X100683607Y-67478936D01*
X100697029Y-67525118D01*
X100849216Y-67686312D01*
X100950103Y-67775455D01*
X101041319Y-67829753D01*
X101037103Y-67762433D01*
X101006514Y-67671533D01*
X100978667Y-67535066D01*
X100954870Y-67502677D01*
X100836968Y-67514356D01*
X100820196Y-67520553D01*
X100734740Y-67522101D01*
X100757318Y-67405865D01*
X100768915Y-67374640D01*
X100783811Y-67294521D01*
X100711129Y-67350454D01*
X100666121Y-67418767D01*
X99099283Y-67418767D01*
X99167479Y-67313012D01*
X99388883Y-67173618D01*
X99410673Y-67163311D01*
X99642243Y-67079715D01*
X99915699Y-67012888D01*
X100189908Y-66968082D01*
X100423738Y-66950546D01*
X100576056Y-66965532D01*
X100605729Y-67018289D01*
X100615029Y-67105434D01*
X100761906Y-67198729D01*
X100908564Y-67276347D01*
X100978667Y-67363542D01*
X100980586Y-67376688D01*
X101050672Y-67503024D01*
X101190334Y-67674334D01*
X101321148Y-67835667D01*
X101350581Y-67871967D01*
X101393279Y-68003949D01*
X101296167Y-68048630D01*
X101250477Y-68056565D01*
X101275000Y-68112130D01*
X101323820Y-68173618D01*
X101324039Y-68174333D01*
X101375975Y-68343667D01*
X101382054Y-68404895D01*
X101392787Y-68513000D01*
X101399026Y-68575834D01*
X101445363Y-68985722D01*
X101452759Y-69051150D01*
X101499345Y-69360442D01*
X101538564Y-69502140D01*
X101519760Y-69542167D01*
X101387928Y-69537271D01*
X101358264Y-69531277D01*
X101124528Y-69487999D01*
X100851667Y-69441635D01*
X100788872Y-69430365D01*
X100556417Y-69369720D01*
X100411234Y-69302765D01*
X100338531Y-69265642D01*
X100157234Y-69258187D01*
X100122088Y-69267762D01*
X100076302Y-69294048D01*
X100192522Y-69307512D01*
X100332052Y-69359468D01*
X100487226Y-69505983D01*
X100555334Y-69673838D01*
X100549923Y-69678646D01*
X100441546Y-69685164D01*
X100237834Y-69672529D01*
X100234699Y-69672231D01*
X100027928Y-69664559D01*
X99939201Y-69711903D01*
X99920334Y-69839625D01*
X99931117Y-69941011D01*
X100010391Y-70020661D01*
X100208771Y-70043905D01*
X100451676Y-70092319D01*
X100695604Y-70281460D01*
X100746922Y-70345005D01*
X100794154Y-70418000D01*
X100849599Y-70503689D01*
X100898546Y-70623613D01*
X100883051Y-70669048D01*
X100792401Y-70604267D01*
X100735019Y-70556144D01*
X100613687Y-70502666D01*
X100608424Y-70544364D01*
X100707955Y-70650833D01*
X100738547Y-70681375D01*
X100867203Y-70919118D01*
X100958481Y-71285833D01*
X101037627Y-71772667D01*
X100817647Y-71769974D01*
X100712938Y-71766040D01*
X100656322Y-71737601D01*
X100739734Y-71659267D01*
X100814414Y-71578131D01*
X100809687Y-71434571D01*
X100793699Y-71410213D01*
X100715007Y-71362278D01*
X100590258Y-71439444D01*
X100516464Y-71497951D01*
X100481316Y-71501090D01*
X100542549Y-71374055D01*
X100571155Y-71316655D01*
X100588798Y-71189781D01*
X100477310Y-71098888D01*
X100316812Y-71024303D01*
X100240150Y-71053741D01*
X100229105Y-71095333D01*
X100197394Y-71214753D01*
X100208182Y-71390363D01*
X100354521Y-71508207D01*
X100493714Y-71617969D01*
X100556459Y-71730333D01*
X100606454Y-71819865D01*
X100615381Y-71852956D01*
X100697033Y-71993486D01*
X100847106Y-72006816D01*
X100965378Y-72003937D01*
X101026077Y-72085481D01*
X101034215Y-72153667D01*
X101044319Y-72238333D01*
X101051033Y-72294596D01*
X101055832Y-72381595D01*
X101050144Y-72539846D01*
X100989906Y-72577717D01*
X100843307Y-72531488D01*
X100721669Y-72491007D01*
X100595506Y-72476537D01*
X100601506Y-72492333D01*
X100614828Y-72527404D01*
X100790458Y-72624549D01*
X100809268Y-72632947D01*
X100956723Y-72719636D01*
X101002950Y-72836812D01*
X100977118Y-73051137D01*
X100973541Y-73071827D01*
X100958577Y-73283293D01*
X100978224Y-73452919D01*
X101022531Y-73538229D01*
X101081542Y-73496747D01*
X101095128Y-73477521D01*
X101074411Y-73550667D01*
X101068685Y-73571791D01*
X101066132Y-73593000D01*
X101055942Y-73677667D01*
X101047607Y-73746925D01*
X101046752Y-73762333D01*
X101037356Y-73931667D01*
X101031961Y-74028898D01*
X101029538Y-74143333D01*
X101027148Y-74256222D01*
X101024788Y-74367660D01*
X101024706Y-74377091D01*
X101023293Y-74539854D01*
X101018190Y-74693667D01*
X101015381Y-74778333D01*
X101014282Y-74811460D01*
X100993205Y-74946546D01*
X100993030Y-74947667D01*
X100991711Y-74956118D01*
X100948601Y-75002996D01*
X100877972Y-74981265D01*
X100787667Y-74950040D01*
X100673898Y-75010938D01*
X100651847Y-75056444D01*
X100675915Y-75060455D01*
X100757459Y-75057680D01*
X100786145Y-75074667D01*
X100901156Y-75142772D01*
X100949059Y-75195524D01*
X100951921Y-75201667D01*
X100991372Y-75286333D01*
X101033736Y-75377249D01*
X101073525Y-75595505D01*
X101072671Y-75625000D01*
X101070219Y-75709667D01*
X101067586Y-75800580D01*
X101035484Y-75887511D01*
X101015080Y-75942764D01*
X100944475Y-75963667D01*
X100915167Y-75972344D01*
X100883755Y-75964405D01*
X100878729Y-76004165D01*
X100921730Y-76048333D01*
X100999834Y-76128558D01*
X101041232Y-76166233D01*
X101049394Y-76175333D01*
X101200506Y-76343813D01*
X101205113Y-76387000D01*
X101212134Y-76452825D01*
X101070644Y-76502151D01*
X100770564Y-76500669D01*
X100766480Y-76500413D01*
X100504726Y-76487626D01*
X100375272Y-76502884D01*
X100341901Y-76562636D01*
X100368397Y-76683333D01*
X100383600Y-76811299D01*
X100392795Y-76986722D01*
X100398108Y-77088077D01*
X100410434Y-77486045D01*
X100419979Y-77980471D01*
X100426145Y-78546624D01*
X100428334Y-79159774D01*
X100428334Y-79165542D01*
X100428379Y-79200698D01*
X100429105Y-79764476D01*
X100431252Y-80303664D01*
X100434569Y-80761189D01*
X100437732Y-81022500D01*
X100438853Y-81115132D01*
X100443899Y-81343578D01*
X100449500Y-81424607D01*
X100454247Y-81422460D01*
X100470667Y-81340000D01*
X100483035Y-81309022D01*
X104634310Y-81309022D01*
X104704000Y-81340000D01*
X104748823Y-81333890D01*
X104760445Y-81283555D01*
X104748036Y-81273422D01*
X104647556Y-81283555D01*
X104634310Y-81309022D01*
X100483035Y-81309022D01*
X100486822Y-81299538D01*
X100602664Y-81255333D01*
X100663061Y-81242813D01*
X100681110Y-81168687D01*
X100678499Y-81164172D01*
X100673336Y-81012723D01*
X100748414Y-80817877D01*
X100866898Y-80649636D01*
X100991949Y-80578000D01*
X101030578Y-80581134D01*
X101100438Y-80647808D01*
X101093197Y-80832000D01*
X101088731Y-81018952D01*
X101164084Y-81087296D01*
X101221655Y-81103044D01*
X101149068Y-81168215D01*
X101123677Y-81184946D01*
X101092313Y-81231069D01*
X101214652Y-81233411D01*
X101291357Y-81213000D01*
X102164000Y-81213000D01*
X102206334Y-81255333D01*
X102233008Y-81228659D01*
X102382472Y-81228659D01*
X102502667Y-81241965D01*
X102619137Y-81230163D01*
X102610193Y-81204180D01*
X102948931Y-81204180D01*
X102950110Y-81230163D01*
X102950242Y-81233082D01*
X103060056Y-81248649D01*
X103143279Y-81235091D01*
X103124435Y-81213000D01*
X103264667Y-81213000D01*
X103307000Y-81255333D01*
X103349334Y-81213000D01*
X103434000Y-81213000D01*
X103476334Y-81255333D01*
X103518667Y-81213000D01*
X104196000Y-81213000D01*
X104238334Y-81255333D01*
X104280667Y-81213000D01*
X104238334Y-81170667D01*
X104196000Y-81213000D01*
X103518667Y-81213000D01*
X103476334Y-81170667D01*
X103434000Y-81213000D01*
X103349334Y-81213000D01*
X103307000Y-81170667D01*
X103264667Y-81213000D01*
X103124435Y-81213000D01*
X103111209Y-81197496D01*
X103062248Y-81183969D01*
X102948931Y-81204180D01*
X102610193Y-81204180D01*
X102608500Y-81199260D01*
X102570176Y-81188077D01*
X102396834Y-81199260D01*
X102390122Y-81213000D01*
X102382472Y-81228659D01*
X102233008Y-81228659D01*
X102248667Y-81213000D01*
X102206334Y-81170667D01*
X102164000Y-81213000D01*
X101291357Y-81213000D01*
X101330587Y-81202561D01*
X101364409Y-81110159D01*
X101356280Y-81061032D01*
X101362855Y-81055022D01*
X101924977Y-81055022D01*
X101994667Y-81086000D01*
X102039489Y-81079890D01*
X102051112Y-81029555D01*
X102038702Y-81019422D01*
X101938223Y-81029555D01*
X101924977Y-81055022D01*
X101362855Y-81055022D01*
X101421591Y-81001333D01*
X101475718Y-80986541D01*
X101457424Y-80957298D01*
X103621423Y-80957298D01*
X103628710Y-81029555D01*
X103631556Y-81057778D01*
X103657022Y-81071023D01*
X103688000Y-81001333D01*
X103681890Y-80956511D01*
X103631556Y-80944889D01*
X103621423Y-80957298D01*
X101457424Y-80957298D01*
X101425550Y-80906349D01*
X101370169Y-80785383D01*
X101401169Y-80643745D01*
X101511435Y-80578000D01*
X101630210Y-80629449D01*
X101792585Y-80756338D01*
X101982417Y-80934675D01*
X102047187Y-80874333D01*
X102587334Y-80874333D01*
X102629667Y-80916667D01*
X102650834Y-80895500D01*
X104967822Y-80895500D01*
X104968749Y-81001333D01*
X104969330Y-81067669D01*
X104984328Y-81213000D01*
X104989559Y-81263691D01*
X104998958Y-81283555D01*
X105025666Y-81340000D01*
X105037733Y-81334447D01*
X105066661Y-81225929D01*
X105063119Y-81022500D01*
X105054588Y-80935721D01*
X105022584Y-80673599D01*
X104997216Y-80579203D01*
X104986978Y-80620333D01*
X104978843Y-80653011D01*
X104972953Y-80782611D01*
X104967822Y-80895500D01*
X102650834Y-80895500D01*
X102672000Y-80874333D01*
X102629667Y-80832000D01*
X102587334Y-80874333D01*
X102047187Y-80874333D01*
X102147992Y-80780419D01*
X104124636Y-80780419D01*
X104141387Y-80874333D01*
X104144848Y-80893736D01*
X104173750Y-80892425D01*
X104189316Y-80782611D01*
X104175758Y-80699388D01*
X104138164Y-80731458D01*
X104124636Y-80780419D01*
X102147992Y-80780419D01*
X102173840Y-80756338D01*
X102188502Y-80742423D01*
X102219482Y-80705000D01*
X102502667Y-80705000D01*
X102545000Y-80747333D01*
X102569242Y-80723092D01*
X102693402Y-80723092D01*
X102734307Y-80721917D01*
X102874954Y-80620333D01*
X103095334Y-80620333D01*
X103137667Y-80662667D01*
X103180000Y-80620333D01*
X103137667Y-80578000D01*
X103095334Y-80620333D01*
X102874954Y-80620333D01*
X102878683Y-80617640D01*
X102923991Y-80582310D01*
X102961883Y-80537907D01*
X104212352Y-80537907D01*
X104250485Y-80537163D01*
X104317557Y-80433485D01*
X104323584Y-80417422D01*
X104341349Y-80332584D01*
X104270161Y-80386089D01*
X104252639Y-80408667D01*
X104221849Y-80448342D01*
X104215188Y-80511163D01*
X104212352Y-80537907D01*
X102961883Y-80537907D01*
X102984706Y-80511163D01*
X102908908Y-80493333D01*
X102841699Y-80507666D01*
X102726049Y-80620333D01*
X102725524Y-80621703D01*
X102699134Y-80705000D01*
X102693402Y-80723092D01*
X102569242Y-80723092D01*
X102587334Y-80705000D01*
X102545000Y-80662667D01*
X102502667Y-80705000D01*
X102219482Y-80705000D01*
X102285010Y-80625843D01*
X102274999Y-80578000D01*
X102207243Y-80599738D01*
X102076356Y-80708588D01*
X102051876Y-80734513D01*
X101928460Y-80777471D01*
X101845556Y-80699313D01*
X101854566Y-80539278D01*
X101944568Y-80447977D01*
X102132945Y-80461396D01*
X102248224Y-80485558D01*
X102326772Y-80460572D01*
X102314911Y-80364631D01*
X103198090Y-80364631D01*
X103208223Y-80465111D01*
X103233689Y-80478357D01*
X103264667Y-80408667D01*
X103258557Y-80363844D01*
X103208223Y-80352222D01*
X103198090Y-80364631D01*
X102314911Y-80364631D01*
X102310862Y-80331879D01*
X102306106Y-80308064D01*
X102329711Y-80086462D01*
X102334090Y-80075546D01*
X103942644Y-80075546D01*
X104015867Y-80175833D01*
X104042262Y-80208613D01*
X104154816Y-80317376D01*
X104196000Y-80292033D01*
X104165094Y-80248311D01*
X104107487Y-80197000D01*
X104534667Y-80197000D01*
X104577000Y-80239333D01*
X104619334Y-80197000D01*
X104577000Y-80154667D01*
X104534667Y-80197000D01*
X104107487Y-80197000D01*
X104047834Y-80143867D01*
X103986488Y-80096570D01*
X103942644Y-80075546D01*
X102334090Y-80075546D01*
X102421906Y-79856631D01*
X103028756Y-79856631D01*
X103038889Y-79957111D01*
X103064356Y-79970357D01*
X103095334Y-79900667D01*
X103089563Y-79858333D01*
X103264667Y-79858333D01*
X103307000Y-79900667D01*
X103338916Y-79868751D01*
X104290548Y-79868751D01*
X104348337Y-79932495D01*
X104396311Y-79951006D01*
X104450000Y-79901815D01*
X104450771Y-79892986D01*
X104517128Y-79766016D01*
X104657819Y-79600485D01*
X104688753Y-79568656D01*
X104788581Y-79443411D01*
X104789815Y-79392667D01*
X104765891Y-79396277D01*
X104660814Y-79478714D01*
X104637557Y-79505433D01*
X104528817Y-79516051D01*
X104490108Y-79519667D01*
X104481566Y-79520465D01*
X104450000Y-79634614D01*
X104440407Y-79689000D01*
X104432443Y-79734146D01*
X104348337Y-79835776D01*
X104308806Y-79858333D01*
X104290548Y-79868751D01*
X103338916Y-79868751D01*
X103349334Y-79858333D01*
X103307000Y-79816000D01*
X103264667Y-79858333D01*
X103089563Y-79858333D01*
X103089224Y-79855844D01*
X103038889Y-79844222D01*
X103028756Y-79856631D01*
X102421906Y-79856631D01*
X102438888Y-79814296D01*
X102504033Y-79689000D01*
X102926000Y-79689000D01*
X102968334Y-79731333D01*
X103010667Y-79689000D01*
X102968334Y-79646667D01*
X102926000Y-79689000D01*
X102504033Y-79689000D01*
X102511446Y-79674743D01*
X102566263Y-79519667D01*
X104026667Y-79519667D01*
X104069000Y-79562000D01*
X104111334Y-79519667D01*
X104069000Y-79477333D01*
X104026667Y-79519667D01*
X102566263Y-79519667D01*
X102569721Y-79509884D01*
X102551487Y-79358159D01*
X102513040Y-79265667D01*
X104026667Y-79265667D01*
X104069000Y-79308000D01*
X104111334Y-79265667D01*
X104069000Y-79223333D01*
X104026667Y-79265667D01*
X102513040Y-79265667D01*
X102459245Y-79136252D01*
X102427987Y-79072502D01*
X102247735Y-78796123D01*
X102179852Y-78723260D01*
X102502667Y-78723260D01*
X102534370Y-78767831D01*
X102672000Y-78800000D01*
X102770084Y-78793960D01*
X102841334Y-78767541D01*
X102829684Y-78757667D01*
X103264667Y-78757667D01*
X103307000Y-78800000D01*
X103349334Y-78757667D01*
X103307000Y-78715333D01*
X103264667Y-78757667D01*
X102829684Y-78757667D01*
X102808782Y-78739952D01*
X102672000Y-78690801D01*
X102570094Y-78679708D01*
X102502667Y-78723260D01*
X102179852Y-78723260D01*
X102042915Y-78576277D01*
X101957171Y-78503667D01*
X102502667Y-78503667D01*
X102545000Y-78546000D01*
X102587334Y-78503667D01*
X102545000Y-78461333D01*
X102502667Y-78503667D01*
X101957171Y-78503667D01*
X101952893Y-78500044D01*
X101785897Y-78322172D01*
X102509723Y-78322172D01*
X102528283Y-78334920D01*
X102670793Y-78381643D01*
X102859727Y-78408019D01*
X103024702Y-78407753D01*
X103095334Y-78374550D01*
X103091101Y-78360965D01*
X102986298Y-78311858D01*
X102784889Y-78292000D01*
X102729275Y-78292499D01*
X102560114Y-78302782D01*
X102509723Y-78322172D01*
X101785897Y-78322172D01*
X101711130Y-78242536D01*
X103311111Y-78242536D01*
X103317029Y-78329936D01*
X103336840Y-78374550D01*
X103344358Y-78391481D01*
X103406792Y-78458591D01*
X103420795Y-78419000D01*
X103942000Y-78419000D01*
X103984334Y-78461333D01*
X104026667Y-78419000D01*
X104012425Y-78404758D01*
X104406390Y-78404758D01*
X104408930Y-78419000D01*
X104424031Y-78503667D01*
X104434694Y-78563448D01*
X104447214Y-78757667D01*
X104450000Y-78800877D01*
X104486294Y-79005135D01*
X104582198Y-79177450D01*
X104688631Y-79265667D01*
X104704377Y-79278718D01*
X104819371Y-79281869D01*
X104893718Y-79159833D01*
X104911330Y-79150383D01*
X104929357Y-79275396D01*
X104935699Y-79392667D01*
X104942182Y-79512533D01*
X104951068Y-79734111D01*
X104968924Y-79970586D01*
X104988437Y-80056670D01*
X105006921Y-80004088D01*
X105021693Y-79824567D01*
X105030069Y-79529832D01*
X105029366Y-79131611D01*
X105024348Y-78841178D01*
X105014842Y-78559099D01*
X105001485Y-78429546D01*
X104982972Y-78442597D01*
X104958000Y-78588333D01*
X104933981Y-78746380D01*
X104903854Y-78890190D01*
X104886635Y-78899786D01*
X104838070Y-78771771D01*
X104746710Y-78657231D01*
X104657621Y-78601273D01*
X104615515Y-78645786D01*
X104613517Y-78659752D01*
X104569552Y-78642343D01*
X104487238Y-78503667D01*
X104465486Y-78460360D01*
X104407667Y-78364878D01*
X104406390Y-78404758D01*
X104012425Y-78404758D01*
X103984334Y-78376667D01*
X103979338Y-78381663D01*
X103942000Y-78419000D01*
X103420795Y-78419000D01*
X103434000Y-78381663D01*
X103430992Y-78358667D01*
X103350304Y-78250266D01*
X103311111Y-78242536D01*
X101711130Y-78242536D01*
X101636737Y-78163298D01*
X103960090Y-78163298D01*
X103970223Y-78263778D01*
X103995689Y-78277023D01*
X104026667Y-78207333D01*
X104020896Y-78165000D01*
X104280667Y-78165000D01*
X104323000Y-78207333D01*
X104365334Y-78165000D01*
X104323000Y-78122667D01*
X104280667Y-78165000D01*
X104020896Y-78165000D01*
X104020557Y-78162511D01*
X103970223Y-78150889D01*
X103960090Y-78163298D01*
X101636737Y-78163298D01*
X101612348Y-78137321D01*
X101522769Y-77962205D01*
X104159150Y-77962205D01*
X104174878Y-77986309D01*
X104243974Y-78029017D01*
X104309630Y-77915312D01*
X104319988Y-77843644D01*
X104234508Y-77839517D01*
X104180969Y-77872010D01*
X104171537Y-77911000D01*
X104159150Y-77962205D01*
X101522769Y-77962205D01*
X101496575Y-77911000D01*
X103603334Y-77911000D01*
X103645667Y-77953333D01*
X103688000Y-77911000D01*
X103645667Y-77868667D01*
X103603334Y-77911000D01*
X101496575Y-77911000D01*
X101434428Y-77789512D01*
X104470759Y-77789512D01*
X104485514Y-77843644D01*
X104492334Y-77868667D01*
X104509729Y-77893730D01*
X104586994Y-77953333D01*
X104598575Y-77947821D01*
X104581676Y-77885824D01*
X104975411Y-77885824D01*
X104979411Y-77947821D01*
X104986594Y-78059167D01*
X105015993Y-78073529D01*
X105029299Y-77953333D01*
X105017497Y-77836864D01*
X104986594Y-77847500D01*
X104975411Y-77885824D01*
X104581676Y-77885824D01*
X104577000Y-77868667D01*
X104559606Y-77843603D01*
X104482340Y-77784000D01*
X104470759Y-77789512D01*
X101434428Y-77789512D01*
X101427681Y-77776322D01*
X101419093Y-77692524D01*
X101886880Y-77692524D01*
X102655158Y-77691303D01*
X102954684Y-77689146D01*
X103209845Y-77677886D01*
X103355221Y-77650303D01*
X103424129Y-77599085D01*
X103449885Y-77516922D01*
X103457135Y-77471371D01*
X103486891Y-77393688D01*
X103562881Y-77412160D01*
X103730334Y-77528684D01*
X103814261Y-77589521D01*
X103902092Y-77649278D01*
X103867868Y-77610929D01*
X103709167Y-77467470D01*
X103629764Y-77393672D01*
X103502029Y-77234578D01*
X103443916Y-77047422D01*
X103427316Y-76761834D01*
X103420270Y-76574651D01*
X103408881Y-76480725D01*
X104280667Y-76480725D01*
X104304133Y-76512267D01*
X104401178Y-76500489D01*
X104491734Y-76430303D01*
X104499464Y-76391111D01*
X104412065Y-76397028D01*
X104347080Y-76426348D01*
X104280667Y-76480725D01*
X103408881Y-76480725D01*
X103402017Y-76424117D01*
X103377927Y-76408167D01*
X103349556Y-76448825D01*
X103191382Y-76510578D01*
X102959946Y-76506517D01*
X102713108Y-76442279D01*
X102617992Y-76387000D01*
X104619334Y-76387000D01*
X104661667Y-76429333D01*
X104704000Y-76387000D01*
X104661667Y-76344667D01*
X104619334Y-76387000D01*
X102617992Y-76387000D01*
X102508730Y-76323500D01*
X102383929Y-76216427D01*
X102358777Y-76207502D01*
X102366889Y-76217667D01*
X102439773Y-76309000D01*
X102474959Y-76352040D01*
X102574401Y-76513983D01*
X102535559Y-76587006D01*
X102354500Y-76583775D01*
X102232291Y-76573575D01*
X102135717Y-76625797D01*
X102102719Y-76800996D01*
X102115372Y-77002952D01*
X102178646Y-77166646D01*
X102202333Y-77200852D01*
X102204722Y-77320458D01*
X102080200Y-77486744D01*
X101886880Y-77692524D01*
X101419093Y-77692524D01*
X101389042Y-77399316D01*
X101418261Y-77174263D01*
X101477263Y-77053173D01*
X101585483Y-77022000D01*
X101639969Y-77012606D01*
X101726497Y-76914466D01*
X101732018Y-76759747D01*
X101663773Y-76611273D01*
X101529000Y-76531868D01*
X101517700Y-76529782D01*
X101382035Y-76447753D01*
X101265609Y-76300669D01*
X101232398Y-76217667D01*
X101910000Y-76217667D01*
X101952334Y-76260000D01*
X101994667Y-76217667D01*
X101952334Y-76175333D01*
X101910000Y-76217667D01*
X101232398Y-76217667D01*
X101204342Y-76147549D01*
X101233881Y-76048333D01*
X102164000Y-76048333D01*
X102206334Y-76090667D01*
X102248667Y-76048333D01*
X102206334Y-76006000D01*
X102164000Y-76048333D01*
X101233881Y-76048333D01*
X101234155Y-76047414D01*
X101237950Y-76044631D01*
X101264594Y-75963667D01*
X101825334Y-75963667D01*
X101867667Y-76006000D01*
X101910000Y-75963667D01*
X101867667Y-75921333D01*
X101825334Y-75963667D01*
X101264594Y-75963667D01*
X101275533Y-75930426D01*
X101274556Y-75794333D01*
X101994667Y-75794333D01*
X102037000Y-75836667D01*
X102062775Y-75810892D01*
X102445414Y-75810892D01*
X102487718Y-75963667D01*
X102491319Y-75976673D01*
X102538107Y-76048333D01*
X102541052Y-76052844D01*
X102575534Y-76043772D01*
X102584759Y-75883233D01*
X102584403Y-75828462D01*
X102560533Y-75704184D01*
X102493894Y-75726907D01*
X102454973Y-75794333D01*
X102445414Y-75810892D01*
X102062775Y-75810892D01*
X102079334Y-75794333D01*
X102037000Y-75752000D01*
X101994667Y-75794333D01*
X101274556Y-75794333D01*
X101274093Y-75729857D01*
X101265660Y-75643246D01*
X101243791Y-75373218D01*
X101225436Y-75117000D01*
X101486667Y-75117000D01*
X101529000Y-75159333D01*
X101571334Y-75117000D01*
X101529000Y-75074667D01*
X101486667Y-75117000D01*
X101225436Y-75117000D01*
X101218149Y-75015283D01*
X101192688Y-74623165D01*
X101181453Y-74411651D01*
X101176807Y-74065235D01*
X101200417Y-73884986D01*
X101252847Y-73870262D01*
X101334660Y-74020423D01*
X101446419Y-74334829D01*
X101496555Y-74484970D01*
X101622019Y-74827970D01*
X101740524Y-75117000D01*
X101776464Y-75197790D01*
X101875734Y-75428716D01*
X101936947Y-75582667D01*
X101937303Y-75583683D01*
X101971320Y-75633609D01*
X101984982Y-75556532D01*
X101979608Y-75393068D01*
X101956519Y-75183829D01*
X101917032Y-74969430D01*
X101902378Y-74900731D01*
X101882939Y-74737514D01*
X101905461Y-74690861D01*
X101917393Y-74692408D01*
X101955488Y-74606933D01*
X101974179Y-74415097D01*
X101973163Y-74245061D01*
X101952210Y-74188726D01*
X101902065Y-74270333D01*
X101896266Y-74282179D01*
X101858980Y-74302264D01*
X101846048Y-74166628D01*
X101856792Y-73869249D01*
X101857625Y-73854712D01*
X101863736Y-73580538D01*
X101849807Y-73396992D01*
X101818667Y-73343120D01*
X101814696Y-73345193D01*
X101772372Y-73294936D01*
X101765004Y-73130539D01*
X101765366Y-73125491D01*
X101791117Y-72947415D01*
X101827249Y-72873501D01*
X101829405Y-72873907D01*
X101873278Y-72960381D01*
X101935010Y-73168533D01*
X102004363Y-73456156D01*
X102071101Y-73781047D01*
X102124986Y-74101000D01*
X102149506Y-74267227D01*
X102200128Y-74602926D01*
X102253102Y-74947667D01*
X102288477Y-75181583D01*
X102320216Y-75407337D01*
X102332694Y-75519167D01*
X102337494Y-75538595D01*
X102428933Y-75582667D01*
X102446693Y-75577354D01*
X102482390Y-75483295D01*
X102484234Y-75371000D01*
X102756667Y-75371000D01*
X102799000Y-75413333D01*
X102841334Y-75371000D01*
X102799000Y-75328667D01*
X102756667Y-75371000D01*
X102484234Y-75371000D01*
X102486087Y-75258145D01*
X102458537Y-74884167D01*
X102451699Y-74811813D01*
X102432361Y-74609000D01*
X102756667Y-74609000D01*
X102799000Y-74651333D01*
X102841334Y-74609000D01*
X102799000Y-74566667D01*
X102756667Y-74609000D01*
X102432361Y-74609000D01*
X102410649Y-74381281D01*
X102380825Y-74084557D01*
X102358235Y-73891109D01*
X102350892Y-73845298D01*
X102605423Y-73845298D01*
X102615556Y-73945778D01*
X102641022Y-73959023D01*
X102672000Y-73889333D01*
X102665890Y-73844511D01*
X102615556Y-73832889D01*
X102605423Y-73845298D01*
X102350892Y-73845298D01*
X102338888Y-73770402D01*
X102318794Y-73691905D01*
X102293960Y-73625083D01*
X102283147Y-73530655D01*
X102332082Y-73423667D01*
X102502667Y-73423667D01*
X102545000Y-73466000D01*
X102587334Y-73423667D01*
X102545000Y-73381333D01*
X102502667Y-73423667D01*
X102332082Y-73423667D01*
X102356517Y-73370245D01*
X102448429Y-73234615D01*
X102533243Y-73017036D01*
X102539073Y-72995361D01*
X102646706Y-72795539D01*
X102797814Y-72716907D01*
X102952858Y-72781644D01*
X102971211Y-72813545D01*
X103009250Y-72986200D01*
X103037258Y-73261990D01*
X103045625Y-73423667D01*
X103054858Y-73602060D01*
X103060215Y-73889333D01*
X103061673Y-73967553D01*
X103057323Y-74319613D01*
X103041983Y-74609000D01*
X103041433Y-74619383D01*
X103013623Y-74828007D01*
X102973516Y-74906630D01*
X102943717Y-74919699D01*
X103001798Y-74982727D01*
X103053093Y-75045605D01*
X103086834Y-75241808D01*
X103071634Y-75371000D01*
X103056662Y-75498258D01*
X102971910Y-75757745D01*
X102892451Y-75883233D01*
X102841907Y-75963057D01*
X102830652Y-75975272D01*
X102731852Y-76118334D01*
X102731268Y-76201969D01*
X102832412Y-76225920D01*
X103057638Y-76250827D01*
X103351380Y-76268838D01*
X103432842Y-76271336D01*
X103756555Y-76253698D01*
X103920544Y-76183884D01*
X103926421Y-76060421D01*
X103775802Y-75881837D01*
X103732283Y-75838419D01*
X103681244Y-75759876D01*
X103645748Y-75642826D01*
X103623002Y-75461103D01*
X103615042Y-75291469D01*
X104127572Y-75291469D01*
X104145571Y-75320150D01*
X104280667Y-75244000D01*
X104340218Y-75193684D01*
X104306831Y-75160630D01*
X104277316Y-75163501D01*
X104153667Y-75244000D01*
X104127572Y-75291469D01*
X103615042Y-75291469D01*
X103610213Y-75188545D01*
X103607957Y-75032333D01*
X104280667Y-75032333D01*
X104323000Y-75074667D01*
X104365334Y-75032333D01*
X104323000Y-74990000D01*
X104280667Y-75032333D01*
X103607957Y-75032333D01*
X103604588Y-74798988D01*
X103604535Y-74776631D01*
X103960090Y-74776631D01*
X103970223Y-74877111D01*
X103995689Y-74890357D01*
X104026667Y-74820667D01*
X104020557Y-74775844D01*
X103970223Y-74764222D01*
X103960090Y-74776631D01*
X103604535Y-74776631D01*
X103604340Y-74693667D01*
X104280667Y-74693667D01*
X104323000Y-74736000D01*
X104365334Y-74693667D01*
X104323000Y-74651333D01*
X104280667Y-74693667D01*
X103604340Y-74693667D01*
X103603334Y-74266269D01*
X103603351Y-74245158D01*
X103874745Y-74245158D01*
X103885927Y-74418500D01*
X103915327Y-74432862D01*
X103928632Y-74312667D01*
X103916830Y-74196197D01*
X103885927Y-74206833D01*
X103874745Y-74245158D01*
X103603351Y-74245158D01*
X103603501Y-74056020D01*
X103603745Y-74016333D01*
X103942000Y-74016333D01*
X103984334Y-74058667D01*
X104026667Y-74016333D01*
X103984334Y-73974000D01*
X103942000Y-74016333D01*
X103603745Y-74016333D01*
X103606442Y-73576817D01*
X103614841Y-73234293D01*
X103631011Y-73004437D01*
X103657264Y-72863240D01*
X103695912Y-72786692D01*
X103749267Y-72750784D01*
X103771835Y-72743859D01*
X103931034Y-72779413D01*
X104058906Y-72928583D01*
X104111334Y-73143515D01*
X104131778Y-73227075D01*
X104236714Y-73296667D01*
X104305044Y-73271018D01*
X104331587Y-73156692D01*
X104309873Y-72915667D01*
X104289953Y-72730723D01*
X104298169Y-72566491D01*
X104354882Y-72563167D01*
X104459426Y-72721612D01*
X104496526Y-72793978D01*
X104532548Y-72884910D01*
X104559043Y-72999583D01*
X104577803Y-73162262D01*
X104590621Y-73397213D01*
X104599289Y-73728698D01*
X104603303Y-74016333D01*
X104605600Y-74180983D01*
X104606867Y-74312667D01*
X104610531Y-74693667D01*
X104611345Y-74778333D01*
X104611723Y-74820667D01*
X104613615Y-75032333D01*
X104615057Y-75193684D01*
X104624967Y-76302333D01*
X104971359Y-75886077D01*
X104943513Y-76175315D01*
X104938096Y-76226024D01*
X104896010Y-76387000D01*
X104895101Y-76390477D01*
X104784922Y-76483076D01*
X104557492Y-76552776D01*
X104488275Y-76572262D01*
X104215947Y-76687875D01*
X104011633Y-76829378D01*
X103972370Y-76869246D01*
X103879632Y-76990738D01*
X103879180Y-77112770D01*
X103963505Y-77310411D01*
X104054551Y-77469019D01*
X104210928Y-77600039D01*
X104374619Y-77649278D01*
X104467031Y-77677076D01*
X104769379Y-77710398D01*
X104885605Y-77699333D01*
X107667334Y-77699333D01*
X108003022Y-77699333D01*
X108086688Y-77697386D01*
X108281115Y-77657000D01*
X108514000Y-77657000D01*
X108556334Y-77699333D01*
X108598667Y-77657000D01*
X108556334Y-77614667D01*
X108514000Y-77657000D01*
X108281115Y-77657000D01*
X108307487Y-77651522D01*
X108429334Y-77530000D01*
X108501666Y-77426729D01*
X108601646Y-77360667D01*
X108649112Y-77392400D01*
X108683334Y-77530000D01*
X108693020Y-77606444D01*
X108749361Y-77657000D01*
X108775428Y-77680391D01*
X108979667Y-77699333D01*
X109276000Y-77699333D01*
X109276000Y-77240591D01*
X109274267Y-77155216D01*
X109752770Y-77155216D01*
X109829507Y-77389978D01*
X110044557Y-77575724D01*
X110232121Y-77639399D01*
X110549742Y-77685305D01*
X110876691Y-77687088D01*
X111128084Y-77639732D01*
X111285348Y-77546938D01*
X111363390Y-77453260D01*
X111816000Y-77453260D01*
X111819401Y-77559442D01*
X111858168Y-77655253D01*
X111976995Y-77692837D01*
X112220495Y-77699333D01*
X112411210Y-77687406D01*
X112530914Y-77657000D01*
X112916667Y-77657000D01*
X112959000Y-77699333D01*
X113001334Y-77657000D01*
X112959000Y-77614667D01*
X112916667Y-77657000D01*
X112530914Y-77657000D01*
X112714253Y-77610430D01*
X112908001Y-77487667D01*
X113086000Y-77487667D01*
X113128334Y-77530000D01*
X113170667Y-77487667D01*
X113128334Y-77445333D01*
X113086000Y-77487667D01*
X112908001Y-77487667D01*
X112923363Y-77477933D01*
X113001334Y-77308535D01*
X113013920Y-77252185D01*
X113092994Y-77237989D01*
X113106941Y-77243859D01*
X113114818Y-77188204D01*
X113049227Y-77032752D01*
X113032112Y-77001488D01*
X112846068Y-76779227D01*
X112603717Y-76620025D01*
X112343142Y-76531948D01*
X112102426Y-76523062D01*
X111919650Y-76601434D01*
X111832898Y-76775129D01*
X111826784Y-76895718D01*
X111881717Y-76966856D01*
X112053665Y-76957791D01*
X112245560Y-76960123D01*
X112352840Y-77059700D01*
X112345393Y-77138355D01*
X112340002Y-77195302D01*
X112203803Y-77266169D01*
X111984069Y-77251137D01*
X111916538Y-77238792D01*
X111835700Y-77282177D01*
X111816000Y-77453260D01*
X111363390Y-77453260D01*
X111448561Y-77351025D01*
X111493991Y-77138355D01*
X111396304Y-76910304D01*
X111170472Y-76707320D01*
X110864270Y-76573226D01*
X110522658Y-76527017D01*
X110190595Y-76587688D01*
X109990725Y-76697723D01*
X109808469Y-76911209D01*
X109773516Y-77064333D01*
X109752770Y-77155216D01*
X109274267Y-77155216D01*
X109272423Y-77064333D01*
X109360667Y-77064333D01*
X109403000Y-77106667D01*
X109445334Y-77064333D01*
X109403000Y-77022000D01*
X109360667Y-77064333D01*
X109272423Y-77064333D01*
X109272390Y-77062710D01*
X109253767Y-76805449D01*
X109224609Y-76647925D01*
X109142880Y-76552946D01*
X108956693Y-76519045D01*
X108725585Y-76583954D01*
X108497467Y-76741507D01*
X108260000Y-76969014D01*
X108260000Y-76741507D01*
X108245295Y-76600251D01*
X108163420Y-76529091D01*
X107963667Y-76514000D01*
X107667334Y-76514000D01*
X107667334Y-77699333D01*
X104885605Y-77699333D01*
X105123583Y-77676677D01*
X105404725Y-77568506D01*
X105568771Y-77397077D01*
X105585379Y-77357084D01*
X105589894Y-77318333D01*
X105720000Y-77318333D01*
X105762334Y-77360667D01*
X105804667Y-77318333D01*
X105773699Y-77287365D01*
X105976234Y-77287365D01*
X105982967Y-77318333D01*
X106017249Y-77476019D01*
X106137768Y-77611688D01*
X106138831Y-77612252D01*
X106307374Y-77659996D01*
X106558396Y-77689661D01*
X106829478Y-77699057D01*
X107058202Y-77685997D01*
X107182151Y-77648294D01*
X107197804Y-77571356D01*
X107160111Y-77405045D01*
X107130109Y-77270511D01*
X107162236Y-77137631D01*
X107194934Y-77025709D01*
X107128907Y-76854469D01*
X106984319Y-76687204D01*
X106794957Y-76575616D01*
X106790801Y-76574260D01*
X106536642Y-76536301D01*
X106259357Y-76552806D01*
X106206244Y-76562898D01*
X106044471Y-76606534D01*
X106015590Y-76673819D01*
X106091384Y-76807540D01*
X106147730Y-76898871D01*
X106174464Y-76999873D01*
X106097817Y-77053839D01*
X106019951Y-77118732D01*
X105976234Y-77287365D01*
X105773699Y-77287365D01*
X105762334Y-77276000D01*
X105720000Y-77318333D01*
X105589894Y-77318333D01*
X105618788Y-77070358D01*
X105515033Y-76819886D01*
X105292846Y-76655974D01*
X105191170Y-76613155D01*
X105092014Y-76530769D01*
X105050840Y-76385459D01*
X105042667Y-76124116D01*
X105053973Y-75937624D01*
X105103323Y-75663572D01*
X105178248Y-75424701D01*
X105263760Y-75265358D01*
X105344872Y-75229889D01*
X105356581Y-75234369D01*
X105451889Y-75195148D01*
X105465835Y-75171869D01*
X105402500Y-75193089D01*
X105342641Y-75223655D01*
X105313509Y-75216777D01*
X105327938Y-75147531D01*
X105394076Y-74993700D01*
X105520072Y-74733064D01*
X105581839Y-74609000D01*
X105720000Y-74609000D01*
X105762334Y-74651333D01*
X105804667Y-74609000D01*
X105762334Y-74566667D01*
X105720000Y-74609000D01*
X105581839Y-74609000D01*
X105714071Y-74343403D01*
X105877555Y-74016333D01*
X105974000Y-74016333D01*
X106016334Y-74058667D01*
X106058667Y-74016333D01*
X106016334Y-73974000D01*
X105974000Y-74016333D01*
X105877555Y-74016333D01*
X106131475Y-73508333D01*
X106144041Y-74016333D01*
X106158571Y-74603719D01*
X106158697Y-74609000D01*
X106161066Y-74708607D01*
X106167403Y-75142894D01*
X106161208Y-75446144D01*
X106139490Y-75650097D01*
X106099252Y-75786493D01*
X106037500Y-75887073D01*
X105937580Y-76036898D01*
X105889334Y-76162653D01*
X105896779Y-76183665D01*
X106023158Y-76240703D01*
X106288515Y-76276030D01*
X106670325Y-76287656D01*
X107146061Y-76273593D01*
X107190910Y-76271159D01*
X107461769Y-76251224D01*
X107601603Y-76219735D01*
X107644379Y-76161649D01*
X107624067Y-76061926D01*
X107594604Y-75965842D01*
X107514204Y-75544237D01*
X107549496Y-75238695D01*
X107699357Y-75052765D01*
X107962666Y-74990000D01*
X107974376Y-74990021D01*
X108163570Y-75009763D01*
X108266305Y-75099433D01*
X108340215Y-75307500D01*
X108396665Y-75527144D01*
X108420305Y-75721769D01*
X108376782Y-75837620D01*
X108260000Y-75921333D01*
X108157911Y-76001362D01*
X108090667Y-76136716D01*
X108090896Y-76143663D01*
X108126880Y-76201750D01*
X108244503Y-76235437D01*
X108472864Y-76248988D01*
X108841061Y-76246666D01*
X109150318Y-76238908D01*
X109389018Y-76223764D01*
X109514430Y-76194735D01*
X109557054Y-76143904D01*
X109547391Y-76063357D01*
X109537714Y-75949064D01*
X109614412Y-75963509D01*
X109674059Y-75991232D01*
X109667966Y-75939075D01*
X109655612Y-75834141D01*
X109683706Y-75607388D01*
X109745325Y-75317769D01*
X109827581Y-75017216D01*
X109917589Y-74757663D01*
X110002462Y-74591040D01*
X110025354Y-74562982D01*
X110073256Y-74537707D01*
X110101566Y-74609553D01*
X110115425Y-74802574D01*
X110119974Y-75140824D01*
X110117827Y-75407665D01*
X110100355Y-75675787D01*
X110061326Y-75826606D01*
X109995667Y-75890715D01*
X109927597Y-75941972D01*
X109868667Y-76099725D01*
X109876759Y-76163674D01*
X109937921Y-76225215D01*
X110091837Y-76253310D01*
X110376667Y-76260000D01*
X110607753Y-76254873D01*
X110807728Y-76238010D01*
X110884667Y-76213462D01*
X110884193Y-76208602D01*
X110841973Y-76096747D01*
X110752282Y-75910920D01*
X110716873Y-75829238D01*
X110678043Y-75676218D01*
X110662441Y-75540333D01*
X110715334Y-75540333D01*
X110757667Y-75582667D01*
X110800000Y-75540333D01*
X110757667Y-75498000D01*
X110715334Y-75540333D01*
X110662441Y-75540333D01*
X110653187Y-75459731D01*
X110640705Y-75153354D01*
X110638993Y-74730661D01*
X110642973Y-74428800D01*
X110906246Y-74428800D01*
X111008847Y-74564326D01*
X111084071Y-74684950D01*
X111125926Y-74914069D01*
X111138667Y-75280778D01*
X111138914Y-75384136D01*
X111143855Y-75540333D01*
X111147893Y-75667986D01*
X111180544Y-75843879D01*
X111251363Y-75959892D01*
X111374845Y-76064103D01*
X111648288Y-76213462D01*
X111670576Y-76225636D01*
X112000255Y-76302232D01*
X112281667Y-76265573D01*
X112288790Y-76262565D01*
X112562587Y-76061204D01*
X112746042Y-75794333D01*
X112916667Y-75794333D01*
X112959000Y-75836667D01*
X113001334Y-75794333D01*
X112959000Y-75752000D01*
X112916667Y-75794333D01*
X112746042Y-75794333D01*
X112786384Y-75735647D01*
X112938590Y-75327701D01*
X112997618Y-74879170D01*
X112999789Y-74812807D01*
X113023843Y-74644132D01*
X113064834Y-74595680D01*
X113065030Y-74595799D01*
X113112364Y-74551615D01*
X113137218Y-74391604D01*
X113137257Y-74390512D01*
X113125915Y-74230439D01*
X113086520Y-74185346D01*
X113082553Y-74187208D01*
X113040773Y-74128624D01*
X113019424Y-73957929D01*
X112986087Y-73595799D01*
X112867746Y-73135580D01*
X112680811Y-72757994D01*
X112441506Y-72480288D01*
X112166056Y-72319709D01*
X111870688Y-72293504D01*
X111571625Y-72418921D01*
X111501750Y-72465338D01*
X111380340Y-72508673D01*
X111303341Y-72442461D01*
X111293221Y-72427009D01*
X111220582Y-72388258D01*
X111172180Y-72506818D01*
X111149911Y-72773238D01*
X111155674Y-73178067D01*
X111181000Y-73762333D01*
X111346411Y-73316392D01*
X111467926Y-73031217D01*
X111661514Y-72731169D01*
X111863326Y-72592383D01*
X112069180Y-72618894D01*
X112129391Y-72656334D01*
X112296250Y-72845452D01*
X112409134Y-73144467D01*
X112473132Y-73571695D01*
X112493334Y-74145455D01*
X112476742Y-74727912D01*
X112414308Y-75265058D01*
X112384024Y-75371000D01*
X112335620Y-75540333D01*
X112304412Y-75649510D01*
X112145929Y-75886908D01*
X112045626Y-75968356D01*
X111945175Y-75978025D01*
X111807465Y-75871275D01*
X111740219Y-75801975D01*
X111674302Y-75674378D01*
X111658958Y-75540333D01*
X111731334Y-75540333D01*
X111773667Y-75582667D01*
X111816000Y-75540333D01*
X111773667Y-75498000D01*
X111731334Y-75540333D01*
X111658958Y-75540333D01*
X111652359Y-75482682D01*
X111656469Y-75371000D01*
X111731334Y-75371000D01*
X111773667Y-75413333D01*
X111816000Y-75371000D01*
X111773667Y-75328667D01*
X111731334Y-75371000D01*
X111656469Y-75371000D01*
X111663680Y-75175023D01*
X111684790Y-74956871D01*
X111739119Y-74696534D01*
X111811553Y-74569415D01*
X111860591Y-74518858D01*
X111875871Y-74370170D01*
X111826607Y-74308251D01*
X111670835Y-74262113D01*
X111383264Y-74257266D01*
X111187470Y-74272108D01*
X110966657Y-74330681D01*
X110906246Y-74428800D01*
X110642973Y-74428800D01*
X110646449Y-74165229D01*
X110659781Y-73602314D01*
X110678578Y-73169708D01*
X110703780Y-72875627D01*
X110736745Y-72704407D01*
X110778834Y-72640381D01*
X110831960Y-72602818D01*
X110884667Y-72458824D01*
X110884553Y-72451035D01*
X110859464Y-72379262D01*
X110767043Y-72339071D01*
X110573395Y-72323380D01*
X110244625Y-72325107D01*
X110017929Y-72332484D01*
X109740555Y-72360031D01*
X109560941Y-72415199D01*
X109434258Y-72508113D01*
X109359006Y-72601825D01*
X109231899Y-72883316D01*
X109161745Y-73223756D01*
X109152133Y-73570011D01*
X109206655Y-73868949D01*
X109328899Y-74067435D01*
X109397209Y-74160961D01*
X109445334Y-74356448D01*
X109434088Y-74482552D01*
X109372754Y-74768457D01*
X109273933Y-75102052D01*
X109155802Y-75430007D01*
X109036540Y-75698992D01*
X108934323Y-75855677D01*
X108906897Y-75881252D01*
X108813633Y-75943914D01*
X108751564Y-75892326D01*
X108680955Y-75702460D01*
X108668945Y-75665754D01*
X108600992Y-75445672D01*
X108563218Y-75302449D01*
X108523300Y-75104340D01*
X108448724Y-74784269D01*
X108373861Y-74511224D01*
X108309980Y-74324855D01*
X108268349Y-74264816D01*
X108259375Y-74265439D01*
X108228471Y-74178566D01*
X108214280Y-73986682D01*
X108213288Y-73955548D01*
X108184855Y-73725062D01*
X108125540Y-73430673D01*
X108046219Y-73110665D01*
X107957772Y-72803323D01*
X107871075Y-72546933D01*
X107797007Y-72379778D01*
X107746446Y-72340143D01*
X107729246Y-72368069D01*
X107695093Y-72459954D01*
X107647163Y-72625838D01*
X107581718Y-72880957D01*
X107495024Y-73240548D01*
X107452356Y-73423667D01*
X107383344Y-73719848D01*
X107242941Y-74334094D01*
X107070080Y-75098524D01*
X107054536Y-75165681D01*
X106968410Y-75488648D01*
X106881764Y-75747163D01*
X106811220Y-75890383D01*
X106749921Y-75954089D01*
X106666916Y-75959196D01*
X106549086Y-75835980D01*
X106510290Y-75780946D01*
X106461580Y-75667322D01*
X106428947Y-75499780D01*
X106409373Y-75249480D01*
X106399841Y-74887579D01*
X106397334Y-74385234D01*
X106397816Y-74200264D01*
X106407177Y-73675180D01*
X106421963Y-73423667D01*
X106482000Y-73423667D01*
X106524334Y-73466000D01*
X106566667Y-73423667D01*
X106524334Y-73381333D01*
X106482000Y-73423667D01*
X106421963Y-73423667D01*
X106430026Y-73286521D01*
X106468399Y-73009152D01*
X106524334Y-72817941D01*
X106624348Y-72548408D01*
X106634796Y-72392577D01*
X106541932Y-72324715D01*
X106334130Y-72314019D01*
X106214015Y-72320279D01*
X106104793Y-72348560D01*
X106009140Y-72424211D01*
X105904809Y-72573289D01*
X105769547Y-72821855D01*
X105581107Y-73195967D01*
X105418856Y-73517023D01*
X105262738Y-73817536D01*
X105146707Y-74031469D01*
X105088086Y-74126136D01*
X105086139Y-74127494D01*
X105066610Y-74057963D01*
X105053959Y-73851825D01*
X105049249Y-73539146D01*
X105053544Y-73149994D01*
X105053858Y-73135433D01*
X105057654Y-72734387D01*
X105052017Y-72397768D01*
X105038111Y-72160510D01*
X105017103Y-72057547D01*
X104986489Y-72046157D01*
X104958000Y-72130497D01*
X104954574Y-72180700D01*
X104924708Y-72241768D01*
X104844084Y-72283582D01*
X104688994Y-72309350D01*
X104435728Y-72322282D01*
X104060578Y-72325588D01*
X103539834Y-72322477D01*
X102333334Y-72311945D01*
X102323971Y-72656139D01*
X102314609Y-73000333D01*
X102200732Y-72534667D01*
X102194964Y-72509832D01*
X102148814Y-72229227D01*
X102121561Y-71982631D01*
X102266756Y-71982631D01*
X102276889Y-72083111D01*
X102302356Y-72096357D01*
X102333334Y-72026667D01*
X102327224Y-71981844D01*
X102276889Y-71970222D01*
X102266756Y-71982631D01*
X102121561Y-71982631D01*
X102105180Y-71834414D01*
X102075371Y-71458032D01*
X102261049Y-71458032D01*
X102277798Y-71626111D01*
X102281172Y-71633660D01*
X102307677Y-71620929D01*
X102316828Y-71476333D01*
X102316270Y-71450041D01*
X102301611Y-71337584D01*
X102274661Y-71372111D01*
X102261049Y-71458032D01*
X102075371Y-71458032D01*
X102068741Y-71374322D01*
X102054873Y-71105327D01*
X102333334Y-71105327D01*
X102336806Y-71129027D01*
X102405770Y-71145225D01*
X102444177Y-71170727D01*
X102438106Y-71310225D01*
X102434531Y-71334346D01*
X102442274Y-71476333D01*
X102445357Y-71532875D01*
X102500171Y-71759694D01*
X102578808Y-71949198D01*
X102652444Y-72026667D01*
X102661106Y-72035780D01*
X102712182Y-72041621D01*
X102914663Y-72052129D01*
X103206124Y-72059353D01*
X103543522Y-72063159D01*
X103883813Y-72063413D01*
X104183953Y-72059979D01*
X104400897Y-72052723D01*
X104491601Y-72041511D01*
X104495912Y-72032382D01*
X104466722Y-71919967D01*
X104371463Y-71738511D01*
X104312918Y-71625897D01*
X104268145Y-71482418D01*
X104254133Y-71391667D01*
X104365334Y-71391667D01*
X104407667Y-71434000D01*
X104450000Y-71391667D01*
X104407667Y-71349333D01*
X104365334Y-71391667D01*
X104254133Y-71391667D01*
X104237635Y-71284821D01*
X104218453Y-71004307D01*
X104207662Y-70612078D01*
X104202328Y-70079333D01*
X104201698Y-69678742D01*
X104207899Y-69241081D01*
X104212562Y-69153262D01*
X104512368Y-69153262D01*
X104526078Y-69397507D01*
X104591831Y-69485115D01*
X104690848Y-69412817D01*
X104804354Y-69177346D01*
X104808621Y-69165539D01*
X104851769Y-69059614D01*
X104883362Y-69029888D01*
X104906774Y-69094972D01*
X104925378Y-69273474D01*
X104942548Y-69584007D01*
X104961656Y-70045179D01*
X105007644Y-71222333D01*
X105025156Y-69973500D01*
X105032955Y-69528367D01*
X105045583Y-69162744D01*
X105065979Y-68911636D01*
X105097967Y-68746035D01*
X105145367Y-68636937D01*
X105212000Y-68555333D01*
X105400456Y-68429181D01*
X105644331Y-68413366D01*
X105879496Y-68538903D01*
X106082913Y-68792143D01*
X106231543Y-69159434D01*
X106259471Y-69280330D01*
X106301666Y-69705709D01*
X106279846Y-70163420D01*
X106202628Y-70613390D01*
X106078631Y-71015544D01*
X105916471Y-71329811D01*
X105724766Y-71516116D01*
X105649681Y-71549320D01*
X105413895Y-71561656D01*
X105154561Y-71432808D01*
X104852167Y-71154693D01*
X104693008Y-70987110D01*
X104586936Y-70896561D01*
X104543324Y-70910686D01*
X104534984Y-71017745D01*
X104546055Y-71122541D01*
X104651427Y-71391667D01*
X104663333Y-71422077D01*
X104877052Y-71715245D01*
X105147727Y-71942457D01*
X105196590Y-71970806D01*
X105587695Y-72101527D01*
X105973526Y-72070578D01*
X106150686Y-71974847D01*
X106658056Y-71974847D01*
X106658806Y-71975466D01*
X106759900Y-71996391D01*
X106981966Y-72019063D01*
X107278354Y-72038681D01*
X107357027Y-72042243D01*
X107692220Y-72037385D01*
X107871434Y-71988200D01*
X107902065Y-71890376D01*
X107791509Y-71739603D01*
X107705180Y-71597530D01*
X107709790Y-71348776D01*
X107710840Y-71344047D01*
X107770000Y-71168227D01*
X107833987Y-71095333D01*
X107868624Y-71072483D01*
X107890760Y-70947167D01*
X107909817Y-70861004D01*
X108021838Y-70803250D01*
X108265750Y-70773824D01*
X108338951Y-70769533D01*
X108552449Y-70774460D01*
X108670905Y-70832959D01*
X108752583Y-70968308D01*
X108815877Y-71140818D01*
X108855076Y-71419539D01*
X108809569Y-71636910D01*
X108683334Y-71748134D01*
X108563845Y-71800018D01*
X108510765Y-71898911D01*
X108590973Y-71988326D01*
X108789167Y-72027823D01*
X109028491Y-72042026D01*
X109245316Y-72077542D01*
X109314980Y-72089614D01*
X109445583Y-72044789D01*
X109463698Y-71912208D01*
X109356957Y-71730333D01*
X109289793Y-71631137D01*
X109175220Y-71386575D01*
X109076155Y-71095333D01*
X109023475Y-70912707D01*
X108900855Y-70515717D01*
X108778523Y-70147174D01*
X108707567Y-69932592D01*
X108621387Y-69637792D01*
X108572397Y-69424803D01*
X108550269Y-69321978D01*
X108470272Y-69055044D01*
X108456027Y-69016418D01*
X108867780Y-69016418D01*
X108879498Y-69449869D01*
X108898505Y-69540070D01*
X108997028Y-69802627D01*
X109136239Y-70030568D01*
X109286204Y-70181412D01*
X109416992Y-70212680D01*
X109473822Y-70200436D01*
X109487068Y-70249636D01*
X109499710Y-70298223D01*
X109620241Y-70329780D01*
X109802666Y-70325603D01*
X109988742Y-70281941D01*
X110013858Y-70270525D01*
X110108497Y-70165423D01*
X110105577Y-70049394D01*
X110001812Y-69994667D01*
X109856712Y-69932824D01*
X109699069Y-69755238D01*
X109578233Y-69516153D01*
X109530000Y-69270506D01*
X109530545Y-69221468D01*
X109558414Y-68952505D01*
X109620844Y-68792702D01*
X109707236Y-68771884D01*
X109739451Y-68777577D01*
X109734574Y-68694379D01*
X109731884Y-68637689D01*
X109818734Y-68537983D01*
X109971761Y-68485457D01*
X110121910Y-68512532D01*
X110149255Y-68589288D01*
X110174574Y-68808021D01*
X110192686Y-69133952D01*
X110203615Y-69533651D01*
X110207384Y-69973689D01*
X110204019Y-70420635D01*
X110193543Y-70841059D01*
X110175980Y-71201531D01*
X110151354Y-71468621D01*
X110119688Y-71608899D01*
X110042894Y-71705372D01*
X109901813Y-71772667D01*
X109838974Y-71790589D01*
X109798959Y-71903724D01*
X109802291Y-71912208D01*
X109811697Y-71936159D01*
X109903133Y-71998584D01*
X110103337Y-72037809D01*
X110442488Y-72061217D01*
X110561488Y-72065411D01*
X110892510Y-72059174D01*
X111073030Y-72014814D01*
X111115614Y-71926524D01*
X111032831Y-71788498D01*
X110964480Y-71702188D01*
X110865065Y-71526610D01*
X110858784Y-71417520D01*
X110952479Y-71407369D01*
X111008681Y-71425812D01*
X111045360Y-71423038D01*
X110947380Y-71339557D01*
X110894611Y-71284721D01*
X110853405Y-71191328D01*
X110827862Y-71037283D01*
X110823814Y-70957935D01*
X111306128Y-70957935D01*
X111377841Y-71374137D01*
X111528164Y-71730682D01*
X111748943Y-71978671D01*
X111958250Y-72070089D01*
X112303137Y-72093106D01*
X112673645Y-72004899D01*
X112789718Y-71943151D01*
X112870178Y-71838084D01*
X112925409Y-71650224D01*
X112974788Y-71336572D01*
X112986487Y-71247182D01*
X113013701Y-70957873D01*
X113002926Y-70802768D01*
X112953227Y-70756667D01*
X112869531Y-70825866D01*
X112816161Y-70968333D01*
X112804731Y-70998845D01*
X112793585Y-71044632D01*
X112683232Y-71289084D01*
X112511999Y-71524824D01*
X112321460Y-71702477D01*
X112153188Y-71772667D01*
X112040497Y-71748769D01*
X111864381Y-71639619D01*
X111812929Y-71565142D01*
X111745615Y-71334942D01*
X111737319Y-71076260D01*
X111769528Y-70968333D01*
X111900667Y-70968333D01*
X111943000Y-71010667D01*
X111985334Y-70968333D01*
X111943000Y-70926000D01*
X111900667Y-70968333D01*
X111769528Y-70968333D01*
X111796130Y-70879197D01*
X111805593Y-70867370D01*
X111922777Y-70768399D01*
X112108780Y-70640829D01*
X112312022Y-70516514D01*
X112480919Y-70427309D01*
X112563889Y-70405068D01*
X112571814Y-70409572D01*
X112648556Y-70369148D01*
X112658300Y-70345187D01*
X112578000Y-70371384D01*
X112553653Y-70381080D01*
X112574937Y-70341329D01*
X112701627Y-70226340D01*
X112834017Y-70099508D01*
X112915706Y-69957511D01*
X112959853Y-69752159D01*
X112985346Y-69430462D01*
X112990915Y-69265896D01*
X112952184Y-68777376D01*
X112830042Y-68407699D01*
X112632037Y-68167343D01*
X112365720Y-68066785D01*
X112038640Y-68116504D01*
X112033683Y-68118286D01*
X111786110Y-68187830D01*
X111577156Y-68216667D01*
X111547323Y-68217227D01*
X111462567Y-68239465D01*
X111430776Y-68295398D01*
X111416136Y-68321155D01*
X111396635Y-68498907D01*
X111395373Y-68597667D01*
X111392667Y-68809333D01*
X111392699Y-68832851D01*
X111398843Y-69120488D01*
X111413557Y-69324483D01*
X111433864Y-69402000D01*
X111446502Y-69393900D01*
X111515361Y-69283695D01*
X111607239Y-69085655D01*
X111624021Y-69046446D01*
X111831685Y-68684470D01*
X112069205Y-68465451D01*
X112322777Y-68402571D01*
X112437185Y-68421571D01*
X112530846Y-68506740D01*
X112565012Y-68707046D01*
X112565429Y-68970824D01*
X112498931Y-69190100D01*
X112332577Y-69370124D01*
X112036548Y-69558963D01*
X111981162Y-69591002D01*
X111642276Y-69843245D01*
X111439647Y-70123834D01*
X111431151Y-70142155D01*
X111321180Y-70530975D01*
X111306128Y-70957935D01*
X110823814Y-70957935D01*
X110815523Y-70795440D01*
X110813931Y-70438655D01*
X110820628Y-69939782D01*
X110826026Y-69664268D01*
X110839580Y-69229491D01*
X110859586Y-68922618D01*
X110889287Y-68716086D01*
X110927037Y-68597667D01*
X111054000Y-68597667D01*
X111096334Y-68640000D01*
X111138667Y-68597667D01*
X111096334Y-68555333D01*
X111054000Y-68597667D01*
X110927037Y-68597667D01*
X110931927Y-68582329D01*
X110990748Y-68493781D01*
X111052359Y-68422490D01*
X111130421Y-68295398D01*
X111107426Y-68211246D01*
X110966368Y-68161591D01*
X110690238Y-68137991D01*
X110262030Y-68132000D01*
X110237123Y-68132005D01*
X109843868Y-68135485D01*
X109579045Y-68150293D01*
X109403829Y-68183608D01*
X109279397Y-68242607D01*
X109166926Y-68334469D01*
X109163669Y-68337508D01*
X108966792Y-68628987D01*
X108867780Y-69016418D01*
X108456027Y-69016418D01*
X108363043Y-68764295D01*
X108299474Y-68606394D01*
X108200527Y-68352287D01*
X108139088Y-68183382D01*
X108098835Y-68097524D01*
X108039859Y-68069919D01*
X108001403Y-68160213D01*
X107921887Y-68393668D01*
X107808396Y-68748826D01*
X107667394Y-69204779D01*
X107505342Y-69740620D01*
X107328705Y-70335440D01*
X107326006Y-70344686D01*
X107143943Y-70968333D01*
X107143512Y-70969821D01*
X107033191Y-71293874D01*
X106908886Y-71574525D01*
X106797427Y-71751166D01*
X106793137Y-71755849D01*
X106683184Y-71897125D01*
X106658056Y-71974847D01*
X106150686Y-71974847D01*
X106327338Y-71879390D01*
X106432452Y-71796309D01*
X106516798Y-71747975D01*
X106482000Y-71815890D01*
X106421668Y-71897575D01*
X106402687Y-71941357D01*
X106492964Y-71876601D01*
X106602032Y-71731504D01*
X106682469Y-71511156D01*
X106685882Y-71495032D01*
X106746607Y-71340324D01*
X106818703Y-71305786D01*
X106860628Y-71311619D01*
X106847643Y-71212841D01*
X106829172Y-71134894D01*
X106873251Y-71117838D01*
X106885031Y-71122672D01*
X106924252Y-71058820D01*
X106921955Y-70968333D01*
X106990000Y-70968333D01*
X107032334Y-71010667D01*
X107074667Y-70968333D01*
X107032334Y-70926000D01*
X106990000Y-70968333D01*
X106921955Y-70968333D01*
X106919361Y-70866172D01*
X106914466Y-70816151D01*
X106919217Y-70651911D01*
X106961902Y-70612301D01*
X106975135Y-70616094D01*
X107006597Y-70539606D01*
X107007660Y-70344686D01*
X106983352Y-70068827D01*
X106938703Y-69749516D01*
X106878741Y-69424244D01*
X106808495Y-69130500D01*
X106732993Y-68905775D01*
X106665842Y-68769687D01*
X106485675Y-68497481D01*
X106298298Y-68304098D01*
X106200416Y-68244095D01*
X105992164Y-68154389D01*
X105763718Y-68084669D01*
X105559619Y-68045188D01*
X105424406Y-68046197D01*
X105402621Y-68097947D01*
X105409600Y-68121357D01*
X105346980Y-68168106D01*
X105154303Y-68201423D01*
X104811965Y-68225540D01*
X104730996Y-68240368D01*
X104722723Y-68247255D01*
X104648174Y-68309318D01*
X104590793Y-68460753D01*
X104582543Y-68513000D01*
X104549289Y-68723612D01*
X104514097Y-69126833D01*
X104512368Y-69153262D01*
X104212562Y-69153262D01*
X104223006Y-68956576D01*
X104247614Y-68815801D01*
X104282315Y-68809333D01*
X104308911Y-68844829D01*
X104341219Y-68848627D01*
X104316592Y-68704289D01*
X104305373Y-68513426D01*
X104305799Y-68513000D01*
X104365334Y-68513000D01*
X104407667Y-68555333D01*
X104450000Y-68513000D01*
X104407667Y-68470667D01*
X104365334Y-68513000D01*
X104305799Y-68513000D01*
X104398687Y-68420064D01*
X104465967Y-68378341D01*
X104534667Y-68247255D01*
X104519359Y-68206207D01*
X104438609Y-68168839D01*
X104265474Y-68148753D01*
X103974401Y-68143461D01*
X103539834Y-68150480D01*
X102545000Y-68174333D01*
X102545000Y-68597667D01*
X102546404Y-68679613D01*
X102575466Y-68924393D01*
X102632243Y-69038499D01*
X102703660Y-69009175D01*
X102776644Y-68823665D01*
X102779250Y-68814041D01*
X102917573Y-68599604D01*
X103153807Y-68492787D01*
X103441201Y-68515285D01*
X103517836Y-68555666D01*
X103571884Y-68652838D01*
X103597108Y-68841052D01*
X103603334Y-69159329D01*
X103603334Y-69751914D01*
X103371126Y-69725124D01*
X103193954Y-69664089D01*
X103022795Y-69454974D01*
X103015344Y-69439689D01*
X102919560Y-69301749D01*
X102849054Y-69304842D01*
X102841921Y-69321512D01*
X102819733Y-69476208D01*
X102809324Y-69728221D01*
X102809887Y-70024257D01*
X102820614Y-70311021D01*
X102840698Y-70535218D01*
X102841419Y-70537944D01*
X102869333Y-70643554D01*
X102877601Y-70647165D01*
X102950534Y-70584418D01*
X103051646Y-70420620D01*
X103075719Y-70376066D01*
X103212800Y-70210773D01*
X103375389Y-70179918D01*
X103469103Y-70206996D01*
X103532380Y-70286140D01*
X103566708Y-70455268D01*
X103586689Y-70754054D01*
X103594302Y-71106827D01*
X103568820Y-71438368D01*
X103500268Y-71627759D01*
X103385850Y-71688000D01*
X103335800Y-71684737D01*
X103070879Y-71592101D01*
X102811516Y-71406743D01*
X102627495Y-71175798D01*
X102597037Y-71122548D01*
X102476482Y-70993915D01*
X102375608Y-70985067D01*
X102333334Y-71105327D01*
X102054873Y-71105327D01*
X102044178Y-70897878D01*
X102028770Y-70535752D01*
X102177303Y-70535752D01*
X102197514Y-70649069D01*
X102226416Y-70647758D01*
X102241983Y-70537944D01*
X102228425Y-70454721D01*
X102190830Y-70486792D01*
X102177303Y-70535752D01*
X102028770Y-70535752D01*
X102016676Y-70251527D01*
X101980156Y-69623825D01*
X101939142Y-69122303D01*
X101894835Y-68761344D01*
X101848437Y-68555333D01*
X101814866Y-68397265D01*
X101861631Y-68082480D01*
X102033851Y-67781636D01*
X102081730Y-67715065D01*
X102189123Y-67411624D01*
X102197702Y-67079233D01*
X102333334Y-67079233D01*
X102362158Y-67341774D01*
X102462190Y-67624688D01*
X102610271Y-67804672D01*
X102634018Y-67813781D01*
X102799704Y-67838852D01*
X103074184Y-67859028D01*
X103412441Y-67870608D01*
X103420932Y-67870753D01*
X103765709Y-67874895D01*
X103972034Y-67867288D01*
X104070155Y-67839528D01*
X104090322Y-67783212D01*
X104062781Y-67689936D01*
X104039661Y-67586077D01*
X104010850Y-67320650D01*
X103988264Y-66950933D01*
X103972221Y-66511100D01*
X103963041Y-66035326D01*
X103961042Y-65557784D01*
X103966545Y-65112650D01*
X103979867Y-64734098D01*
X104001329Y-64456303D01*
X104031249Y-64313439D01*
X104079650Y-64229589D01*
X104155127Y-64182829D01*
X104267766Y-64272619D01*
X104289555Y-64297730D01*
X104333607Y-64384593D01*
X104366891Y-64526600D01*
X104391477Y-64746590D01*
X104409438Y-65067400D01*
X104422845Y-65511867D01*
X104433769Y-66102830D01*
X104435469Y-66205189D01*
X104447513Y-66709276D01*
X104463897Y-67145501D01*
X104483246Y-67488497D01*
X104504186Y-67712896D01*
X104525343Y-67793333D01*
X104538046Y-67789909D01*
X104601681Y-67726766D01*
X104971137Y-67726766D01*
X104984304Y-67941500D01*
X104992220Y-67965522D01*
X105014197Y-67947369D01*
X105023024Y-67793333D01*
X105022205Y-67735888D01*
X105008845Y-67618816D01*
X104984304Y-67645167D01*
X104971137Y-67726766D01*
X104601681Y-67726766D01*
X104638069Y-67690660D01*
X104791308Y-67476196D01*
X104831261Y-67412333D01*
X104958000Y-67412333D01*
X105000334Y-67454667D01*
X105042667Y-67412333D01*
X105000334Y-67370000D01*
X104958000Y-67412333D01*
X104831261Y-67412333D01*
X104978966Y-67176232D01*
X105182242Y-66820483D01*
X105360154Y-66481000D01*
X105466000Y-66481000D01*
X105508334Y-66523333D01*
X105550667Y-66481000D01*
X105508334Y-66438667D01*
X105466000Y-66481000D01*
X105360154Y-66481000D01*
X105382339Y-66438667D01*
X105394218Y-66414993D01*
X105540538Y-66140217D01*
X105666554Y-65931218D01*
X105746131Y-65831603D01*
X105749205Y-65829586D01*
X105815806Y-65742047D01*
X105866004Y-65560085D01*
X105910295Y-65246278D01*
X105929105Y-65181828D01*
X106017923Y-65112222D01*
X106046802Y-65143516D01*
X106086072Y-65328310D01*
X106114910Y-65675140D01*
X106132849Y-66179645D01*
X106137554Y-66425809D01*
X106137874Y-66481000D01*
X106139743Y-66803541D01*
X106129095Y-67062990D01*
X106101604Y-67237997D01*
X106053264Y-67362405D01*
X106019316Y-67412333D01*
X105980068Y-67470055D01*
X105969204Y-67484009D01*
X105852637Y-67655343D01*
X105804667Y-67767057D01*
X105874244Y-67789583D01*
X105910339Y-67793333D01*
X106087896Y-67811780D01*
X106419328Y-67830427D01*
X106841825Y-67844048D01*
X107328667Y-67851170D01*
X107850227Y-67853798D01*
X108252062Y-67852281D01*
X108529422Y-67844164D01*
X108705234Y-67827177D01*
X108802427Y-67799051D01*
X108843928Y-67757515D01*
X108852667Y-67700300D01*
X108835979Y-67609746D01*
X108756989Y-67539333D01*
X108735404Y-67531626D01*
X108696407Y-67421036D01*
X108697031Y-67223656D01*
X108730075Y-66996756D01*
X108732344Y-66989000D01*
X108852667Y-66989000D01*
X108895000Y-67031333D01*
X108937334Y-66989000D01*
X108895000Y-66946667D01*
X108852667Y-66989000D01*
X108732344Y-66989000D01*
X108788337Y-66797611D01*
X108864614Y-66683491D01*
X109025196Y-66631823D01*
X109253221Y-66609296D01*
X109353921Y-66612834D01*
X109506599Y-66667738D01*
X109579752Y-66819081D01*
X109631995Y-66950839D01*
X109692976Y-66989000D01*
X109696135Y-66990977D01*
X109736407Y-66986142D01*
X109741778Y-67070154D01*
X109696112Y-67218629D01*
X109616767Y-67380589D01*
X109521099Y-67505056D01*
X109444496Y-67579134D01*
X109371423Y-67688398D01*
X109404973Y-67763723D01*
X109560798Y-67812154D01*
X109854551Y-67840736D01*
X110301887Y-67856517D01*
X111242918Y-67877368D01*
X111175926Y-67687184D01*
X111153290Y-67577133D01*
X111125022Y-67316711D01*
X111101496Y-66964848D01*
X111086239Y-66565667D01*
X111063543Y-65634333D01*
X111227605Y-66142333D01*
X111302890Y-66385571D01*
X111424492Y-66807835D01*
X111528716Y-67200667D01*
X111605048Y-67479920D01*
X111681612Y-67711065D01*
X111737737Y-67828287D01*
X111801828Y-67829624D01*
X111892700Y-67679305D01*
X111998570Y-67369318D01*
X112117517Y-66904333D01*
X112165933Y-66698530D01*
X112265008Y-66292142D01*
X112356849Y-65930667D01*
X112478933Y-65465000D01*
X112486133Y-66321415D01*
X112486934Y-66562711D01*
X112478633Y-66893523D01*
X112452672Y-67116007D01*
X112403108Y-67269442D01*
X112324000Y-67393103D01*
X112321987Y-67395671D01*
X112203755Y-67579812D01*
X112154698Y-67722021D01*
X112164157Y-67755018D01*
X112292483Y-67821621D01*
X112578032Y-67853519D01*
X112842739Y-67853154D01*
X112971284Y-67804931D01*
X112966851Y-67682273D01*
X112847153Y-67459230D01*
X112790946Y-67350814D01*
X112749867Y-67215384D01*
X112725241Y-67029145D01*
X112714849Y-66762507D01*
X112716469Y-66385883D01*
X112727882Y-65869683D01*
X112746882Y-65335584D01*
X112779918Y-64835668D01*
X112824702Y-64489250D01*
X112860275Y-64364333D01*
X112916667Y-64364333D01*
X112959000Y-64406667D01*
X113001334Y-64364333D01*
X112959000Y-64322000D01*
X112916667Y-64364333D01*
X112860275Y-64364333D01*
X112882063Y-64287825D01*
X112959203Y-64115872D01*
X112982779Y-63967898D01*
X112884008Y-63911383D01*
X112642761Y-63914965D01*
X112284189Y-63941000D01*
X112050414Y-64830000D01*
X112004301Y-65005317D01*
X111870146Y-65514150D01*
X111771169Y-65885921D01*
X111701413Y-66141397D01*
X111654919Y-66301342D01*
X111625727Y-66386521D01*
X111607881Y-66417699D01*
X111595421Y-66415642D01*
X111589043Y-66405981D01*
X111542677Y-66275430D01*
X111473368Y-66030689D01*
X111390635Y-65711442D01*
X111303996Y-65357374D01*
X111222970Y-65008169D01*
X111157074Y-64703512D01*
X111115828Y-64483087D01*
X111108749Y-64386579D01*
X111116820Y-64366230D01*
X111060610Y-64322000D01*
X110990599Y-64271805D01*
X110920794Y-64115748D01*
X110872880Y-63995268D01*
X110761430Y-63927420D01*
X110538181Y-63914062D01*
X110389235Y-63927400D01*
X110229944Y-63995916D01*
X110214456Y-64103165D01*
X110355500Y-64227320D01*
X110378519Y-64242238D01*
X110426384Y-64299947D01*
X110460366Y-64405230D01*
X110482775Y-64582436D01*
X110495922Y-64855914D01*
X110502116Y-65250012D01*
X110503667Y-65789080D01*
X110503403Y-66050088D01*
X110500006Y-66523591D01*
X110490652Y-66865741D01*
X110472790Y-67102777D01*
X110443869Y-67260937D01*
X110401338Y-67366461D01*
X110342649Y-67445587D01*
X110204592Y-67557309D01*
X110080859Y-67539769D01*
X110029737Y-67504686D01*
X109945544Y-67490427D01*
X109942877Y-67492255D01*
X109913928Y-67429963D01*
X109891058Y-67256859D01*
X109874845Y-67127902D01*
X109818129Y-66836492D01*
X109739754Y-66523333D01*
X109735051Y-66506601D01*
X109646888Y-66179512D01*
X109543081Y-65776311D01*
X109445113Y-65380333D01*
X109391186Y-65159745D01*
X109253001Y-64631402D01*
X109139813Y-64261840D01*
X109049589Y-64044912D01*
X108980299Y-63974475D01*
X108970848Y-63982934D01*
X108918016Y-64109368D01*
X108835183Y-64368688D01*
X108729365Y-64736801D01*
X108607580Y-65189615D01*
X108476844Y-65703039D01*
X108440586Y-65847995D01*
X108306981Y-66362160D01*
X108180692Y-66819189D01*
X108069638Y-67192171D01*
X107981740Y-67454194D01*
X107924919Y-67578348D01*
X107842528Y-67663070D01*
X107761517Y-67659185D01*
X107642237Y-67529365D01*
X107637904Y-67523973D01*
X107549829Y-67381569D01*
X107553985Y-67309176D01*
X107571043Y-67253022D01*
X107586253Y-67051911D01*
X107593627Y-66731670D01*
X107592615Y-66320353D01*
X107582667Y-65846017D01*
X107573947Y-65467064D01*
X107570776Y-65044211D01*
X107575865Y-64708200D01*
X107588716Y-64486483D01*
X107608831Y-64406513D01*
X107630566Y-64400438D01*
X107625000Y-64322000D01*
X107611771Y-64289203D01*
X107662337Y-64237333D01*
X107712720Y-64209347D01*
X107752000Y-64076467D01*
X107743817Y-64011778D01*
X107682618Y-63950280D01*
X107528747Y-63922254D01*
X107244000Y-63915600D01*
X106956138Y-63930531D01*
X106765263Y-63987751D01*
X106734887Y-64089453D01*
X106863000Y-64237333D01*
X106909729Y-64338287D01*
X106952492Y-64584370D01*
X106982619Y-64936119D01*
X107000238Y-65359490D01*
X107005479Y-65820440D01*
X106998473Y-66284924D01*
X106979349Y-66718899D01*
X106948238Y-67088322D01*
X106905268Y-67359149D01*
X106850569Y-67497336D01*
X106765887Y-67571899D01*
X106671863Y-67578494D01*
X106539468Y-67465097D01*
X106492806Y-67413113D01*
X106427905Y-67296447D01*
X106388883Y-67124728D01*
X106368971Y-66859893D01*
X106361399Y-66463880D01*
X106360380Y-66177314D01*
X106371743Y-65463235D01*
X106404643Y-64910560D01*
X106459471Y-64514372D01*
X106536620Y-64269756D01*
X106605802Y-64125550D01*
X106634931Y-63973968D01*
X106537148Y-63913225D01*
X106292979Y-63914965D01*
X105934623Y-63941000D01*
X105054251Y-65629810D01*
X105020918Y-65251072D01*
X105020362Y-65244758D01*
X105001309Y-65040870D01*
X104989514Y-64983375D01*
X104980500Y-65079882D01*
X104969792Y-65338000D01*
X104955650Y-65516353D01*
X104903612Y-65809265D01*
X104831000Y-66015333D01*
X104820110Y-66034098D01*
X104770029Y-66102479D01*
X104737764Y-66088900D01*
X104719358Y-65971521D01*
X104710855Y-65728501D01*
X104708297Y-65338000D01*
X104709610Y-65110596D01*
X104728098Y-64675567D01*
X104769804Y-64395455D01*
X104836654Y-64260944D01*
X104930573Y-64262715D01*
X104983921Y-64246004D01*
X105022992Y-64113475D01*
X105039240Y-63917158D01*
X103778110Y-63922966D01*
X102516980Y-63928773D01*
X102488657Y-64337559D01*
X102481185Y-64470478D01*
X102477398Y-64701655D01*
X102488556Y-64830506D01*
X102546616Y-64909022D01*
X102630712Y-64885982D01*
X102672000Y-64752258D01*
X102703757Y-64507484D01*
X102826477Y-64363751D01*
X103065768Y-64322000D01*
X103356752Y-64322000D01*
X103331876Y-64935833D01*
X103323321Y-65107689D01*
X103295992Y-65372472D01*
X103250962Y-65510178D01*
X103181141Y-65549667D01*
X103060375Y-65482154D01*
X102943688Y-65316833D01*
X102896590Y-65225526D01*
X102796982Y-65101501D01*
X102730317Y-65142121D01*
X102696257Y-65347936D01*
X102694458Y-65719497D01*
X102710317Y-65977282D01*
X102750497Y-66229698D01*
X102805381Y-66355067D01*
X102867608Y-66339347D01*
X102929818Y-66168497D01*
X102986217Y-66048072D01*
X103141484Y-65973000D01*
X103173176Y-65974423D01*
X103245515Y-66006137D01*
X103289656Y-66105404D01*
X103315254Y-66306150D01*
X103331965Y-66642302D01*
X103334272Y-66718955D01*
X103331603Y-67034494D01*
X103310538Y-67275145D01*
X103274664Y-67393870D01*
X103163864Y-67449178D01*
X102967706Y-67418814D01*
X102767273Y-67284962D01*
X102611556Y-67071444D01*
X102516046Y-66894680D01*
X102415903Y-66792228D01*
X102354317Y-66853764D01*
X102333334Y-67079233D01*
X102197702Y-67079233D01*
X102198253Y-67057866D01*
X102113733Y-66718899D01*
X101940178Y-66459833D01*
X101822895Y-66361722D01*
X101674310Y-66277466D01*
X101613755Y-66305222D01*
X101659881Y-66445918D01*
X101709781Y-66567528D01*
X101710827Y-66666063D01*
X101638534Y-66685325D01*
X101540723Y-66606795D01*
X101490835Y-66458166D01*
X101486625Y-66396440D01*
X101465353Y-66176317D01*
X101434045Y-65902657D01*
X101427348Y-65845848D01*
X101414921Y-65609604D01*
X101455222Y-65470003D01*
X101562264Y-65368690D01*
X101631875Y-65310203D01*
X101731274Y-65104801D01*
X101675083Y-64863197D01*
X101465500Y-64602782D01*
X101259082Y-64402704D01*
X101036910Y-64172087D01*
X100838039Y-63952840D01*
X100694919Y-63780778D01*
X100640000Y-63691714D01*
X100644401Y-63687876D01*
X100758348Y-63670160D01*
X101003327Y-63652222D01*
X101348200Y-63635962D01*
X101761834Y-63623279D01*
X102655223Y-63602333D01*
X102926000Y-63602333D01*
X102968334Y-63644667D01*
X102995007Y-63617993D01*
X103229138Y-63617993D01*
X103349334Y-63631298D01*
X103465803Y-63619496D01*
X103457938Y-63596643D01*
X104111334Y-63596643D01*
X104118860Y-63612093D01*
X104195997Y-63619496D01*
X104263090Y-63625935D01*
X104513500Y-63634845D01*
X104764711Y-63631772D01*
X104965633Y-63612334D01*
X105042667Y-63580556D01*
X104995014Y-63556864D01*
X104825865Y-63542541D01*
X104585841Y-63545025D01*
X104329483Y-63563373D01*
X104111334Y-63596643D01*
X103457938Y-63596643D01*
X103455167Y-63588593D01*
X103416843Y-63577411D01*
X103243500Y-63588593D01*
X103236788Y-63602333D01*
X103229138Y-63617993D01*
X102995007Y-63617993D01*
X103010667Y-63602333D01*
X102968334Y-63560000D01*
X102926000Y-63602333D01*
X102655223Y-63602333D01*
X102883667Y-63596977D01*
X101729375Y-63578489D01*
X101292977Y-63570126D01*
X100962297Y-63557901D01*
X100748109Y-63538131D01*
X100623044Y-63506528D01*
X100559731Y-63458803D01*
X100530802Y-63390666D01*
X100459379Y-63290682D01*
X100322595Y-63224640D01*
X100190922Y-63221869D01*
X100132000Y-63298073D01*
X100175473Y-63338666D01*
X100322500Y-63339468D01*
X100422419Y-63328804D01*
X100407167Y-63354450D01*
X100351667Y-63404362D01*
X100301334Y-63562059D01*
X100299850Y-63591954D01*
X100285693Y-63618991D01*
X100204976Y-63773138D01*
X99983431Y-63867687D01*
X99941078Y-63864418D01*
X99926209Y-63785401D01*
X99924282Y-63761757D01*
X99844658Y-63847640D01*
X99781883Y-63948043D01*
X99770522Y-63966213D01*
X99755094Y-64074623D01*
X99763105Y-64107931D01*
X99696967Y-64202231D01*
X99648155Y-64223592D01*
X99658249Y-64165748D01*
X99660647Y-64161849D01*
X99700171Y-64069231D01*
X99642927Y-64089113D01*
X99505952Y-64209303D01*
X99306280Y-64417612D01*
X99188859Y-64549849D01*
X99000144Y-64795881D01*
X98924870Y-64982636D01*
X98953683Y-65147233D01*
X99077232Y-65326795D01*
X99212184Y-65526163D01*
X99289811Y-65799809D01*
X99228398Y-66028987D01*
X99029517Y-66185419D01*
X99022954Y-66188159D01*
X98830496Y-66287359D01*
X98720102Y-66378106D01*
X98705344Y-66415602D01*
X98767137Y-66402635D01*
X98771114Y-66400239D01*
X98835276Y-66408026D01*
X98828159Y-66558887D01*
X98822320Y-66706617D01*
X98867607Y-66777333D01*
X98892571Y-66772374D01*
X98946667Y-66680834D01*
X98957696Y-66650333D01*
X99031334Y-66650333D01*
X99073667Y-66692667D01*
X99116000Y-66650333D01*
X99073667Y-66608000D01*
X99031334Y-66650333D01*
X98957696Y-66650333D01*
X98976478Y-66598390D01*
X99094834Y-66462255D01*
X99164899Y-66403460D01*
X99196030Y-66360629D01*
X99094834Y-66386764D01*
X99012030Y-66400400D01*
X98946667Y-66361217D01*
X98982946Y-66308228D01*
X99124795Y-66242501D01*
X99195085Y-66227634D01*
X99272284Y-66257963D01*
X99262167Y-66409122D01*
X99248767Y-66495202D01*
X99273964Y-66586296D01*
X99401539Y-66573985D01*
X99523385Y-66547527D01*
X99729834Y-66524489D01*
X99747344Y-66523699D01*
X99848428Y-66458153D01*
X99878000Y-66264336D01*
X99878001Y-66263434D01*
X99902075Y-66088721D01*
X99968366Y-66061189D01*
X100032732Y-66059754D01*
X100103194Y-65947013D01*
X100175796Y-65822867D01*
X100301168Y-65738353D01*
X100418681Y-65727511D01*
X100470667Y-65811593D01*
X100456007Y-65866962D01*
X100343667Y-65930667D01*
X100284440Y-65945418D01*
X100216667Y-66057667D01*
X100204279Y-66115876D01*
X100115862Y-66163500D01*
X100056382Y-66175616D01*
X99982654Y-66290500D01*
X99979904Y-66371943D01*
X100041126Y-66438667D01*
X100066762Y-66435215D01*
X100132000Y-66354000D01*
X100134560Y-66342888D01*
X100232466Y-66290599D01*
X100428334Y-66269333D01*
X100467322Y-66270147D01*
X100650270Y-66301120D01*
X100724667Y-66363058D01*
X100707448Y-66403899D01*
X100600379Y-66409089D01*
X100536191Y-66396239D01*
X100426049Y-66442364D01*
X100452409Y-66497901D01*
X100597512Y-66523333D01*
X100780362Y-66536212D01*
X101048783Y-66583734D01*
X101295997Y-66650333D01*
X101304587Y-66652647D01*
X101496022Y-66728430D01*
X101571334Y-66796563D01*
X101526981Y-66839629D01*
X101380834Y-66835121D01*
X101103440Y-66781712D01*
X100589151Y-66735456D01*
X100066136Y-66744503D01*
X99569461Y-66803850D01*
X99134191Y-66908492D01*
X98795392Y-67053426D01*
X98588130Y-67233647D01*
X98546790Y-67254844D01*
X98524630Y-67146225D01*
X98547502Y-67030519D01*
X98646284Y-66917603D01*
X98715213Y-66857602D01*
X98721491Y-66675711D01*
X98677219Y-66466945D01*
X98631691Y-66206512D01*
X98626963Y-66178482D01*
X98576067Y-66018598D01*
X98515120Y-65978076D01*
X98483152Y-65983897D01*
X98487742Y-65901295D01*
X98489632Y-65896149D01*
X98482961Y-65770068D01*
X98403716Y-65708368D01*
X98312521Y-65759952D01*
X98222438Y-65816468D01*
X98036488Y-65846000D01*
X97910178Y-65842873D01*
X97872065Y-65813218D01*
X97977051Y-65726508D01*
X98095059Y-65659954D01*
X98204900Y-65646838D01*
X98230244Y-65654169D01*
X98269334Y-65583874D01*
X98302760Y-65542027D01*
X98424167Y-65621211D01*
X98536010Y-65710543D01*
X98635834Y-65761333D01*
X98670502Y-65741680D01*
X98692842Y-65626304D01*
X98664830Y-65476366D01*
X98594919Y-65372248D01*
X98547603Y-65351648D01*
X98557582Y-65409585D01*
X98575657Y-65453598D01*
X98533327Y-65507333D01*
X98457364Y-65486904D01*
X98391384Y-65393220D01*
X98437286Y-65296520D01*
X98483787Y-65241541D01*
X98523334Y-65079003D01*
X98539444Y-64985305D01*
X98612997Y-64914667D01*
X98641467Y-64919754D01*
X98653950Y-64993483D01*
X98642444Y-65024011D01*
X98691286Y-65125480D01*
X98712414Y-65130587D01*
X98758360Y-65042555D01*
X98771967Y-64813830D01*
X98771390Y-64778972D01*
X98761676Y-64588315D01*
X98737251Y-64547560D01*
X98690029Y-64639500D01*
X98630982Y-64761684D01*
X98571053Y-64830000D01*
X98556598Y-64816987D01*
X98573194Y-64713917D01*
X98567678Y-64606250D01*
X98470433Y-64450527D01*
X98392010Y-64376800D01*
X98305402Y-64352323D01*
X98211570Y-64455784D01*
X98157539Y-64558696D01*
X98181490Y-64658703D01*
X98216382Y-64711276D01*
X98217684Y-64787667D01*
X98218935Y-64861052D01*
X98168694Y-65013940D01*
X98085129Y-65084000D01*
X98058730Y-65077597D01*
X98057667Y-64999333D01*
X98071179Y-64966785D01*
X98024538Y-64914667D01*
X97964108Y-64938667D01*
X97858140Y-65059300D01*
X97823683Y-65172203D01*
X97906412Y-65295667D01*
X97910023Y-65301056D01*
X97982384Y-65382611D01*
X97975103Y-65558590D01*
X97938900Y-65635932D01*
X97897115Y-65648054D01*
X97850125Y-65507333D01*
X97833754Y-65457049D01*
X97800254Y-65440319D01*
X97766640Y-65565437D01*
X97757154Y-65634333D01*
X97728009Y-65846000D01*
X97695181Y-66119812D01*
X97661021Y-66394836D01*
X97638370Y-66565667D01*
X97624909Y-66668392D01*
X97602806Y-66892225D01*
X97574002Y-66986321D01*
X97460603Y-66999028D01*
X97394561Y-66984191D01*
X97380933Y-67032303D01*
X97387412Y-67076594D01*
X97295667Y-67116000D01*
X97230332Y-67106183D01*
X97199788Y-67049476D01*
X97192672Y-67010443D01*
X97077784Y-66982952D01*
X96985461Y-66994713D01*
X96914667Y-67049476D01*
X96892051Y-67083672D01*
X96766500Y-67109316D01*
X96695275Y-67097279D01*
X96723491Y-67060152D01*
X96733965Y-67055625D01*
X96786033Y-66983822D01*
X96727783Y-66834003D01*
X96671885Y-66687897D01*
X96648792Y-66467920D01*
X96641954Y-66348177D01*
X96568724Y-66222503D01*
X96556467Y-66215515D01*
X96498873Y-66231761D01*
X96510590Y-66388663D01*
X96517310Y-66426544D01*
X96516197Y-66563665D01*
X96438867Y-66573493D01*
X96414779Y-66568138D01*
X96296775Y-66629261D01*
X96200569Y-66777333D01*
X96190650Y-66792599D01*
X96123447Y-67003887D01*
X96122212Y-67208861D01*
X96136279Y-67277195D01*
X96134903Y-67351495D01*
X96069346Y-67285333D01*
X96023890Y-67235212D01*
X95992519Y-67259171D01*
X96003185Y-67412333D01*
X96004348Y-67429028D01*
X96007172Y-67454002D01*
X96010523Y-67617184D01*
X95981605Y-67665264D01*
X95976782Y-67663307D01*
X95936871Y-67727702D01*
X95922804Y-67835667D01*
X95914087Y-67902569D01*
X95880478Y-68180781D01*
X95864577Y-68251944D01*
X95815830Y-68470108D01*
X95772226Y-68682333D01*
X95758830Y-68747535D01*
X95733762Y-69075398D01*
X95748416Y-69366568D01*
X95803514Y-69557265D01*
X95869155Y-69621510D01*
X95926561Y-69536099D01*
X95974801Y-69468401D01*
X96128843Y-69411821D01*
X96150593Y-69413313D01*
X96227890Y-69427715D01*
X96140593Y-69458612D01*
X96054515Y-69515514D01*
X96049749Y-69680016D01*
X96052567Y-69690814D01*
X96073891Y-69804997D01*
X96025312Y-69810989D01*
X95871323Y-69715940D01*
X95644667Y-69567430D01*
X95644667Y-69816457D01*
X95632021Y-70020072D01*
X95594347Y-70220575D01*
X95585213Y-70249272D01*
X95572411Y-70323021D01*
X95635384Y-70248667D01*
X95692905Y-70187144D01*
X95728037Y-70222503D01*
X95725354Y-70252349D01*
X95652034Y-70371113D01*
X95634902Y-70388195D01*
X95571368Y-70532053D01*
X95517592Y-70757110D01*
X95512850Y-70784722D01*
X95461405Y-70989026D01*
X95376004Y-71076692D01*
X95213892Y-71095333D01*
X95124895Y-71098663D01*
X95001238Y-71147902D01*
X94977155Y-71285833D01*
X94713334Y-71285833D01*
X94713334Y-69749323D01*
X95062025Y-69749323D01*
X95074355Y-70103591D01*
X95075003Y-70112621D01*
X95086779Y-70202005D01*
X95096349Y-70138327D01*
X95102744Y-69937057D01*
X95104996Y-69613667D01*
X95104973Y-69586563D01*
X95102181Y-69277021D01*
X95095447Y-69095641D01*
X95085735Y-69056146D01*
X95074007Y-69172258D01*
X95065885Y-69350877D01*
X95062025Y-69749323D01*
X94713334Y-69749323D01*
X94713334Y-68682333D01*
X95390667Y-68682333D01*
X95433000Y-68724667D01*
X95475334Y-68682333D01*
X95560000Y-68682333D01*
X95602334Y-68724667D01*
X95644667Y-68682333D01*
X95602334Y-68640000D01*
X95560000Y-68682333D01*
X95475334Y-68682333D01*
X95433000Y-68640000D01*
X95390667Y-68682333D01*
X94713334Y-68682333D01*
X94713334Y-68249752D01*
X95065303Y-68249752D01*
X95085514Y-68363069D01*
X95114416Y-68361758D01*
X95129983Y-68251944D01*
X95116425Y-68168721D01*
X95078830Y-68200792D01*
X95065303Y-68249752D01*
X94713334Y-68249752D01*
X94713334Y-67835667D01*
X95052000Y-67835667D01*
X95094334Y-67878000D01*
X95136667Y-67835667D01*
X95094334Y-67793333D01*
X95052000Y-67835667D01*
X94713334Y-67835667D01*
X94713334Y-67412333D01*
X95052000Y-67412333D01*
X95094334Y-67454667D01*
X95136667Y-67412333D01*
X95094334Y-67370000D01*
X95052000Y-67412333D01*
X94713334Y-67412333D01*
X94713334Y-66733298D01*
X95070090Y-66733298D01*
X95080223Y-66833778D01*
X95105689Y-66847023D01*
X95136667Y-66777333D01*
X95130557Y-66732511D01*
X95080223Y-66720889D01*
X95070090Y-66733298D01*
X94713334Y-66733298D01*
X94713334Y-65634333D01*
X95052000Y-65634333D01*
X95094334Y-65676667D01*
X95136667Y-65634333D01*
X95094334Y-65592000D01*
X95052000Y-65634333D01*
X94713334Y-65634333D01*
X94713334Y-65295667D01*
X95052000Y-65295667D01*
X95094334Y-65338000D01*
X95136667Y-65295667D01*
X95094334Y-65253333D01*
X95052000Y-65295667D01*
X94713334Y-65295667D01*
X94713334Y-64787667D01*
X98015334Y-64787667D01*
X98057667Y-64830000D01*
X98100000Y-64787667D01*
X98057667Y-64745333D01*
X98015334Y-64787667D01*
X94713334Y-64787667D01*
X94713334Y-64007365D01*
X94979716Y-64007365D01*
X94996465Y-64175445D01*
X94999839Y-64182993D01*
X95026343Y-64170262D01*
X95029999Y-64112499D01*
X98396715Y-64112499D01*
X98397575Y-64239341D01*
X98465057Y-64310365D01*
X98564484Y-64284732D01*
X98643746Y-64106439D01*
X98669187Y-63948043D01*
X98645602Y-63808998D01*
X98570164Y-63796130D01*
X98464777Y-63930920D01*
X98429263Y-64025667D01*
X98396715Y-64112499D01*
X95029999Y-64112499D01*
X95035495Y-64025667D01*
X95034936Y-63999374D01*
X95020278Y-63886917D01*
X94993327Y-63921445D01*
X94979716Y-64007365D01*
X94713334Y-64007365D01*
X94713334Y-63593086D01*
X94980636Y-63593086D01*
X95000848Y-63706403D01*
X95029750Y-63705092D01*
X95045100Y-63596801D01*
X95534601Y-63596801D01*
X95636830Y-63604513D01*
X95875464Y-63609640D01*
X96237334Y-63611501D01*
X96432861Y-63611021D01*
X96734755Y-63607442D01*
X96906829Y-63600937D01*
X96934865Y-63592505D01*
X97561674Y-63592505D01*
X97574405Y-63619009D01*
X97719000Y-63628161D01*
X97745293Y-63627602D01*
X97852042Y-63613688D01*
X99046310Y-63613688D01*
X99116000Y-63644667D01*
X99160823Y-63638556D01*
X99169952Y-63599017D01*
X99300936Y-63599017D01*
X99343585Y-63610952D01*
X99515198Y-63638806D01*
X99767780Y-63670628D01*
X99994501Y-63689385D01*
X100144345Y-63675886D01*
X100169076Y-63618991D01*
X100155125Y-63598070D01*
X100002510Y-63547501D01*
X99702232Y-63547380D01*
X99543962Y-63560105D01*
X99361013Y-63581428D01*
X99337807Y-63588222D01*
X99300936Y-63599017D01*
X99169952Y-63599017D01*
X99172445Y-63588222D01*
X99160036Y-63578089D01*
X99059556Y-63588222D01*
X99046697Y-63612944D01*
X99046310Y-63613688D01*
X97852042Y-63613688D01*
X97857750Y-63612944D01*
X97823222Y-63585993D01*
X97737302Y-63572382D01*
X97569222Y-63589131D01*
X97562379Y-63592190D01*
X97561674Y-63592505D01*
X96934865Y-63592505D01*
X96935912Y-63592190D01*
X96808834Y-63581882D01*
X96541845Y-63572719D01*
X96082743Y-63570428D01*
X95665834Y-63581882D01*
X95581948Y-63587188D01*
X95542102Y-63595278D01*
X95534601Y-63596801D01*
X95045100Y-63596801D01*
X95045316Y-63595278D01*
X95031758Y-63512055D01*
X94994164Y-63544125D01*
X94980636Y-63593086D01*
X94713334Y-63593086D01*
X94713334Y-63136667D01*
X114102000Y-63136667D01*
X114102000Y-81763333D01*
X94713334Y-81763333D01*
G37*
G36*
X96406667Y-68555333D02*
G01*
X96400557Y-68600155D01*
X96350223Y-68611778D01*
X96340090Y-68599368D01*
X96350223Y-68498889D01*
X96375689Y-68485643D01*
X96406667Y-68555333D01*
G37*
G36*
X97357655Y-74708872D02*
G01*
X97189834Y-74710651D01*
X97024514Y-74656554D01*
X97013305Y-74639178D01*
X97063238Y-74609000D01*
X97168667Y-74609000D01*
X97211000Y-74651333D01*
X97253334Y-74609000D01*
X97211000Y-74566667D01*
X97168667Y-74609000D01*
X97063238Y-74609000D01*
X97094318Y-74590216D01*
X97215483Y-74535954D01*
X97356684Y-74562923D01*
X97386976Y-74609000D01*
X97422667Y-74663288D01*
X97357655Y-74708872D01*
G37*
G36*
X96081230Y-68804560D02*
G01*
X96099750Y-68985523D01*
X96086126Y-69172349D01*
X96065898Y-69296167D01*
X96039104Y-69272317D01*
X96007219Y-69125398D01*
X95959674Y-68975319D01*
X95892905Y-68939894D01*
X95857310Y-68949558D01*
X95814000Y-68874681D01*
X95836387Y-68812939D01*
X95962167Y-68749540D01*
X95989838Y-68748889D01*
X96081230Y-68804560D01*
G37*
G36*
X109198764Y-65515562D02*
G01*
X109268418Y-65686332D01*
X109326701Y-65875724D01*
X109354226Y-66036500D01*
X109312049Y-66146506D01*
X109139942Y-66184667D01*
X109079555Y-66183126D01*
X108967574Y-66145937D01*
X108979869Y-66036500D01*
X109012417Y-65942186D01*
X109062788Y-65719000D01*
X109076490Y-65615387D01*
X109102303Y-65422667D01*
X109102893Y-65418847D01*
X109137127Y-65410654D01*
X109198764Y-65515562D01*
G37*
G36*
X108598667Y-69952333D02*
G01*
X108556334Y-69994667D01*
X108514000Y-69952333D01*
X108556334Y-69910000D01*
X108598667Y-69952333D01*
G37*
G36*
X96745334Y-75286333D02*
G01*
X96703000Y-75328667D01*
X96660667Y-75286333D01*
X96703000Y-75244000D01*
X96745334Y-75286333D01*
G37*
G36*
X112578000Y-64025667D02*
G01*
X112535667Y-64068000D01*
X112493334Y-64025667D01*
X112535667Y-63983333D01*
X112578000Y-64025667D01*
G37*
G36*
X108852667Y-70714333D02*
G01*
X108810334Y-70756667D01*
X108768000Y-70714333D01*
X108810334Y-70672000D01*
X108852667Y-70714333D01*
G37*
G36*
X100809334Y-77022000D02*
G01*
X100803224Y-77066822D01*
X100752889Y-77078444D01*
X100742756Y-77066035D01*
X100752889Y-76965555D01*
X100778356Y-76952310D01*
X100809334Y-77022000D01*
G37*
G36*
X109022000Y-69359667D02*
G01*
X108979667Y-69402000D01*
X108937334Y-69359667D01*
X108979667Y-69317333D01*
X109022000Y-69359667D01*
G37*
G36*
X100470667Y-71302003D02*
G01*
X100460305Y-71365084D01*
X100386000Y-71434000D01*
X100365913Y-71431719D01*
X100301334Y-71354330D01*
X100304563Y-71330576D01*
X100386000Y-71222333D01*
X100429621Y-71214368D01*
X100470667Y-71302003D01*
G37*
G36*
X95644667Y-70841333D02*
G01*
X95638557Y-70886155D01*
X95588223Y-70897778D01*
X95578090Y-70885368D01*
X95588223Y-70784889D01*
X95613689Y-70771643D01*
X95644667Y-70841333D01*
G37*
%TD*%
%LPC*%
D11*
%TO.C,J6*%
X32025000Y-82150000D03*
D12*
X34565000Y-82150000D03*
X37105000Y-82150000D03*
X39645000Y-82150000D03*
X42185000Y-82150000D03*
%TD*%
D13*
%TO.C,J1*%
X33775000Y-57025000D03*
X33775000Y-57875000D03*
X33775000Y-58725000D03*
X33775000Y-59575000D03*
X33775000Y-60425000D03*
X33775000Y-61275000D03*
X33775000Y-62125000D03*
X33775000Y-62975000D03*
X32425000Y-62975000D03*
X32425000Y-62125000D03*
X32425000Y-61275000D03*
X32425000Y-60425000D03*
X32425000Y-59575000D03*
X32425000Y-58725000D03*
X32425000Y-57875000D03*
X32425000Y-57025000D03*
D14*
X32795000Y-64325000D03*
X32795000Y-55675000D03*
D15*
X29415000Y-64325000D03*
X29415000Y-55675000D03*
%TD*%
D13*
%TO.C,J2*%
X33775000Y-87025000D03*
X33775000Y-87875000D03*
X33775000Y-88725000D03*
X33775000Y-89575000D03*
X33775000Y-90425000D03*
X33775000Y-91275000D03*
X33775000Y-92125000D03*
X33775000Y-92975000D03*
X32425000Y-92975000D03*
X32425000Y-92125000D03*
X32425000Y-91275000D03*
X32425000Y-90425000D03*
X32425000Y-89575000D03*
X32425000Y-88725000D03*
X32425000Y-87875000D03*
X32425000Y-87025000D03*
D14*
X32795000Y-85675000D03*
D15*
X29415000Y-94325000D03*
D14*
X32795000Y-94325000D03*
D15*
X29415000Y-85675000D03*
%TD*%
D16*
%TO.C,H4*%
X123500000Y-120750000D03*
%TD*%
D11*
%TO.C,J5*%
X34450000Y-106000000D03*
D12*
X34450000Y-103460000D03*
X34450000Y-100920000D03*
%TD*%
D17*
%TO.C,J8*%
X123000000Y-97025000D03*
D18*
X120600000Y-94625000D03*
X120600000Y-99425000D03*
X125400000Y-99425000D03*
X125400000Y-94625000D03*
%TD*%
D17*
%TO.C,J4*%
X47250000Y-120750000D03*
D18*
X44850000Y-118350000D03*
X44850000Y-123150000D03*
X49650000Y-123150000D03*
X49650000Y-118350000D03*
%TD*%
D17*
%TO.C,J7*%
X123000000Y-50000000D03*
D18*
X120600000Y-47600000D03*
X120600000Y-52400000D03*
X125400000Y-52400000D03*
X125400000Y-47600000D03*
%TD*%
D19*
%TO.C,BT1*%
X78250000Y-29337500D03*
D20*
X83250000Y-29337500D03*
%TD*%
D16*
%TO.C,H1*%
X32000000Y-29250000D03*
%TD*%
%TO.C,H3*%
X32000000Y-120750000D03*
%TD*%
%TO.C,H2*%
X123500000Y-29250000D03*
%TD*%
M02*
