%TF.GenerationSoftware,KiCad,Pcbnew,(6.0.7-1)-1*%
%TF.CreationDate,2023-02-28T10:44:53-05:00*%
%TF.ProjectId,HABBoard,48414242-6f61-4726-942e-6b696361645f,rev?*%
%TF.SameCoordinates,Original*%
%TF.FileFunction,Soldermask,Top*%
%TF.FilePolarity,Negative*%
%FSLAX46Y46*%
G04 Gerber Fmt 4.6, Leading zero omitted, Abs format (unit mm)*
G04 Created by KiCad (PCBNEW (6.0.7-1)-1) date 2023-02-28 10:44:53*
%MOMM*%
%LPD*%
G01*
G04 APERTURE LIST*
G04 Aperture macros list*
%AMRoundRect*
0 Rectangle with rounded corners*
0 $1 Rounding radius*
0 $2 $3 $4 $5 $6 $7 $8 $9 X,Y pos of 4 corners*
0 Add a 4 corners polygon primitive as box body*
4,1,4,$2,$3,$4,$5,$6,$7,$8,$9,$2,$3,0*
0 Add four circle primitives for the rounded corners*
1,1,$1+$1,$2,$3*
1,1,$1+$1,$4,$5*
1,1,$1+$1,$6,$7*
1,1,$1+$1,$8,$9*
0 Add four rect primitives between the rounded corners*
20,1,$1+$1,$2,$3,$4,$5,0*
20,1,$1+$1,$4,$5,$6,$7,0*
20,1,$1+$1,$6,$7,$8,$9,0*
20,1,$1+$1,$8,$9,$2,$3,0*%
G04 Aperture macros list end*
%ADD10C,0.100000*%
%ADD11R,0.700000X1.000000*%
%ADD12RoundRect,0.140000X-0.140000X-0.170000X0.140000X-0.170000X0.140000X0.170000X-0.140000X0.170000X0*%
%ADD13RoundRect,0.140000X0.170000X-0.140000X0.170000X0.140000X-0.170000X0.140000X-0.170000X-0.140000X0*%
%ADD14RoundRect,0.140000X-0.170000X0.140000X-0.170000X-0.140000X0.170000X-0.140000X0.170000X0.140000X0*%
%ADD15C,1.000000*%
%ADD16RoundRect,0.135000X0.185000X-0.135000X0.185000X0.135000X-0.185000X0.135000X-0.185000X-0.135000X0*%
%ADD17RoundRect,0.135000X0.135000X0.185000X-0.135000X0.185000X-0.135000X-0.185000X0.135000X-0.185000X0*%
%ADD18R,4.800000X4.800000*%
%ADD19RoundRect,0.075000X-0.312500X0.075000X-0.312500X-0.075000X0.312500X-0.075000X0.312500X0.075000X0*%
%ADD20RoundRect,0.075000X-0.075000X0.312500X-0.075000X-0.312500X0.075000X-0.312500X0.075000X0.312500X0*%
%ADD21R,1.000000X0.700000*%
%ADD22R,0.600000X0.700000*%
%ADD23R,0.980000X3.400000*%
%ADD24RoundRect,0.147500X-0.147500X-0.172500X0.147500X-0.172500X0.147500X0.172500X-0.147500X0.172500X0*%
%ADD25RoundRect,0.135000X-0.135000X-0.185000X0.135000X-0.185000X0.135000X0.185000X-0.135000X0.185000X0*%
%ADD26R,3.200000X3.200000*%
%ADD27RoundRect,0.050000X-0.387500X0.050000X-0.387500X-0.050000X0.387500X-0.050000X0.387500X0.050000X0*%
%ADD28RoundRect,0.050000X-0.050000X0.387500X-0.050000X-0.387500X0.050000X-0.387500X0.050000X0.387500X0*%
%ADD29RoundRect,0.012800X-0.317200X-0.147200X0.317200X-0.147200X0.317200X0.147200X-0.317200X0.147200X0*%
%ADD30RoundRect,0.225000X0.250000X-0.225000X0.250000X0.225000X-0.250000X0.225000X-0.250000X-0.225000X0*%
%ADD31R,0.900000X1.500000*%
%ADD32RoundRect,0.135000X-0.185000X0.135000X-0.185000X-0.135000X0.185000X-0.135000X0.185000X0.135000X0*%
%ADD33RoundRect,0.140000X0.140000X0.170000X-0.140000X0.170000X-0.140000X-0.170000X0.140000X-0.170000X0*%
%ADD34R,0.650000X0.400000*%
%ADD35RoundRect,0.250000X0.475000X-0.250000X0.475000X0.250000X-0.475000X0.250000X-0.475000X-0.250000X0*%
%ADD36RoundRect,0.100000X0.637500X0.100000X-0.637500X0.100000X-0.637500X-0.100000X0.637500X-0.100000X0*%
%ADD37RoundRect,0.250000X-0.475000X0.250000X-0.475000X-0.250000X0.475000X-0.250000X0.475000X0.250000X0*%
%ADD38R,2.400000X1.800000*%
%ADD39RoundRect,0.250000X-0.312500X-0.625000X0.312500X-0.625000X0.312500X0.625000X-0.312500X0.625000X0*%
%ADD40R,2.700000X2.700000*%
%ADD41RoundRect,0.062500X0.337500X-0.062500X0.337500X0.062500X-0.337500X0.062500X-0.337500X-0.062500X0*%
%ADD42RoundRect,0.062500X0.062500X-0.337500X0.062500X0.337500X-0.062500X0.337500X-0.062500X-0.337500X0*%
%ADD43O,1.700000X1.700000*%
%ADD44R,1.700000X1.700000*%
%ADD45RoundRect,0.225000X-0.225000X-0.250000X0.225000X-0.250000X0.225000X0.250000X-0.225000X0.250000X0*%
%ADD46RoundRect,0.150000X-0.512500X-0.150000X0.512500X-0.150000X0.512500X0.150000X-0.512500X0.150000X0*%
%ADD47R,1.500000X0.900000*%
%ADD48RoundRect,0.225000X0.225000X0.250000X-0.225000X0.250000X-0.225000X-0.250000X0.225000X-0.250000X0*%
%ADD49RoundRect,0.050000X0.050000X-0.225000X0.050000X0.225000X-0.050000X0.225000X-0.050000X-0.225000X0*%
%ADD50RoundRect,0.050000X0.225000X0.050000X-0.225000X0.050000X-0.225000X-0.050000X0.225000X-0.050000X0*%
%ADD51RoundRect,0.225000X-0.250000X0.225000X-0.250000X-0.225000X0.250000X-0.225000X0.250000X0.225000X0*%
%ADD52R,0.800000X1.800000*%
%ADD53RoundRect,0.150000X0.587500X0.150000X-0.587500X0.150000X-0.587500X-0.150000X0.587500X-0.150000X0*%
%ADD54O,1.700000X0.900000*%
%ADD55O,2.400000X0.900000*%
%ADD56C,0.700000*%
%ADD57RoundRect,0.218750X0.256250X-0.218750X0.256250X0.218750X-0.256250X0.218750X-0.256250X-0.218750X0*%
%ADD58RoundRect,0.125000X-0.125000X-0.137500X0.125000X-0.137500X0.125000X0.137500X-0.125000X0.137500X0*%
%ADD59R,2.500000X1.000000*%
%ADD60R,0.558800X0.254000*%
%ADD61R,0.254000X0.711200*%
%ADD62C,6.400000*%
%ADD63R,0.800000X1.200000*%
%ADD64R,1.500000X2.000000*%
%ADD65C,1.920000*%
%ADD66C,1.508000*%
%ADD67RoundRect,0.250000X-0.550000X1.250000X-0.550000X-1.250000X0.550000X-1.250000X0.550000X1.250000X0*%
%ADD68C,1.950000*%
%ADD69R,1.950000X1.950000*%
%ADD70R,0.700000X0.510000*%
%ADD71R,0.900000X0.800000*%
%ADD72R,0.990000X5.140000*%
%ADD73R,0.990000X3.000000*%
%ADD74R,3.590000X0.990000*%
%ADD75R,3.000000X0.990000*%
%ADD76R,2.990000X0.990000*%
%ADD77RoundRect,0.150000X0.150000X-0.587500X0.150000X0.587500X-0.150000X0.587500X-0.150000X-0.587500X0*%
%ADD78RoundRect,0.250000X0.250000X0.475000X-0.250000X0.475000X-0.250000X-0.475000X0.250000X-0.475000X0*%
%ADD79RoundRect,0.218750X-0.218750X-0.256250X0.218750X-0.256250X0.218750X0.256250X-0.218750X0.256250X0*%
%ADD80RoundRect,0.150000X-0.825000X-0.150000X0.825000X-0.150000X0.825000X0.150000X-0.825000X0.150000X0*%
%ADD81RoundRect,0.150000X-0.150000X0.650000X-0.150000X-0.650000X0.150000X-0.650000X0.150000X0.650000X0*%
G04 APERTURE END LIST*
%TO.C,U12*%
G36*
X72299600Y-29877063D02*
G01*
X71958400Y-29877063D01*
X71958400Y-29122937D01*
X72299600Y-29122937D01*
X72299600Y-29877063D01*
G37*
D10*
X72299600Y-29877063D02*
X71958400Y-29877063D01*
X71958400Y-29122937D01*
X72299600Y-29122937D01*
X72299600Y-29877063D01*
G36*
X73041600Y-29877063D02*
G01*
X72700400Y-29877063D01*
X72700400Y-29122937D01*
X73041600Y-29122937D01*
X73041600Y-29877063D01*
G37*
X73041600Y-29877063D02*
X72700400Y-29877063D01*
X72700400Y-29122937D01*
X73041600Y-29122937D01*
X73041600Y-29877063D01*
%TD*%
D11*
%TO.C,SW1*%
X49425000Y-89000000D03*
X49425000Y-84500000D03*
X51575000Y-89000000D03*
X51575000Y-84500000D03*
%TD*%
%TO.C,SW2*%
X55425000Y-89000000D03*
X55425000Y-84500000D03*
X57575000Y-89000000D03*
X57575000Y-84500000D03*
%TD*%
D12*
%TO.C,C37*%
X97895000Y-39850000D03*
X98855000Y-39850000D03*
%TD*%
%TO.C,C77*%
X105455000Y-49500000D03*
X106415000Y-49500000D03*
%TD*%
%TO.C,C25*%
X98195000Y-42925000D03*
X99155000Y-42925000D03*
%TD*%
D13*
%TO.C,C28*%
X96115000Y-45630000D03*
X96115000Y-44670000D03*
%TD*%
%TO.C,C19*%
X89515000Y-96895000D03*
X89515000Y-95935000D03*
%TD*%
D14*
%TO.C,C83*%
X109585000Y-48570000D03*
X109585000Y-49530000D03*
%TD*%
D15*
%TO.C,TP10*%
X62625000Y-42925000D03*
%TD*%
D16*
%TO.C,R10*%
X51250000Y-69435000D03*
X51250000Y-68415000D03*
%TD*%
D17*
%TO.C,R26*%
X80910000Y-74925000D03*
X79890000Y-74925000D03*
%TD*%
D12*
%TO.C,C63*%
X33890000Y-77750000D03*
X34850000Y-77750000D03*
%TD*%
D18*
%TO.C,U10*%
X94935000Y-96985000D03*
D19*
X97922500Y-95035000D03*
X97922500Y-95685000D03*
X97922500Y-96335000D03*
X97922500Y-96985000D03*
X97922500Y-97635000D03*
X97922500Y-98285000D03*
X97922500Y-98935000D03*
D20*
X96885000Y-99972500D03*
X96235000Y-99972500D03*
X95585000Y-99972500D03*
X94935000Y-99972500D03*
X94285000Y-99972500D03*
X93635000Y-99972500D03*
X92985000Y-99972500D03*
D19*
X91947500Y-98935000D03*
X91947500Y-98285000D03*
X91947500Y-97635000D03*
X91947500Y-96985000D03*
X91947500Y-96335000D03*
X91947500Y-95685000D03*
X91947500Y-95035000D03*
D20*
X92985000Y-93997500D03*
X93635000Y-93997500D03*
X94285000Y-93997500D03*
X94935000Y-93997500D03*
X95585000Y-93997500D03*
X96235000Y-93997500D03*
X96885000Y-93997500D03*
%TD*%
D21*
%TO.C,D1*%
X38900000Y-59000000D03*
D22*
X37200000Y-59000000D03*
X37200000Y-61000000D03*
X39100000Y-61000000D03*
%TD*%
D13*
%TO.C,C29*%
X97815000Y-45630000D03*
X97815000Y-44670000D03*
%TD*%
D17*
%TO.C,R31*%
X54560000Y-28200000D03*
X53540000Y-28200000D03*
%TD*%
%TO.C,R23*%
X78010000Y-77900000D03*
X76990000Y-77900000D03*
%TD*%
D23*
%TO.C,L3*%
X37435000Y-37000000D03*
X35065000Y-37000000D03*
%TD*%
D13*
%TO.C,C30*%
X56050000Y-36080000D03*
X56050000Y-35120000D03*
%TD*%
D24*
%TO.C,FB11*%
X88665000Y-51400000D03*
X89635000Y-51400000D03*
%TD*%
D25*
%TO.C,R11*%
X116940000Y-71900000D03*
X117960000Y-71900000D03*
%TD*%
D24*
%TO.C,L9*%
X99450000Y-97035000D03*
X100420000Y-97035000D03*
%TD*%
%TO.C,FB15*%
X88680000Y-40825000D03*
X89650000Y-40825000D03*
%TD*%
D12*
%TO.C,C15*%
X125620000Y-75025000D03*
X126580000Y-75025000D03*
%TD*%
D26*
%TO.C,U5*%
X50980000Y-75500000D03*
D27*
X54417500Y-72900000D03*
X54417500Y-73300000D03*
X54417500Y-73700000D03*
X54417500Y-74100000D03*
X54417500Y-74500000D03*
X54417500Y-74900000D03*
X54417500Y-75300000D03*
X54417500Y-75700000D03*
X54417500Y-76100000D03*
X54417500Y-76500000D03*
X54417500Y-76900000D03*
X54417500Y-77300000D03*
X54417500Y-77700000D03*
X54417500Y-78100000D03*
D28*
X53580000Y-78937500D03*
X53180000Y-78937500D03*
X52780000Y-78937500D03*
X52380000Y-78937500D03*
X51980000Y-78937500D03*
X51580000Y-78937500D03*
X51180000Y-78937500D03*
X50780000Y-78937500D03*
X50380000Y-78937500D03*
X49980000Y-78937500D03*
X49580000Y-78937500D03*
X49180000Y-78937500D03*
X48780000Y-78937500D03*
X48380000Y-78937500D03*
D27*
X47542500Y-78100000D03*
X47542500Y-77700000D03*
X47542500Y-77300000D03*
X47542500Y-76900000D03*
X47542500Y-76500000D03*
X47542500Y-76100000D03*
X47542500Y-75700000D03*
X47542500Y-75300000D03*
X47542500Y-74900000D03*
X47542500Y-74500000D03*
X47542500Y-74100000D03*
X47542500Y-73700000D03*
X47542500Y-73300000D03*
X47542500Y-72900000D03*
D28*
X48380000Y-72062500D03*
X48780000Y-72062500D03*
X49180000Y-72062500D03*
X49580000Y-72062500D03*
X49980000Y-72062500D03*
X50380000Y-72062500D03*
X50780000Y-72062500D03*
X51180000Y-72062500D03*
X51580000Y-72062500D03*
X51980000Y-72062500D03*
X52380000Y-72062500D03*
X52780000Y-72062500D03*
X53180000Y-72062500D03*
X53580000Y-72062500D03*
%TD*%
D29*
%TO.C,U15*%
X67445000Y-32950000D03*
X67445000Y-33450000D03*
X67445000Y-33950000D03*
X67445000Y-34450000D03*
X68915000Y-34450000D03*
X68915000Y-33950000D03*
X68915000Y-33450000D03*
X68915000Y-32950000D03*
%TD*%
D13*
%TO.C,C78*%
X101985000Y-101515000D03*
X101985000Y-100555000D03*
%TD*%
D14*
%TO.C,C75*%
X100335000Y-98355000D03*
X100335000Y-99315000D03*
%TD*%
D30*
%TO.C,C54*%
X74575000Y-27575000D03*
X74575000Y-26025000D03*
%TD*%
D12*
%TO.C,C9*%
X68470000Y-79100000D03*
X69430000Y-79100000D03*
%TD*%
D17*
%TO.C,R1*%
X37885000Y-92600000D03*
X36865000Y-92600000D03*
%TD*%
D13*
%TO.C,C6*%
X49670000Y-69420000D03*
X49670000Y-68460000D03*
%TD*%
D31*
%TO.C,D3*%
X59200000Y-108300000D03*
X57800000Y-108300000D03*
X59200000Y-105200000D03*
X57800000Y-105200000D03*
%TD*%
D16*
%TO.C,R16*%
X60800000Y-98085000D03*
X60800000Y-97065000D03*
%TD*%
D24*
%TO.C,FB7*%
X90690000Y-86695000D03*
X91660000Y-86695000D03*
%TD*%
D14*
%TO.C,C82*%
X104735000Y-98135000D03*
X104735000Y-99095000D03*
%TD*%
D12*
%TO.C,C62*%
X33890000Y-73750000D03*
X34850000Y-73750000D03*
%TD*%
D32*
%TO.C,R35*%
X73125000Y-26015000D03*
X73125000Y-27035000D03*
%TD*%
D33*
%TO.C,C33*%
X29980000Y-37750000D03*
X29020000Y-37750000D03*
%TD*%
D34*
%TO.C,Q2*%
X123025000Y-112525000D03*
X123025000Y-111875000D03*
X123025000Y-111225000D03*
X121125000Y-111225000D03*
X121125000Y-111875000D03*
X121125000Y-112525000D03*
%TD*%
D35*
%TO.C,C57*%
X46500000Y-35700000D03*
X46500000Y-33800000D03*
%TD*%
D24*
%TO.C,FB17*%
X88665000Y-43125000D03*
X89635000Y-43125000D03*
%TD*%
D36*
%TO.C,U7*%
X111637500Y-77450000D03*
X111637500Y-76800000D03*
X111637500Y-76150000D03*
X111637500Y-75500000D03*
X111637500Y-74850000D03*
X111637500Y-74200000D03*
X111637500Y-73550000D03*
X117362500Y-73550000D03*
X117362500Y-74200000D03*
X117362500Y-74850000D03*
X117362500Y-75500000D03*
X117362500Y-76150000D03*
X117362500Y-76800000D03*
X117362500Y-77450000D03*
%TD*%
D16*
%TO.C,R27*%
X42050000Y-118910000D03*
X42050000Y-117890000D03*
%TD*%
D25*
%TO.C,R4*%
X36865000Y-57575000D03*
X37885000Y-57575000D03*
%TD*%
D13*
%TO.C,C64*%
X104350000Y-49480000D03*
X104350000Y-48520000D03*
%TD*%
D37*
%TO.C,C58*%
X39625000Y-39475000D03*
X39625000Y-41375000D03*
%TD*%
D24*
%TO.C,FB16*%
X88680000Y-41975000D03*
X89650000Y-41975000D03*
%TD*%
D15*
%TO.C,TP7*%
X111650000Y-70550000D03*
%TD*%
D12*
%TO.C,C12*%
X57370000Y-76900000D03*
X58330000Y-76900000D03*
%TD*%
D16*
%TO.C,R29*%
X50450000Y-116410000D03*
X50450000Y-115390000D03*
%TD*%
D38*
%TO.C,Y3*%
X38350000Y-77650000D03*
X38350000Y-73850000D03*
%TD*%
D12*
%TO.C,C74*%
X116801250Y-97050000D03*
X117761250Y-97050000D03*
%TD*%
D13*
%TO.C,C23*%
X111635000Y-95515000D03*
X111635000Y-94555000D03*
%TD*%
D39*
%TO.C,R37*%
X57787500Y-37000000D03*
X60712500Y-37000000D03*
%TD*%
D40*
%TO.C,U14*%
X50575000Y-37000000D03*
D41*
X48625000Y-38000000D03*
X48625000Y-37500000D03*
X48625000Y-37000000D03*
X48625000Y-36500000D03*
X48625000Y-36000000D03*
D42*
X49575000Y-35050000D03*
X50075000Y-35050000D03*
X50575000Y-35050000D03*
X51075000Y-35050000D03*
X51575000Y-35050000D03*
D41*
X52525000Y-36000000D03*
X52525000Y-36500000D03*
X52525000Y-37000000D03*
X52525000Y-37500000D03*
X52525000Y-38000000D03*
D42*
X51575000Y-38950000D03*
X51075000Y-38950000D03*
X50575000Y-38950000D03*
X50075000Y-38950000D03*
X49575000Y-38950000D03*
%TD*%
D32*
%TO.C,R13*%
X66425000Y-67440000D03*
X66425000Y-68460000D03*
%TD*%
D43*
%TO.C,J6*%
X42185000Y-82150000D03*
X39645000Y-82150000D03*
X37105000Y-82150000D03*
X34565000Y-82150000D03*
D44*
X32025000Y-82150000D03*
%TD*%
D45*
%TO.C,C53*%
X70625000Y-33950000D03*
X72175000Y-33950000D03*
%TD*%
D24*
%TO.C,FB12*%
X88665000Y-52550000D03*
X89635000Y-52550000D03*
%TD*%
D46*
%TO.C,U1*%
X38112500Y-119750000D03*
X38112500Y-120700000D03*
X38112500Y-121650000D03*
X40387500Y-121650000D03*
X40387500Y-119750000D03*
%TD*%
D24*
%TO.C,L13*%
X105850000Y-97015000D03*
X106820000Y-97015000D03*
%TD*%
D12*
%TO.C,C34*%
X48970000Y-32200000D03*
X49930000Y-32200000D03*
%TD*%
D33*
%TO.C,C71*%
X107415000Y-48200000D03*
X106455000Y-48200000D03*
%TD*%
D34*
%TO.C,Q3*%
X78450000Y-76225000D03*
X78450000Y-75575000D03*
X78450000Y-74925000D03*
X76550000Y-74925000D03*
X76550000Y-75575000D03*
X76550000Y-76225000D03*
%TD*%
D17*
%TO.C,R25*%
X75110000Y-76300000D03*
X74090000Y-76300000D03*
%TD*%
D24*
%TO.C,FB8*%
X90680000Y-87955000D03*
X91650000Y-87955000D03*
%TD*%
D32*
%TO.C,R33*%
X72000000Y-26015000D03*
X72000000Y-27035000D03*
%TD*%
D24*
%TO.C,L7*%
X107500000Y-49500000D03*
X108470000Y-49500000D03*
%TD*%
D14*
%TO.C,C67*%
X101535000Y-98355000D03*
X101535000Y-99315000D03*
%TD*%
D47*
%TO.C,D4*%
X121450000Y-105800000D03*
X121450000Y-104400000D03*
X124550000Y-105800000D03*
X124550000Y-104400000D03*
%TD*%
D33*
%TO.C,C24*%
X92180000Y-50850000D03*
X91220000Y-50850000D03*
%TD*%
D12*
%TO.C,C11*%
X55870000Y-72000000D03*
X56830000Y-72000000D03*
%TD*%
D48*
%TO.C,C44*%
X40025000Y-123400000D03*
X38475000Y-123400000D03*
%TD*%
D49*
%TO.C,U8*%
X121750000Y-77000000D03*
X122150000Y-77000000D03*
X122550000Y-77000000D03*
X122950000Y-77000000D03*
X123350000Y-77000000D03*
X123750000Y-77000000D03*
D50*
X124250000Y-76500000D03*
X124250000Y-76100000D03*
X124250000Y-75700000D03*
X124250000Y-75300000D03*
X124250000Y-74900000D03*
X124250000Y-74500000D03*
D49*
X123750000Y-74000000D03*
X123350000Y-74000000D03*
X122950000Y-74000000D03*
X122550000Y-74000000D03*
X122150000Y-74000000D03*
X121750000Y-74000000D03*
D50*
X121250000Y-74500000D03*
X121250000Y-74900000D03*
X121250000Y-75300000D03*
X121250000Y-75700000D03*
X121250000Y-76100000D03*
X121250000Y-76500000D03*
%TD*%
D15*
%TO.C,TP4*%
X47650000Y-115700000D03*
%TD*%
D12*
%TO.C,C21*%
X97165000Y-91555000D03*
X98125000Y-91555000D03*
%TD*%
D14*
%TO.C,C36*%
X105300000Y-78420000D03*
X105300000Y-79380000D03*
%TD*%
D24*
%TO.C,FB14*%
X88665000Y-54850000D03*
X89635000Y-54850000D03*
%TD*%
D51*
%TO.C,C51*%
X125800000Y-79625000D03*
X125800000Y-81175000D03*
%TD*%
D25*
%TO.C,R34*%
X72515000Y-31925000D03*
X73535000Y-31925000D03*
%TD*%
D14*
%TO.C,C5*%
X53950000Y-81220000D03*
X53950000Y-82180000D03*
%TD*%
D24*
%TO.C,FB5*%
X89460000Y-100385000D03*
X90430000Y-100385000D03*
%TD*%
%TO.C,L10*%
X102265000Y-49500000D03*
X103235000Y-49500000D03*
%TD*%
D14*
%TO.C,C17*%
X117400000Y-78920000D03*
X117400000Y-79880000D03*
%TD*%
D52*
%TO.C,U3*%
X40250000Y-112750000D03*
X41350000Y-112750000D03*
X42450000Y-112750000D03*
X43550000Y-112750000D03*
X44650000Y-112750000D03*
X45750000Y-112750000D03*
X46850000Y-112750000D03*
X49850000Y-112750000D03*
X50950000Y-112750000D03*
X52050000Y-112750000D03*
X53150000Y-112750000D03*
X54250000Y-112750000D03*
X54250000Y-100750000D03*
X53150000Y-100750000D03*
X52050000Y-100750000D03*
X50950000Y-100750000D03*
X49850000Y-100750000D03*
X46850000Y-100750000D03*
X45750000Y-100750000D03*
X44650000Y-100750000D03*
X43550000Y-100750000D03*
X42450000Y-100750000D03*
X41350000Y-100750000D03*
X40250000Y-100750000D03*
%TD*%
D32*
%TO.C,R8*%
X45750000Y-114990000D03*
X45750000Y-116010000D03*
%TD*%
D24*
%TO.C,FB4*%
X89440000Y-99285000D03*
X90410000Y-99285000D03*
%TD*%
D14*
%TO.C,C38*%
X106900000Y-78420000D03*
X106900000Y-79380000D03*
%TD*%
%TO.C,C65*%
X111685000Y-50720000D03*
X111685000Y-51680000D03*
%TD*%
D16*
%TO.C,R5*%
X57150000Y-69810000D03*
X57150000Y-68790000D03*
%TD*%
D24*
%TO.C,FB13*%
X88665000Y-53700000D03*
X89635000Y-53700000D03*
%TD*%
D12*
%TO.C,C27*%
X97445000Y-92745000D03*
X98405000Y-92745000D03*
%TD*%
D53*
%TO.C,U9*%
X123687500Y-81550000D03*
X123687500Y-79650000D03*
X121812500Y-80600000D03*
%TD*%
D54*
%TO.C,J1*%
X29415000Y-55675000D03*
X29415000Y-64325000D03*
D55*
X32795000Y-55675000D03*
X32795000Y-64325000D03*
D56*
X32425000Y-57025000D03*
X32425000Y-57875000D03*
X32425000Y-58725000D03*
X32425000Y-59575000D03*
X32425000Y-60425000D03*
X32425000Y-61275000D03*
X32425000Y-62125000D03*
X32425000Y-62975000D03*
X33775000Y-62975000D03*
X33775000Y-62125000D03*
X33775000Y-61275000D03*
X33775000Y-60425000D03*
X33775000Y-59575000D03*
X33775000Y-58725000D03*
X33775000Y-57875000D03*
X33775000Y-57025000D03*
%TD*%
D54*
%TO.C,J2*%
X29415000Y-85675000D03*
D55*
X32795000Y-94325000D03*
D54*
X29415000Y-94325000D03*
D55*
X32795000Y-85675000D03*
D56*
X32425000Y-87025000D03*
X32425000Y-87875000D03*
X32425000Y-88725000D03*
X32425000Y-89575000D03*
X32425000Y-90425000D03*
X32425000Y-91275000D03*
X32425000Y-92125000D03*
X32425000Y-92975000D03*
X33775000Y-92975000D03*
X33775000Y-92125000D03*
X33775000Y-91275000D03*
X33775000Y-90425000D03*
X33775000Y-89575000D03*
X33775000Y-88725000D03*
X33775000Y-87875000D03*
X33775000Y-87025000D03*
%TD*%
D57*
%TO.C,D5*%
X72475000Y-74712500D03*
X72475000Y-76287500D03*
%TD*%
D58*
%TO.C,U6*%
X105300000Y-74312500D03*
X106100000Y-74312500D03*
X106900000Y-74312500D03*
X107700000Y-74312500D03*
X107700000Y-76687500D03*
X106900000Y-76687500D03*
X106100000Y-76687500D03*
X105300000Y-76687500D03*
%TD*%
D14*
%TO.C,C76*%
X103450000Y-50720000D03*
X103450000Y-51680000D03*
%TD*%
D15*
%TO.C,TP5*%
X49675000Y-96700000D03*
%TD*%
D13*
%TO.C,C32*%
X39500000Y-34980000D03*
X39500000Y-34020000D03*
%TD*%
D15*
%TO.C,TP2*%
X39725000Y-115875000D03*
%TD*%
D59*
%TO.C,SW4*%
X73150000Y-38900000D03*
X78650000Y-41400000D03*
X73150000Y-43900000D03*
%TD*%
D60*
%TO.C,U12*%
X73321000Y-29750063D03*
X73321000Y-29249937D03*
D61*
X73000126Y-28499999D03*
X72500000Y-28499999D03*
X71999874Y-28499999D03*
D60*
X71679000Y-29249937D03*
X71679000Y-29750063D03*
D61*
X71999874Y-30500001D03*
X72500000Y-30500001D03*
X73000126Y-30500001D03*
%TD*%
D24*
%TO.C,L5*%
X99450000Y-95685000D03*
X100420000Y-95685000D03*
%TD*%
D17*
%TO.C,R28*%
X68760000Y-37000000D03*
X67740000Y-37000000D03*
%TD*%
D62*
%TO.C,H4*%
X123500000Y-120750000D03*
%TD*%
D11*
%TO.C,SW3*%
X63575000Y-84500000D03*
X63575000Y-89000000D03*
X61425000Y-84500000D03*
X61425000Y-89000000D03*
%TD*%
D24*
%TO.C,FB10*%
X90670000Y-90495000D03*
X91640000Y-90495000D03*
%TD*%
D15*
%TO.C,TP1*%
X36250000Y-46425000D03*
%TD*%
D24*
%TO.C,FB3*%
X89440000Y-98215000D03*
X90410000Y-98215000D03*
%TD*%
D43*
%TO.C,J5*%
X34450000Y-100920000D03*
X34450000Y-103460000D03*
D44*
X34450000Y-106000000D03*
%TD*%
D13*
%TO.C,C73*%
X109335000Y-100015000D03*
X109335000Y-99055000D03*
%TD*%
D63*
%TO.C,J3*%
X75025000Y-112125000D03*
X76125000Y-112125000D03*
X77225000Y-112125000D03*
X78325000Y-112125000D03*
X79425000Y-112125000D03*
X80525000Y-112125000D03*
X81625000Y-112125000D03*
X82725000Y-112125000D03*
D64*
X85195000Y-109925000D03*
X85195000Y-118125000D03*
X71305000Y-118125000D03*
X71305000Y-109925000D03*
%TD*%
D17*
%TO.C,R3*%
X37885000Y-62375000D03*
X36865000Y-62375000D03*
%TD*%
D16*
%TO.C,R15*%
X55925000Y-98085000D03*
X55925000Y-97065000D03*
%TD*%
D25*
%TO.C,R30*%
X53540000Y-26600000D03*
X54560000Y-26600000D03*
%TD*%
D24*
%TO.C,FB9*%
X90670000Y-89205000D03*
X91640000Y-89205000D03*
%TD*%
%TO.C,L11*%
X99350000Y-101485000D03*
X100320000Y-101485000D03*
%TD*%
%TO.C,FB6*%
X89480000Y-101485000D03*
X90450000Y-101485000D03*
%TD*%
D14*
%TO.C,C69*%
X102735000Y-98355000D03*
X102735000Y-99315000D03*
%TD*%
D12*
%TO.C,C80*%
X101655000Y-97015000D03*
X102615000Y-97015000D03*
%TD*%
D18*
%TO.C,U11*%
X96365000Y-50000000D03*
D19*
X99352500Y-48050000D03*
X99352500Y-48700000D03*
X99352500Y-49350000D03*
X99352500Y-50000000D03*
X99352500Y-50650000D03*
X99352500Y-51300000D03*
X99352500Y-51950000D03*
D20*
X98315000Y-52987500D03*
X97665000Y-52987500D03*
X97015000Y-52987500D03*
X96365000Y-52987500D03*
X95715000Y-52987500D03*
X95065000Y-52987500D03*
X94415000Y-52987500D03*
D19*
X93377500Y-51950000D03*
X93377500Y-51300000D03*
X93377500Y-50650000D03*
X93377500Y-50000000D03*
X93377500Y-49350000D03*
X93377500Y-48700000D03*
X93377500Y-48050000D03*
D20*
X94415000Y-47012500D03*
X95065000Y-47012500D03*
X95715000Y-47012500D03*
X96365000Y-47012500D03*
X97015000Y-47012500D03*
X97665000Y-47012500D03*
X98315000Y-47012500D03*
%TD*%
D34*
%TO.C,Q1*%
X59325000Y-98725000D03*
X59325000Y-98075000D03*
X59325000Y-97425000D03*
X57425000Y-97425000D03*
X57425000Y-98075000D03*
X57425000Y-98725000D03*
%TD*%
D30*
%TO.C,C52*%
X54500000Y-36175000D03*
X54500000Y-34625000D03*
%TD*%
D24*
%TO.C,L8*%
X110700000Y-49500000D03*
X111670000Y-49500000D03*
%TD*%
D33*
%TO.C,C14*%
X44730000Y-77200000D03*
X43770000Y-77200000D03*
%TD*%
D13*
%TO.C,C81*%
X101685000Y-95665000D03*
X101685000Y-94705000D03*
%TD*%
D12*
%TO.C,C16*%
X125620000Y-76100000D03*
X126580000Y-76100000D03*
%TD*%
D16*
%TO.C,R9*%
X52650000Y-69435000D03*
X52650000Y-68415000D03*
%TD*%
D32*
%TO.C,R7*%
X44550000Y-114990000D03*
X44550000Y-116010000D03*
%TD*%
D25*
%TO.C,R32*%
X68490000Y-71900000D03*
X69510000Y-71900000D03*
%TD*%
D33*
%TO.C,C8*%
X44730000Y-76125000D03*
X43770000Y-76125000D03*
%TD*%
D34*
%TO.C,U13*%
X108385000Y-96365000D03*
X108385000Y-97015000D03*
X108385000Y-97665000D03*
X110285000Y-97665000D03*
X110285000Y-97015000D03*
X110285000Y-96365000D03*
%TD*%
D65*
%TO.C,J8*%
X125400000Y-94625000D03*
X125400000Y-99425000D03*
X120600000Y-99425000D03*
X120600000Y-94625000D03*
D66*
X123000000Y-97025000D03*
%TD*%
D14*
%TO.C,C22*%
X100650000Y-52420000D03*
X100650000Y-53380000D03*
%TD*%
D17*
%TO.C,R38*%
X49020000Y-48060000D03*
X48000000Y-48060000D03*
%TD*%
D45*
%TO.C,C43*%
X55625000Y-81400000D03*
X57175000Y-81400000D03*
%TD*%
D48*
%TO.C,C50*%
X123375000Y-83300000D03*
X121825000Y-83300000D03*
%TD*%
D13*
%TO.C,C87*%
X123750000Y-72005000D03*
X123750000Y-71045000D03*
%TD*%
D66*
%TO.C,J4*%
X47250000Y-120750000D03*
D65*
X44850000Y-118350000D03*
X44850000Y-123150000D03*
X49650000Y-123150000D03*
X49650000Y-118350000D03*
%TD*%
D67*
%TO.C,C61*%
X31250000Y-40800000D03*
X31250000Y-45200000D03*
%TD*%
D16*
%TO.C,R18*%
X59225000Y-102935000D03*
X59225000Y-101915000D03*
%TD*%
D14*
%TO.C,C72*%
X109585000Y-50770000D03*
X109585000Y-51730000D03*
%TD*%
D30*
%TO.C,C47*%
X47650000Y-94775000D03*
X47650000Y-93225000D03*
%TD*%
D14*
%TO.C,C18*%
X111650000Y-78920000D03*
X111650000Y-79880000D03*
%TD*%
D12*
%TO.C,C84*%
X105855000Y-95665000D03*
X106815000Y-95665000D03*
%TD*%
D13*
%TO.C,C85*%
X94345000Y-91955000D03*
X94345000Y-90995000D03*
%TD*%
D48*
%TO.C,C42*%
X39925000Y-118000000D03*
X38375000Y-118000000D03*
%TD*%
D13*
%TO.C,C26*%
X95595000Y-91955000D03*
X95595000Y-90995000D03*
%TD*%
D65*
%TO.C,J7*%
X125400000Y-47600000D03*
X125400000Y-52400000D03*
X120600000Y-52400000D03*
X120600000Y-47600000D03*
D66*
X123000000Y-50000000D03*
%TD*%
D48*
%TO.C,C41*%
X69035000Y-116240000D03*
X67485000Y-116240000D03*
%TD*%
D24*
%TO.C,L4*%
X52165000Y-117600000D03*
X53135000Y-117600000D03*
%TD*%
D14*
%TO.C,C68*%
X104650000Y-50720000D03*
X104650000Y-51680000D03*
%TD*%
D37*
%TO.C,C55*%
X65550000Y-36550000D03*
X65550000Y-38450000D03*
%TD*%
D24*
%TO.C,FB18*%
X88680000Y-44275000D03*
X89650000Y-44275000D03*
%TD*%
D23*
%TO.C,L1*%
X51685000Y-42750000D03*
X49315000Y-42750000D03*
%TD*%
D68*
%TO.C,BT1*%
X83250000Y-29337500D03*
D69*
X78250000Y-29337500D03*
%TD*%
D14*
%TO.C,C10*%
X48880000Y-81320000D03*
X48880000Y-82280000D03*
%TD*%
D24*
%TO.C,FB2*%
X97890000Y-41300000D03*
X98860000Y-41300000D03*
%TD*%
%TO.C,FB1*%
X98780000Y-89305000D03*
X99750000Y-89305000D03*
%TD*%
D17*
%TO.C,R24*%
X78010000Y-79075000D03*
X76990000Y-79075000D03*
%TD*%
D16*
%TO.C,R6*%
X55650000Y-69810000D03*
X55650000Y-68790000D03*
%TD*%
D17*
%TO.C,R20*%
X119735000Y-113875000D03*
X118715000Y-113875000D03*
%TD*%
D70*
%TO.C,Q4*%
X67090000Y-28950000D03*
X67090000Y-29900000D03*
X67090000Y-30850000D03*
X69410000Y-30850000D03*
X69410000Y-29900000D03*
X69410000Y-28950000D03*
%TD*%
D71*
%TO.C,Y1*%
X96220000Y-88040000D03*
X94370000Y-88040000D03*
X94370000Y-89490000D03*
X96220000Y-89490000D03*
%TD*%
D14*
%TO.C,C70*%
X102250000Y-50720000D03*
X102250000Y-51680000D03*
%TD*%
D23*
%TO.C,L2*%
X44185000Y-37000000D03*
X41815000Y-37000000D03*
%TD*%
D32*
%TO.C,R22*%
X122725000Y-108665000D03*
X122725000Y-109685000D03*
%TD*%
D72*
%TO.C,J9*%
X85970000Y-40080000D03*
D73*
X85970000Y-47150000D03*
D72*
X85970000Y-54220000D03*
D74*
X88260000Y-56295000D03*
D75*
X94555000Y-56295000D03*
D76*
X100550000Y-56295000D03*
D75*
X106545000Y-56295000D03*
D74*
X112840000Y-56295000D03*
D72*
X115130000Y-54220000D03*
D73*
X115130000Y-47150000D03*
D72*
X115130000Y-40080000D03*
D74*
X112840000Y-38005000D03*
D75*
X106545000Y-38005000D03*
D76*
X100550000Y-38005000D03*
D75*
X94555000Y-38005000D03*
D74*
X88260000Y-38005000D03*
%TD*%
D16*
%TO.C,R14*%
X41850000Y-77760000D03*
X41850000Y-76740000D03*
%TD*%
D77*
%TO.C,U4*%
X43900000Y-94537500D03*
X45800000Y-94537500D03*
X44850000Y-92662500D03*
%TD*%
D37*
%TO.C,C56*%
X46500000Y-38300000D03*
X46500000Y-40200000D03*
%TD*%
D62*
%TO.C,H1*%
X32000000Y-29250000D03*
%TD*%
D14*
%TO.C,C31*%
X44250000Y-40020000D03*
X44250000Y-40980000D03*
%TD*%
D78*
%TO.C,C59*%
X30450000Y-35750000D03*
X28550000Y-35750000D03*
%TD*%
D72*
%TO.C,J10*%
X85970000Y-87080000D03*
D73*
X85970000Y-94150000D03*
D72*
X85970000Y-101220000D03*
D74*
X88260000Y-103295000D03*
D75*
X94555000Y-103295000D03*
D76*
X100550000Y-103295000D03*
D75*
X106545000Y-103295000D03*
D74*
X112840000Y-103295000D03*
D72*
X115130000Y-101220000D03*
D73*
X115130000Y-94150000D03*
D72*
X115130000Y-87080000D03*
D74*
X112840000Y-85005000D03*
D75*
X106545000Y-85005000D03*
D76*
X100550000Y-85005000D03*
D75*
X94555000Y-85005000D03*
D74*
X88260000Y-85005000D03*
%TD*%
D12*
%TO.C,C13*%
X57370000Y-75600000D03*
X58330000Y-75600000D03*
%TD*%
D48*
%TO.C,C40*%
X39525000Y-98200000D03*
X37975000Y-98200000D03*
%TD*%
D15*
%TO.C,TP11*%
X36250000Y-43775000D03*
%TD*%
D79*
%TO.C,D6*%
X123787500Y-56250000D03*
X122212500Y-56250000D03*
%TD*%
D17*
%TO.C,R19*%
X119735000Y-111875000D03*
X118715000Y-111875000D03*
%TD*%
D80*
%TO.C,U16*%
X44025000Y-26845000D03*
X44025000Y-28115000D03*
X44025000Y-29385000D03*
X44025000Y-30655000D03*
X48975000Y-30655000D03*
X48975000Y-29385000D03*
X48975000Y-28115000D03*
X48975000Y-26845000D03*
%TD*%
D14*
%TO.C,C79*%
X106835000Y-98135000D03*
X106835000Y-99095000D03*
%TD*%
D25*
%TO.C,R36*%
X67740000Y-35800000D03*
X68760000Y-35800000D03*
%TD*%
D33*
%TO.C,C1*%
X39270000Y-96810000D03*
X38310000Y-96810000D03*
%TD*%
D12*
%TO.C,C4*%
X57270000Y-79900000D03*
X58230000Y-79900000D03*
%TD*%
D13*
%TO.C,C3*%
X51650000Y-116380000D03*
X51650000Y-115420000D03*
%TD*%
D15*
%TO.C,TP8*%
X74775000Y-35375000D03*
%TD*%
D14*
%TO.C,C39*%
X51250000Y-26920000D03*
X51250000Y-27880000D03*
%TD*%
D71*
%TO.C,Y2*%
X95900000Y-39850000D03*
X94050000Y-39850000D03*
X94050000Y-41300000D03*
X95900000Y-41300000D03*
%TD*%
D45*
%TO.C,C48*%
X42825000Y-98200000D03*
X44375000Y-98200000D03*
%TD*%
D62*
%TO.C,H3*%
X32000000Y-120750000D03*
%TD*%
D33*
%TO.C,C2*%
X68780000Y-114700000D03*
X67820000Y-114700000D03*
%TD*%
D30*
%TO.C,C46*%
X42050000Y-94875000D03*
X42050000Y-93325000D03*
%TD*%
D81*
%TO.C,U2*%
X66955000Y-71900000D03*
X65685000Y-71900000D03*
X64415000Y-71900000D03*
X63145000Y-71900000D03*
X63145000Y-79100000D03*
X64415000Y-79100000D03*
X65685000Y-79100000D03*
X66955000Y-79100000D03*
%TD*%
D24*
%TO.C,L12*%
X103750000Y-97015000D03*
X104720000Y-97015000D03*
%TD*%
D67*
%TO.C,C60*%
X57750000Y-40800000D03*
X57750000Y-45200000D03*
%TD*%
D16*
%TO.C,R21*%
X121450000Y-109660000D03*
X121450000Y-108640000D03*
%TD*%
D62*
%TO.C,H2*%
X123500000Y-29250000D03*
%TD*%
D15*
%TO.C,TP9*%
X40550000Y-31000000D03*
%TD*%
D32*
%TO.C,R17*%
X57775000Y-101930000D03*
X57775000Y-102950000D03*
%TD*%
D25*
%TO.C,R2*%
X36865000Y-87275000D03*
X37885000Y-87275000D03*
%TD*%
D24*
%TO.C,L6*%
X106450000Y-50850000D03*
X107420000Y-50850000D03*
%TD*%
D13*
%TO.C,C86*%
X94050000Y-45505000D03*
X94050000Y-44545000D03*
%TD*%
%TO.C,C66*%
X70875000Y-26980000D03*
X70875000Y-26020000D03*
%TD*%
D45*
%TO.C,C49*%
X57575000Y-78400000D03*
X59125000Y-78400000D03*
%TD*%
D12*
%TO.C,C20*%
X99355000Y-100335000D03*
X100315000Y-100335000D03*
%TD*%
D13*
%TO.C,C35*%
X97635000Y-89345000D03*
X97635000Y-88385000D03*
%TD*%
D15*
%TO.C,TP3*%
X37350000Y-112800000D03*
%TD*%
D21*
%TO.C,D2*%
X38900000Y-89000000D03*
D22*
X37200000Y-89000000D03*
X37200000Y-91000000D03*
X39100000Y-91000000D03*
%TD*%
D25*
%TO.C,R12*%
X116940000Y-70750000D03*
X117960000Y-70750000D03*
%TD*%
M02*
