M48
; DRILL file {KiCad (6.0.7-1)-1} date Wednesday, March 01, 2023 at 08:59:34 PM
; FORMAT={-:-/ absolute / metric / decimal}
; #@! TF.CreationDate,2023-03-01T20:59:34-05:00
; #@! TF.GenerationSoftware,Kicad,Pcbnew,(6.0.7-1)-1
; #@! TF.FileFunction,Plated,1,4,PTH
FMAT,2
METRIC
; #@! TA.AperFunction,Plated,PTH,ViaDrill
T1C0.200
; #@! TA.AperFunction,Plated,PTH,ComponentDrill
T2C0.200
; #@! TA.AperFunction,Plated,PTH,ViaDrill
T3C0.400
; #@! TA.AperFunction,Plated,PTH,ComponentDrill
T4C0.400
; #@! TA.AperFunction,Plated,PTH,ComponentDrill
T5C0.600
; #@! TA.AperFunction,Plated,PTH,ComponentDrill
T6C1.000
; #@! TA.AperFunction,Plated,PTH,ComponentDrill
T7C1.280
; #@! TA.AperFunction,Plated,PTH,ComponentDrill
T8C1.300
; #@! TA.AperFunction,Plated,PTH,ComponentDrill
T9C3.200
%
G90
G05
T1
X35.55Y-87.325
X35.85Y-62.375
X36.0Y-92.6
X36.075Y-57.575
X36.75Y-121.7
X41.55Y-115.513
X42.45Y-116.0
X43.2Y-72.975
X43.725Y-73.525
X45.325Y-87.95
X45.75Y-98.6
X45.837Y-75.825
X45.85Y-88.775
X46.0Y-72.775
X46.375Y-89.325
X46.525Y-69.4
X46.525Y-72.025
X46.67Y-83.45
X46.67Y-86.58
X46.725Y-79.025
X46.85Y-98.6
X47.1Y-71.575
X47.325Y-87.55
X47.35Y-70.775
X47.55Y-98.113
X47.812Y-79.09
X47.812Y-81.75
X47.99Y-48.91
X48.0Y-58.96
X48.03Y-61.16
X48.031Y-91.991
X48.19Y-87.8
X48.2Y-70.2
X48.627Y-77.53
X48.75Y-120.1
X48.75Y-121.4
X49.25Y-120.1
X49.25Y-121.4
X49.33Y-77.987
X49.412Y-72.93
X49.45Y-67.39
X49.5Y-87.33
X49.683Y-70.58
X49.75Y-120.1
X49.75Y-121.4
X49.78Y-48.06
X50.02Y-33.91
X50.09Y-82.37
X50.25Y-120.1
X50.25Y-121.4
X50.38Y-72.94
X50.75Y-120.1
X50.75Y-121.4
X50.975Y-70.175
X51.25Y-66.8
X51.25Y-120.1
X51.25Y-121.4
X51.32Y-93.97
X51.68Y-70.17
X51.692Y-81.2
X51.75Y-120.1
X51.75Y-121.4
X52.15Y-119.8
X52.163Y-81.95
X52.2Y-63.563
X52.25Y-121.4
X52.45Y-114.2
X52.45Y-114.7
X52.45Y-115.2
X52.45Y-115.7
X52.45Y-116.2
X52.45Y-116.7
X52.45Y-118.4
X52.45Y-118.9
X52.45Y-119.4
X52.54Y-72.99
X52.75Y-121.2
X53.15Y-76.9
X53.15Y-120.8
X53.197Y-78.03
X53.32Y-73.01
X53.35Y-76.0
X53.425Y-85.35
X53.444Y-84.556
X53.45Y-120.4
X53.75Y-70.09
X53.75Y-120.0
X53.76Y-70.86
X53.79Y-69.06
X53.85Y-114.2
X53.85Y-114.7
X53.85Y-115.2
X53.85Y-115.7
X53.85Y-116.2
X53.85Y-116.7
X53.85Y-117.2
X53.85Y-117.8
X53.85Y-118.4
X53.85Y-118.9
X53.85Y-119.4
X53.95Y-83.9
X54.35Y-72.0
X54.375Y-85.925
X54.875Y-64.05
X54.875Y-64.925
X54.875Y-65.9
X55.08Y-67.35
X55.65Y-68.0
X55.65Y-70.9
X55.65Y-75.6
X55.825Y-31.225
X55.85Y-30.375
X55.925Y-96.175
X56.2Y-76.35
X56.375Y-77.3
X56.4Y-82.75
X57.15Y-68.0
X57.15Y-70.9
X57.62Y-67.16
X58.08Y-71.84
X58.42Y-68.53
X58.93Y-69.06
X59.54Y-69.547
X60.26Y-70.034
X60.8Y-96.2
X61.075Y-82.25
X62.7Y-83.062
X64.53Y-76.02
X64.53Y-76.81
X65.35Y-67.4
X66.33Y-76.81
X66.35Y-76.02
X69.37Y-86.59
X70.425Y-71.9
X70.9Y-88.87
X71.05Y-86.7
X71.97Y-84.33
X72.67Y-84.32
X78.05Y-51.4
X78.537Y-52.55
X79.024Y-53.68
X82.25Y-84.3
X83.0Y-84.28
X83.45Y-51.4
X83.46Y-52.57
X83.475Y-42.325
X83.475Y-43.2
X83.475Y-45.0
X83.5Y-44.15
X83.5Y-53.7
X83.54Y-54.84
X83.82Y-84.31
X83.84Y-98.239
X84.3Y-99.29
X85.05Y-100.4
X87.55Y-40.825
X87.55Y-41.975
X87.575Y-43.125
X87.6Y-44.275
X87.6Y-51.4
X87.6Y-52.575
X87.6Y-54.85
X87.625Y-53.7
X87.85Y-98.225
X87.85Y-99.285
X87.85Y-100.385
X87.85Y-101.485
X87.95Y-86.7
X87.95Y-87.95
X87.95Y-89.2
X87.95Y-90.495
X92.05Y-99.7
X92.2Y-94.2
X92.3Y-100.2
X92.3Y-100.8
X92.776Y-79.876
X92.85Y-100.8
X92.95Y-47.35
X93.1Y-52.7
X93.1Y-53.25
X93.6Y-53.25
X93.65Y-52.7
X93.7Y-80.8
X97.15Y-102.0
X97.65Y-102.0
X98.15Y-102.0
X98.65Y-102.0
X100.25Y-47.6
X100.75Y-47.9
X101.15Y-100.15
X101.15Y-100.8
X101.25Y-47.9
X101.75Y-47.9
X102.25Y-47.9
X102.45Y-94.65
X102.45Y-95.15
X102.45Y-95.65
X102.45Y-96.15
X102.75Y-47.9
X102.75Y-100.1
X102.75Y-100.85
X102.75Y-102.0
X102.95Y-96.15
X103.25Y-47.9
X103.25Y-100.85
X103.25Y-102.0
X103.45Y-96.15
X103.75Y-47.6
X103.75Y-100.85
X103.75Y-102.0
X103.95Y-96.15
X104.25Y-47.6
X104.25Y-100.85
X104.25Y-102.0
X104.45Y-96.15
X104.75Y-47.6
X104.75Y-100.05
X104.75Y-100.85
X104.75Y-102.0
X104.95Y-94.65
X104.95Y-95.15
X104.95Y-95.65
X104.95Y-96.15
X105.25Y-47.6
X105.25Y-100.85
X105.25Y-102.0
X105.55Y-50.4
X105.55Y-51.1
X105.55Y-51.9
X105.55Y-94.65
X105.75Y-47.6
X105.75Y-100.85
X105.75Y-102.0
X106.1Y-94.65
X106.25Y-47.15
X106.25Y-51.9
X106.25Y-100.85
X106.25Y-102.0
X106.7Y-94.65
X106.75Y-47.15
X106.75Y-100.85
X106.75Y-102.0
X106.85Y-100.0
X106.9Y-73.5
X107.05Y-51.9
X107.25Y-47.15
X107.25Y-100.85
X107.25Y-102.0
X107.7Y-73.5
X107.75Y-47.15
X107.75Y-51.9
X107.75Y-98.55
X107.75Y-99.1
X107.75Y-99.65
X107.75Y-100.2
X107.75Y-100.85
X107.75Y-102.0
X108.25Y-47.5
X108.25Y-100.85
X108.25Y-102.0
X108.5Y-98.55
X108.5Y-99.1
X108.5Y-99.65
X108.5Y-100.2
X108.75Y-47.5
X109.25Y-47.5
X109.75Y-47.7
X110.15Y-74.85
X110.25Y-47.7
X110.57Y-48.5
X110.67Y-50.7
X110.67Y-51.2
X110.67Y-51.75
X111.07Y-48.5
X111.25Y-97.7
X111.62Y-48.5
X111.75Y-97.7
X112.2Y-96.3
X112.25Y-48.5
X112.25Y-97.7
X112.7Y-96.3
X112.75Y-48.5
X112.75Y-50.2
X112.75Y-97.7
X113.2Y-96.3
X113.25Y-48.5
X113.25Y-97.7
X113.3Y-50.2
X113.7Y-96.3
X113.75Y-48.5
X113.75Y-97.7
X113.8Y-50.2
X114.2Y-96.3
X114.25Y-48.5
X114.25Y-97.7
X114.35Y-50.2
X114.7Y-96.3
X114.75Y-97.7
X114.9Y-50.2
X115.2Y-96.3
X115.25Y-97.7
X115.5Y-50.2
X115.7Y-96.3
X115.75Y-97.7
X116.05Y-48.8
X116.05Y-50.2
X116.2Y-96.3
X116.25Y-97.7
X116.55Y-48.8
X116.55Y-50.2
X116.8Y-72.75
X117.1Y-50.2
X117.15Y-48.8
X117.35Y-72.75
X117.65Y-50.2
X117.75Y-48.8
X117.9Y-72.75
X118.15Y-50.5
X118.25Y-96.35
X118.25Y-97.7
X118.35Y-48.9
X118.45Y-72.75
X118.75Y-50.7
X118.75Y-96.35
X118.75Y-97.7
X118.85Y-49.3
X118.9Y-71.9
X119.25Y-96.35
X119.25Y-97.7
X119.35Y-49.3
X119.35Y-50.7
X119.55Y-75.45
X119.55Y-77.45
X119.75Y-96.35
X119.75Y-97.7
X119.9Y-49.3
X119.9Y-50.7
X120.1Y-72.125
X120.25Y-73.8
X120.25Y-74.3
X120.25Y-74.8
X120.25Y-96.35
X120.25Y-97.7
X120.45Y-49.3
X120.45Y-50.7
X120.75Y-97.7
X120.8Y-96.35
X120.95Y-49.3
X120.95Y-50.7
X121.25Y-97.7
X121.3Y-96.35
X123.75Y-73.087
X124.975Y-72.125
T2
X49.475Y-35.9
X49.475Y-38.1
X51.675Y-35.9
X51.675Y-38.1
T3
X28.85Y-49.35
X28.9Y-47.25
X30.15Y-48.9
X30.25Y-47.75
X30.85Y-50.6
X31.45Y-47.85
X31.75Y-35.0
X31.75Y-36.0
X31.75Y-37.0
X31.75Y-38.0
X31.95Y-49.0
X32.75Y-35.0
X32.75Y-36.0
X32.75Y-37.0
X32.75Y-38.0
X32.95Y-50.05
X33.0Y-47.4
X33.45Y-48.25
X33.75Y-35.0
X33.75Y-36.0
X33.75Y-37.0
X33.75Y-38.0
X33.85Y-49.2
X34.2Y-39.85
X35.275Y-57.875
X35.65Y-124.3
X35.75Y-121.9
X36.1Y-123.3
X36.2Y-119.5
X36.6Y-120.65
X36.75Y-101.5
X36.8Y-99.85
X37.1Y-123.5
X37.6Y-102.75
X37.65Y-41.75
X37.75Y-101.4
X37.9Y-43.0
X38.45Y-44.5
X38.55Y-100.05
X39.05Y-43.1
X39.1Y-101.95
X40.0Y-44.25
X40.2Y-102.3
X40.4Y-43.0
X40.55Y-33.1
X40.6Y-28.45
X40.85Y-43.9
X40.9Y-27.2
X41.05Y-117.85
X41.05Y-118.7
X41.35Y-98.6
X41.55Y-102.55
X41.6Y-41.3
X41.75Y-43.0
X41.8Y-29.35
X42.05Y-26.7
X42.05Y-28.1
X42.05Y-92.05
X42.2Y-45.3
X42.4Y-44.05
X42.425Y-62.05
X42.75Y-32.05
X43.0Y-41.95
X43.05Y-117.8
X43.35Y-34.05
X43.55Y-43.5
X43.8Y-44.8
X44.0Y-25.6
X44.0Y-32.1
X44.55Y-34.1
X44.85Y-42.5
X44.85Y-44.4
X45.45Y-32.1
X45.55Y-43.55
X46.15Y-41.75
X46.35Y-26.9
X46.4Y-28.0
X46.85Y-111.1
X47.05Y-32.05
X47.05Y-43.05
X50.0Y-102.35
X50.17Y-80.67
X50.25Y-104.8
X50.6Y-109.6
X50.65Y-110.75
X50.705Y-30.655
X50.75Y-103.3
X51.15Y-32.05
X51.45Y-104.95
X51.55Y-33.95
X51.75Y-114.5
X51.8Y-109.2
X51.85Y-31.15
X52.05Y-110.45
X52.15Y-103.45
X52.6Y-31.95
X52.75Y-105.05
X52.76Y-66.62
X53.05Y-102.55
X53.05Y-110.7
X53.1Y-97.16
X53.3Y-30.8
X53.35Y-109.0
X53.8Y-31.95
X53.9Y-104.25
X53.95Y-79.9
X54.15Y-110.65
X54.25Y-102.75
X54.35Y-105.25
X54.55Y-109.65
X54.6Y-97.16
X54.85Y-79.0
X55.45Y-111.15
X55.55Y-99.9
X55.55Y-104.3
X55.65Y-78.1
X55.65Y-79.9
X56.0Y-103.0
X58.25Y-81.0
X58.25Y-82.0
X59.25Y-79.9
X59.25Y-81.0
X59.25Y-82.0
X59.25Y-109.9
X59.35Y-75.6
X59.35Y-76.9
X60.45Y-75.6
X60.45Y-76.8
X60.45Y-77.8
X60.45Y-78.8
X60.45Y-79.9
X60.45Y-81.0
X62.15Y-71.5
X62.15Y-72.5
X63.95Y-29.0
X64.15Y-26.45
X64.75Y-27.65
X65.2Y-29.05
X65.35Y-26.05
X65.55Y-34.8
X65.65Y-30.9
X66.4Y-27.3
X66.92Y-80.7
X67.45Y-26.55
X67.65Y-119.6
X67.8Y-117.9
X68.1Y-27.45
X68.1Y-110.25
X68.5Y-107.35
X68.5Y-120.7
X68.65Y-112.45
X68.7Y-109.1
X68.8Y-119.35
X69.15Y-27.05
X69.15Y-111.4
X69.15Y-118.3
X69.6Y-107.75
X69.6Y-109.95
X69.8Y-120.2
X70.15Y-114.7
X70.25Y-121.4
X70.3Y-112.35
X70.35Y-106.6
X70.85Y-30.6
X72.475Y-73.425
X78.65Y-40.05
X84.6Y-59.4
X84.6Y-61.94
X84.6Y-64.48
X84.6Y-67.02
X84.6Y-69.56
X84.6Y-77.18
X84.6Y-79.72
X84.6Y-82.26
X85.75Y-120.1
X86.1Y-107.9
X86.1Y-115.85
X86.45Y-91.2
X86.65Y-25.85
X86.65Y-28.39
X86.65Y-30.93
X86.65Y-33.47
X86.75Y-112.25
X86.8Y-120.45
X86.9Y-92.2
X86.9Y-108.9
X86.95Y-35.45
X87.0Y-118.65
X87.05Y-50.0
X87.14Y-59.4
X87.14Y-61.94
X87.14Y-64.48
X87.14Y-67.02
X87.14Y-69.56
X87.14Y-72.1
X87.14Y-77.18
X87.14Y-79.72
X87.14Y-82.26
X87.15Y-39.0
X87.2Y-96.95
X87.2Y-117.2
X87.25Y-115.95
X87.35Y-95.95
X87.4Y-110.05
X87.45Y-39.8
X87.5Y-91.4
X87.5Y-111.3
X87.5Y-119.7
X87.55Y-45.7
X87.55Y-46.9
X87.55Y-95.05
X87.75Y-48.1
X87.85Y-49.1
X88.1Y-96.6
X88.35Y-50.3
X88.35Y-94.4
X88.4Y-95.45
X88.45Y-39.5
X88.5Y-97.45
X88.85Y-46.2
X88.85Y-47.5
X88.85Y-106.55
X88.85Y-111.63
X88.85Y-114.17
X88.85Y-116.71
X88.85Y-119.3
X88.85Y-121.84
X88.85Y-124.38
X88.95Y-48.6
X89.0Y-93.75
X89.15Y-45.2
X89.19Y-25.85
X89.19Y-28.39
X89.19Y-30.93
X89.19Y-33.47
X89.2Y-35.65
X89.2Y-92.8
X89.25Y-49.5
X89.25Y-94.7
X89.45Y-39.5
X89.68Y-59.4
X89.68Y-61.94
X89.68Y-64.48
X89.68Y-67.02
X89.68Y-69.56
X89.68Y-72.1
X89.68Y-74.64
X89.68Y-79.72
X89.68Y-82.26
X89.85Y-46.6
X89.95Y-48.1
X89.95Y-50.1
X90.0Y-93.1
X90.0Y-94.1
X90.15Y-95.1
X90.25Y-45.3
X90.45Y-47.3
X90.5Y-91.9
X90.55Y-49.1
X90.65Y-35.45
X90.755Y-96.895
X90.85Y-39.2
X91.35Y-49.7
X91.39Y-106.55
X91.39Y-109.09
X91.39Y-114.17
X91.39Y-116.71
X91.39Y-119.3
X91.39Y-121.84
X91.39Y-124.38
X91.45Y-40.1
X91.73Y-25.85
X91.73Y-28.39
X91.73Y-30.93
X91.73Y-33.47
X92.05Y-35.6
X92.175Y-51.95
X92.22Y-59.4
X92.22Y-61.94
X92.22Y-64.48
X92.22Y-67.02
X92.22Y-69.56
X92.22Y-72.1
X92.22Y-74.64
X92.22Y-77.18
X92.45Y-39.8
X93.93Y-106.55
X93.93Y-109.09
X93.93Y-111.63
X93.93Y-114.17
X93.93Y-116.71
X93.93Y-119.3
X93.93Y-121.84
X93.93Y-124.38
X94.15Y-86.45
X94.27Y-25.85
X94.27Y-28.39
X94.27Y-30.93
X94.27Y-33.47
X94.76Y-59.4
X94.76Y-61.94
X94.76Y-64.48
X94.76Y-67.02
X94.76Y-69.56
X94.76Y-72.1
X94.76Y-74.64
X94.76Y-77.18
X94.76Y-82.26
X94.85Y-42.6
X95.15Y-35.65
X95.15Y-43.9
X95.15Y-44.9
X95.7Y-86.4
X95.85Y-42.6
X96.05Y-43.6
X96.47Y-106.55
X96.47Y-109.09
X96.47Y-111.63
X96.47Y-114.17
X96.47Y-116.71
X96.47Y-119.3
X96.47Y-121.84
X96.47Y-124.38
X96.6Y-34.75
X96.81Y-25.85
X96.81Y-28.39
X96.81Y-30.93
X96.81Y-33.47
X97.025Y-42.925
X97.165Y-90.445
X97.3Y-59.4
X97.3Y-61.94
X97.3Y-64.48
X97.3Y-67.02
X97.3Y-69.56
X97.3Y-72.1
X97.3Y-74.64
X97.3Y-79.72
X97.3Y-82.26
X97.45Y-86.5
X97.8Y-99.85
X97.95Y-93.85
X98.05Y-54.5
X98.3Y-35.5
X98.3Y-90.3
X98.3Y-100.6
X98.5Y-60.4
X98.55Y-58.15
X98.75Y-87.05
X98.8Y-94.2
X98.9Y-46.15
X98.907Y-99.065
X98.95Y-55.1
X99.01Y-106.55
X99.01Y-109.09
X99.01Y-109.09
X99.01Y-111.63
X99.01Y-111.63
X99.01Y-114.17
X99.01Y-114.17
X99.01Y-116.71
X99.01Y-116.71
X99.01Y-119.3
X99.01Y-121.84
X99.01Y-124.38
X99.15Y-47.05
X99.15Y-91.05
X99.25Y-44.4
X99.25Y-53.5
X99.35Y-25.85
X99.35Y-28.39
X99.35Y-30.93
X99.35Y-33.47
X99.4Y-88.05
X99.45Y-93.2
X99.75Y-54.5
X99.84Y-59.4
X99.84Y-64.48
X99.84Y-67.02
X99.84Y-69.56
X99.84Y-72.1
X99.84Y-77.18
X99.84Y-79.72
X99.95Y-35.3
X99.95Y-45.4
X99.95Y-46.5
X99.95Y-92.1
X100.0Y-94.6
X100.025Y-41.325
X100.05Y-60.8
X100.2Y-86.3
X100.25Y-43.5
X100.25Y-91.05
X100.5Y-81.8
X100.609Y-51.05
X100.7Y-87.6
X100.7Y-93.2
X100.765Y-89.305
X100.85Y-55.4
X100.95Y-41.9
X100.95Y-44.4
X100.95Y-46.6
X101.1Y-58.45
X101.1Y-60.15
X101.15Y-39.3
X101.15Y-40.5
X101.15Y-45.4
X101.25Y-50.2
X101.25Y-86.4
X101.25Y-90.25
X101.25Y-91.9
X101.35Y-54.2
X101.45Y-43.1
X101.55Y-106.55
X101.55Y-109.09
X101.55Y-111.63
X101.55Y-114.17
X101.55Y-116.71
X101.55Y-119.3
X101.55Y-121.84
X101.55Y-124.38
X101.65Y-35.25
X101.75Y-93.65
X101.89Y-25.85
X101.89Y-28.39
X101.89Y-30.93
X101.89Y-33.47
X101.95Y-88.9
X102.0Y-87.6
X102.05Y-41.4
X102.05Y-44.4
X102.05Y-46.1
X102.25Y-52.8
X102.35Y-91.9
X102.38Y-59.4
X102.38Y-64.48
X102.38Y-67.02
X102.38Y-69.56
X102.38Y-72.1
X102.38Y-74.64
X102.38Y-77.18
X102.38Y-79.72
X102.45Y-90.8
X102.55Y-40.3
X102.55Y-46.9
X102.6Y-60.75
X102.75Y-39.2
X102.75Y-55.2
X102.75Y-81.85
X102.75Y-85.9
X102.85Y-89.8
X102.95Y-43.7
X103.15Y-88.4
X103.3Y-94.2
X103.35Y-46.1
X103.4Y-86.95
X103.4Y-95.2
X103.45Y-52.8
X103.55Y-42.6
X103.55Y-58.5
X103.55Y-91.5
X103.55Y-93.1
X103.65Y-44.7
X103.65Y-54.4
X103.75Y-98.15
X103.75Y-99.2
X103.8Y-60.1
X103.85Y-34.95
X103.85Y-39.4
X104.05Y-88.8
X104.09Y-106.55
X104.09Y-109.09
X104.09Y-111.63
X104.09Y-114.17
X104.09Y-116.71
X104.09Y-119.3
X104.09Y-121.84
X104.09Y-124.38
X104.15Y-35.9
X104.15Y-40.6
X104.2Y-85.75
X104.2Y-94.85
X104.25Y-89.8
X104.35Y-41.8
X104.35Y-80.85
X104.43Y-25.85
X104.43Y-28.39
X104.43Y-30.93
X104.43Y-33.47
X104.45Y-93.5
X104.5Y-90.8
X104.55Y-45.5
X104.65Y-52.8
X104.65Y-60.9
X104.65Y-86.8
X104.65Y-92.0
X104.85Y-88.2
X104.92Y-59.4
X104.92Y-64.48
X104.92Y-67.02
X104.92Y-69.56
X104.92Y-72.1
X104.95Y-43.9
X105.05Y-39.7
X105.05Y-42.8
X105.05Y-54.8
X105.15Y-46.4
X105.15Y-53.8
X105.3Y-77.6
X105.35Y-92.5
X105.45Y-41.8
X105.45Y-89.2
X105.6Y-35.7
X105.75Y-40.4
X105.75Y-90.8
X105.8Y-98.15
X105.8Y-99.15
X105.85Y-60.55
X105.85Y-87.6
X106.1Y-86.45
X106.15Y-43.5
X106.15Y-45.1
X106.15Y-93.1
X106.25Y-53.2
X106.55Y-39.4
X106.55Y-58.35
X106.6Y-91.05
X106.63Y-106.55
X106.63Y-109.09
X106.63Y-111.63
X106.63Y-114.17
X106.63Y-116.71
X106.63Y-119.3
X106.63Y-121.84
X106.63Y-124.38
X106.65Y-40.8
X106.65Y-46.0
X106.7Y-35.25
X106.75Y-54.9
X106.75Y-88.7
X106.75Y-89.9
X106.85Y-41.8
X106.9Y-77.6
X106.97Y-25.85
X106.97Y-28.39
X106.97Y-30.93
X106.97Y-33.47
X107.05Y-87.45
X107.25Y-44.0
X107.25Y-91.9
X107.35Y-52.8
X107.4Y-86.2
X107.45Y-40.2
X107.45Y-94.6
X107.46Y-59.4
X107.46Y-64.48
X107.46Y-67.02
X107.46Y-69.56
X107.46Y-72.1
X107.55Y-36.1
X107.65Y-60.95
X107.65Y-93.4
X107.75Y-46.0
X107.75Y-90.4
X107.85Y-53.9
X107.85Y-88.35
X107.95Y-44.5
X108.05Y-41.2
X108.05Y-82.65
X108.25Y-34.95
X108.3Y-95.05
X108.35Y-42.8
X108.45Y-39.8
X108.45Y-50.5
X108.45Y-51.5
X108.45Y-52.5
X108.45Y-86.85
X108.55Y-92.6
X108.7Y-94.15
X108.75Y-45.1
X108.75Y-88.9
X108.75Y-91.2
X108.8Y-90.05
X108.85Y-55.0
X108.9Y-59.85
X108.95Y-53.9
X109.0Y-81.55
X109.1Y-58.65
X109.17Y-106.55
X109.17Y-109.09
X109.17Y-109.09
X109.17Y-111.63
X109.17Y-111.63
X109.17Y-114.17
X109.17Y-114.17
X109.17Y-116.71
X109.17Y-116.71
X109.17Y-119.3
X109.17Y-121.84
X109.17Y-124.38
X109.25Y-46.5
X109.25Y-95.0
X109.35Y-35.7
X109.35Y-40.7
X109.35Y-41.9
X109.35Y-88.15
X109.5Y-60.9
X109.5Y-92.95
X109.51Y-25.85
X109.51Y-28.39
X109.51Y-30.93
X109.51Y-33.47
X109.55Y-52.7
X109.55Y-86.15
X109.75Y-82.8
X109.85Y-43.9
X109.85Y-78.75
X109.85Y-89.45
X109.9Y-87.2
X110.0Y-79.75
X110.05Y-39.3
X110.05Y-55.3
X110.05Y-77.45
X110.05Y-81.65
X110.18Y-64.47
X110.18Y-67.01
X110.18Y-69.55
X110.2Y-93.95
X110.25Y-45.4
X110.285Y-95.085
X110.3Y-35.15
X110.35Y-42.4
X110.35Y-53.8
X110.45Y-90.65
X110.45Y-92.05
X110.55Y-88.15
X110.65Y-52.7
X110.65Y-59.55
X110.65Y-60.55
X110.75Y-46.3
X110.85Y-102.15
X111.05Y-87.15
X111.05Y-100.3
X111.15Y-44.6
X111.15Y-98.95
X111.25Y-47.4
X111.3Y-93.45
X111.35Y-40.9
X111.35Y-43.2
X111.45Y-54.6
X111.45Y-89.15
X111.45Y-92.45
X111.5Y-90.5
X111.5Y-101.2
X111.55Y-39.3
X111.65Y-81.15
X111.65Y-82.8
X111.71Y-106.55
X111.71Y-109.09
X111.71Y-111.63
X111.71Y-114.17
X111.71Y-116.71
X111.71Y-119.3
X111.71Y-121.84
X111.71Y-124.38
X111.75Y-52.7
X111.8Y-59.0
X111.85Y-86.15
X112.0Y-99.95
X112.05Y-25.85
X112.05Y-28.39
X112.05Y-30.93
X112.05Y-33.47
X112.05Y-35.5
X112.15Y-53.7
X112.15Y-91.35
X112.2Y-61.05
X112.2Y-102.25
X112.25Y-46.6
X112.25Y-98.95
X112.35Y-43.8
X112.5Y-93.55
X112.55Y-41.8
X112.55Y-87.65
X112.55Y-92.55
X112.55Y-101.25
X112.7Y-95.35
X112.72Y-64.47
X112.72Y-67.01
X112.72Y-69.55
X112.75Y-51.5
X112.75Y-52.5
X113.05Y-81.85
X113.1Y-80.4
X113.15Y-89.55
X113.2Y-100.25
X113.25Y-54.2
X113.25Y-86.35
X113.25Y-94.35
X113.25Y-102.15
X113.3Y-60.6
X113.35Y-35.6
X113.35Y-40.2
X113.35Y-46.8
X113.45Y-45.6
X113.5Y-31.55
X113.5Y-98.95
X113.6Y-28.85
X113.6Y-33.95
X113.65Y-41.6
X113.65Y-43.7
X113.65Y-54.9
X113.7Y-58.6
X113.7Y-92.3
X113.75Y-88.75
X113.75Y-91.35
X113.8Y-79.25
X113.85Y-52.4
X113.85Y-53.5
X113.95Y-95.35
X114.0Y-93.5
X114.0Y-101.3
X114.05Y-51.1
X114.05Y-87.25
X114.1Y-59.75
X114.1Y-90.05
X114.1Y-99.9
X114.25Y-26.75
X114.25Y-106.55
X114.25Y-109.09
X114.25Y-111.63
X114.25Y-114.17
X114.25Y-116.71
X114.25Y-119.3
X114.25Y-121.84
X114.25Y-124.38
X114.56Y-81.2
X114.8Y-28.05
X114.8Y-63.15
X115.1Y-32.95
X115.15Y-51.1
X115.15Y-117.85
X115.2Y-30.35
X115.26Y-64.47
X115.26Y-67.01
X115.26Y-69.55
X115.4Y-82.7
X115.5Y-79.5
X115.55Y-58.3
X115.55Y-110.15
X115.65Y-119.4
X115.8Y-35.8
X115.85Y-80.8
X115.85Y-106.75
X115.85Y-115.8
X115.85Y-121.1
X115.9Y-31.7
X116.0Y-34.3
X116.0Y-61.6
X116.0Y-122.8
X116.05Y-111.6
X116.1Y-28.85
X116.15Y-124.2
X116.25Y-117.8
X116.45Y-114.2
X116.5Y-108.9
X116.75Y-119.15
X116.8Y-105.8
X116.8Y-121.9
X116.9Y-82.6
X117.0Y-30.3
X117.05Y-47.6
X117.1Y-45.8
X117.2Y-44.35
X117.2Y-57.15
X117.2Y-90.5
X117.2Y-94.45
X117.2Y-98.65
X117.2Y-107.7
X117.25Y-32.85
X117.25Y-91.9
X117.25Y-101.35
X117.25Y-102.75
X117.3Y-53.3
X117.3Y-116.6
X117.35Y-100.1
X117.35Y-110.4
X117.35Y-111.65
X117.4Y-51.9
X117.4Y-81.2
X117.4Y-120.8
X117.45Y-39.3
X117.45Y-89.0
X117.5Y-115.2
X117.55Y-35.1
X117.55Y-40.55
X117.6Y-42.75
X117.6Y-56.0
X117.6Y-87.9
X117.65Y-27.4
X117.65Y-62.55
X117.65Y-123.95
X117.7Y-84.75
X117.75Y-93.2
X117.75Y-117.9
X117.8Y-64.47
X117.8Y-67.01
X117.8Y-69.55
X117.85Y-86.1
X117.9Y-43.7
X117.9Y-46.75
X117.9Y-104.55
X117.9Y-119.1
X117.95Y-54.5
X117.95Y-95.4
X118.0Y-122.4
X118.05Y-37.8
X118.15Y-102.05
X118.25Y-41.55
X118.3Y-100.55
X118.4Y-59.95
X118.45Y-36.45
X118.5Y-30.45
X118.5Y-99.0
X118.55Y-52.75
X118.55Y-106.1
X118.55Y-109.25
X118.6Y-91.4
X118.6Y-94.35
X118.65Y-25.95
X118.65Y-89.7
X118.7Y-107.85
X118.75Y-45.4
X118.75Y-55.45
X118.75Y-80.8
X118.75Y-102.85
X118.75Y-116.8
X118.8Y-40.4
X118.8Y-47.35
X118.8Y-82.65
X118.85Y-119.95
X119.05Y-34.05
X119.05Y-43.95
X119.05Y-54.1
X119.05Y-121.6
X119.1Y-92.55
X119.15Y-79.5
X119.15Y-87.4
X119.15Y-101.4
X119.2Y-32.25
X119.2Y-41.8
X119.2Y-42.8
X119.2Y-104.4
X119.2Y-123.65
X119.25Y-39.05
X119.35Y-84.2
X119.4Y-115.4
X119.4Y-122.6
X119.5Y-28.3
X119.5Y-110.45
X119.5Y-118.95
X119.6Y-105.75
X119.65Y-112.8
X119.7Y-37.55
X119.7Y-70.8
X119.7Y-85.85
X119.75Y-117.75
X119.85Y-102.35
X119.85Y-109.25
X119.9Y-82.55
X119.9Y-107.5
X120.05Y-35.8
X120.05Y-90.3
X120.1Y-44.4
X120.15Y-92.05
X120.2Y-57.95
X120.25Y-80.6
X120.35Y-54.75
X120.35Y-88.7
X120.5Y-40.1
X120.5Y-124.0
X120.6Y-59.3
X120.6Y-101.45
X120.7Y-42.1
X120.7Y-84.85
X120.7Y-86.9
X120.8Y-117.35
X120.92Y-61.85
X120.92Y-64.39
X120.92Y-66.93
X120.92Y-69.47
X121.0Y-43.2
X121.0Y-45.65
X121.0Y-116.1
X121.15Y-41.05
X121.25Y-36.9
X121.25Y-115.1
X121.4Y-33.65
X121.4Y-38.75
X121.4Y-102.45
X121.45Y-90.9
X121.5Y-85.45
X121.7Y-78.25
X121.7Y-89.15
X121.8Y-44.8
X121.85Y-86.5
X121.9Y-35.4
X121.9Y-92.2
X122.05Y-71.15
X122.05Y-101.35
X122.15Y-54.65
X122.2Y-39.85
X122.2Y-116.25
X122.3Y-41.3
X122.35Y-87.8
X122.4Y-84.75
X122.45Y-43.2
X122.5Y-58.45
X122.55Y-60.05
X122.65Y-38.4
X122.65Y-115.1
X122.8Y-78.25
X122.8Y-90.7
X122.8Y-102.1
X122.9Y-92.4
X123.2Y-34.35
X123.2Y-36.2
X123.2Y-45.45
X123.35Y-89.2
X123.46Y-61.85
X123.46Y-64.39
X123.46Y-66.93
X123.46Y-69.47
X123.6Y-44.45
X123.6Y-116.5
X123.65Y-54.7
X123.65Y-87.35
X123.65Y-101.35
X123.7Y-86.1
X123.75Y-39.9
X123.8Y-42.45
X123.8Y-84.9
X123.85Y-78.25
X123.95Y-33.45
X124.15Y-107.45
X124.2Y-108.75
X124.25Y-38.3
X124.25Y-92.45
X124.25Y-114.7
X124.35Y-45.35
X124.35Y-91.4
X124.55Y-115.8
X124.6Y-59.7
X124.6Y-90.3
X124.6Y-111.0
X124.65Y-43.45
X124.65Y-109.9
X124.7Y-41.25
X124.7Y-88.7
X124.75Y-35.1
X124.75Y-44.4
X124.75Y-101.65
X124.8Y-36.5
X124.8Y-58.05
X124.8Y-85.6
X125.05Y-86.95
X125.075Y-56.25
X125.1Y-83.8
X125.25Y-40.1
X125.3Y-33.3
X125.3Y-91.3
X125.35Y-82.6
X125.35Y-117.05
X125.4Y-38.8
X125.4Y-107.4
X125.45Y-112.9
X125.5Y-114.45
X125.55Y-54.5
X125.55Y-108.55
X125.55Y-111.0
X125.6Y-101.25
X125.65Y-45.6
X125.7Y-43.05
X125.85Y-35.0
X125.9Y-44.05
X125.9Y-92.65
X125.9Y-109.65
X125.95Y-89.55
X126.0Y-32.15
X126.0Y-61.85
X126.0Y-64.39
X126.0Y-66.93
X126.0Y-69.47
X126.15Y-104.4
X126.15Y-115.85
X126.2Y-83.2
X126.2Y-85.7
X126.2Y-102.25
X126.25Y-41.65
X126.25Y-71.05
X126.35Y-56.0
X126.35Y-58.3
X126.35Y-60.3
X126.35Y-91.1
X126.4Y-38.3
X126.4Y-87.9
X126.5Y-36.7
X126.5Y-40.25
X126.55Y-112.2
X126.6Y-73.05
X126.6Y-107.45
X126.65Y-44.9
X126.65Y-84.35
X126.65Y-105.95
X126.65Y-108.55
X126.65Y-114.75
X126.7Y-35.35
X126.7Y-110.5
X126.7Y-117.45
X126.75Y-113.7
X126.8Y-43.1
X126.85Y-77.6
X126.85Y-101.45
X126.95Y-33.5
T4
X32.425Y-57.025
X32.425Y-57.875
X32.425Y-58.725
X32.425Y-59.575
X32.425Y-60.425
X32.425Y-61.275
X32.425Y-62.125
X32.425Y-62.975
X32.425Y-87.025
X32.425Y-87.875
X32.425Y-88.725
X32.425Y-89.575
X32.425Y-90.425
X32.425Y-91.275
X32.425Y-92.125
X32.425Y-92.975
X33.775Y-57.025
X33.775Y-57.875
X33.775Y-58.725
X33.775Y-59.575
X33.775Y-60.425
X33.775Y-61.275
X33.775Y-62.125
X33.775Y-62.975
X33.775Y-87.025
X33.775Y-87.875
X33.775Y-88.725
X33.775Y-89.575
X33.775Y-90.425
X33.775Y-91.275
X33.775Y-92.125
X33.775Y-92.975
T6
X32.025Y-82.15
X34.45Y-100.92
X34.45Y-103.46
X34.45Y-106.0
X34.565Y-82.15
X37.105Y-82.15
X39.645Y-82.15
X42.185Y-82.15
X47.25Y-120.75
X123.0Y-50.0
X123.0Y-97.025
T7
X44.85Y-118.35
X44.85Y-123.15
X49.65Y-118.35
X49.65Y-123.15
X120.6Y-47.6
X120.6Y-52.4
X120.6Y-94.625
X120.6Y-99.425
X125.4Y-47.6
X125.4Y-52.4
X125.4Y-94.625
X125.4Y-99.425
T8
X78.25Y-29.337
X83.25Y-29.337
T9
X32.0Y-29.25
X32.0Y-120.75
X123.5Y-29.25
X123.5Y-120.75
T5
X29.815Y-55.675G85X29.015Y-55.675
G05
X29.815Y-64.325G85X29.015Y-64.325
G05
X29.815Y-85.675G85X29.015Y-85.675
G05
X29.815Y-94.325G85X29.015Y-94.325
G05
X33.545Y-55.675G85X32.045Y-55.675
G05
X33.545Y-64.325G85X32.045Y-64.325
G05
X33.545Y-85.675G85X32.045Y-85.675
G05
X33.545Y-94.325G85X32.045Y-94.325
G05
T0
M30
